<svg width="24" height="24" viewBox="0 0 24 24" fill="none" xmlns="http://www.w3.org/2000/svg">
<path d="M2.69229 19.141L3.67948 20.846C3.88461 21.205 4.17945 21.4871 4.52562 21.6923C5.51718 20.4337 6.20725 19.4678 6.59618 18.7948C6.99079 18.1118 7.47581 17.0434 8.05125 15.5897C6.50043 15.3855 5.32525 15.2835 4.52571 15.2835C3.75826 15.2835 2.58308 15.3855 1 15.5897C1 15.9871 1.10257 16.3845 1.3077 16.7436L2.69229 19.141Z" fill="#0066DA"/>
<path d="M19.8589 21.6923C20.2052 21.4871 20.5 21.205 20.705 20.8461L21.1153 20.141L23.0769 16.7436C23.2782 16.3923 23.3843 15.9946 23.3845 15.5897C21.7923 15.3855 20.6193 15.2835 19.8654 15.2835C19.0552 15.2835 17.8821 15.3855 16.3461 15.5897C16.9147 17.0513 17.3934 18.1198 17.7821 18.7948C18.174 19.4759 18.8663 20.4416 19.8589 21.6923Z" fill="#EA4335"/>
<path d="M12.1923 8.41023C13.3395 7.02476 14.1301 5.95635 14.5641 5.20516C14.9136 4.60026 15.2982 3.63441 15.7179 2.3077C15.3717 2.10257 14.9743 2 14.5641 2H9.8205C9.41024 2 9.01291 2.11542 8.66666 2.3077C9.20056 3.82931 9.65367 4.91224 10.0258 5.5564C10.4371 6.26833 11.1593 7.21958 12.1923 8.41023Z" fill="#00832D"/>
<path d="M16.3333 15.5898H8.05126L4.52573 21.6923C4.87181 21.8975 5.26922 22 5.67948 22H18.7051C19.1153 22 19.5128 21.8846 19.8589 21.6922L16.3333 15.5898Z" fill="#2684FC"/>
<path d="M12.1923 8.41025L8.66673 2.3078C8.32047 2.51293 8.02563 2.79492 7.8205 3.15395L1.3077 14.4359C1.10634 14.7872 1.00027 15.1849 1 15.5898H8.05125L12.1923 8.41025Z" fill="#00AC47"/>
<path d="M19.8205 8.79486L16.564 3.15382C16.359 2.7948 16.0641 2.51281 15.7179 2.30768L12.1924 8.41021L16.3333 15.5897H23.3718C23.3718 15.1922 23.2692 14.7949 23.0641 14.4359L19.8205 8.79486Z" fill="#FFBA00"/>
</svg>
