<svg width="24" height="24" viewBox="0 0 24 24" fill="none" xmlns="http://www.w3.org/2000/svg">
<path d="M14.6857 11.5125L6.38397 10.05V20.8567C6.38407 20.9741 6.40729 21.0904 6.45231 21.1988C6.49733 21.3072 6.56326 21.4057 6.64635 21.4887C6.72943 21.5716 6.82804 21.6374 6.93655 21.6822C7.04505 21.7271 7.16132 21.7501 7.27872 21.75H21.6037C21.7212 21.7503 21.8377 21.7274 21.9464 21.6827C22.055 21.6379 22.1538 21.5722 22.2371 21.4892C22.3203 21.4062 22.3864 21.3077 22.4315 21.1991C22.4766 21.0906 22.4999 20.9743 22.5 20.8567V16.875L14.6857 11.5125Z" fill="#185C37"/>
<path d="M14.6857 2.25H7.27872C7.16132 2.2499 7.04505 2.27293 6.93655 2.31776C6.82804 2.3626 6.72943 2.42837 6.64635 2.51132C6.56326 2.59426 6.49733 2.69276 6.45231 2.80119C6.40729 2.90962 6.38407 3.02585 6.38397 3.14325V7.125L14.6857 12L19.0815 13.4625L22.5 12V7.125L14.6857 2.25Z" fill="#21A366"/>
<path d="M6.38397 7.125H14.6857V12H6.38397V7.125Z" fill="#107C41"/>
<path opacity="0.1" d="M12.3255 6.15002H6.38397V18.3375H12.3255C12.5622 18.3363 12.789 18.2419 12.9566 18.0747C13.1242 17.9075 13.2192 17.681 13.221 17.4443V7.04327C13.2192 6.80653 13.1242 6.58002 12.9566 6.41282C12.789 6.24562 12.5622 6.1512 12.3255 6.15002Z" fill="black"/>
<path opacity="0.2" d="M11.8372 6.63751H6.38397V18.825H11.8372C12.074 18.8238 12.3007 18.7294 12.4683 18.5622C12.636 18.395 12.7309 18.1685 12.7327 17.9318V7.53076C12.7309 7.29402 12.636 7.0675 12.4683 6.90031C12.3007 6.73311 12.074 6.63869 11.8372 6.63751Z" fill="black"/>
<path opacity="0.2" d="M11.8372 6.63751H6.38397V17.85H11.8372C12.074 17.8488 12.3007 17.7544 12.4683 17.5872C12.636 17.42 12.7309 17.1935 12.7327 16.9568V7.53076C12.7309 7.29402 12.636 7.0675 12.4683 6.90031C12.3007 6.73311 12.074 6.63869 11.8372 6.63751Z" fill="black"/>
<path opacity="0.2" d="M11.349 6.63751H6.38397V17.85H11.349C11.5857 17.8488 11.8125 17.7544 11.9801 17.5872C12.1477 17.42 12.2427 17.1935 12.2445 16.9568V7.53076C12.2427 7.29402 12.1477 7.0675 11.9801 6.90031C11.8125 6.73311 11.5857 6.63869 11.349 6.63751Z" fill="black"/>
<path d="M2.3955 6.63751H11.349C11.5862 6.63731 11.8137 6.73129 11.9816 6.89878C12.1496 7.06628 12.2441 7.29359 12.2445 7.53076V16.4693C12.2441 16.7064 12.1496 16.9337 11.9816 17.1012C11.8137 17.2687 11.5862 17.3627 11.349 17.3625H2.3955C2.27804 17.3627 2.16168 17.3398 2.05309 17.295C1.9445 17.2502 1.84581 17.1844 1.76264 17.1015C1.67948 17.0185 1.61348 16.92 1.56841 16.8115C1.52334 16.703 1.5001 16.5867 1.5 16.4693V7.53076C1.5001 7.4133 1.52334 7.297 1.56841 7.18853C1.61348 7.08005 1.67948 6.98152 1.76264 6.89856C1.84581 6.81561 1.9445 6.74985 2.05309 6.70506C2.16168 6.66027 2.27804 6.63732 2.3955 6.63751Z" fill="url(#paint0_linear_26_8611)"/>
<path d="M4.27502 14.9048L6.15827 11.9918L4.43327 9.09528H5.81852L6.75977 10.95C6.84677 11.1255 6.90977 11.256 6.93827 11.343H6.95102C7.01252 11.202 7.07777 11.0663 7.14602 10.9335L8.15252 9.09828H9.42752L7.65827 11.9783L9.47252 14.907H8.11577L7.02827 12.8738C6.97778 12.7864 6.93487 12.6948 6.90002 12.6H6.88202C6.85031 12.6923 6.80803 12.7807 6.75602 12.8633L5.63627 14.9048H4.27502Z" fill="white"/>
<path d="M21.6045 2.25H14.6858V7.125H22.5V3.14325C22.4999 3.02579 22.4767 2.90949 22.4316 2.80102C22.3865 2.69254 22.3205 2.59401 22.2374 2.51105C22.1542 2.4281 22.0555 2.36234 21.9469 2.31755C21.8383 2.27276 21.722 2.2498 21.6045 2.25Z" fill="#33C481"/>
<path d="M14.6858 12H22.5V16.875H14.6858V12Z" fill="#107C41"/>
<defs>
<linearGradient id="paint0_linear_26_8611" x1="3.3705" y1="5.93551" x2="10.374" y2="18.0645" gradientUnits="userSpaceOnUse">
<stop stop-color="#18884F"/>
<stop offset="0.5" stop-color="#117E43"/>
<stop offset="1" stop-color="#0B6631"/>
</linearGradient>
</defs>
</svg>
