<svg width="202" height="200" viewBox="0 0 202 200" fill="none" xmlns="http://www.w3.org/2000/svg">
<g clip-path="url(#clip0_2765_162241)">
<path d="M100.599 200C155.827 200 200.599 155.228 200.599 100C200.599 44.7715 155.827 0 100.599 0C45.3702 0 0.598633 44.7715 0.598633 100C0.598633 155.228 45.3702 200 100.599 200Z" fill="url(#paint0_linear_2765_162241)"/>
<mask id="mask0_2765_162241" style="mask-type:luminance" maskUnits="userSpaceOnUse" x="0" y="0" width="201" height="200">
<path d="M100.599 200C155.827 200 200.599 155.228 200.599 100C200.599 44.7715 155.827 0 100.599 0C45.3702 0 0.598633 44.7715 0.598633 100C0.598633 155.228 45.3702 200 100.599 200Z" fill="white"/>
</mask>
<g mask="url(#mask0_2765_162241)">
<path d="M32.8617 151.219H20.0117V177.549H32.8617V151.219Z" fill="#D3D7E9"/>
<path d="M33.6938 178.381H19.1797V150.387H33.6938V178.381ZM20.8438 176.717H32.0297V152.058H20.8438V176.717Z" fill="#B1B8D8"/>
<path d="M181.187 151.219H168.337V177.549H181.187V151.219Z" fill="#D3D7E9"/>
<path d="M182.019 178.381H167.505V150.387H182.019V178.381ZM169.169 176.717H180.355V152.058H169.169V176.717Z" fill="#B1B8D8"/>
<path d="M201.692 130.179H-0.493453C-1.69225 130.179 -2.66406 131.151 -2.66406 132.349V143.492C-2.66406 144.691 -1.69225 145.662 -0.493453 145.662H201.692C202.89 145.662 203.862 144.691 203.862 143.492V132.349C203.862 131.151 202.89 130.179 201.692 130.179Z" fill="#FCFCFD"/>
<path d="M201.692 146.487H-0.493417C-2.15032 146.487 -3.49609 145.141 -3.49609 143.485V132.342C-3.49609 130.685 -2.15032 129.339 -0.493417 129.339H201.692C203.349 129.339 204.694 130.685 204.694 132.342V143.485C204.694 145.141 203.349 146.487 201.692 146.487ZM-0.493417 131.011C-1.23142 131.011 -1.83196 131.611 -1.83196 132.349V143.492C-1.83196 144.23 -1.23142 144.83 -0.493417 144.83H201.692C202.43 144.83 203.03 144.23 203.03 143.492V132.349C203.03 131.611 202.43 131.011 201.692 131.011H-0.493417Z" fill="#B1B8D8"/>
<path d="M195.021 145.655H6.17842C4.97963 145.655 4.00781 146.627 4.00781 147.826V149.041C4.00781 150.24 4.97963 151.212 6.17842 151.212H195.021C196.22 151.212 197.192 150.24 197.192 149.041V147.826C197.192 146.627 196.22 145.655 195.021 145.655Z" fill="#D3D7E9"/>
<path d="M195.022 152.051H6.17846C4.52156 152.051 3.17578 150.705 3.17578 149.049V147.826C3.17578 146.169 4.52156 144.823 6.17846 144.823H195.022C196.678 144.823 198.024 146.169 198.024 147.826V149.049C198.024 150.705 196.678 152.051 195.022 152.051ZM6.17846 146.487C5.44045 146.487 4.83992 147.088 4.83992 147.826V149.049C4.83992 149.787 5.44045 150.387 6.17846 150.387H195.022C195.76 150.387 196.36 149.787 196.36 149.049V147.826C196.36 147.088 195.76 146.487 195.022 146.487H6.17846Z" fill="#B1B8D8"/>
<path d="M100.6 200C155.828 200 200.6 155.228 200.6 100C200.6 44.7715 155.828 0 100.6 0C45.3711 0 0.599609 44.7715 0.599609 100C0.599609 155.228 45.3711 200 100.6 200Z" fill="url(#paint1_linear_2765_162241)"/>
</g>
<path d="M19.1288 21.6265H130.373C133.889 21.6265 136.74 24.4773 136.74 27.9936V106.57C136.74 110.086 133.889 112.937 130.373 112.937H19.1288C15.6125 112.937 12.7617 110.086 12.7617 106.57V27.9936C12.7617 24.4773 15.6125 21.6265 19.1288 21.6265Z" fill="#B1B8D8"/>
<path d="M130.373 23.2906H19.1288C16.5314 23.2906 14.4258 25.3962 14.4258 27.9936V106.57C14.4258 109.167 16.5314 111.273 19.1288 111.273H130.373C132.97 111.273 135.076 109.167 135.076 106.57V27.9936C135.076 25.3962 132.97 23.2906 130.373 23.2906Z" fill="#FCFCFD"/>
<path d="M14.4252 27.9936V97.3663H42.3465V23.2906H19.121C16.5307 23.2906 14.418 25.4034 14.418 27.9936H14.4252Z" fill="#F5F6FA"/>
<path d="M135.908 96.5342H13.5938V98.1984H135.908V96.5342Z" fill="#B1B8D8"/>
<path d="M127.934 28.5507H50.1179C48.9191 28.5507 47.9473 29.5225 47.9473 30.7213V61.3993C47.9473 62.5981 48.9191 63.5699 50.1179 63.5699H127.934C129.133 63.5699 130.105 62.5981 130.105 61.3993V30.7213C130.105 29.5225 129.133 28.5507 127.934 28.5507Z" fill="#F5F6FA"/>
<path d="M70.4927 67.2961H50.1179C48.9191 67.2961 47.9473 68.2679 47.9473 69.4667V89.0962C47.9473 90.295 48.9191 91.2668 50.1179 91.2668H70.4927C71.6915 91.2668 72.6633 90.295 72.6633 89.0962V69.4667C72.6633 68.2679 71.6915 67.2961 70.4927 67.2961Z" fill="#F5F6FA"/>
<path d="M99.2173 67.2961H78.8425C77.6437 67.2961 76.6719 68.268 76.6719 69.4668V89.0963C76.6719 90.2951 77.6437 91.2669 78.8425 91.2669H99.2173C100.416 91.2669 101.388 90.2951 101.388 89.0963V69.4668C101.388 68.268 100.416 67.2961 99.2173 67.2961Z" fill="#F5F6FA"/>
<path d="M127.942 67.2961H107.567C106.368 67.2961 105.396 68.2679 105.396 69.4667V89.0962C105.396 90.295 106.368 91.2668 107.567 91.2668H127.942C129.141 91.2668 130.112 90.295 130.112 89.0962V69.4667C130.112 68.2679 129.141 67.2961 127.942 67.2961Z" fill="#F5F6FA"/>
<path d="M74.7462 107.742C76.4086 107.742 77.7562 106.394 77.7562 104.732C77.7562 103.07 76.4086 101.722 74.7462 101.722C73.0839 101.722 71.7363 103.07 71.7363 104.732C71.7363 106.394 73.0839 107.742 74.7462 107.742Z" fill="#B1B8D8"/>
<path d="M47.3467 130.179C58.9088 120.715 56.6369 112.098 56.6369 112.098H92.8644C92.8644 112.098 90.5852 120.715 102.155 130.179H47.3539H47.3467Z" fill="#F5F6FA"/>
<path d="M104.477 131.011H45.0166L46.8182 129.535C52.5631 124.832 54.7048 120.397 55.4862 117.495C56.3327 114.377 55.8262 112.329 55.8262 112.307L55.5658 111.273H56.6366H93.9494L93.6744 112.315C93.6527 112.394 91.7281 120.57 102.682 129.535L104.484 131.011H104.477ZM49.5749 129.347H99.9113C91.9379 122.039 91.6413 115.433 91.8873 112.93H57.6061C57.8449 115.426 57.5483 122.032 49.5821 129.347H49.5749Z" fill="#B1B8D8"/>
<g opacity="0.35">
<path d="M171.919 127.379L173.25 127.451C172.881 127.487 172.541 127.523 172.216 127.56L171.919 127.379Z" fill="#FCFCFD"/>
<path d="M172.193 127.69L171.434 127.227L173.264 127.328V127.574C173.011 127.603 172.765 127.625 172.526 127.654L172.193 127.69Z" fill="#B1B8D8"/>
</g>
<g opacity="0.35">
<path d="M163.525 159.055L162.989 159.012L163.185 158.954C163.293 158.99 163.402 159.019 163.525 159.055Z" fill="#FCFCFD"/>
<path d="M164.704 159.272L162.323 159.084L163.191 158.816L163.228 158.831C163.336 158.867 163.445 158.896 163.56 158.932L164.704 159.272Z" fill="#B1B8D8"/>
</g>
<path d="M172.381 160.915C171.795 160.915 171.238 160.9 170.703 160.871C165.197 160.582 161.601 159.041 161.456 158.976C161.152 158.845 161.015 158.491 161.145 158.187C161.275 157.883 161.63 157.745 161.933 157.876C161.97 157.89 165.515 159.41 170.818 159.677C175.695 159.923 183.111 159.127 190.73 153.954C191.005 153.766 191.374 153.838 191.562 154.113C191.75 154.388 191.678 154.757 191.403 154.945C184.32 159.757 177.395 160.915 172.381 160.915Z" fill="#B1B8D8"/>
<path d="M91.5838 128.457C91.468 128.457 91.345 128.421 91.2437 128.348C90.976 128.16 90.9036 127.784 91.099 127.516C91.2003 127.371 93.6676 123.898 98.9711 121.41C103.84 119.123 112.118 117.293 123.933 121.525C124.244 121.634 124.411 121.981 124.295 122.292C124.186 122.603 123.839 122.77 123.528 122.654C112.139 118.573 104.202 120.295 99.5499 122.466C94.5069 124.81 92.112 128.175 92.0902 128.204C91.9745 128.37 91.7864 128.457 91.5982 128.457H91.5838Z" fill="#B1B8D8"/>
<path d="M173.25 125.013C173.127 125.013 173.004 124.977 172.902 124.897C166.224 120.114 156.37 117.524 145.155 117.604C134.786 117.676 126.401 119.933 122.696 122.133C122.414 122.299 122.045 122.205 121.871 121.923C121.705 121.641 121.799 121.272 122.081 121.098C126.705 118.349 135.973 116.461 145.148 116.395C145.314 116.395 145.48 116.395 145.647 116.395C156.912 116.395 166.825 119.058 173.604 123.913C173.872 124.108 173.937 124.477 173.742 124.752C173.626 124.919 173.438 125.005 173.257 125.005L173.25 125.013Z" fill="#B1B8D8"/>
<path d="M183.596 122.726C183.582 122.828 183.205 123.197 182.605 123.739C179.798 126.25 172.005 132.443 172.005 132.443L160.653 133.001L158.764 131.734L157.281 130.743C157.281 130.743 157.259 130.729 157.245 130.729C156.963 130.584 156.688 130.446 156.413 130.323C147.882 126.489 146.226 136.01 146.226 136.01C145.502 141.01 138.31 146.234 136.393 148.151C136.19 148.354 136.031 148.593 135.908 148.86C135.749 149.201 135.655 149.591 135.597 150.018C135.271 152.42 136.197 156.009 134.982 158.795C133.708 161.725 129.172 163.57 124.903 161.935C122.334 160.951 120.46 156.038 120.533 149.844C120.547 148.578 120.641 147.435 120.8 146.393C120.909 145.641 121.054 144.939 121.22 144.295C122.443 139.476 124.903 137.711 124.903 137.711L117.776 101.968L117.718 101.671L117.552 100.847L122.609 101.273L139.801 102.735L178.481 106.02C178.481 106.02 183.676 122.176 183.596 122.734V122.726Z" fill="#D3D7E9"/>
<path d="M134.981 158.787C133.708 161.718 129.171 163.563 124.902 161.928C122.334 160.944 120.46 156.031 120.532 149.83C120.547 148.571 120.641 147.421 120.8 146.386C121.878 145.59 124.136 144.606 128.629 144.809C132.934 145.004 135.068 147.522 135.907 148.853C134.873 151.118 136.414 155.503 134.989 158.787H134.981Z" fill="#FCFCFD"/>
<path d="M128.188 163.338C127.031 163.338 125.822 163.136 124.621 162.673C121.626 161.53 119.665 156.364 119.737 149.823C119.846 140.46 124.252 137.19 124.44 137.052C124.802 136.792 125.301 136.879 125.555 137.233C125.808 137.588 125.728 138.087 125.374 138.348C125.316 138.391 121.438 141.372 121.336 149.837C121.264 156.219 123.268 160.437 125.193 161.175C129.056 162.651 133.159 160.965 134.251 158.462C134.953 156.856 134.859 154.909 134.78 153.028C134.678 150.865 134.584 148.817 135.829 147.58C136.219 147.189 136.798 146.683 137.478 146.097C140.257 143.68 144.902 139.635 145.437 135.887C145.473 135.663 146.327 130.982 149.88 129.238C152.036 128.182 154.648 128.45 157.658 130.034C158.049 130.237 158.2 130.721 157.991 131.112C157.781 131.503 157.303 131.655 156.913 131.445C154.387 130.114 152.26 129.853 150.589 130.671C147.767 132.053 147.022 136.097 147.015 136.141C146.392 140.446 141.465 144.736 138.528 147.305C137.876 147.877 137.312 148.369 136.957 148.716C136.219 149.454 136.292 151.161 136.379 152.963C136.465 154.931 136.574 157.159 135.72 159.106C134.686 161.479 131.668 163.338 128.195 163.338H128.188Z" fill="#B1B8D8"/>
<path d="M186.881 162.745C177.15 165.914 169.017 165.639 162.896 163.49C155.284 160.821 150.777 155.257 150.162 149.816C149.272 142.001 152.224 135.837 158.772 131.742C160.451 130.685 162.375 129.766 164.524 128.992C177.692 124.253 177.613 122.075 176.65 119.253L138.687 108.104L117.784 101.968L116.857 101.693C117.147 101.693 117.436 101.679 117.726 101.664C119.433 101.599 121.061 101.462 122.617 101.266C129.606 100.384 135.163 98.2853 140.148 96.0713C148.302 92.4391 154.901 88.4886 163.627 89.0023C173.185 89.5667 178.872 93.8645 182.692 98.7267C187.576 104.942 190.6 115.245 190.6 118.53C190.6 120.925 191.02 126.402 183.329 132.205C175.449 138.152 161.724 135.859 161.782 145.677C161.796 148.332 163.923 150.047 167.114 150.756C172.143 151.87 179.827 150.481 186.085 146.321C203.385 134.838 207.111 156.154 186.889 162.752L186.881 162.745Z" fill="#D3D7E9"/>
<path d="M186.881 162.745C177.149 165.914 169.017 165.639 162.896 163.49C162.946 163.454 162.997 163.425 163.055 163.396L166.086 161.826C167.201 161.247 167.497 159.793 166.709 158.831L166.614 158.715C166.311 158.346 166.166 157.905 166.166 157.471C166.166 156.682 166.643 155.908 167.468 155.611C168.734 155.155 169.176 153.585 168.337 152.529L167.447 151.407C167.287 151.212 167.172 150.988 167.106 150.756C172.135 151.87 179.819 150.474 186.078 146.321C203.377 134.831 207.104 156.154 186.881 162.752V162.745Z" fill="#FCFCFD"/>
<path d="M116.842 101.425C119.867 101.136 122.862 100.716 125.8 100.065C128.737 99.4285 131.617 98.553 134.439 97.5038C137.253 96.4475 140.01 95.2102 142.767 93.9296C145.523 92.6489 148.302 91.3393 151.21 90.2685C154.119 89.2121 157.18 88.3945 160.32 88.2209C161.883 88.1268 163.467 88.1485 165.015 88.3222C165.406 88.3439 165.79 88.409 166.18 88.4596C166.564 88.5175 166.955 88.5609 167.338 88.6333L168.488 88.8576L168.778 88.9155L169.06 88.9878L169.632 89.1325C172.671 89.8995 175.579 91.2742 178.119 93.1337C179.392 94.067 180.557 95.1234 181.628 96.2738C182.163 96.8454 182.677 97.4387 183.162 98.0537C183.415 98.3504 183.632 98.6832 183.871 98.9943L184.218 99.4719L184.544 99.9639C186.28 102.569 187.619 105.376 188.762 108.248C189.326 109.688 189.818 111.15 190.26 112.64C190.694 114.131 191.07 115.628 191.287 117.213C191.309 117.416 191.338 117.611 191.359 117.814L191.388 118.443C191.396 118.653 191.388 118.826 191.388 119.015V119.601C191.388 120.389 191.323 121.2 191.193 121.996C191.077 122.799 190.846 123.58 190.593 124.347C190.441 124.723 190.303 125.1 190.129 125.469L189.862 126.011C189.775 126.192 189.688 126.373 189.58 126.547C188.791 127.943 187.8 129.216 186.678 130.331C186.41 130.627 186.114 130.881 185.824 131.148L185.39 131.546L185.173 131.742L184.942 131.922L184.023 132.66L183.791 132.841L183.545 133.015L183.053 133.362C181.722 134.252 180.282 134.932 178.828 135.504C177.366 136.076 175.883 136.517 174.414 136.937C172.938 137.356 171.469 137.74 170.037 138.181C169.321 138.405 168.619 138.637 167.939 138.912C167.251 139.172 166.6 139.483 165.978 139.838C165.356 140.185 164.798 140.598 164.314 141.075C163.829 141.553 163.424 142.081 163.149 142.689C163.062 142.833 163.019 142.993 162.961 143.152C162.903 143.311 162.838 143.463 162.809 143.629L162.686 144.121L162.613 144.635C162.606 144.722 162.584 144.801 162.577 144.888V145.149L162.548 145.67L162.584 146.14C162.606 146.292 162.65 146.444 162.671 146.596C162.83 147.196 163.149 147.732 163.605 148.188C164.053 148.643 164.625 149.012 165.247 149.302C165.869 149.598 166.549 149.808 167.251 149.96C167.946 150.127 168.669 150.206 169.393 150.264C172.309 150.459 175.29 150.011 178.119 149.15C179.537 148.723 180.926 148.18 182.257 147.544L182.757 147.305L183.249 147.044L183.741 146.784L184.218 146.509L184.696 146.227L185.166 145.93L186.128 145.315C187.445 144.469 188.834 143.731 190.318 143.145C191.801 142.58 193.393 142.161 195.071 142.182C195.903 142.197 196.764 142.32 197.582 142.645C197.987 142.797 198.385 143.007 198.754 143.246C199.116 143.499 199.47 143.781 199.76 144.114C200.056 144.44 200.324 144.801 200.534 145.185C200.65 145.373 200.729 145.576 200.823 145.771C200.896 145.974 200.99 146.176 201.048 146.386C201.308 147.211 201.402 148.072 201.366 148.904C201.308 150.582 200.802 152.174 200.064 153.607C199.326 155.047 198.349 156.335 197.242 157.478C195.013 159.757 192.286 161.45 189.391 162.651C188.668 162.955 187.937 163.223 187.192 163.469C186.454 163.7 185.716 163.924 184.971 164.149C184.218 164.337 183.48 164.554 182.72 164.728L181.584 164.974L181.02 165.097L180.449 165.198C177.402 165.755 174.284 166.03 171.173 165.864C170.391 165.842 169.617 165.748 168.843 165.675C168.069 165.56 167.295 165.473 166.528 165.299C165.761 165.162 165.001 164.959 164.241 164.764L163.12 164.417C162.744 164.301 162.382 164.156 162.013 164.019C159.082 162.904 156.304 161.262 154.047 159.019C152.918 157.897 151.927 156.638 151.131 155.242C150.342 153.846 149.734 152.326 149.452 150.727C149.3 149.917 149.271 149.143 149.206 148.354C149.163 147.963 149.192 147.565 149.185 147.175V146.581C149.185 146.386 149.185 146.183 149.206 145.988C149.279 145.199 149.315 144.403 149.481 143.629L149.582 143.043C149.597 142.942 149.619 142.848 149.633 142.747L149.713 142.457L150.024 141.307C150.067 141.111 150.154 140.931 150.219 140.742L150.429 140.185L150.639 139.628C150.718 139.447 150.812 139.266 150.899 139.085C151.08 138.731 151.247 138.362 151.435 138.015L152.064 136.994C152.954 135.678 153.982 134.44 155.183 133.398C155.747 132.841 156.398 132.393 157.02 131.901C157.332 131.662 157.672 131.459 157.997 131.242C158.33 131.033 158.648 130.794 158.996 130.613C159.683 130.237 160.356 129.817 161.072 129.506L162.136 128.999C162.49 128.84 162.859 128.71 163.221 128.558C163.583 128.413 163.952 128.269 164.306 128.131L165.37 127.74L167.49 126.937C168.192 126.662 168.894 126.387 169.588 126.098C170.283 125.809 170.963 125.505 171.643 125.194C172.982 124.557 174.32 123.884 175.391 122.98C175.644 122.748 175.883 122.509 176.078 122.249C176.274 121.988 176.404 121.706 176.484 121.395C176.643 120.78 176.52 120.056 176.353 119.318C176.317 119.174 176.411 119.029 176.556 119C176.679 118.971 176.809 119.036 176.86 119.152C177.019 119.507 177.171 119.868 177.279 120.266C177.388 120.664 177.439 121.098 177.395 121.547C177.359 121.996 177.2 122.43 176.99 122.813C176.78 123.197 176.512 123.537 176.23 123.841C175.659 124.448 175.022 124.94 174.356 125.382C173.698 125.823 173.018 126.214 172.33 126.576C171.643 126.937 170.941 127.277 170.239 127.596C169.885 127.755 169.538 127.907 169.183 128.066L168.119 128.507L167.049 128.934L165.971 129.339L164.892 129.73C164.538 129.86 164.198 129.998 163.851 130.135C163.503 130.273 163.156 130.403 162.816 130.548L161.803 131.011C161.116 131.3 160.486 131.676 159.835 132.024L159.589 132.154C159.509 132.197 159.437 132.255 159.357 132.299L158.894 132.595C158.59 132.798 158.265 132.986 157.975 133.203C157.404 133.659 156.789 134.064 156.268 134.578C155.154 135.533 154.228 136.662 153.417 137.863L152.846 138.789C152.672 139.107 152.52 139.44 152.361 139.758C152.281 139.925 152.194 140.084 152.122 140.243L151.934 140.75L151.739 141.256C151.681 141.43 151.601 141.589 151.558 141.77L151.268 142.819L151.196 143.079C151.174 143.166 151.167 143.26 151.145 143.347L151.051 143.883C150.899 144.592 150.863 145.33 150.798 146.053C150.776 146.234 150.784 146.415 150.784 146.603V147.153C150.784 147.522 150.762 147.884 150.805 148.253C150.863 148.983 150.899 149.736 151.03 150.423C151.276 151.827 151.811 153.18 152.52 154.432C153.236 155.683 154.141 156.841 155.168 157.861C157.237 159.916 159.82 161.45 162.577 162.499C162.924 162.622 163.265 162.76 163.619 162.868L164.675 163.194C165.392 163.375 166.108 163.57 166.839 163.7C167.562 163.859 168.3 163.946 169.031 164.055C169.769 164.12 170.507 164.214 171.252 164.236C174.226 164.395 177.222 164.127 180.159 163.592L180.709 163.498L181.259 163.382L182.359 163.143C183.089 162.977 183.813 162.767 184.537 162.586C185.253 162.369 185.976 162.152 186.685 161.928C187.387 161.689 188.089 161.443 188.769 161.153C191.504 160.025 194.051 158.433 196.084 156.349C197.097 155.307 197.98 154.135 198.631 152.862C199.282 151.595 199.709 150.206 199.752 148.832C199.81 147.464 199.427 146.104 198.566 145.17C197.712 144.223 196.395 143.774 195.028 143.76C193.653 143.738 192.235 144.092 190.882 144.613C189.529 145.149 188.219 145.843 186.975 146.646L186.013 147.261L185.513 147.573L185.007 147.869L184.5 148.166L183.979 148.441L183.458 148.716L182.93 148.969C181.519 149.642 180.058 150.213 178.56 150.669C175.572 151.574 172.432 152.058 169.255 151.849C168.46 151.784 167.671 151.689 166.882 151.509C166.094 151.335 165.312 151.096 164.552 150.742C163.8 150.387 163.069 149.931 162.447 149.302C161.825 148.68 161.333 147.869 161.108 146.994C161.065 146.777 161.007 146.552 160.978 146.328L160.935 145.662L160.956 145.047L160.971 144.736C160.978 144.635 161 144.526 161.007 144.425L161.094 143.803L161.246 143.188C161.289 142.978 161.369 142.783 161.441 142.58C161.514 142.378 161.579 142.175 161.687 141.987C162.042 141.205 162.57 140.504 163.17 139.91C163.771 139.317 164.451 138.825 165.16 138.427C165.869 138.022 166.593 137.682 167.331 137.4C168.062 137.103 168.807 136.857 169.545 136.633C171.021 136.177 172.504 135.786 173.958 135.374C175.413 134.961 176.853 134.527 178.235 133.992C179.616 133.449 180.948 132.82 182.149 132.017L182.59 131.705L182.814 131.546L183.032 131.373L183.9 130.678L184.117 130.504L184.319 130.316L184.725 129.94C184.992 129.694 185.275 129.448 185.521 129.18C186.562 128.146 187.46 126.988 188.169 125.736C188.27 125.584 188.342 125.418 188.422 125.259L188.661 124.774C188.813 124.448 188.936 124.116 189.066 123.783C189.283 123.103 189.493 122.422 189.594 121.713C189.71 121.004 189.768 120.295 189.768 119.557V119C189.768 118.812 189.768 118.602 189.768 118.436L189.746 117.922C189.732 117.748 189.703 117.568 189.681 117.387C189.493 115.954 189.124 114.485 188.704 113.053C188.277 111.62 187.8 110.195 187.25 108.798C186.15 106.013 184.848 103.292 183.198 100.825L182.894 100.362L182.568 99.9132C182.344 99.6166 182.142 99.3127 181.903 99.0305C181.44 98.4517 180.955 97.8946 180.456 97.3519C179.45 96.2738 178.35 95.2753 177.164 94.4071C174.79 92.6706 172.092 91.39 169.219 90.6664L168.684 90.529L168.416 90.4566L168.141 90.4059L167.049 90.1889C166.687 90.1165 166.318 90.0804 165.949 90.0225C165.58 89.9718 165.218 89.9139 164.842 89.8922C163.359 89.7331 161.883 89.7041 160.414 89.7982C160.045 89.8344 159.676 89.8488 159.314 89.8922L158.214 90.0369L157.122 90.2323C156.76 90.2974 156.398 90.3915 156.036 90.4711C154.597 90.8184 153.171 91.267 151.775 91.7951C148.975 92.8515 146.247 94.1756 143.476 95.4562C142.094 96.1002 140.705 96.7441 139.294 97.3447C137.876 97.938 136.45 98.5168 134.996 99.0377C134.634 99.168 134.265 99.2837 133.903 99.414C133.542 99.537 133.173 99.66 132.804 99.7685L131.697 100.109L130.575 100.412C130.206 100.514 129.83 100.608 129.454 100.695L128.325 100.962L127.189 101.187L126.617 101.295L126.046 101.389C123 101.874 119.91 102.084 116.842 101.939C116.698 101.939 116.582 101.809 116.589 101.657C116.589 101.519 116.698 101.418 116.828 101.404L116.842 101.425Z" fill="#B1B8D8"/>
<path d="M159.176 109.269C157.172 110.26 155.732 111.902 154.878 113.841C154.017 115.773 153.72 117.944 153.814 120.071C153.923 122.198 154.422 124.311 155.305 126.235C155.746 127.198 156.274 128.117 156.889 128.97C157.512 129.824 158.221 130.606 158.995 131.315C159.321 131.619 159.349 132.125 159.046 132.451C158.756 132.769 158.257 132.798 157.931 132.516C157.041 131.749 156.253 130.866 155.565 129.918C154.878 128.97 154.299 127.95 153.836 126.879C153.366 125.809 153.011 124.694 152.773 123.558C152.534 122.422 152.396 121.265 152.389 120.107C152.36 117.792 152.801 115.448 153.858 113.349C154.379 112.307 155.11 111.345 156.014 110.593C156.918 109.847 157.996 109.312 159.118 109.131C159.154 109.131 159.19 109.153 159.198 109.189C159.198 109.218 159.183 109.247 159.161 109.261L159.176 109.269Z" fill="#B1B8D8"/>
<path d="M104.579 98.0754C102.054 96.4185 90.4773 89.0457 88.2561 90.9486C84.3634 94.2841 88.285 106.244 89.2401 108.95" fill="#D3D7E9"/>
<path d="M89.2393 109.753C88.9065 109.753 88.6026 109.551 88.4869 109.218C87.2496 105.701 83.5306 93.9513 87.7344 90.3408C88.5881 89.61 90.3753 89.1904 96.6701 92.468C100.295 94.3492 103.971 96.7224 105.012 97.4098C105.381 97.6485 105.483 98.1478 105.244 98.5168C105.005 98.8858 104.506 98.9871 104.137 98.7483C103.11 98.0754 99.4846 95.7384 95.932 93.8934C89.9556 90.7894 88.8776 91.4768 88.7763 91.5636C86.0485 93.9079 87.7271 102.25 89.9918 108.69C90.1365 109.109 89.9195 109.565 89.4998 109.71C89.413 109.739 89.3189 109.753 89.2321 109.753H89.2393Z" fill="#B1B8D8"/>
<path d="M89.5722 94.5301C89.5722 94.5301 89.0006 94.3275 89.0368 95.695C89.1019 98.0393 90.1221 103.914 92.8354 106.034C92.8354 106.034 96.8221 100.043 97.9074 99.3416C98.9854 98.647 96.6556 97.9018 95.9828 97.048C95.3171 96.1943 90.0063 94.3131 89.5722 94.5301Z" fill="#FCFCFD"/>
<path d="M97.9009 99.3417C97.2714 99.7468 95.6579 101.954 94.4135 103.719C92.8579 101.056 92.2284 97.0915 92.1777 95.2682C92.1777 95.2464 92.1777 95.2247 92.1777 95.2103C93.784 95.7819 95.6073 96.5778 95.9763 97.0553C96.642 97.9091 98.979 98.6471 97.9009 99.3489V99.3417Z" fill="#D3D7E9"/>
<path d="M89.7247 93.9585C90.5929 94.1394 91.4322 94.3781 92.2643 94.6459C93.0964 94.9136 93.9212 95.2174 94.7316 95.572C96.3451 96.2738 97.9151 97.1493 99.3043 98.3431L99.9193 98.9364L99.2537 99.414C98.9715 99.6165 98.6459 99.8843 98.3565 100.137C98.0598 100.398 97.7632 100.673 97.481 100.948C96.9094 101.512 96.3668 102.106 95.8458 102.721C95.3321 103.343 94.8329 103.979 94.3698 104.645C94.131 104.971 93.914 105.318 93.6897 105.651C93.4726 105.991 93.2628 106.338 93.0457 106.686V106.7C92.9517 106.845 92.7635 106.888 92.6188 106.801C92.4814 106.714 92.4379 106.541 92.5103 106.403C92.6984 106.034 92.8793 105.665 93.0819 105.296C93.2845 104.935 93.4726 104.566 93.6969 104.211C94.1166 103.487 94.5796 102.8 95.0572 102.113C95.5419 101.433 96.0556 100.774 96.6128 100.137C96.8877 99.8191 97.1699 99.508 97.4665 99.2041C97.7704 98.893 98.0598 98.6108 98.4144 98.3069L98.3565 99.3778C97.2061 98.2201 95.7952 97.2795 94.2974 96.4909C93.5522 96.0929 92.778 95.7384 91.9894 95.42C91.2007 95.1017 90.3903 94.805 89.5872 94.5735H89.58C89.4136 94.5229 89.3195 94.3492 89.3702 94.19C89.4136 94.0308 89.5727 93.944 89.7319 93.973L89.7247 93.9585Z" fill="#B1B8D8"/>
<path d="M124.324 141.285C126.075 140.938 127.724 140.265 129.28 139.433C130.488 138.76 131.617 137.964 132.644 137.038C133.39 136.445 136.161 132.603 138.049 132.357C139.091 132.219 139.967 132.053 140.155 131.525C140.336 131.025 139.981 130.309 139.547 129.376C139.2 128.623 139.055 128.153 139.004 127.943C138.99 127.892 139.033 127.842 139.077 127.863C139.619 128.124 142.094 129.231 142.21 128.001C142.275 127.321 141.146 125.288 140.726 123.197C139.511 117.126 139.171 115.925 139.171 115.925C139.163 115.889 138.049 111.229 136.4 108.046C137.412 105 140.683 92.3378 136.566 89.2772C134.214 87.5263 126.089 93.4231 123.687 95.2464C120.641 93.5895 116.437 92.3668 112.617 92.2799C111.843 92.2582 111.09 92.2727 110.352 92.3161C110.33 92.3161 110.316 92.3161 110.294 92.3161C107.516 92.4753 105.078 93.3073 102.726 94.2045C93.5806 97.7282 88.8487 106.447 88.8487 106.447C87.7127 108.559 86.8083 110.477 86.1499 112.423C85.8243 113.378 85.5566 114.341 85.3468 115.346C85.3468 115.346 85.3468 115.361 85.3395 115.397V115.346C85.3395 115.346 84.7245 118.248 83.7622 124.362C83.4294 126.474 82.3875 128.544 82.4816 129.224C82.648 130.446 85.0791 129.231 85.6072 128.956C85.6507 128.934 85.6941 128.978 85.6868 129.028C85.6434 129.238 85.5204 129.716 85.2021 130.483C84.8041 131.43 84.4858 132.168 84.6811 132.653C84.8909 133.174 85.7881 133.276 86.83 133.124C88.3929 132.892 89.5143 134.556 89.5143 134.556C89.688 134.809 90.3464 135.49 90.3536 135.49C93.2261 138.232 96.7714 139.852 101.315 141.155C101.315 141.155 112.356 143.651 124.331 141.271L124.324 141.285Z" fill="#D3D7E9"/>
<path d="M115.981 131.879C115.749 135.374 112.001 136.264 107.472 135.967C102.943 135.67 99.3396 134.303 99.5711 130.801C99.8026 127.306 103.5 124.195 108.029 124.492C112.559 124.788 116.212 128.377 115.981 131.879Z" fill="#FCFCFD"/>
<path d="M116.842 121.988C117.32 123.037 117.899 124.058 118.644 124.752C119.389 125.461 120.272 125.765 121.285 125.678C121.784 125.642 122.262 125.534 122.681 125.317C123.101 125.107 123.463 124.781 123.759 124.376C124.353 123.558 124.635 122.437 124.671 121.287C124.671 121.135 124.801 121.012 124.946 121.019C125.062 121.019 125.163 121.098 125.192 121.207C125.568 122.415 125.532 123.812 124.881 125.063C124.555 125.686 124.049 126.243 123.427 126.619C122.804 127.002 122.095 127.198 121.408 127.256C120.728 127.328 119.975 127.256 119.295 126.981C118.608 126.713 118.029 126.243 117.588 125.715C117.146 125.179 116.842 124.579 116.633 123.964C116.43 123.349 116.3 122.726 116.3 122.075C116.3 121.923 116.423 121.807 116.568 121.807C116.676 121.807 116.77 121.873 116.814 121.967V121.988H116.842Z" fill="#B1B8D8"/>
<path d="M92.7344 119.876C92.937 120.946 93.2409 122.01 93.7618 122.813C94.2828 123.624 95.0063 124.101 95.9469 124.26C96.41 124.347 96.8658 124.362 97.2999 124.26C97.7268 124.166 98.132 123.964 98.4938 123.667C99.2245 123.066 99.7527 122.119 100.064 121.069C100.107 120.917 100.259 120.838 100.397 120.881C100.505 120.917 100.585 121.012 100.592 121.127C100.664 122.328 100.31 123.609 99.4127 124.615C98.9641 125.114 98.3635 125.512 97.6979 125.715C97.0322 125.924 96.3231 125.932 95.6792 125.83C95.0353 125.736 94.3479 125.49 93.7908 125.071C93.2192 124.658 92.7923 124.087 92.5101 123.493C92.2279 122.893 92.0905 122.263 92.047 121.655C92.0109 121.04 92.047 120.44 92.2062 119.839C92.2424 119.695 92.3943 119.608 92.539 119.651C92.6403 119.68 92.7127 119.767 92.7344 119.861V119.883V119.876Z" fill="#B1B8D8"/>
<g opacity="0.3">
<path d="M103.551 131.373C104.926 132.219 106.322 131.597 106.952 130.765C106.952 130.765 108.29 132.762 110.41 131.713C111.742 131.061 111.206 129.209 111.206 129.209L103.153 129.072C103.153 129.072 102.48 130.714 103.544 131.373H103.551Z" fill="#B1B8D8"/>
</g>
<path d="M103.464 128.493C103.464 128.493 102.841 130.012 103.825 130.613C105.092 131.394 106.365 130.367 106.951 129.6C106.951 129.6 108.297 131.771 110.156 130.931C111.401 130.367 110.894 128.623 110.894 128.623" fill="#FCFCFD"/>
<path d="M103.544 128.529C103.544 129.028 103.573 129.52 103.739 129.839C103.826 129.998 103.92 130.092 104.043 130.157C104.087 130.193 104.203 130.229 104.275 130.266C104.362 130.28 104.441 130.323 104.528 130.331C104.861 130.396 105.223 130.316 105.584 130.128C105.946 129.94 106.286 129.643 106.547 129.296L106.966 128.732L107.372 129.332C107.487 129.499 107.647 129.701 107.813 129.86C107.979 130.027 108.167 130.164 108.356 130.287C108.739 130.504 109.13 130.62 109.506 130.548L109.651 130.526C109.701 130.512 109.745 130.497 109.795 130.475C109.839 130.461 109.897 130.446 109.94 130.432C109.976 130.41 110.02 130.396 110.056 130.381C110.201 130.302 110.309 130.186 110.41 130.02C110.613 129.694 110.714 129.188 110.801 128.638C110.808 128.58 110.852 128.551 110.902 128.558C110.924 128.558 110.946 128.572 110.96 128.594C111.141 128.84 111.25 129.115 111.315 129.412C111.373 129.708 111.373 130.041 111.271 130.374C111.17 130.707 110.931 131.033 110.628 131.25L110.396 131.394C110.316 131.438 110.244 131.459 110.164 131.496C110.085 131.525 110.013 131.553 109.933 131.582L109.68 131.633C109.513 131.676 109.34 131.662 109.166 131.669C109 131.655 108.826 131.633 108.66 131.59C108.327 131.51 108.037 131.351 107.777 131.177C107.516 130.996 107.292 130.794 107.082 130.577C106.872 130.352 106.699 130.135 106.518 129.86L107.343 129.897C106.995 130.338 106.597 130.721 106.098 131.033C105.845 131.184 105.563 131.307 105.259 131.373C104.955 131.445 104.615 131.445 104.297 131.373C104.137 131.344 103.993 131.279 103.841 131.213L103.638 131.098C103.638 131.098 103.573 131.061 103.537 131.033L103.436 130.946C103.161 130.721 102.973 130.381 102.922 130.063C102.864 129.745 102.907 129.441 102.994 129.18C103.081 128.913 103.204 128.674 103.378 128.464C103.407 128.428 103.465 128.421 103.501 128.449C103.522 128.464 103.53 128.493 103.53 128.515L103.544 128.529Z" fill="#B1B8D8"/>
<g opacity="0.3">
<path d="M110.158 130.931C108.305 131.778 106.952 129.6 106.952 129.6C106.374 130.367 105.1 131.394 103.827 130.613C103.183 130.215 103.494 129.093 103.595 128.594C103.667 128.855 103.79 129.361 103.942 129.593C104.557 130.49 106.077 128.884 106.656 128.117C106.656 128.117 108.472 131.076 110.15 129.926C110.621 129.607 110.628 128.942 110.715 128.529C110.802 129.043 111.084 130.504 110.143 130.924L110.158 130.931Z" fill="#B1B8D8"/>
</g>
<path d="M107.046 127.06C107.032 127.256 107.032 127.466 107.032 127.668C107.032 127.871 107.046 128.073 107.068 128.269C107.09 128.464 107.119 128.659 107.169 128.833C107.22 129.007 107.285 129.166 107.357 129.274C107.546 129.549 107.473 129.933 107.191 130.121C106.916 130.309 106.533 130.237 106.344 129.955C106.316 129.911 106.287 129.86 106.272 129.81L106.258 129.759C106.164 129.477 106.135 129.216 106.127 128.97C106.12 128.724 106.142 128.493 106.164 128.261C106.193 128.03 106.229 127.813 106.279 127.589C106.33 127.371 106.381 127.162 106.453 126.937C106.504 126.778 106.67 126.691 106.829 126.735C106.967 126.778 107.054 126.908 107.039 127.046V127.06H107.046Z" fill="#B1B8D8"/>
<path d="M110.381 126.525C110.215 127.48 108.326 128.03 106.952 128.023C105.917 128.023 104.267 127.321 104.274 126.286C104.282 125.469 105.215 124.89 107.682 125.114C109.701 125.295 110.49 125.895 110.381 126.532V126.525Z" fill="#B1B8D8"/>
<g opacity="0.6">
<path d="M107.602 125.888C107.638 126.062 107.19 126.264 106.828 126.264C106.625 126.264 105.895 126.25 105.851 126.062C105.808 125.874 106.018 125.7 106.69 125.642C107.305 125.592 107.559 125.715 107.602 125.888Z" fill="#FCFCFD"/>
</g>
<path d="M120.786 97.5111C123.196 95.6878 134.229 87.5263 136.574 89.27C140.691 92.3306 136.943 106.324 136.183 109.088" fill="#D3D7E9"/>
<path d="M135.51 92.9383C135.51 92.9383 136.067 92.6996 136.125 94.0598C136.226 96.4041 135.611 102.337 133.05 104.631C133.05 104.631 128.658 98.9292 127.529 98.307C126.4 97.6847 128.679 96.7876 129.287 95.8904C129.895 94.9932 135.061 92.7502 135.51 92.9311V92.9383Z" fill="#FCFCFD"/>
<path d="M127.537 98.3142C128.195 98.676 129.953 100.76 131.314 102.438C132.681 99.6745 133.036 95.6733 132.956 93.85C132.956 93.8283 132.956 93.8066 132.956 93.7921C131.393 94.4722 129.635 95.3911 129.295 95.8976C128.687 96.7948 126.408 97.6992 127.537 98.3142Z" fill="#D3D7E9"/>
<path d="M135.502 92.9673C134.713 93.2567 133.925 93.604 133.165 93.9802C132.398 94.3565 131.653 94.7617 130.937 95.2102C129.504 96.1002 128.158 97.1349 127.087 98.3649L126.957 97.3013C127.341 97.5834 127.644 97.8439 127.97 98.1333C128.288 98.4155 128.592 98.7049 128.889 99.0088C129.482 99.6093 130.039 100.232 130.575 100.876C131.096 101.527 131.609 102.185 132.072 102.88C132.318 103.22 132.528 103.574 132.76 103.922C132.984 104.276 133.187 104.631 133.404 104.985C133.491 105.13 133.447 105.318 133.302 105.405C133.165 105.484 132.991 105.448 132.897 105.325V105.311C132.651 104.978 132.42 104.645 132.174 104.32C131.921 104.001 131.689 103.668 131.421 103.365C130.915 102.728 130.372 102.134 129.815 101.548C129.251 100.97 128.672 100.42 128.064 99.8988C127.76 99.6383 127.449 99.3851 127.138 99.1463C126.827 98.9148 126.487 98.6687 126.19 98.4879L125.488 98.061L126.06 97.4243C127.362 96.1364 128.874 95.1596 130.43 94.342C131.211 93.9368 132.015 93.5751 132.825 93.2495C133.643 92.9239 134.46 92.6345 135.314 92.3885C135.48 92.345 135.647 92.4391 135.697 92.5983C135.741 92.7575 135.661 92.9166 135.509 92.9745H135.502V92.9673Z" fill="#B1B8D8"/>
<path d="M113.311 143.123C106.438 143.123 101.438 142.023 101.134 141.951L101.091 141.936C95.932 140.46 92.5531 138.709 89.8036 136.083C89.6517 135.931 89.0512 135.309 88.8558 135.019C88.8486 135.005 87.9876 133.775 86.9529 133.927C84.9198 134.223 84.1962 133.572 83.9502 132.972C83.6391 132.212 83.9719 131.394 84.3988 130.36C83.5595 130.627 82.8939 130.635 82.4236 130.389C82.0256 130.179 81.7651 129.81 81.7 129.339C81.6349 128.833 81.852 128.175 82.1848 127.183C82.467 126.33 82.8215 125.273 82.9879 124.238C83.8923 118.494 84.5146 115.527 84.5797 115.209C84.5797 115.18 84.5869 115.158 84.5869 115.158C84.7968 114.16 85.0645 113.176 85.4118 112.163C86.034 110.318 86.8805 108.436 88.1612 106.063C88.3638 105.694 93.1391 97.0408 102.451 93.452C104.672 92.5982 107.284 91.6793 110.236 91.5129C110.265 91.5129 110.301 91.5129 110.345 91.5129C111.09 91.4695 111.871 91.455 112.653 91.4768C116.227 91.5636 120.38 92.6344 123.629 94.2985C128.506 90.6375 134.641 86.8244 137.065 88.6333C141.84 92.1858 137.977 105.694 137.282 107.966C138.802 111.034 139.843 115.209 139.966 115.708C140.003 115.838 140.364 117.198 141.536 123.03C141.739 124.05 142.137 125.099 142.463 125.939C142.832 126.916 143.078 127.56 143.034 128.073C142.991 128.551 142.752 128.934 142.361 129.151C141.898 129.412 141.233 129.433 140.386 129.202C140.856 130.215 141.225 131.018 140.943 131.792C140.567 132.834 139.192 133.015 138.187 133.145C137.101 133.29 135.249 135.388 134.258 136.517C133.787 137.052 133.447 137.436 133.194 137.646C132.167 138.579 130.98 139.418 129.699 140.135C127.898 141.104 126.205 141.734 124.512 142.074C120.561 142.862 116.726 143.123 113.348 143.123H113.311ZM101.503 140.395C102.046 140.511 112.754 142.768 124.164 140.504C125.698 140.2 127.247 139.621 128.896 138.731C130.047 138.087 131.118 137.327 132.065 136.481L132.167 136.365L132.225 136.343C132.398 136.177 132.717 135.815 133.028 135.461C134.735 133.521 136.399 131.763 137.948 131.561C138.758 131.452 139.25 131.344 139.409 131.221C139.417 130.989 139.105 130.316 138.874 129.824L138.823 129.708C138.447 128.898 138.288 128.37 138.23 128.131C138.15 127.806 138.259 127.458 138.519 127.248C138.773 127.039 139.127 126.995 139.424 127.14C140.335 127.574 141.044 127.755 141.385 127.769C141.312 127.48 141.11 126.952 140.943 126.51C140.603 125.613 140.176 124.506 139.945 123.349C138.758 117.437 138.411 116.193 138.404 116.142L138.389 116.084C138.389 116.084 137.282 111.49 135.69 108.408L135.538 108.111L135.647 107.793C137.174 103.22 139.395 92.3812 136.096 89.9212C134.887 89.024 129.989 91.4768 124.172 95.8903L123.759 96.2015L123.303 95.9554C120.207 94.2696 116.097 93.1698 112.595 93.083C111.85 93.0613 111.112 93.0758 110.395 93.1192H110.345C107.61 93.2711 105.229 94.1104 103.023 94.957C94.2751 98.3287 89.6083 106.751 89.5649 106.837C88.3348 109.124 87.5173 110.933 86.924 112.691C86.5984 113.639 86.3451 114.565 86.1498 115.52V115.571H86.1425C86.0629 115.947 85.4552 118.877 84.5725 124.506C84.3916 125.671 84.0081 126.8 83.7042 127.704C83.5523 128.146 83.3786 128.681 83.3135 128.978C83.6536 128.949 84.3554 128.739 85.2453 128.269C85.542 128.117 85.8965 128.146 86.157 128.341C86.4247 128.544 86.5477 128.884 86.4826 129.216C86.4319 129.455 86.2945 129.991 85.9544 130.815L85.9038 130.931C85.7012 131.423 85.4262 132.074 85.4335 132.335C85.5709 132.393 85.9689 132.472 86.7286 132.357C88.7617 132.06 90.1365 134.05 90.1871 134.136C90.2667 134.259 90.6791 134.701 90.9251 134.947C93.472 137.378 96.641 139.006 101.518 140.41L101.503 140.395Z" fill="#B1B8D8"/>
<path d="M124.505 156.812C124.678 157.724 124.903 158.628 125.185 159.496C125.329 159.923 125.489 160.35 125.677 160.748C125.865 161.139 126.075 161.515 126.314 161.812C126.581 162.137 126.531 162.615 126.205 162.883C125.879 163.15 125.402 163.1 125.134 162.774C125.091 162.716 125.055 162.658 125.026 162.593L125.011 162.564C124.794 162.051 124.678 161.559 124.591 161.074C124.505 160.589 124.468 160.111 124.44 159.634C124.389 158.686 124.418 157.745 124.49 156.812H124.505Z" fill="#B1B8D8"/>
<path d="M130.185 156.371C130.525 157.196 130.901 157.999 131.306 158.78C131.711 159.554 132.153 160.321 132.659 160.951C132.92 161.276 132.869 161.754 132.536 162.014C132.21 162.275 131.733 162.224 131.472 161.891C131.429 161.833 131.393 161.776 131.364 161.71C130.995 160.799 130.785 159.916 130.604 159.026C130.431 158.143 130.293 157.254 130.192 156.371H130.185Z" fill="#B1B8D8"/>
<path d="M108.022 85.2181L108.457 83.3297L116.828 76.6587L116.85 76.5502L110.555 75.1103L111.119 72.6431L121.053 74.915L120.59 76.9409L112.566 83.5468L112.545 83.6553L118.955 85.1168L118.391 87.5841L108.03 85.2181H108.022Z" fill="#B1B8D8"/>
<path d="M116.915 70.2409L116.517 67.5494L124.057 54.5402L124.035 54.3882L115.063 55.7268L114.542 52.2104L128.702 50.0977L129.136 52.9918L122.009 65.7405L122.031 65.8925L131.162 64.5322L131.683 68.0486L116.915 70.2481V70.2409Z" fill="#B1B8D8"/>
</g>
<defs>
<linearGradient id="paint0_linear_2765_162241" x1="100.599" y1="200" x2="100.599" y2="0" gradientUnits="userSpaceOnUse">
<stop stop-color="#F5F6FA"/>
<stop offset="1" stop-color="#D3D7E9"/>
</linearGradient>
<linearGradient id="paint1_linear_2765_162241" x1="100.6" y1="200" x2="100.6" y2="0" gradientUnits="userSpaceOnUse">
<stop stop-color="#F5F6FA"/>
<stop offset="0.04" stop-color="#F5F6FA" stop-opacity="0.9604"/>
<stop offset="0.09" stop-color="#F5F6FA" stop-opacity="0.8464"/>
<stop offset="0.15" stop-color="#F5F6FA" stop-opacity="0.6889"/>
<stop offset="0.21" stop-color="#F5F6FA" stop-opacity="0.4761"/>
<stop offset="0.27" stop-color="#F5F6FA" stop-opacity="0.2704"/>
<stop offset="0.33" stop-color="#F5F6FA" stop-opacity="0.0961"/>
<stop offset="0.39" stop-color="#F5F6FA" stop-opacity="0.01"/>
<stop offset="0.41" stop-color="#F5F6FA" stop-opacity="0"/>
</linearGradient>
<clipPath id="clip0_2765_162241">
<rect width="200.803" height="200" fill="white" transform="translate(0.598633)"/>
</clipPath>
</defs>
</svg>
