<svg width="36" height="36" viewBox="0 0 36 36" fill="none" xmlns="http://www.w3.org/2000/svg">
<rect width="36" height="36" rx="18" fill="#FAD614"/>
<path d="M25.0862 22.9868L21.0086 18.0014L25.2582 12.8055H25.2516L26.8195 10.8918C26.9579 10.7224 27.0456 10.517 27.0724 10.2994C27.0992 10.0818 27.0641 9.86096 26.971 9.6627C26.878 9.46444 26.731 9.29688 26.547 9.17955C26.363 9.06222 26.1497 8.99995 25.932 9H9.6831C9.50045 9.00025 9.32536 9.07343 9.19621 9.20347C9.06706 9.33352 8.99439 9.50983 8.99414 9.69374V26.3053C8.99414 26.4894 9.0667 26.6659 9.19587 26.7962C9.32505 26.9264 9.50029 26.9997 9.6831 27H25.9329C26.1507 26.9998 26.3639 26.9374 26.5478 26.8199C26.7317 26.7025 26.8787 26.5348 26.9717 26.3365C27.0647 26.1383 27.0999 25.9175 27.0731 25.6998C27.0463 25.4822 26.9587 25.2767 26.8205 25.1073L25.0853 22.9859L25.0862 22.9868ZM10.6533 25.3283V10.6707H24.8506L19.9319 16.6848L18.0712 15.0581C17.9634 14.9261 17.8279 14.8199 17.6744 14.7469C17.521 14.6739 17.3534 14.6361 17.1837 14.6361H14.0563V16.3116H16.9433L18.8571 17.9947L17.1143 19.4817H14.2283V21.1525H17.3566C17.5261 21.1525 17.6935 21.1147 17.8468 21.0419C18.0001 20.9692 18.1354 20.8631 18.2432 20.7314L19.9347 19.3162L24.8515 25.3283H10.6533Z" fill="#202452"/>
</svg>
