<svg width="14" height="16" viewBox="0 0 14 16" fill="none" xmlns="http://www.w3.org/2000/svg">
<path d="M5.13331 12.8C4.69331 12.8 4.31651 12.6435 4.00291 12.3304C3.68931 12.0173 3.53278 11.6405 3.53331 11.2V1.6C3.53331 1.16 3.69011 0.783201 4.00371 0.469601C4.31731 0.156001 4.69385 -0.000531975 5.13331 1.35823e-06H12.3333C12.7733 1.35823e-06 13.1501 0.156801 13.4637 0.470401C13.7773 0.784001 13.9338 1.16053 13.9333 1.6V11.2C13.9333 11.64 13.7765 12.0168 13.4629 12.3304C13.1493 12.644 12.7728 12.8005 12.3333 12.8H5.13331ZM5.13331 11.2H12.3333V1.6H5.13331V11.2ZM1.93331 16C1.49331 16 1.11651 15.8435 0.802914 15.5304C0.489314 15.2173 0.332781 14.8405 0.333314 14.4V4C0.333314 3.77333 0.410114 3.5832 0.563714 3.4296C0.717314 3.276 0.907181 3.19947 1.13331 3.2C1.35998 3.2 1.55011 3.2768 1.70371 3.4304C1.85731 3.584 1.93385 3.77387 1.93331 4V14.4H9.93331C10.16 14.4 10.3501 14.4768 10.5037 14.6304C10.6573 14.784 10.7338 14.9739 10.7333 15.2C10.7333 15.4267 10.6565 15.6168 10.5029 15.7704C10.3493 15.924 10.1594 16.0005 9.93331 16H1.93331Z" fill="#808695"/>
</svg>
