<?xml version="1.0" encoding="UTF-8"?>
<svg id="Capa_1" data-name="Capa 1" xmlns="http://www.w3.org/2000/svg" xmlns:xlink="http://www.w3.org/1999/xlink" viewBox="0 0 112 72">
  <defs>
    <style>
      .cls-1 {
        fill: #efeff1;
      }

      .cls-1, .cls-2, .cls-3, .cls-4 {
        stroke-width: 0px;
      }

      .cls-2 {
        fill: #fcfcfd;
        filter: url(#drop-shadow-6);
      }

      .cls-3 {
        fill: #d3d7e9;
      }

      .cls-4 {
        fill: #2e365c;
        fill-rule: evenodd;
      }
    </style>
    <filter id="drop-shadow-6" filterUnits="userSpaceOnUse">
      <feOffset dx="4" dy="4"/>
      <feGaussianBlur result="blur" stdDeviation="4"/>
      <feFlood flood-color="#000" flood-opacity=".1"/>
      <feComposite in2="blur" operator="in"/>
      <feComposite in="SourceGraphic"/>
    </filter>
  </defs>
  <rect class="cls-1" width="112" height="72"/>
  <path class="cls-2" d="M91,18H0v24h91c6.63,0,12-5.37,12-12s-5.37-12-12-12Z"/>
  <path class="cls-4" d="M49.45,27.7c-.12,0-.23.05-.32.13-.08.08-.13.2-.13.32v.38c.14-.04.28-.11.41-.2.18-.13.35-.32.43-.62h-.39ZM50.76,27.7c-.1.62-.42,1.07-.83,1.36-.3.22-.64.34-.94.4v.99c.3.06.64.18.94.4.4.29.72.73.83,1.36h1.39c.25,0,.45.2.45.45s-.2.45-.45.45h-2.7c-.36,0-.7-.14-.95-.4-.25-.25-.4-.6-.4-.95v-3.6c0-.36.14-.7.4-.95.25-.25.6-.4.95-.4h6.3c.36,0,.7.14.96.4.25.25.39.6.39.95v1.8c0,.25-.2.45-.45.45s-.45-.2-.45-.45v-.5c-.3-.06-.64-.18-.94-.4-.4-.29-.72-.73-.83-1.36h-3.67ZM55.36,27.7c.08.3.25.49.43.62.13.09.27.16.41.2v-.38c0-.12-.05-.23-.13-.32-.08-.08-.2-.13-.32-.13h-.39ZM49.84,32.2c-.08-.3-.25-.49-.43-.62-.13-.09-.27-.16-.41-.2v.38c0,.12.05.23.13.32.08.08.2.13.32.13h.39Z"/>
  <path class="cls-4" d="M52.6,29.5c-.25,0-.45.2-.45.45s.2.45.45.45.45-.2.45-.45-.2-.45-.45-.45ZM51.25,29.95c0-.75.61-1.35,1.35-1.35s1.35.6,1.35,1.35-.6,1.35-1.35,1.35-1.35-.6-1.35-1.35Z"/>
  <path class="cls-4" d="M56.57,31.38c.18.18.18.46,0,.64l-.64.64.64.64c.18.18.18.46,0,.64-.18.18-.46.18-.64,0l-.64-.64-.64.64c-.18.18-.46.18-.64,0-.17-.18-.17-.46,0-.64l.64-.64-.64-.64c-.17-.18-.17-.46,0-.64.18-.18.46-.18.64,0l.64.64.64-.64c.17-.18.46-.18.64,0Z"/>
  <path class="cls-3" d="M66,27h27c1.66,0,3,1.34,3,3h0c0,1.66-1.34,3-3,3h-27c-1.66,0-3-1.34-3-3h0c0-1.66,1.34-3,3-3Z"/>
  <path class="cls-3" d="M7.1,27h29.98c1.66,0,3,1.34,3,3h0c0,1.66-1.34,3-3,3H7.1c-1.66,0-3-1.34-3-3h0c0-1.66,1.34-3,3-3Z"/>
</svg>