<?xml version="1.0" encoding="UTF-8"?>
<svg id="Capa_1" data-name="Capa 1" xmlns="http://www.w3.org/2000/svg" viewBox="0 0 112 72">
  <defs>
    <style>
      .cls-1 {
        fill: #efeff1;
      }

      .cls-1, .cls-2, .cls-3, .cls-4 {
        stroke-width: 0px;
      }

      .cls-2 {
        fill: #2f365d;
      }

      .cls-3 {
        fill: #fcfcfd;
      }

      .cls-4 {
        fill: #1d223a;
      }
    </style>
  </defs>
  <rect class="cls-1" width="56" height="72"/>
  <path class="cls-3" d="M56,6.78H15.22c-4.3,0-7.78,3.48-7.78,7.78h0c0,4.3,3.48,7.78,7.78,7.78h40.78V6.78Z"/>
  <rect class="cls-4" x="56" width="56" height="72"/>
  <rect class="cls-2" x="56" y="6.78" width="56" height="15.56"/>
  <path class="cls-3" d="M56,72V26H15.89c-4.91,0-8.89,3.98-8.89,8.89v37.11h49Z"/>
  <path class="cls-2" d="M112,72V26h-18.11c-4.91,0-8.89,3.98-8.89,8.89v37.11h27Z"/>
  <path class="cls-2" d="M72.11,26h-16.11v46h25v-37.11c0-4.91-3.98-8.89-8.89-8.89Z"/>
</svg>