<?xml version="1.0" standalone="no"?>
<!DOCTYPE svg PUBLIC "-//W3C//DTD SVG 20010904//EN"
 "http://www.w3.org/TR/2001/REC-SVG-20010904/DTD/svg10.dtd">
<svg version="1.0" xmlns="http://www.w3.org/2000/svg"
 width="538.000000pt" height="539.000000pt" viewBox="0 0 538.000000 539.000000"
 preserveAspectRatio="xMidYMid meet">

<g transform="translate(0.000000,539.000000) scale(0.100000,-0.100000)"
fill="#000000" stroke="none">
<path d="M1234 4190 c-12 -4 -31 -21 -43 -36 l-21 -27 0 -1438 0 -1437 31 -31
31 -31 1424 0 c1572 0 1451 -5 1512 64 55 63 64 155 23 222 -10 16 -233 289
-495 608 -263 318 -482 586 -488 596 -9 14 63 107 475 608 268 325 495 606
506 624 27 47 34 90 22 136 -16 59 -51 105 -101 130 l-44 22 -1406 -1 c-773 0
-1415 -4 -1426 -9z m2596 -275 c0 -8 -810 -990 -819 -993 -4 -1 -85 65 -179
147 -94 82 -186 158 -204 168 -29 16 -66 18 -320 21 l-288 3 0 -140 0 -141
240 0 240 0 160 -141 c89 -77 160 -144 158 -149 -2 -4 -68 -62 -147 -129
l-143 -121 -239 0 -239 0 0 -141 0 -140 288 3 c340 4 293 -13 522 181 83 71
153 127 154 125 1 -1 182 -221 401 -488 219 -267 402 -491 408 -497 7 -10
-230 -13 -1182 -13 l-1191 0 0 1225 0 1225 1190 0 c655 0 1190 -2 1190 -5z"/>
</g>
</svg>
