<svg width="40" height="40" viewBox="0 0 40 40" fill="none" xmlns="http://www.w3.org/2000/svg">
    <rect width="40" height="40" rx="20" fill="#FAD614" />
    <path
        d="M27.873 25.5409L23.3423 20.0016L28.0641 14.2284H28.0567L29.7989 12.102C29.9526 11.9138 30.0501 11.6855 30.0799 11.4437C30.1097 11.202 30.0706 10.9566 29.9672 10.7363C29.8639 10.516 29.7005 10.3299 29.4961 10.1995C29.2917 10.0691 29.0547 9.99995 28.8127 10H10.7584C10.5555 10.0003 10.3609 10.0816 10.2174 10.2261C10.0739 10.3706 9.9932 10.5665 9.99292 10.7708L9.99292 29.2281C9.99292 29.4326 10.0735 29.6288 10.2171 29.7735C10.3606 29.9183 10.5553 29.9997 10.7584 30H28.8138C29.0558 29.9998 29.2927 29.9304 29.497 29.7999C29.7014 29.6694 29.8647 29.4831 29.968 29.2628C30.0713 29.0425 30.1104 28.7972 30.0806 28.5554C30.0509 28.3136 29.9536 28.0853 29.8 27.897L27.872 25.5398L27.873 25.5409ZM11.8365 28.1426V11.8564H27.6112L22.146 18.5386L20.0786 16.7312C19.9588 16.5846 19.8082 16.4665 19.6377 16.3854C19.4672 16.3044 19.281 16.2623 19.0924 16.2623H15.6175V18.124H18.8253L20.9518 19.9942L19.0153 21.6464H15.8087V23.5027H19.2846C19.4729 23.5028 19.6589 23.4608 19.8292 23.3799C19.9995 23.2991 20.1499 23.1812 20.2697 23.0349L22.1491 21.4624L27.6122 28.1426H11.8365Z"
        fill="#202452" />
</svg>