<svg width="24" height="24" viewBox="0 0 24 24" fill="none" xmlns="http://www.w3.org/2000/svg">
    <path
        d="M17.7071 7.70711L9.41421 16H17C17.5523 16 18 16.4477 18 17C18 17.5523 17.5523 18 17 18H7L6.997 18C6.74301 17.9992 6.48924 17.9023 6.29502 17.7092L6.29078 17.705C6.19595 17.6096 6.12432 17.4999 6.07588 17.3828C6.02699 17.2649 6 17.1354 6 16.9998V7C6 6.44772 6.44772 6 7 6C7.55228 6 8 6.44772 8 7V14.5858L16.2929 6.29289C16.6834 5.90237 17.3166 5.90237 17.7071 6.29289C18.0976 6.68342 18.0976 7.31658 17.7071 7.70711Z"
        fill="current" />
</svg>