<svg width="24" height="24" viewBox="0 0 24 24" fill="none" xmlns="http://www.w3.org/2000/svg">
    <path fill-rule="evenodd" clip-rule="evenodd"
        d="M19 11H7.40999L12.71 5.71001C13.1 5.32001 13.1 4.69001 12.71 4.30001C12.32 3.91001 11.69 3.91001 11.3 4.30001L4.28999 11.29C4.19999 11.38 4.12999 11.49 4.06999 11.61C4.01999 11.73 3.99999 11.86 3.98999 11.98C3.98999 12.11 4.01999 12.23 4.06999 12.35C4.11999 12.47 4.18999 12.58 4.27999 12.67L11.28 19.67C11.67 20.06 12.3 20.06 12.69 19.67C13.08 19.28 13.08 18.65 12.69 18.26L7.39999 12.97H18.99C19.54 12.97 19.99 12.52 19.99 11.97C19.99 11.42 19.54 10.97 18.99 10.97L19 11Z"
        fill="current" />
</svg>