<svg width="24" height="24" viewBox="0 0 24 24" fill="none" xmlns="http://www.w3.org/2000/svg">
    <path fill-rule="evenodd" clip-rule="evenodd"
        d="M17.9225 6.62C17.8225 6.38 17.6225 6.18 17.3825 6.08C17.2625 6.03 17.1325 6 17.0025 6H7.0025C6.4525 6 6.0025 6.45 6.0025 7C6.0025 7.55 6.4525 8 7.0025 8H14.5925L6.2925 16.29C5.9025 16.68 5.9025 17.31 6.2925 17.7C6.6825 18.09 7.3125 18.09 7.7025 17.7L16.0025 9.41V17C16.0025 17.55 16.4525 18 17.0025 18C17.5525 18 18.0025 17.55 18.0025 17V7C18.0025 6.87 17.9725 6.74 17.9225 6.62Z"
        fill="current" />
</svg>