<svg width="24" height="24" viewBox="0 0 24 24" fill="none" xmlns="http://www.w3.org/2000/svg">
    <path fill-rule="evenodd" clip-rule="evenodd"
        d="M18.39 11.61C18.17 11.39 17.93 11.21 17.68 11.03C18.51 10.04 19 8.8 19 7.5C19 6.04 18.42 4.64 17.39 3.61C16.36 2.58 14.96 2 13.5 2H5.5C4.67 2 4 2.67 4 3.5V19.5C4 20.33 4.67 21 5.5 21H14.5C15.96 21 17.36 20.42 18.39 19.39C19.42 18.36 20 16.96 20 15.5C20 14.04 19.42 12.64 18.39 11.61ZM7 5H13.5C14.16 5 14.8 5.26 15.27 5.73C15.74 6.2 16 6.83 16 7.5C16 8.17 15.74 8.8 15.27 9.27C14.8 9.74 14.17 10 13.5 10H7V5ZM16.27 17.27C15.8 17.74 15.17 18 14.5 18H7V13H14.5C15.16 13 15.8 13.26 16.27 13.73C16.74 14.2 17 14.83 17 15.5C17 16.17 16.74 16.8 16.27 17.27Z"
        fill="current" />
</svg>