<svg width="24" height="24" viewBox="0 0 24 24" fill="none" xmlns="http://www.w3.org/2000/svg">
    <path fill-rule="evenodd" clip-rule="evenodd"
        d="M3 10H16.5C17.05 10 17.5 9.55 17.5 9C17.5 8.45 17.05 8 16.5 8H3C2.45 8 2 8.45 2 9C2 9.55 2.45 10 3 10Z"
        fill="current" />
    <path fill-rule="evenodd" clip-rule="evenodd"
        d="M3 6H16.5C17.05 6 17.5 5.55 17.5 5C17.5 4.45 17.05 4 16.5 4H3C2.45 4 2 4.45 2 5C2 5.55 2.45 6 3 6Z"
        fill="current" />
    <path fill-rule="evenodd" clip-rule="evenodd"
        d="M8.5 12H3C2.45 12 2 12.45 2 13C2 13.55 2.45 14 3 14H8.5C9.05 14 9.5 13.55 9.5 13C9.5 12.45 9.05 12 8.5 12Z"
        fill="current" />
    <path fill-rule="evenodd" clip-rule="evenodd"
        d="M7 16H3C2.45 16 2 16.45 2 17C2 17.55 2.45 18 3 18H7C7.55 18 8 17.55 8 17C8 16.45 7.55 16 7 16Z"
        fill="current" />
    <path fill-rule="evenodd" clip-rule="evenodd"
        d="M21.7 11.29C21.31 10.9 20.67 10.91 20.29 11.3L14.13 17.57L11.72 15.11C11.33 14.72 10.7 14.71 10.31 15.1C9.92 15.49 9.91 16.12 10.3 16.51L13.43 19.69C13.62 19.88 13.88 19.99 14.14 19.99C14.4 19.99 14.67 19.88 14.85 19.69L21.73 12.69C22.12 12.3 22.11 11.66 21.72 11.28L21.7 11.29Z"
        fill="current" />
</svg>