<svg width="24" height="24" viewBox="0 0 24 24" fill="none" xmlns="http://www.w3.org/2000/svg">
    <path fill-rule="evenodd" clip-rule="evenodd"
        d="M10.5021 1.40274C10.9577 1.14024 11.4742 1.00205 12 1.00205C12.5258 1.00205 13.0424 1.14025 13.4979 1.40277C13.4986 1.40317 13.4993 1.40357 13.5 1.40398L16.6937 3.22892C16.9038 3.27049 17.0998 3.37903 17.2474 3.54534L20.5 5.40397C20.87 5.61758 21.1891 5.90715 21.4369 6.25236C21.4973 6.31273 21.5508 6.38188 21.5956 6.45928C21.6342 6.52595 21.6642 6.59521 21.686 6.66581C21.8917 7.07928 21.9995 7.53548 22 7.99898V11.9808C22.0002 11.993 22.0002 12.0052 22 12.0173V16.001C21.9995 16.5271 21.8606 17.0438 21.5973 17.4993C21.334 17.9548 20.9556 18.333 20.5 18.596L20.4961 18.5982L17.2469 20.4549C17.1045 20.6148 16.9116 20.7286 16.6932 20.7714L13.5 22.596C13.4994 22.5964 13.4988 22.5967 13.4982 22.5971C13.181 22.7799 12.8342 22.9025 12.4753 22.9601C12.3339 23.0366 12.172 23.08 12 23.08C11.828 23.08 11.6661 23.0366 11.5247 22.9601C11.1658 22.9025 10.8191 22.7799 10.5019 22.5971C10.5012 22.5967 10.5006 22.5964 10.5 22.596L7.30681 20.7714C7.08842 20.7286 6.89549 20.6148 6.75309 20.4549L3.50386 18.5982L3.5 18.596C3.04439 18.333 2.66597 17.9548 2.40269 17.4993C2.13941 17.0438 2.00054 16.5271 2 16.001L2 12.0173C1.99978 12.0052 1.99978 11.993 2 11.9808L2 7.99898C2.00047 7.53548 2.10832 7.07928 2.31402 6.66582C2.33581 6.59522 2.36582 6.52595 2.40439 6.45928C2.44916 6.38188 2.50272 6.31273 2.56308 6.25236C2.81094 5.90715 3.13002 5.61758 3.5 5.40398L3.50385 5.40175L6.75259 3.54534C6.90018 3.37903 7.0962 3.27049 7.30632 3.22892L10.5021 1.40274ZM7.54946 5.39349L5.03899 6.82804L12 10.8547L18.961 6.82804L16.4505 5.39349L12.5003 7.67587C12.1907 7.85471 11.8093 7.85471 11.4997 7.67587L7.54946 5.39349ZM14.4406 4.24496L12.5 3.13604C12.348 3.04827 12.1755 3.00205 12 3.00205C11.8245 3.00205 11.652 3.04826 11.5 3.13603L11.4961 3.13825L9.55939 4.24496L12 5.65509L14.4406 4.24496ZM20 8.53754L13 12.5868V20.5783L15.5 19.1497V14.6C15.5 14.2429 15.6905 13.9128 15.9997 13.7341L20 11.4229V8.53754ZM20 13.7327L17.5 15.1771V18.0068L19.5 16.864C19.5005 16.8637 19.5011 16.8634 19.5016 16.8631C19.6527 16.7754 19.7783 16.6497 19.8658 16.4984C19.9535 16.3466 19.9998 16.1743 20 15.999V13.7327ZM11 20.5783V12.5868L4 8.53754V11.4229L8.00028 13.7341C8.30952 13.9128 8.5 14.2429 8.5 14.6V19.1497L11 20.5783ZM6.5 18.0068V15.1771L4 13.7327V15.9994C4.00025 16.1746 4.04654 16.3467 4.13423 16.4984C4.22168 16.6497 4.34726 16.7754 4.49842 16.8631C4.49895 16.8634 4.49947 16.8637 4.5 16.864L6.5 18.0068Z"
        fill="current" />
</svg>