<svg width="24" height="24" viewBox="0 0 24 24" fill="none" xmlns="http://www.w3.org/2000/svg">
    <g clip-path="url(#clip0_7_9505)">
        <path fill-rule="evenodd" clip-rule="evenodd"
            d="M9 0C9.55229 0 10 0.447715 10 1V3H14V1C14 0.447715 14.4477 0 15 0C15.5523 0 16 0.447715 16 1V3H18C19.6569 3 21 4.34315 21 6V8H23C23.5523 8 24 8.44772 24 9C24 9.55229 23.5523 10 23 10H21V13H23C23.5523 13 24 13.4477 24 14C24 14.5523 23.5523 15 23 15H21V18C21 19.6569 19.6569 21 18 21H16V23C16 23.5523 15.5523 24 15 24C14.4477 24 14 23.5523 14 23V21H10V23C10 23.5523 9.55229 24 9 24C8.44772 24 8 23.5523 8 23V21H6C4.34315 21 3 19.6569 3 18V15H1C0.447715 15 0 14.5523 0 14C0 13.4477 0.447715 13 1 13H3V10H1C0.447715 10 0 9.55229 0 9C0 8.44772 0.447715 8 1 8H3V6C3 4.34315 4.34315 3 6 3H8V1C8 0.447715 8.44772 0 9 0ZM6 5C5.44772 5 5 5.44772 5 6V18C5 18.5523 5.44772 19 6 19H18C18.5523 19 19 18.5523 19 18V6C19 5.44772 18.5523 5 18 5H6ZM8 9C8 8.44772 8.44772 8 9 8H15C15.5523 8 16 8.44772 16 9V15C16 15.5523 15.5523 16 15 16H9C8.44772 16 8 15.5523 8 15V9ZM10 10V14H14V10H10Z"
            fill="current" />
    </g>
    <defs>
        <clipPath id="clip0_7_9505">
            <rect width="24" height="24" fill="white" />
        </clipPath>
    </defs>
</svg>