<svg width="24" height="24" viewBox="0 0 24 24" fill="none" xmlns="http://www.w3.org/2000/svg">
    <g clip-path="url(#clip0_7_9513)">
        <path fill-rule="evenodd" clip-rule="evenodd"
            d="M8.66758 1.99416C10.0281 1.94524 11.3819 2.20559 12.6272 2.75561C13.8725 3.30563 14.9768 4.13099 15.857 5.16955C16.5675 6.00791 17.117 6.96756 17.4804 8L17.9992 8C19.2743 7.99917 20.5174 8.4046 21.5465 9.15748C22.5759 9.91051 23.3385 10.972 23.7237 12.1878C24.1089 13.4036 24.0967 14.7106 23.6888 15.919C23.2808 17.1274 22.4985 18.1744 21.4552 18.908C21.0034 19.2257 20.3797 19.117 20.062 18.6652C19.7443 18.2135 19.853 17.5897 20.3048 17.272C21.0003 16.7829 21.5219 16.0849 21.7938 15.2793C22.0657 14.4737 22.0739 13.6024 21.8171 12.7919C21.5603 11.9813 21.0519 11.2737 20.3656 10.7717C19.6794 10.2696 18.851 9.99934 18.0008 10H16.74C16.2834 10 15.8848 9.69078 15.7714 9.24855C15.5082 8.22293 15.0158 7.27039 14.3312 6.46262C13.6467 5.65484 12.7878 5.0129 11.8192 4.5851C10.8506 4.15731 9.79761 3.95482 8.73946 3.99287C7.68131 4.03093 6.64557 4.30853 5.71023 4.80479C4.77489 5.30105 3.96432 6.00304 3.33954 6.8579C2.71476 7.71275 2.29204 8.69821 2.10323 9.74008C1.91441 10.7819 1.96441 11.8531 2.24946 12.8728C2.5345 13.8926 3.04718 14.8344 3.74887 15.6273C4.11488 16.0409 4.07629 16.6729 3.6627 17.0389C3.24911 17.4049 2.61712 17.3663 2.25111 16.9527C1.34893 15.9332 0.689783 14.7223 0.323292 13.4112C-0.0431988 12.1001 -0.107481 10.723 0.135283 9.38343C0.378048 8.04389 0.921534 6.77687 1.72483 5.67777C2.52812 4.57866 3.57028 3.67611 4.77286 3.03806C5.97544 2.40001 7.3071 2.04309 8.66758 1.99416ZM12 11C12.5523 11 13 11.4477 13 12V18.5858L15.2929 16.2929C15.6834 15.9024 16.3166 15.9024 16.7071 16.2929C17.0976 16.6834 17.0976 17.3166 16.7071 17.7071L12.7071 21.7071C12.3166 22.0976 11.6834 22.0976 11.2929 21.7071L7.29289 17.7071C6.90236 17.3166 6.90236 16.6834 7.29289 16.2929C7.68341 15.9024 8.31658 15.9024 8.7071 16.2929L11 18.5858V12C11 11.4477 11.4477 11 12 11Z"
            fill="current" />
    </g>
    <defs>
        <clipPath id="clip0_7_9513">
            <rect width="24" height="24" fill="white" />
        </clipPath>
    </defs>
</svg>