<svg width="24" height="24" viewBox="0 0 24 24" fill="none" xmlns="http://www.w3.org/2000/svg">
    <path fill-rule="evenodd" clip-rule="evenodd"
        d="M3.00036 11.919C3.00012 11.9459 3 11.973 3 12C3 14.211 3.7973 16.2358 5.12009 17.8026C7.45116 14.7018 9.85596 12.8317 12.4741 11.8981L12.4755 11.8976C12.5891 11.8573 12.7044 11.8185 12.8213 11.7815C12.7327 11.5774 12.6427 11.3756 12.551 11.1756C12.4653 10.9886 12.378 10.803 12.2889 10.6184C9.63056 11.436 6.55964 11.8001 3.00036 11.919ZM3.24418 9.90896C6.42186 9.78829 9.08316 9.4615 11.3462 8.81227C10.4744 7.25945 9.43758 5.68988 8.13449 3.87008C5.7077 5.026 3.88003 7.23652 3.24418 9.90896ZM10.1113 3.1985C11.362 4.96744 12.3858 6.54604 13.2629 8.14437C15.0083 7.41476 16.4871 6.42292 17.7735 5.09561C16.2108 3.78748 14.1974 3 12 3C11.3522 3 10.7203 3.06845 10.1113 3.1985ZM19.1567 6.54203C17.7039 8.02729 16.0551 9.12567 14.1766 9.92983C14.2416 10.0665 14.3057 10.2038 14.369 10.3419C14.5185 10.6681 14.6636 10.9981 14.8047 11.3336C16.6488 11.0682 18.7515 11.1462 20.9925 11.6294C20.9152 9.7203 20.2432 7.96443 19.1567 6.54203ZM20.8497 13.6466C18.8935 13.1949 17.0989 13.0931 15.5511 13.2559C16.1765 15.0022 16.7411 16.9438 17.3216 19.2589C19.1311 17.9301 20.4255 15.941 20.8497 13.6466ZM15.5161 20.2873C14.8631 17.6295 14.2484 15.508 13.5648 13.645C13.4213 13.6881 13.2813 13.7338 13.1449 13.7823C10.947 14.5663 8.79411 16.192 6.58238 19.1874C8.08958 20.3253 9.96599 21 12 21C13.2476 21 14.4359 20.7461 15.5161 20.2873ZM1 12C1 5.92487 5.92487 1 12 1C18.0751 1 23 5.92487 23 12C23 18.0751 18.0751 23 12 23C5.92487 23 1 18.0751 1 12Z"
        fill="current" />
</svg>