<svg width="24" height="24" viewBox="0 0 24 24" fill="none" xmlns="http://www.w3.org/2000/svg">
    <path fill-rule="evenodd" clip-rule="evenodd"
        d="M23.89 11.55V11.52C23.89 11.52 23.86 11.48 23.84 11.44C23.81 11.37 23.75 11.28 23.69 11.16C23.56 10.93 23.36 10.6 23.11 10.2C22.6 9.41 21.85 8.36 20.86 7.31C18.9 5.23 15.9 3 12 3C8.1 3 5.1 5.23 3.15 7.32C2.16 8.37 1.41 9.43 0.9 10.21C0.65 10.6 0.45 10.93 0.32 11.17C0.25 11.29 0.2 11.38 0.17 11.45C0.15 11.48 0.14 11.51 0.13 11.53V11.55H0.12C0.04 11.69 0 11.85 0 12C0 12.05 0.03 12.09 0.03 12.14C0.05 12.24 0.05 12.35 0.1 12.44V12.46C0.1 12.46 0.13 12.5 0.15 12.54C0.18 12.61 0.24 12.7 0.3 12.82C0.43 13.05 0.63 13.38 0.88 13.78C1.39 14.57 2.14 15.62 3.13 16.67C5.09 18.76 8.09 20.99 11.98 20.99C15.88 20.99 18.88 18.76 20.83 16.67C21.82 15.62 22.57 14.56 23.08 13.78C23.33 13.39 23.53 13.06 23.66 12.82C23.73 12.7 23.78 12.61 23.81 12.54C23.83 12.51 23.84 12.48 23.85 12.46V12.44H23.86C23.91 12.34 23.92 12.24 23.93 12.14C23.93 12.09 23.96 12.05 23.96 12C23.96 11.85 23.92 11.69 23.85 11.55H23.89ZM21.43 12.71C20.97 13.42 20.29 14.37 19.4 15.32C17.61 17.23 15.11 19 12 19C8.89 19 6.4 17.23 4.6 15.32C3.71 14.37 3.03 13.43 2.57 12.71C2.39 12.43 2.25 12.19 2.14 12C2.25 11.81 2.39 11.57 2.57 11.29C3.03 10.58 3.71 9.63 4.6 8.68C6.39 6.77 8.9 5 12 5C15.1 5 17.6 6.77 19.4 8.68C20.29 9.63 20.97 10.57 21.43 11.29C21.61 11.57 21.75 11.81 21.86 12C21.75 12.19 21.61 12.43 21.43 12.71Z"
        fill="current" />
    <path fill-rule="evenodd" clip-rule="evenodd"
        d="M12 8C9.79 8 8 9.79 8 12C8 14.21 9.79 16 12 16C14.21 16 16 14.21 16 12C16 9.79 14.21 8 12 8ZM12 14C10.9 14 10 13.1 10 12C10 10.9 10.9 10 12 10C13.1 10 14 10.9 14 12C14 13.1 13.1 14 12 14Z"
        fill="current" />
</svg>