<svg width="24" height="24" viewBox="0 0 24 24" fill="none" xmlns="http://www.w3.org/2000/svg">
    <path fill-rule="evenodd" clip-rule="evenodd"
        d="M11.0429 3.04289C12.3563 1.72951 14.1376 0.991663 15.995 0.991663C17.8524 0.991663 19.6337 1.72951 20.9471 3.04289C22.2605 4.35627 22.9983 6.1376 22.9983 7.995C22.9983 9.8524 22.2605 11.6337 20.9471 12.9471L18.2937 15.6084C18.2409 15.6772 18.1794 15.7389 18.1107 15.7919L14.2082 19.7061C14.0205 19.8942 13.7657 20 13.5 20H5.41421L2.70711 22.7071C2.31658 23.0976 1.68342 23.0976 1.29289 22.7071C0.902369 22.3166 0.902369 21.6834 1.29289 21.2929L4 18.5858V10.5C4 10.2348 4.10536 9.98043 4.29289 9.79289L11.0429 3.04289ZM7.41421 18H13.0849L15.079 16H9.41421L7.41421 18ZM11.4142 14L16.7071 8.70711C17.0976 8.31658 17.0976 7.68342 16.7071 7.29289C16.3166 6.90237 15.6834 6.90237 15.2929 7.29289L6 16.5858V10.9142L12.4571 4.45711C13.3954 3.5188 14.668 2.99166 15.995 2.99166C17.322 2.99166 18.5946 3.5188 19.5329 4.45711C20.4712 5.39541 20.9983 6.66803 20.9983 7.995C20.9983 9.32197 20.4712 10.5946 19.5329 11.5329L17.0731 14H11.4142Z"
        fill="current" />
</svg>