<svg width="24" height="24" viewBox="0 0 24 24" fill="none" xmlns="http://www.w3.org/2000/svg">
    <path fill-rule="evenodd" clip-rule="evenodd"
        d="M20.92 7.61C20.87 7.49 20.8 7.38 20.7 7.29L14.71 1.29C14.62 1.2 14.51 1.13 14.39 1.07C14.27 1.02 14.14 0.99 14 0.99H6C5.2 0.99 4.44 1.31 3.88 1.87C3.32 2.43 3 3.2 3 3.99V19.99C3 20.79 3.32 21.55 3.88 22.11C4.44 22.67 5.21 22.99 6 22.99H18C18.8 22.99 19.56 22.67 20.12 22.11C20.68 21.55 21 20.78 21 19.99V8C21 7.87 20.97 7.74 20.92 7.61ZM15 4.41L17.59 7H15V4.41ZM18.71 20.71C18.52 20.9 18.27 21 18 21H6C5.73 21 5.48 20.89 5.29 20.71C5.1 20.52 5 20.27 5 20V4C5 3.73 5.11 3.48 5.29 3.29C5.48 3.1 5.73 3 6 3H13V8C13 8.55 13.45 9 14 9H19V20C19 20.27 18.89 20.52 18.71 20.71Z"
        fill="current" />
    <path fill-rule="evenodd" clip-rule="evenodd"
        d="M16 12H8C7.45 12 7 12.45 7 13C7 13.55 7.45 14 8 14H16C16.55 14 17 13.55 17 13C17 12.45 16.55 12 16 12Z"
        fill="current" />
    <path fill-rule="evenodd" clip-rule="evenodd"
        d="M16 16H8C7.45 16 7 16.45 7 17C7 17.55 7.45 18 8 18H16C16.55 18 17 17.55 17 17C17 16.45 16.55 16 16 16Z"
        fill="current" />
    <path fill-rule="evenodd" clip-rule="evenodd"
        d="M8 10H10C10.55 10 11 9.55 11 9C11 8.45 10.55 8 10 8H8C7.45 8 7 8.45 7 9C7 9.55 7.45 10 8 10Z"
        fill="current" />
</svg>