<svg width="24" height="24" viewBox="0 0 24 24" fill="none" xmlns="http://www.w3.org/2000/svg">
    <path
        d="M4 23C3.45 23 3 22.55 3 22V3C3 2.73 3.11 2.48 3.29 2.29C3.51 2.07 4.75 1 8 1C9.69 1 11.05 1.54 12.37 2.07C13.56 2.55 14.69 3 16 3C18.44 3 19.31 2.28 19.32 2.27C19.62 2.01 20.05 1.94 20.4 2.1C20.76 2.26 21 2.61 21 3V15C21 15.27 20.89 15.52 20.71 15.71C20.49 15.93 19.25 17 16 17C14.31 17 12.95 16.46 11.63 15.93C10.44 15.45 9.31 15 8 15C6.37 15 5.44 15.32 5 15.54V22C5 22.55 4.55 23 4 23ZM8 13C9.69 13 11.05 13.54 12.37 14.07C13.56 14.55 14.69 15 16 15C17.63 15 18.56 14.68 19 14.46V4.61C18.28 4.83 17.3 5 16 5C14.31 5 12.95 4.46 11.63 3.93C10.44 3.45 9.31 3 8 3C6.37 3 5.44 3.32 5 3.54V13.39C5.72 13.17 6.7 13 8 13Z"
        fill="current" />
</svg>