<svg width="24" height="24" viewBox="0 0 24 24" fill="none" xmlns="http://www.w3.org/2000/svg">
    <path
        d="M12 23C5.93 23 1 18.07 1 12C1 5.93 5.93 1 12 1C18.07 1 23 5.93 23 12C23 18.07 18.07 23 12 23ZM12 3C7.04 3 3 7.04 3 12C3 16.96 7.04 21 12 21C16.96 21 21 16.96 21 12C21 7.04 16.96 3 12 3ZM16 17C15.7 17 15.4 16.86 15.2 16.6C15.17 16.56 13.93 15 12 15C10.07 15 8.81 16.59 8.8 16.6C8.46 17.04 7.84 17.12 7.4 16.79C6.96 16.46 6.87 15.84 7.2 15.4C7.27 15.3 9.03 13 12 13C14.97 13 16.73 15.3 16.8 15.4C17.13 15.84 17.04 16.47 16.6 16.8C16.42 16.93 16.21 17 16 17ZM15.01 10C14.46 10 14.01 9.55 14.01 9C14.01 8.45 14.45 8 15.01 8C15.56 8 16.01 8.45 16.01 9C16.01 9.55 15.56 10 15.01 10ZM9.01 10C8.46 10 8.01 9.55 8.01 9C8.01 8.45 8.45 8 9.01 8C9.56 8 10.01 8.45 10.01 9C10.01 9.55 9.56 10 9.01 10Z"
        fill="current" />
</svg>