<svg width="24" height="24" viewBox="0 0 24 24" fill="none" xmlns="http://www.w3.org/2000/svg">
    <path fill-rule="evenodd" clip-rule="evenodd"
        d="M12 9C10.3431 9 8.99999 10.3431 8.99999 12C8.99999 13.6569 10.3431 15 12 15C13.6568 15 15 13.6569 15 12C15 10.3431 13.6568 9 12 9ZM7.09903 11.0048C7.56042 8.72019 9.57932 7 12 7C14.421 7 16.4401 8.7207 16.9012 11.0059C16.9369 11.002 16.9732 11 17.01 11H22.96C23.5123 11 23.96 11.4477 23.96 12C23.96 12.5523 23.5123 13 22.96 13H17.01C16.9732 13 16.9369 12.998 16.9012 12.9941C16.4401 15.2793 14.421 17 12 17C9.57932 17 7.56042 15.2798 7.09903 12.9952C7.06645 12.9984 7.03341 13 6.99999 13H1.04999C0.497703 13 0.0499878 12.5523 0.0499878 12C0.0499878 11.4477 0.497703 11 1.04999 11H6.99999C7.03341 11 7.06645 11.0016 7.09903 11.0048Z"
        fill="current" />
</svg>