<svg width="24" height="24" viewBox="0 0 24 24" fill="none" xmlns="http://www.w3.org/2000/svg">
    <g clip-path="url(#clip0_7_9374)">
        <path
            d="M16.0089 23.03C15.4589 23.03 15.0089 22.58 15.0089 22.03V18.16C15.0389 17.74 14.9889 17.41 14.8789 17.09C14.7589 16.77 14.5889 16.49 14.3489 16.24C14.0789 15.97 13.9989 15.57 14.1289 15.21C14.2589 14.85 14.5789 14.6 14.9589 14.55C17.8389 14.23 20.5089 13.28 20.5089 8.54C20.5089 7.4 20.0789 6.31 19.2889 5.48C19.0289 5.2 18.9389 4.8 19.0789 4.44C19.3689 3.66 19.4189 2.83 19.2189 2.04C18.7489 2.15 17.8789 2.45 16.5689 3.33C16.3289 3.49 16.0289 3.54 15.7489 3.46C13.6289 2.89 11.3889 2.89 9.2689 3.46C8.9889 3.54 8.6889 3.49 8.4489 3.33C7.1589 2.46 6.2889 2.16 5.7989 2.05C5.6089 2.84 5.6489 3.67 5.9389 4.44C6.0689 4.8 5.9889 5.2 5.7289 5.48C4.9289 6.32 4.4989 7.41 4.5089 8.57C4.5089 13.25 7.1789 14.22 10.0689 14.58C10.4489 14.63 10.7589 14.88 10.8889 15.24C11.0189 15.6 10.9289 15.99 10.6589 16.27C10.4289 16.51 10.2489 16.79 10.1389 17.11C10.0289 17.42 9.9789 17.75 9.9989 18.09V18.96C9.9989 18.96 9.9989 19.05 9.9989 19.09V22.03C9.9989 22.58 9.5489 23.03 8.9989 23.03C8.4489 23.03 7.9989 22.58 7.9989 22.03V20.28C4.9789 20.74 3.7089 19.12 2.8289 18C2.4389 17.51 2.1089 17.08 1.7589 16.99C1.2189 16.86 0.898901 16.31 1.0289 15.78C1.1589 15.25 1.7089 14.92 2.2389 15.05C3.2489 15.3 3.8589 16.08 4.3889 16.76C5.2289 17.82 5.8989 18.68 7.9889 18.25V18.16C7.9489 17.61 8.0289 17.01 8.2489 16.43C8.2589 16.39 8.2789 16.35 8.2889 16.32C5.4689 15.68 2.4889 13.95 2.4889 8.59C2.4889 7.12 2.9689 5.72 3.8689 4.58C3.5289 3.28 3.6189 1.9 4.1589 0.650001C4.2789 0.380001 4.5089 0.170001 4.7889 0.0900009C5.1489 -0.0199991 6.5189 -0.219999 9.1589 1.45C11.3389 0.930001 13.6189 0.930001 15.7989 1.45C18.4789 -0.239999 19.8389 -0.0399991 20.1989 0.0700009C20.4889 0.150001 20.7189 0.360001 20.8289 0.630001C21.3689 1.88 21.4689 3.26 21.1189 4.56C22.0089 5.69 22.4989 7.08 22.4989 8.54C22.4989 14.22 19.0489 15.79 16.7089 16.3C16.7189 16.34 16.7389 16.37 16.7489 16.41C16.9589 17 17.0389 17.61 16.9989 18.23V22.02C16.9989 22.57 16.5589 23.02 15.9989 23.02L16.0089 23.03Z"
            fill="current" />
    </g>
    <defs>
        <clipPath id="clip0_7_9374">
            <rect width="24" height="24" fill="white" />
        </clipPath>
    </defs>
</svg>