<svg width="24" height="24" viewBox="0 0 24 24" fill="none" xmlns="http://www.w3.org/2000/svg">
    <path fill-rule="evenodd" clip-rule="evenodd"
        d="M5 4C4.44772 4 4 4.44772 4 5V19C4 19.5523 4.44772 20 5 20H19C19.5523 20 20 19.5523 20 19V5C20 4.44772 19.5523 4 19 4H5ZM2 5C2 3.34315 3.34315 2 5 2H19C20.6569 2 22 3.34315 22 5V19C22 20.6569 20.6569 22 19 22H5C3.34315 22 2 20.6569 2 19V5Z"
        fill="current" />
    <path fill-rule="evenodd" clip-rule="evenodd"
        d="M8 6C8.55228 6 9 6.44772 9 7V14C9 14.5523 8.55228 15 8 15C7.44772 15 7 14.5523 7 14V7C7 6.44772 7.44772 6 8 6ZM12 6C12.5523 6 13 6.44772 13 7V11C13 11.5523 12.5523 12 12 12C11.4477 12 11 11.5523 11 11V7C11 6.44772 11.4477 6 12 6ZM16 6C16.5523 6 17 6.44772 17 7V16C17 16.5523 16.5523 17 16 17C15.4477 17 15 16.5523 15 16V7C15 6.44772 15.4477 6 16 6Z"
        fill="current" />
</svg>