<svg width="24" height="24" viewBox="0 0 24 24" fill="none" xmlns="http://www.w3.org/2000/svg">
    <path fill-rule="evenodd" clip-rule="evenodd"
        d="M21.92 2.62C21.82 2.38 21.62 2.18 21.38 2.08C21.26 2.03 21.13 2 21 2H15C14.45 2 14 2.45 14 3C14 3.55 14.45 4 15 4H18.59L13.3 9.29C12.91 9.68 12.91 10.31 13.3 10.7C13.69 11.09 14.32 11.09 14.71 10.7L20 5.41V9C20 9.55 20.45 10 21 10C21.55 10 22 9.55 22 9V3C22 2.87 21.97 2.74 21.92 2.62Z"
        fill="current" />
    <path fill-rule="evenodd" clip-rule="evenodd"
        d="M9.29 13.29L4 18.58V14.99C4 14.44 3.55 13.99 3 13.99C2.45 13.99 2 14.44 2 14.99V20.99C2 21.12 2.03 21.25 2.08 21.37C2.18 21.61 2.38 21.81 2.62 21.91C2.74 21.96 2.87 21.98 2.99 21.99H8.99C9.54 21.99 9.99 21.54 9.99 20.99C9.99 20.44 9.54 19.99 8.99 19.99H5.4L10.69 14.7C11.08 14.31 11.08 13.68 10.69 13.29C10.3 12.9 9.67 12.9 9.28 13.29H9.29Z"
        fill="current" />
</svg>