<svg width="24" height="24" viewBox="0 0 24 24" fill="none" xmlns="http://www.w3.org/2000/svg">
    <path fill-rule="evenodd" clip-rule="evenodd"
        d="M5 7C4.73478 7 4.48043 7.10536 4.29289 7.29289C4.10536 7.48043 4 7.73478 4 8V8.83731C4.31021 8.74015 4.62912 8.5947 4.91559 8.38845C5.3186 8.0983 5.6886 7.6685 5.87444 7H5ZM7.91974 7C7.68749 8.38689 6.97435 9.37064 6.08416 10.0115C5.41254 10.4951 4.66671 10.7664 4 10.8978V13.1022C4.66671 13.2336 5.41254 13.5049 6.08416 13.9885C6.97435 14.6294 7.68749 15.6131 7.91974 17H16.0803C16.3125 15.6131 17.0257 14.6294 17.9158 13.9885C18.5875 13.5049 19.3333 13.2336 20 13.1022V10.8978C19.3333 10.7664 18.5875 10.4951 17.9158 10.0115C17.0257 9.37064 16.3125 8.38689 16.0803 7H7.91974ZM18.1256 7C18.3114 7.6685 18.6814 8.0983 19.0844 8.38845C19.3709 8.5947 19.6898 8.74015 20 8.83731V8C20 7.73478 19.8946 7.48043 19.7071 7.29289C19.5196 7.10536 19.2652 7 19 7H18.1256ZM20 15.1627C19.6898 15.2598 19.3709 15.4053 19.0844 15.6115C18.6814 15.9017 18.3114 16.3315 18.1256 17H19C19.2652 17 19.5196 16.8946 19.7071 16.7071C19.8946 16.5196 20 16.2652 20 16V15.1627ZM5.87444 17C5.6886 16.3315 5.3186 15.9017 4.91559 15.6115C4.62912 15.4053 4.31021 15.2598 4 15.1627V16C4 16.2652 4.10536 16.5196 4.29289 16.7071C4.48043 16.8946 4.73478 17 5 17H5.87444ZM2.87868 5.87868C3.44129 5.31607 4.20435 5 5 5H19C19.7957 5 20.5587 5.31607 21.1213 5.87868C21.6839 6.44129 22 7.20435 22 8V16C22 16.7957 21.6839 17.5587 21.1213 18.1213C20.5587 18.6839 19.7957 19 19 19H5C4.20435 19 3.44129 18.6839 2.87868 18.1213C2.31607 17.5587 2 16.7956 2 16V8C2 7.20435 2.31607 6.44129 2.87868 5.87868Z"
        fill="current" />
    <path fill-rule="evenodd" clip-rule="evenodd"
        d="M12 11C11.4477 11 11 11.4477 11 12C11 12.5523 11.4477 13 12 13C12.5523 13 13 12.5523 13 12C13 11.4477 12.5523 11 12 11ZM9 12C9 10.3431 10.3431 9 12 9C13.6569 9 15 10.3431 15 12C15 13.6569 13.6569 15 12 15C10.3431 15 9 13.6569 9 12Z"
        fill="current" />
</svg>