<svg width="24" height="24" viewBox="0 0 24 24" fill="none" xmlns="http://www.w3.org/2000/svg">
    <g clip-path="url(#clip0_7_9358)">
        <path
            d="M23.6 1.29C23.21 0.899998 22.58 0.899998 22.19 1.29L16.9 6.58V2.99C16.9 2.44 16.45 1.99 15.9 1.99C15.35 1.99 14.9 2.44 14.9 2.99V8.99C14.9 9.12 14.93 9.25 14.98 9.37C15.08 9.61 15.28 9.81 15.52 9.91C15.64 9.96 15.77 9.99 15.9 9.99H21.9C22.45 9.99 22.9 9.54 22.9 8.99C22.9 8.44 22.45 7.99 21.9 7.99H18.31L23.6 2.7C23.99 2.31 23.99 1.68 23.6 1.29Z"
            fill="current" />
        <path
            d="M20.3 14.9C19.41 14.78 18.54 14.57 17.71 14.26C17.17 14.06 16.59 14.01 16.03 14.13C15.47 14.25 14.96 14.53 14.54 14.93L13.82 15.65C11.98 14.48 10.41 12.91 9.23 11.06L9.95 10.34C10.35 9.93 10.63 9.42 10.75 8.86C10.87 8.3 10.83 7.72 10.63 7.18C10.32 6.34 10.1 5.47 9.98 4.58C9.88 3.86 9.52 3.2 8.97 2.72C8.42 2.25 7.73 2.01 6.99 1.99H3.99C3.57 1.99 3.17 2.08 2.78 2.25C2.4 2.42 2.06 2.66 1.78 2.97C1.5 3.28 1.29 3.64 1.15 4.03C1.02 4.44 0.969997 4.85 1.01 5.29C1.35 8.52 2.47 11.67 4.23 14.39C5.83 16.91 8.02 19.1 10.53 20.69C13.24 22.45 16.38 23.57 19.62 23.92C19.71 23.92 19.8 23.93 19.89 23.93C20.22 23.93 20.54 23.88 20.85 23.77C21.25 23.64 21.61 23.42 21.92 23.14C22.23 22.85 22.47 22.51 22.64 22.13C22.81 21.74 22.89 21.34 22.89 20.92V17.93C22.9 17.2 22.65 16.49 22.18 15.93C21.7 15.37 21.04 15 20.3 14.9ZM20.89 17.92V20.92C20.89 21.06 20.86 21.2 20.81 21.33C20.75 21.46 20.67 21.57 20.57 21.67C20.47 21.76 20.35 21.84 20.22 21.88C20.09 21.92 19.94 21.94 19.83 21.93C16.92 21.61 14.09 20.61 11.63 19.01C9.35 17.56 7.38 15.59 5.93 13.31C4.33 10.85 3.33 8 3.02 5.09C3.01 4.95 3.02 4.81 3.07 4.68C3.11 4.55 3.18 4.43 3.28 4.33C3.38 4.23 3.49 4.14 3.61 4.09C3.74 4.03 3.87 4.01 4.01 4H7.03C7.27 4 7.5 4.09 7.68 4.24C7.86 4.4 7.99 4.62 8.02 4.85C8.16 5.88 8.41 6.9 8.77 7.88C8.84 8.06 8.85 8.25 8.81 8.44C8.77 8.63 8.68 8.8 8.55 8.93L7.28 10.2C6.96 10.52 6.9 11.01 7.12 11.4C8.63 14.06 10.84 16.26 13.5 17.78C13.89 18 14.38 17.94 14.7 17.62L15.97 16.36C16.11 16.22 16.28 16.13 16.47 16.09C16.66 16.05 16.85 16.06 17.03 16.13C18 16.49 19.02 16.75 20.05 16.88C20.29 16.91 20.51 17.04 20.67 17.22C20.83 17.41 20.91 17.64 20.91 17.89V17.91L20.89 17.92Z"
            fill="current" />
    </g>
    <defs>
        <clipPath id="clip0_7_9358">
            <rect width="24" height="24" fill="white" />
        </clipPath>
    </defs>
</svg>