<svg width="24" height="24" viewBox="0 0 24 24" fill="none" xmlns="http://www.w3.org/2000/svg">
    <path
        d="M19.89 22.93C19.8 22.93 19.71 22.93 19.62 22.92C16.38 22.57 13.25 21.45 10.53 19.69C8.01 18.09 5.83 15.91 4.23 13.39C2.47 10.67 1.36 7.52 1.01 4.29C0.970002 3.86 1.01 3.45 1.15 3.05C1.28 2.65 1.5 2.29 1.78 1.98C2.06 1.67 2.4 1.43 2.78 1.26C3.17 1.09 3.58 1 4 1H7C7.7 1 8.42 1.25 8.98 1.73C9.53 2.2 9.89 2.86 9.99 3.58C10.11 4.47 10.32 5.34 10.64 6.18C10.84 6.72 10.88 7.3 10.76 7.86C10.64 8.42 10.36 8.94 9.96 9.35L9.24 10.07C10.42 11.91 11.98 13.48 13.83 14.66L14.55 13.94C14.96 13.53 15.48 13.26 16.04 13.14C16.61 13.02 17.19 13.06 17.72 13.27C18.55 13.58 19.42 13.8 20.31 13.91C21.05 14.01 21.71 14.38 22.19 14.94C22.66 15.5 22.92 16.21 22.9 16.94V19.93C22.9 20.34 22.82 20.75 22.65 21.14C22.48 21.52 22.24 21.86 21.93 22.15C21.62 22.44 21.26 22.65 20.86 22.78C20.55 22.89 20.23 22.94 19.9 22.94L19.89 22.93ZM7.02 3H4C3.86 3 3.73 3.03 3.6 3.09C3.47 3.15 3.36 3.23 3.27 3.33C3.18 3.43 3.1 3.55 3.06 3.69C3.02 3.82 3 3.96 3.01 4.1C3.32 7.01 4.33 9.85 5.92 12.32C7.37 14.61 9.34 16.57 11.62 18.02C14.08 19.62 16.91 20.62 19.82 20.94C19.94 20.94 20.08 20.94 20.21 20.89C20.34 20.85 20.46 20.78 20.56 20.68C20.66 20.58 20.75 20.47 20.8 20.34C20.86 20.21 20.88 20.08 20.88 19.94V16.91C20.88 16.67 20.8 16.43 20.64 16.24C20.48 16.05 20.26 15.93 20.02 15.9C18.99 15.76 17.97 15.51 17 15.15C16.82 15.08 16.63 15.07 16.44 15.11C16.25 15.15 16.08 15.24 15.95 15.38L14.68 16.64C14.36 16.96 13.87 17.02 13.48 16.8C10.82 15.29 8.62 13.09 7.1 10.42C6.88 10.03 6.94 9.54 7.26 9.22L8.53 7.95C8.66 7.82 8.75 7.65 8.79 7.46C8.83 7.27 8.82 7.08 8.75 6.9C8.38 5.92 8.13 4.9 8 3.87C7.97 3.64 7.85 3.42 7.66 3.26C7.48 3.1 7.25 3.02 7.01 3.02L7.02 3Z"
        fill="current" />
</svg>