<svg width="24" height="24" viewBox="0 0 24 24" fill="none" xmlns="http://www.w3.org/2000/svg">
    <path
        d="M21.3 5.00001L23.59 2.71001C23.98 2.32001 23.98 1.69001 23.59 1.30001C23.2 0.910007 22.57 0.910007 22.18 1.30001L19.89 3.59001L17.6 1.30001C17.21 0.910007 16.58 0.910007 16.19 1.30001C15.8 1.69001 15.8 2.32001 16.19 2.71001L18.48 5.00001L16.19 7.29001C15.8 7.68001 15.8 8.31001 16.19 8.70001C16.39 8.90001 16.64 8.99001 16.9 8.99001C17.16 8.99001 17.41 8.89001 17.61 8.70001L19.9 6.41001L22.19 8.70001C22.39 8.90001 22.64 8.99001 22.9 8.99001C23.16 8.99001 23.41 8.89001 23.61 8.70001C24 8.31001 24 7.68001 23.61 7.29001L21.32 5.00001H21.3Z"
        fill="current" />
    <path
        d="M20.3 14.9C19.41 14.78 18.54 14.57 17.71 14.26C17.17 14.06 16.59 14.01 16.03 14.13C15.47 14.25 14.96 14.53 14.54 14.93L13.82 15.65C11.98 14.48 10.41 12.91 9.23 11.06L9.95 10.34C10.35 9.93001 10.63 9.42001 10.75 8.86001C10.87 8.30001 10.83 7.72001 10.63 7.18001C10.32 6.34001 10.1 5.47001 9.98 4.58001C9.88 3.86001 9.52 3.20001 8.97 2.72001C8.42 2.25001 7.73 2.01001 6.99 1.99001H3.99C3.57 1.99001 3.17 2.08001 2.78 2.25001C2.4 2.42001 2.06 2.66001 1.78 2.97001C1.5 3.28001 1.29 3.64001 1.15 4.03001C1.02 4.44001 0.969997 4.85001 1.01 5.29001C1.35 8.52001 2.47 11.67 4.23 14.39C5.83 16.91 8.02 19.1 10.53 20.69C13.24 22.45 16.38 23.57 19.62 23.92C19.71 23.92 19.8 23.93 19.89 23.93C20.22 23.93 20.54 23.88 20.85 23.77C21.25 23.64 21.61 23.42 21.92 23.14C22.23 22.85 22.47 22.51 22.64 22.13C22.81 21.74 22.89 21.34 22.89 20.92V17.93C22.9 17.2 22.65 16.49 22.18 15.93C21.7 15.37 21.04 15 20.3 14.9ZM20.89 17.92V20.92C20.89 21.06 20.86 21.2 20.81 21.33C20.75 21.46 20.67 21.57 20.57 21.67C20.47 21.76 20.35 21.84 20.22 21.88C20.09 21.92 19.94 21.94 19.83 21.93C16.92 21.61 14.09 20.61 11.63 19.01C9.35 17.56 7.38 15.59 5.93 13.31C4.33 10.85 3.33 8.00001 3.02 5.09001C3.01 4.95001 3.02 4.81001 3.07 4.68001C3.11 4.55001 3.18 4.43001 3.28 4.33001C3.38 4.23001 3.49 4.14001 3.61 4.09001C3.74 4.03001 3.87 4.01001 4.01 4.00001H7.03C7.27 4.00001 7.5 4.09001 7.68 4.24001C7.86 4.40001 7.99 4.62001 8.02 4.85001C8.16 5.88001 8.41 6.90001 8.77 7.88001C8.84 8.06001 8.85 8.25001 8.81 8.44001C8.77 8.63001 8.68 8.80001 8.55 8.93001L7.28 10.2C6.96 10.52 6.9 11.01 7.12 11.4C8.63 14.06 10.84 16.26 13.5 17.78C13.89 18 14.38 17.94 14.7 17.62L15.97 16.36C16.11 16.22 16.28 16.13 16.47 16.09C16.66 16.05 16.85 16.06 17.03 16.13C18 16.49 19.02 16.75 20.05 16.88C20.29 16.91 20.51 17.04 20.67 17.22C20.83 17.41 20.91 17.64 20.91 17.89V17.91L20.89 17.92Z"
        fill="current" />
</svg>