<svg width="24" height="24" viewBox="0 0 24 24" fill="none" xmlns="http://www.w3.org/2000/svg">
    <path fill-rule="evenodd" clip-rule="evenodd"
        d="M19.4702 15.3388C19.0145 15.1131 18.4569 15.3013 18.2311 15.757C17.7017 16.8259 16.8737 17.7058 15.8379 18.2969C14.8104 18.8921 13.6246 19.1612 12.4374 19.0788C11.2502 18.9964 10.1196 18.5706 9.16987 17.8421C8.2284 17.1178 7.52167 16.128 7.14111 15.0004C6.76056 13.8728 6.72293 12.6572 7.03293 11.5105C7.34293 10.3638 7.98833 9.33164 8.88279 8.54669C9.77724 7.76174 10.8878 7.26959 12.0617 7.10805C13.2356 6.9465 14.4439 7.15289 15.5045 7.67825C16.0266 7.93683 16.4119 8.13803 16.7228 8.32296L13.9968 9.24297C13.5136 9.40606 13.255 9.9281 13.4181 10.4113C13.5812 10.8946 14.1032 11.1532 14.5865 10.9901L19.233 9.42186C19.7162 9.25877 19.9748 8.73673 19.8117 8.25349L18.2643 3.62757C18.1012 3.14433 17.5791 2.88575 17.0959 3.04884C16.6127 3.21193 16.3541 3.73397 16.5172 4.21721L17.2992 6.53428C17.0216 6.38644 16.7108 6.22219 16.3379 6.03749C14.9458 5.34794 13.3816 5.08913 11.8398 5.28514C10.298 5.48114 8.84894 6.13584 7.68243 7.15753C6.51592 8.17923 5.6732 9.52641 5.26942 11.0291C4.86563 12.5318 4.91706 14.1155 5.4147 15.59C5.91234 17.0645 6.83112 18.3554 8.06291 19.3061C9.2947 20.2568 10.7814 20.8178 12.3285 20.9236C13.8756 21.0295 15.425 20.6722 16.7703 19.8938C18.1155 19.1154 19.203 17.9617 19.8925 16.5696C20.1182 16.1139 19.9301 15.5563 19.4743 15.3305L19.4702 15.3388Z"
        fill="current" />
</svg>