<svg width="24" height="24" viewBox="0 0 24 24" fill="none" xmlns="http://www.w3.org/2000/svg">
    <path fill-rule="evenodd" clip-rule="evenodd"
        d="M5 6C4.73478 6 4.48043 6.10536 4.29289 6.29289C4.10536 6.48043 4 6.73478 4 7V7.83731C4.31021 7.74015 4.62912 7.5947 4.91559 7.38845C5.3186 7.0983 5.6886 6.6685 5.87444 6H5ZM7.91974 6C7.68749 7.38689 6.97435 8.37064 6.08416 9.01155C5.41254 9.49509 4.66671 9.76636 4 9.89784V12.1022C4.66671 12.2336 5.41254 12.5049 6.08416 12.9885C6.97435 13.6294 7.68749 14.6131 7.91974 16H11C11.5523 16 12 16.4477 12 17C12 17.5523 11.5523 18 11 18H5C4.20435 18 3.44129 17.6839 2.87868 17.1213C2.31607 16.5587 2 15.7956 2 15V7C2 6.20435 2.31607 5.44129 2.87868 4.87868C3.44129 4.31607 4.20435 4 5 4H19C19.7957 4 20.5587 4.31607 21.1213 4.87868C21.6839 5.44129 22 6.20435 22 7V11C22 11.5523 21.5523 12 21 12C20.4477 12 20 11.5523 20 11V9.89784C19.3333 9.76636 18.5875 9.49509 17.9158 9.01155C17.0257 8.37064 16.3125 7.38689 16.0803 6H7.91974ZM18.1256 6C18.3114 6.6685 18.6814 7.0983 19.0844 7.38845C19.3709 7.5947 19.6898 7.74015 20 7.83731V7C20 6.73478 19.8946 6.48043 19.7071 6.29289C19.5196 6.10536 19.2652 6 19 6H18.1256ZM5.87444 16C5.6886 15.3315 5.3186 14.9017 4.91559 14.6115C4.62912 14.4053 4.31021 14.2598 4 14.1627V15C4 15.2652 4.10536 15.5196 4.29289 15.7071C4.48043 15.8946 4.73478 16 5 16H5.87444Z"
        fill="current" />
    <path fill-rule="evenodd" clip-rule="evenodd"
        d="M12 10C11.4477 10 11 10.4477 11 11C11 11.5523 11.4477 12 12 12C12.5523 12 13 11.5523 13 11C13 10.4477 12.5523 10 12 10ZM9 11C9 9.34315 10.3431 8 12 8C13.6569 8 15 9.34315 15 11C15 12.6569 13.6569 14 12 14C10.3431 14 9 12.6569 9 11Z"
        fill="current" />
    <path fill-rule="evenodd" clip-rule="evenodd"
        d="M20.8284 14.1716C21.219 14.5621 21.219 15.1953 20.8284 15.5858L19.4142 17L20.8284 18.4142C21.219 18.8047 21.219 19.4379 20.8284 19.8284C20.4379 20.219 19.8047 20.219 19.4142 19.8284L18 18.4142L16.5858 19.8284C16.1953 20.219 15.5621 20.219 15.1716 19.8284C14.781 19.4379 14.781 18.8047 15.1716 18.4142L16.5858 17L15.1716 15.5858C14.781 15.1953 14.781 14.5621 15.1716 14.1716C15.5621 13.781 16.1953 13.781 16.5858 14.1716L18 15.5858L19.4142 14.1716C19.8047 13.781 20.4379 13.781 20.8284 14.1716Z"
        fill="current" />
</svg>