<svg width="24" height="24" viewBox="0 0 24 24" fill="none" xmlns="http://www.w3.org/2000/svg">
    <g clip-path="url(#clip0_7_9341)">
        <path
            d="M12 8.00001C9.78999 8.00001 7.99999 9.79001 7.99999 12C7.99999 14.21 9.78999 16 12 16C14.21 16 16 14.21 16 12C16 9.79001 14.21 8.00001 12 8.00001ZM12 14C10.9 14 9.99999 13.1 9.99999 12C9.99999 10.9 10.9 10 12 10C13.1 10 14 10.9 14 12C14 13.1 13.1 14 12 14Z"
            fill="current" />
        <path
            d="M20.5 20.42C20.78 20.14 21 19.81 21.15 19.45C21.3 19.09 21.38 18.7 21.38 18.3C21.38 17.9 21.3 17.52 21.15 17.15C21 16.79 20.78 16.45 20.5 16.18L20.45 16.13C20.36 16.04 20.3 15.92 20.28 15.79C20.26 15.66 20.28 15.53 20.32 15.41C20.37 15.28 20.45 15.18 20.56 15.11C20.67 15.04 20.79 15 20.91 15H21C21.8 15 22.56 14.68 23.12 14.12C23.68 13.56 24 12.79 24 12C24 11.21 23.68 10.44 23.12 9.88001C22.56 9.32001 21.79 9.00001 21 9.00001H20.83C20.7 9.00001 20.58 8.96001 20.48 8.89001C20.41 8.84001 20.35 8.78001 20.3 8.71001C20.29 8.64001 20.26 8.58001 20.24 8.51001C20.19 8.39001 20.17 8.26001 20.2 8.13001C20.22 8.00001 20.28 7.89001 20.37 7.79001L20.43 7.73001C20.71 7.45001 20.93 7.12001 21.08 6.76001C21.23 6.40001 21.31 6.01001 21.31 5.61001C21.31 5.21001 21.23 4.83001 21.08 4.46001C20.93 4.10001 20.71 3.77001 20.43 3.49001C20.15 3.21001 19.82 2.99001 19.46 2.84001C19.1 2.69001 18.71 2.61001 18.31 2.61001C17.91 2.61001 17.53 2.69001 17.16 2.84001C16.8 2.99001 16.46 3.21001 16.19 3.49001L16.14 3.54001C16.05 3.63001 15.93 3.69001 15.8 3.71001C15.67 3.73001 15.54 3.71001 15.42 3.67001C15.3 3.62001 15.2 3.53001 15.13 3.43001C15.06 3.32001 15.02 3.20001 15.02 3.08001V2.99001C15.02 2.19001 14.7 1.43001 14.14 0.870005C13.58 0.310005 12.81 -0.00999451 12.02 -0.00999451C11.23 -0.00999451 10.46 0.310005 9.89999 0.870005C9.33999 1.43001 9.01999 2.20001 9.01999 2.99001V3.16001C9.01999 3.29001 8.97999 3.41001 8.90999 3.51001C8.85999 3.58001 8.79999 3.64001 8.72999 3.69001C8.65999 3.70001 8.59999 3.73001 8.52999 3.75001C8.40999 3.80001 8.27999 3.82001 8.14999 3.79001C8.01999 3.77001 7.90999 3.71001 7.80999 3.62001L7.75999 3.57001C7.47999 3.29001 7.14999 3.07001 6.78999 2.92001C6.42999 2.77001 6.03999 2.69001 5.63999 2.69001C5.23999 2.69001 4.85999 2.77001 4.48999 2.92001C4.12999 3.07001 3.79999 3.29001 3.51999 3.57001C3.23999 3.85001 3.01999 4.18001 2.86999 4.54001C2.71999 4.90001 2.63999 5.29001 2.63999 5.69001C2.63999 6.09001 2.71999 6.47001 2.86999 6.84001C3.01999 7.20001 3.23999 7.54001 3.51999 7.81001L3.56999 7.86001C3.65999 7.95001 3.71999 8.07001 3.73999 8.20001C3.75999 8.33001 3.73999 8.46001 3.69999 8.58001C3.69999 8.60001 3.67999 8.62001 3.67999 8.64001C3.63999 8.76001 3.54999 8.87001 3.44999 8.94001C3.34999 9.01 3.21999 9.06001 3.09999 9.06001H3.01999C2.21999 9.06001 1.45999 9.38 0.899989 9.94001C0.339989 10.5 0.019989 11.27 0.019989 12.06C0.019989 12.85 0.339989 13.62 0.899989 14.18C1.45999 14.74 2.22999 15.06 3.01999 15.06H3.18999C3.31999 15.06 3.43999 15.1 3.53999 15.17C3.64999 15.24 3.72999 15.34 3.77999 15.46C3.82999 15.59 3.84999 15.72 3.81999 15.85C3.79999 15.98 3.73999 16.09 3.64999 16.19L3.59999 16.24C3.31999 16.52 3.09999 16.85 2.94999 17.21C2.79999 17.57 2.71999 17.96 2.71999 18.36C2.71999 18.76 2.79999 19.14 2.94999 19.51C3.09999 19.87 3.31999 20.21 3.59999 20.48C3.87999 20.76 4.20999 20.98 4.56999 21.13C4.92999 21.28 5.31999 21.36 5.71999 21.36C6.11999 21.36 6.49999 21.28 6.86999 21.13C7.22999 20.98 7.56999 20.76 7.83999 20.48L7.88999 20.43C7.97999 20.34 8.09999 20.28 8.22999 20.26C8.35999 20.24 8.48999 20.26 8.60999 20.3C8.62999 20.3 8.64999 20.32 8.66999 20.32C8.78999 20.37 8.89999 20.45 8.96999 20.55C9.03999 20.65 9.08999 20.78 9.08999 20.9V20.98C9.08999 21.78 9.40999 22.54 9.96999 23.1C10.53 23.66 11.3 23.98 12.09 23.98C12.88 23.98 13.65 23.66 14.21 23.1C14.77 22.54 15.09 21.77 15.09 20.98V20.81C15.09 20.68 15.13 20.56 15.2 20.46C15.27 20.35 15.37 20.27 15.49 20.22C15.61 20.16 15.74 20.15 15.87 20.17C16 20.19 16.11 20.25 16.21 20.34L16.27 20.4C16.55 20.68 16.88 20.9 17.24 21.05C17.6 21.2 17.99 21.28 18.39 21.28C18.79 21.28 19.17 21.2 19.54 21.05C19.9 20.9 20.23 20.68 20.51 20.4M19.45 13.44C19.02 13.72 18.68 14.13 18.48 14.6C18.27 15.08 18.2 15.62 18.3 16.14C18.39 16.66 18.64 17.14 19.01 17.52L19.08 17.59C19.17 17.68 19.25 17.79 19.3 17.91C19.35 18.03 19.38 18.16 19.38 18.29C19.38 18.42 19.35 18.55 19.3 18.67C19.25 18.79 19.18 18.9 19.08 18.99C18.99 19.08 18.88 19.16 18.76 19.21C18.64 19.26 18.51 19.29 18.38 19.29C18.25 19.29 18.12 19.26 18 19.21C17.88 19.16 17.77 19.09 17.68 18.99L17.62 18.93C17.24 18.55 16.76 18.3 16.24 18.21C15.72 18.12 15.19 18.18 14.7 18.39C14.23 18.59 13.82 18.93 13.54 19.36C13.25 19.79 13.1 20.3 13.1 20.81V20.98C13.1 21.25 12.99 21.5 12.81 21.69C12.63 21.88 12.37 21.98 12.1 21.98C11.83 21.98 11.58 21.87 11.39 21.69C11.2 21.51 11.1 21.25 11.1 20.98V20.87C11.09 20.34 10.92 19.82 10.61 19.39C10.31 18.97 9.88999 18.64 9.39999 18.46C8.91999 18.26 8.39999 18.2 7.88999 18.29C7.36999 18.38 6.88999 18.63 6.50999 19L6.43999 19.07C6.34999 19.16 6.23999 19.24 6.11999 19.29C5.99999 19.34 5.86999 19.37 5.73999 19.37C5.60999 19.37 5.47999 19.34 5.35999 19.29C5.23999 19.24 5.12999 19.17 5.03999 19.07C4.94999 18.98 4.86999 18.87 4.81999 18.74C4.76999 18.62 4.73999 18.49 4.73999 18.36C4.73999 18.23 4.76999 18.1 4.81999 17.98C4.86999 17.86 4.93999 17.75 5.03999 17.65L5.09999 17.59C5.46999 17.2 5.71999 16.72 5.80999 16.2C5.89999 15.68 5.83999 15.15 5.62999 14.66C5.42999 14.19 5.08999 13.78 4.65999 13.5C4.22999 13.21 3.71999 13.06 3.20999 13.06H3.03999C2.76999 13.06 2.51999 12.95 2.32999 12.77C2.13999 12.58 2.03999 12.33 2.03999 12.06C2.03999 11.79 2.14999 11.54 2.32999 11.35C2.51999 11.16 2.76999 11.06 3.03999 11.06H3.14999C3.67999 11.05 4.19999 10.88 4.62999 10.57C5.04999 10.27 5.37999 9.85001 5.55999 9.36001C5.75999 8.88001 5.81999 8.36001 5.72999 7.85001C5.63999 7.33001 5.38999 6.85001 5.01999 6.47001L4.94999 6.40001C4.85999 6.31001 4.77999 6.20001 4.72999 6.08001C4.67999 5.96001 4.64999 5.83001 4.64999 5.70001C4.64999 5.57001 4.67999 5.44001 4.72999 5.32001C4.77999 5.20001 4.84999 5.09001 4.94999 5.00001C5.03999 4.91001 5.14999 4.83001 5.26999 4.78001C5.38999 4.73001 5.51999 4.70001 5.64999 4.70001C5.77999 4.70001 5.90999 4.73001 6.02999 4.78001C6.14999 4.83001 6.25999 4.90001 6.34999 5.00001L6.40999 5.06001C6.78999 5.44001 7.26999 5.69001 7.78999 5.78001C8.23999 5.86001 8.70999 5.82001 9.13999 5.67001C9.22999 5.66001 9.31999 5.63001 9.39999 5.60001C9.87999 5.40001 10.28 5.06001 10.57 4.63001C10.86 4.20001 11.01 3.69001 11.01 3.18001V3.01001C11.01 2.74001 11.12 2.49001 11.3 2.30001C11.49 2.11001 11.74 2.01001 12.01 2.01001C12.28 2.01001 12.53 2.12001 12.72 2.30001C12.91 2.49001 13.01 2.74001 13.01 3.01001V3.10001C13.01 3.62001 13.17 4.13001 13.45 4.56001C13.73 4.99001 14.14 5.33001 14.61 5.53001C15.09 5.74001 15.63 5.81001 16.15 5.71001C16.67 5.62001 17.15 5.37001 17.53 5.00001L17.6 4.93001C17.69 4.84001 17.8 4.76001 17.92 4.71001C18.04 4.66001 18.17 4.63001 18.3 4.63001C18.43 4.63001 18.56 4.66001 18.68 4.71001C18.8 4.76001 18.91 4.83001 19 4.93001C19.09 5.02001 19.17 5.13001 19.22 5.26001C19.27 5.38001 19.3 5.51001 19.3 5.64001C19.3 5.77001 19.27 5.90001 19.22 6.02001C19.17 6.14001 19.1 6.25001 19 6.34001L18.94 6.40001C18.57 6.79001 18.32 7.27001 18.23 7.79001C18.15 8.24001 18.19 8.71001 18.34 9.14001C18.35 9.23001 18.38 9.32001 18.41 9.40001C18.61 9.88 18.95 10.28 19.38 10.57C19.81 10.86 20.32 11.01 20.83 11.01H21C21.27 11.01 21.52 11.12 21.71 11.3C21.9 11.48 22 11.74 22 12.01C22 12.28 21.89 12.53 21.71 12.72C21.53 12.91 21.27 13.01 21 13.01H20.91C20.39 13.01 19.89 13.17 19.46 13.45L19.45 13.44Z"
            fill="current" />
    </g>
    <defs>
        <clipPath id="clip0_7_9341">
            <rect width="24" height="24" fill="white" />
        </clipPath>
    </defs>
</svg>