<svg width="24" height="24" viewBox="0 0 24 24" fill="none" xmlns="http://www.w3.org/2000/svg">
    <path
        d="M12 1C5.93 1 1 5.93 1 12C1 18.07 5.93 23 12 23C18.07 23 23 18.07 23 12C23 5.93 18.07 1 12 1ZM12 21C7.04 21 3 16.96 3 12C3 7.04 7.04 3 12 3C16.96 3 21 7.04 21 12C21 16.96 16.96 21 12 21Z"
        fill="current" />
    <path
        d="M15.2 13.4C15.2 13.4 13.95 15 12 15C10.05 15 8.83 13.43 8.8 13.4C8.47 12.96 7.85 12.87 7.4 13.2C6.96 13.53 6.87 14.16 7.2 14.6C7.27 14.7 9.03 17 12 17C14.97 17 16.73 14.7 16.8 14.6C17.13 14.16 17.04 13.54 16.6 13.21C16.16 12.88 15.53 12.96 15.2 13.4Z"
        fill="current" />
    <path
        d="M9.01 10C9.56 10 10.01 9.55 10.01 9C10.01 8.45 9.56 8 9.01 8C8.46 8 8.01 8.45 8.01 9C8.01 9.55 8.46 10 9.01 10Z"
        fill="current" />
    <path
        d="M15.01 10C15.56 10 16.01 9.55 16.01 9C16.01 8.45 15.56 8 15.01 8C14.46 8 14.01 8.45 14.01 9C14.01 9.55 14.46 10 15.01 10Z"
        fill="current" />
</svg>