<svg width="24" height="24" viewBox="0 0 24 24" fill="none" xmlns="http://www.w3.org/2000/svg">
    <path fill-rule="evenodd" clip-rule="evenodd"
        d="M23.6775 8.535L19.4375 4.295C19.3475 4.205 19.2375 4.125 19.1175 4.075C18.8775 3.975 18.5975 3.975 18.3575 4.075C18.2375 4.125 18.1275 4.195 18.0375 4.295L13.7775 8.535C13.3875 8.925 13.3875 9.555 13.7775 9.945C14.1675 10.335 14.7975 10.335 15.1875 9.945L17.7275 7.405V18.895C17.7275 19.445 18.1775 19.895 18.7275 19.895C19.2775 19.895 19.7275 19.445 19.7275 18.895V7.415L22.2675 9.955C22.6575 10.345 23.2875 10.345 23.6775 9.955C24.0675 9.565 24.0675 8.935 23.6775 8.545V8.535Z"
        fill="current" />
    <path fill-rule="evenodd" clip-rule="evenodd"
        d="M1.2925 15.365L5.5325 19.605C5.6225 19.695 5.7325 19.775 5.8525 19.825C6.0925 19.925 6.3725 19.925 6.6125 19.825C6.7325 19.775 6.8425 19.705 6.9325 19.605L11.1925 15.365C11.5825 14.975 11.5825 14.345 11.1925 13.955C10.8025 13.565 10.1725 13.565 9.7825 13.955L7.2425 16.495L7.2425 5.00502C7.2425 4.45502 6.7925 4.00502 6.2425 4.00502C5.6925 4.00502 5.2425 4.45502 5.2425 5.00502L5.2425 16.485L2.7025 13.945C2.3125 13.555 1.6825 13.555 1.2925 13.945C0.9025 14.335 0.9025 14.965 1.2925 15.355V15.365Z"
        fill="current" />
</svg>