<svg width="24" height="24" viewBox="0 0 24 24" fill="none" xmlns="http://www.w3.org/2000/svg">
    <path fill-rule="evenodd" clip-rule="evenodd"
        d="M11.9909 2.50119C13.1901 2.4833 14.3955 2.66756 15.4168 3.05054C16.4059 3.42147 17.3418 4.02709 17.8049 4.92569C18.1052 5.50861 17.8762 6.22466 17.2933 6.52503C16.7104 6.8254 15.9943 6.59636 15.6939 6.01344C15.6185 5.86708 15.3203 5.55057 14.5829 5.27404C13.8804 5.01059 12.9735 4.86064 12.0188 4.87574L12 4.87589H10.8127C10.0254 4.87589 9.27037 5.18863 8.71369 5.74531C8.15701 6.30199 7.84427 7.05701 7.84427 7.84427C7.84427 8.63153 8.15701 9.38655 8.71369 9.94323C9.27037 10.4999 10.0254 10.8126 10.8127 10.8126H20.3115C20.9672 10.8126 21.4988 11.3442 21.4988 12C21.4988 12.6558 20.9672 13.1874 20.3115 13.1874H17.63C18.2128 14.0596 18.5304 15.0913 18.5304 16.1557C18.5304 17.5728 17.9675 18.9318 16.9655 19.9339C15.9635 20.9359 14.6044 21.4988 13.1874 21.4988H11.4155C10.2163 21.5167 9.01085 21.3324 7.98958 20.9495C7.00044 20.5785 6.0645 19.9729 5.60146 19.0743C5.30108 18.4914 5.53013 17.7753 6.11304 17.475C6.69596 17.1746 7.41201 17.4036 7.71238 17.9866C7.78781 18.1329 8.08598 18.4494 8.82339 18.726C9.52592 18.9894 10.4328 19.1394 11.3875 19.1243L11.4063 19.1241H13.1874C13.9746 19.1241 14.7296 18.8114 15.2863 18.2547C15.843 17.698 16.1557 16.943 16.1557 16.1557C16.1557 15.3685 15.843 14.6135 15.2863 14.0568C14.7296 13.5001 13.9746 13.1874 13.1874 13.1874H3.68854C3.03279 13.1874 2.50119 12.6558 2.50119 12C2.50119 11.3442 3.03279 10.8126 3.68854 10.8126H6.36996C5.7872 9.94041 5.46957 8.90872 5.46957 7.84427C5.46957 6.4272 6.0325 5.06816 7.03452 4.06614C8.03654 3.06412 9.39558 2.50119 10.8127 2.50119H11.9909Z"
        fill="current" />
</svg>