<svg width="24" height="24" viewBox="0 0 24 24" fill="none" xmlns="http://www.w3.org/2000/svg">
    <g clip-path="url(#clip0_7_9387)">
        <path fill-rule="evenodd" clip-rule="evenodd"
            d="M24.0025 12.0025C24.0025 11.4525 23.5525 11.0025 23.0025 11.0025C22.4525 11.0025 22.0025 11.4525 22.0025 12.0025V15.5925L14.2125 7.8025C13.8225 7.4125 13.1925 7.4125 12.8025 7.8025L8.5125 12.0925L1.7125 5.2925C1.3225 4.9025 0.6825 4.9025 0.2925 5.2925C-0.0975 5.6825 -0.0975 6.3225 0.2925 6.7125L7.7925 14.2125C8.1825 14.6025 8.8125 14.6025 9.2025 14.2125L13.4925 9.9225L20.5825 17.0125H16.9925C16.4425 17.0125 15.9925 17.4625 15.9925 18.0125C15.9925 18.5625 16.4425 19.0125 16.9925 19.0125H22.9925C23.1225 19.0125 23.2425 18.9825 23.3625 18.9325C23.6025 18.8325 23.8025 18.6325 23.9025 18.3925C23.9525 18.2725 23.9825 18.1425 23.9825 18.0125V12.0125L24.0025 12.0025Z"
            fill="current" />
    </g>
    <defs>
        <clipPath id="clip0_7_9387">
            <rect width="24" height="24" fill="white" />
        </clipPath>
    </defs>
</svg>