<svg width="24" height="24" viewBox="0 0 24 24" fill="none" xmlns="http://www.w3.org/2000/svg">
    <g clip-path="url(#clip0_7_9315)">
        <path
            d="M8.26459 21.9604C5.66459 21.9604 3.00459 21.2704 0.514586 19.8904C0.114586 19.6704 -0.0854141 19.1904 0.0345859 18.7504C0.164586 18.3004 0.594586 17.9804 1.03459 18.0204C2.74459 18.0904 4.39459 17.7604 5.91459 17.0504C2.20459 14.7504 1.24459 11.5104 1.13459 9.05037C1.00459 6.10037 2.05459 3.70037 2.09459 3.60037C2.24459 3.27037 2.55459 3.05037 2.91459 3.01037C3.27459 2.97037 3.62459 3.14037 3.83459 3.43037C5.51459 5.82037 8.14459 7.30037 11.0146 7.51037C11.0046 5.92037 11.6846 4.39037 12.8946 3.34037C14.9946 1.51037 18.1146 1.58037 20.1446 3.39037C20.9546 3.09037 21.7246 2.69037 22.4346 2.19037C22.7746 1.95037 23.2246 1.95037 23.5746 2.19037C23.9246 2.43037 24.0846 2.85037 23.9846 3.25037C23.6446 4.66037 22.9546 5.95037 21.9846 7.02037C22.0046 7.18037 22.0046 7.34037 22.0046 7.51037C22.0046 12.9904 19.5746 17.5704 15.3446 20.0604C13.1846 21.3304 10.7546 21.9604 8.26459 21.9604ZM4.96459 19.5304C8.21459 20.3704 11.5446 19.9704 14.3346 18.3304C17.9446 16.2104 20.0046 12.2604 20.0046 7.51037C20.0046 7.30037 19.9846 7.08037 19.9446 6.87037C19.8846 6.54037 19.9846 6.20037 20.2246 5.97037C20.4446 5.75037 20.6546 5.52037 20.8446 5.27037C20.6146 5.35037 20.3846 5.43037 20.1546 5.50037C19.7846 5.61037 19.3746 5.50037 19.1146 5.20037C17.8546 3.75037 15.6546 3.60037 14.2046 4.86037C13.4346 5.53037 12.9946 6.51037 13.0046 7.53037V8.54037C13.0046 9.08037 12.5746 9.53037 12.0346 9.54037C8.75459 9.64037 5.65459 8.34037 3.40459 6.05037C2.80459 8.60037 2.57459 13.5004 8.41459 16.1004C8.74459 16.2504 8.97459 16.5604 9.00459 16.9304C9.03459 17.3004 8.87459 17.6404 8.57459 17.8504C7.45459 18.6104 6.24459 19.1804 4.97459 19.5404L4.96459 19.5304Z"
            fill="current" />
    </g>
    <defs>
        <clipPath id="clip0_7_9315">
            <rect width="24" height="24" fill="white" />
        </clipPath>
    </defs>
</svg>