<svg width="24" height="24" viewBox="0 0 24 24" fill="none" xmlns="http://www.w3.org/2000/svg">
    <path fill-rule="evenodd" clip-rule="evenodd"
        d="M21 14C20.45 14 20 14.45 20 15V19C20 19.27 19.89 19.52 19.71 19.71C19.53 19.9 19.27 20 19 20H5C4.73 20 4.48 19.89 4.29 19.71C4.1 19.52 4 19.27 4 19V15C4 14.45 3.55 14 3 14C2.45 14 2 14.45 2 15V19C2 19.8 2.32 20.56 2.88 21.12C3.44 21.68 4.21 22 5 22H19C19.8 22 20.56 21.68 21.12 21.12C21.68 20.56 22 19.79 22 19V15C22 14.45 21.55 14 21 14Z"
        fill="current" />
    <path fill-rule="evenodd" clip-rule="evenodd"
        d="M7.71 8.71L11 5.42V15.01C11 15.56 11.45 16.01 12 16.01C12.55 16.01 13 15.56 13 15.01V5.41L16.29 8.7C16.68 9.08999 17.31 9.08999 17.7 8.7C18.09 8.31 18.09 7.68 17.7 7.29L12.71 2.29C12.62 2.2 12.51 2.12 12.39 2.07C12.15 1.97 11.87 1.97 11.63 2.07C11.51 2.12 11.4 2.19 11.31 2.28L6.31 7.28C5.92 7.67 5.92 8.3 6.31 8.69C6.7 9.08 7.33 9.08 7.72 8.69L7.71 8.71Z"
        fill="current" />
</svg>