<svg width="24" height="24" viewBox="0 0 24 24" fill="none" xmlns="http://www.w3.org/2000/svg">
    <g clip-path="url(#clip0_560_41798)">
        <path fill-rule="evenodd" clip-rule="evenodd"
            d="M22.4836 5.72894L12.0584 1.09553C11.7572 0.968115 11.4213 0.968115 11.1201 1.09553L0.683397 5.72894C0.26639 5.91428 -3.05176e-05 6.33128 -3.05176e-05 6.78304V21.8416C-3.05176e-05 22.4787 0.521228 23 1.15832 23C1.79542 23 2.31667 22.4787 2.31667 21.8416V7.53597L11.5835 3.41224L20.8503 7.53597V21.8416C20.8503 22.4787 21.3716 23 22.0087 23C22.6458 23 23.167 22.4787 23.167 21.8416V6.78304C23.167 6.3197 22.9006 5.91428 22.4836 5.72894Z"
            fill="current" />
        <path fill-rule="evenodd" clip-rule="evenodd"
            d="M17.3752 11.4164H13.9002C13.9002 10.8025 13.6569 10.2118 13.2168 9.78316C12.7766 9.35458 12.1974 9.09974 11.5835 9.09974H9.26679C8.65286 9.09974 8.0621 9.34299 7.63351 9.78316C7.20492 10.2233 6.95008 10.8025 6.95008 11.4164V13.7331H5.79173C5.15464 13.7331 4.63338 14.2544 4.63338 14.8915V21.8416C4.63338 22.4787 5.15464 23 5.79173 23H17.3752C18.0123 23 18.5336 22.4787 18.5336 21.8416V12.5748C18.5336 11.9377 18.0123 11.4164 17.3752 11.4164ZM9.26679 11.4164H11.5835V13.7331H9.26679V11.4164ZM6.95008 16.0498H11.5835V20.6833H6.95008V16.0498ZM16.2169 20.6833H13.9002V13.7331H16.2169V20.6833Z"
            fill="current" />
    </g>
    <defs>
        <clipPath id="clip0_560_41798">
            <rect width="24" height="24" fill="white" />
        </clipPath>
    </defs>
</svg>