<svg width="24" height="24" viewBox="0 0 24 24" fill="none" xmlns="http://www.w3.org/2000/svg">
    <path
        d="M17.5 22.02C15.41 22.02 14.26 22.02 13.38 21.14C12.5 20.26 12.5 19.11 12.5 17.02V15.02C12.5 12.93 12.5 11.78 13.38 10.9C14.26 10.02 15.41 10.02 17.5 10.02C19.59 10.02 20.74 10.02 21.62 10.9C22.5 11.78 22.5 12.93 22.5 15.02V17.02C22.5 19.11 22.5 20.26 21.62 21.14C20.74 22.02 19.59 22.02 17.5 22.02ZM17.5 12.02C16.05 12.02 15.09 12.02 14.79 12.31C14.5 12.6 14.5 13.56 14.5 15.02V17.02C14.5 18.47 14.5 19.43 14.79 19.73C15.08 20.03 16.04 20.02 17.5 20.02C18.96 20.02 19.91 20.02 20.21 19.73C20.5 19.44 20.5 18.48 20.5 17.02V15.02C20.5 13.57 20.5 12.61 20.21 12.31C19.92 12.02 19.01 12.02 17.5 12.02ZM7 22.02H5C3.97 22.02 3.4 22.02 2.85 21.79C2.48 21.64 2.16 21.42 1.88 21.14C1.6 20.86 1.38 20.53 1.23 20.17C1 19.62 1 19.05 1 18.02C1 16.99 1 16.42 1.23 15.87C1.38 15.5 1.6 15.18 1.88 14.9C2.16 14.62 2.49 14.4 2.85 14.25C3.4 14.02 3.97 14.02 5 14.02H7C8.03 14.02 8.6 14.02 9.15 14.25C9.52 14.4 9.84 14.62 10.12 14.9C10.4 15.18 10.62 15.51 10.77 15.87C11 16.42 11 16.99 11 18.02C11 19.05 11 19.62 10.77 20.17C10.62 20.54 10.4 20.86 10.12 21.14C9.84 21.42 9.51 21.64 9.15 21.79C8.6 22.02 8.03 22.02 7 22.02ZM5 16.02C4.28 16.02 3.8 16.02 3.62 16.1C3.5 16.15 3.39 16.22 3.3 16.32C3.21 16.41 3.13 16.52 3.08 16.65C3 16.83 3 17.31 3 18.03C3 18.75 3 19.23 3.08 19.41C3.13 19.53 3.2 19.64 3.3 19.73C3.39 19.82 3.5 19.9 3.63 19.95C3.81 20.03 4.29 20.03 5.01 20.03H7.01C7.73 20.03 8.21 20.03 8.39 19.95C8.51 19.9 8.62 19.83 8.72 19.73C8.81 19.64 8.89 19.53 8.94 19.41C9.02 19.23 9.02 18.75 9.02 18.03C9.02 17.31 9.02 16.83 8.94 16.65C8.89 16.53 8.82 16.42 8.72 16.32C8.63 16.23 8.52 16.16 8.4 16.11C8.22 16.03 7.74 16.03 7.02 16.03H5.02L5 16.02ZM6 13.02C3.91 13.02 2.76 13.02 1.88 12.14C1 11.26 1 10.11 1 8.02V6.02C1 3.93 1 2.78 1.88 1.9C2.76 1.02 3.91 1.02 6 1.02C8.09 1.02 9.24 1.02 10.12 1.9C11 2.78 11 3.93 11 6.02V8.02C11 10.11 11 11.26 10.12 12.14C9.24 13.02 8.09 13.02 6 13.02ZM6 3.02C4.55 3.02 3.59 3.02 3.29 3.31C3 3.6 3 4.56 3 6.02V8.02C3 9.47 3 10.43 3.29 10.73C3.58 11.03 4.54 11.02 6 11.02C7.46 11.02 8.41 11.02 8.71 10.73C9.01 10.44 9 9.48 9 8.02V6.02C9 4.57 9 3.61 8.71 3.31C8.42 3.02 7.46 3.02 6 3.02ZM18.5 9.02H16.5C15.47 9.02 14.9 9.02 14.35 8.79C13.98 8.64 13.66 8.42 13.38 8.14C13.1 7.86 12.88 7.53 12.73 7.16C12.5 6.61 12.5 6.04 12.5 5.01C12.5 3.98 12.5 3.41 12.73 2.86C12.88 2.49 13.1 2.17 13.38 1.88C13.66 1.6 13.99 1.38 14.35 1.23C14.9 1 15.47 1 16.5 1H18.5C19.53 1 20.1 1 20.65 1.23C21.01 1.38 21.34 1.6 21.62 1.88C21.9 2.16 22.12 2.49 22.27 2.86C22.5 3.41 22.5 3.98 22.5 5.01C22.5 6.04 22.5 6.61 22.27 7.16C22.12 7.52 21.9 7.85 21.62 8.13C21.34 8.41 21.01 8.63 20.64 8.78C20.09 9.01 19.52 9.01 18.49 9.01L18.5 9.02ZM16.5 3.02C15.78 3.02 15.3 3.02 15.12 3.1C15 3.15 14.89 3.22 14.79 3.32C14.7 3.41 14.62 3.52 14.57 3.64C14.49 3.82 14.49 4.3 14.49 5.02C14.49 5.74 14.49 6.22 14.57 6.4C14.62 6.52 14.69 6.63 14.79 6.72C14.88 6.81 14.99 6.89 15.12 6.94C15.3 7.02 15.78 7.02 16.5 7.02H18.5C19.22 7.02 19.7 7.02 19.88 6.94C20 6.89 20.11 6.82 20.21 6.72C20.3 6.63 20.37 6.52 20.42 6.4C20.5 6.22 20.5 5.74 20.5 5.02C20.5 4.3 20.5 3.82 20.42 3.64C20.37 3.52 20.3 3.41 20.2 3.31C20.11 3.22 20 3.14 19.88 3.09C19.69 3.01 19.22 3.01 18.5 3.01H16.5V3.02Z"
        fill="current" />
</svg>