<svg width="24" height="24" viewBox="0 0 24 24" fill="none" xmlns="http://www.w3.org/2000/svg">
    <path fill-rule="evenodd" clip-rule="evenodd"
        d="M12 6.00266C8.34778 6.00266 4.82102 7.33514 2.08125 9.75017C1.66695 10.1154 1.03504 10.0756 0.669837 9.66126C0.304639 9.24695 0.344448 8.61504 0.758753 8.24984C3.86383 5.5128 7.86082 4.00266 12 4.00266C16.1392 4.00266 20.1362 5.5128 23.2413 8.24984C23.6556 8.61504 23.6954 9.24695 23.3302 9.66126C22.965 10.0756 22.3331 10.1154 21.9188 9.75017C19.179 7.33514 15.6522 6.00266 12 6.00266ZM12.04 11.0021C9.70146 11.0021 7.43688 11.8217 5.64 13.3184C5.21564 13.6718 4.58509 13.6144 4.23163 13.19C3.87817 12.7656 3.93564 12.1351 4.36 11.7816C6.51625 9.98563 9.23375 9.00213 12.04 9.00213C14.8463 9.00213 17.5638 9.98563 19.72 11.7816C20.1444 12.1351 20.2018 12.7656 19.8484 13.19C19.4949 13.6144 18.8644 13.6718 18.44 13.3184C16.6431 11.8217 14.3785 11.0021 12.04 11.0021ZM12.005 16.0013C10.9672 16.0013 9.95517 16.3242 9.10917 16.9252C8.65894 17.2451 8.03466 17.1394 7.71479 16.6892C7.39493 16.2389 7.50061 15.6147 7.95084 15.2948C9.13524 14.4533 10.5521 14.0013 12.005 14.0013C13.4579 14.0013 14.8748 14.4533 16.0592 15.2948C16.5094 15.6147 16.6151 16.2389 16.2952 16.6892C15.9753 17.1394 15.3511 17.2451 14.9008 16.9252C14.0548 16.3242 13.0428 16.0013 12.005 16.0013ZM11 20C11 19.4477 11.4477 19 12 19H12.01C12.5623 19 13.01 19.4477 13.01 20C13.01 20.5523 12.5623 21 12.01 21H12C11.4477 21 11 20.5523 11 20Z"
        fill="current" />
</svg>