<?xml version="1.0" encoding="UTF-8"?>
<svg id="Capa_1" data-name="Capa 1" xmlns="http://www.w3.org/2000/svg" xmlns:xlink="http://www.w3.org/1999/xlink" viewBox="0 0 112 72">
  <defs>
    <style>
      .cls-1 {
        fill: #efeff1;
      }

      .cls-1, .cls-2, .cls-3, .cls-4, .cls-5, .cls-6, .cls-7, .cls-8, .cls-9, .cls-10, .cls-11, .cls-12, .cls-13, .cls-14, .cls-15 {
        stroke-width: 0px;
      }

      .cls-16 {
        clip-path: url(#clippath);
      }

      .cls-2 {
        fill: none;
      }

      .cls-3 {
        filter: url(#drop-shadow-2);
      }

      .cls-3, .cls-8, .cls-12 {
        fill: #fcfcfd;
      }

      .cls-4 {
        fill: #107c41;
      }

      .cls-5 {
        fill: #21a366;
      }

      .cls-6 {
        fill: #185c37;
      }

      .cls-7, .cls-11, .cls-15 {
        fill: #00030d;
      }

      .cls-17 {
        clip-path: url(#clippath-1);
      }

      .cls-9 {
        fill: #33c481;
      }

      .cls-10 {
        fill: url(#Degradado_sin_nombre_2);
      }

      .cls-11 {
        opacity: .2;
      }

      .cls-11, .cls-15 {
        isolation: isolate;
      }

      .cls-12 {
        opacity: .25;
      }

      .cls-13 {
        fill: #fff;
      }

      .cls-14 {
        fill: #2e365c;
        fill-rule: evenodd;
      }

      .cls-15 {
        opacity: .1;
      }
    </style>
    <filter id="drop-shadow-2" filterUnits="userSpaceOnUse">
      <feOffset dx="4" dy="4"/>
      <feGaussianBlur result="blur" stdDeviation="4"/>
      <feFlood flood-color="#000" flood-opacity=".1"/>
      <feComposite in2="blur" operator="in"/>
      <feComposite in="SourceGraphic"/>
    </filter>
    <clipPath id="clippath">
      <rect class="cls-2" x="37.2" y="24.6" width="10.8" height="10.8"/>
    </clipPath>
    <linearGradient id="Degradado_sin_nombre_2" data-name="Degradado sin nombre 2" x1="81.92" y1="-761.28" x2="85.07" y2="-766.74" gradientTransform="translate(0 -734.01) scale(1 -1)" gradientUnits="userSpaceOnUse">
      <stop offset="0" stop-color="#18884f"/>
      <stop offset=".5" stop-color="#117e43"/>
      <stop offset="1" stop-color="#0b6631"/>
    </linearGradient>
    <clipPath id="clippath-1">
      <rect class="cls-2" x="58.8" y="24.6" width="10.8" height="10.8"/>
    </clipPath>
  </defs>
  <rect class="cls-1" width="112" height="72"/>
  <path class="cls-3" d="M112,18H21c-6.63,0-12,5.37-12,12s5.37,12,12,12h91v-24Z"/>
  <circle class="cls-8" cx="21" cy="30" r="9.6"/>
  <path class="cls-14" d="M25.05,26.85h-1.8v-.45c0-.36-.14-.7-.4-.95s-.6-.4-.95-.4h-1.8c-.36,0-.7.14-.95.4s-.4.6-.4.95v.45h-1.8c-.25,0-.45.2-.45.45s.2.45.45.45h.45v5.85c0,.36.14.7.4.95.25.25.6.4.95.4h4.5c.36,0,.7-.14.95-.4.25-.25.4-.6.4-.95v-5.85h.45c.25,0,.45-.2.45-.45s-.2-.45-.45-.45ZM19.65,26.4c0-.12.05-.23.13-.32.09-.09.2-.13.32-.13h1.8c.12,0,.23.05.32.13.09.09.13.2.13.32v.45h-2.7v-.45ZM23.7,33.6c0,.12-.05.23-.13.32-.08.09-.2.13-.32.13h-4.5c-.12,0-.23-.05-.32-.13s-.13-.2-.13-.32v-5.85h5.4v5.85Z"/>
  <path class="cls-14" d="M20.1,29.1c-.25,0-.45.2-.45.45v2.7c0,.25.2.45.45.45s.45-.2.45-.45v-2.7c0-.25-.2-.45-.45-.45Z"/>
  <path class="cls-14" d="M21.9,29.1c-.25,0-.45.2-.45.45v2.7c0,.25.2.45.45.45s.45-.2.45-.45v-2.7c0-.25-.2-.45-.45-.45Z"/>
  <g class="cls-16">
    <path class="cls-14" d="M47.15,28.6c-.25-.25-.6-.4-.95-.4h-.45v-2.7c0-.25-.2-.45-.45-.45h-5.4c-.25,0-.45.2-.45.45v2.7h-.45c-.36,0-.7.14-.95.4-.25.25-.4.6-.4.95v2.25c0,.36.14.7.4.95.25.25.6.4.95.4h.45v1.35c0,.25.2.45.45.45h5.4c.25,0,.45-.2.45-.45v-1.35h.45c.36,0,.7-.14.95-.4s.4-.6.4-.95v-2.25c0-.36-.14-.7-.4-.95ZM40.35,25.95h4.5v2.25h-4.5v-2.25ZM44.85,34.05h-4.5v-2.7h4.5v2.7ZM46.65,31.8c0,.12-.05.23-.13.32-.08.09-.2.13-.32.13h-.45v-1.35c0-.25-.2-.45-.45-.45h-5.4c-.25,0-.45.2-.45.45v1.35h-.45c-.12,0-.23-.05-.32-.13-.09-.08-.13-.2-.13-.32v-2.25c0-.12.05-.23.13-.32.09-.09.2-.13.32-.13h7.2c.12,0,.23.05.32.13.09.09.13.2.13.32v2.25Z"/>
  </g>
  <path class="cls-6" d="M87.01,29.78l-3.74-.66v4.86c0,.05.01.11.03.15.02.05.05.09.09.13s.08.07.13.09c.05.02.1.03.15.03h6.45c.05,0,.11-.01.15-.03.05-.02.09-.05.13-.09.04-.04.07-.08.09-.13.02-.05.03-.1.03-.15v-1.79l-3.52-2.41Z"/>
  <path class="cls-5" d="M87.01,25.61h-3.33c-.05,0-.11.01-.15.03-.05.02-.09.05-.13.09s-.07.08-.09.13c-.02.05-.03.1-.03.15v1.79l3.74,2.19,1.98.66,1.54-.66v-2.19l-3.52-2.19Z"/>
  <path class="cls-4" d="M83.27,27.81h3.74v2.19h-3.74v-2.19Z"/>
  <path class="cls-15" d="M85.95,27.37h-2.67v5.48h2.67c.11,0,.21-.04.28-.12.08-.08.12-.18.12-.28v-4.68c0-.11-.04-.21-.12-.28-.08-.08-.18-.12-.28-.12Z"/>
  <path class="cls-11" d="M85.73,27.59h-2.45v5.48h2.45c.11,0,.21-.04.28-.12.08-.08.12-.18.12-.28v-4.68c0-.11-.04-.21-.12-.28-.08-.08-.18-.12-.28-.12Z"/>
  <path class="cls-11" d="M85.73,27.59h-2.45v5.05h2.45c.11,0,.21-.04.28-.12.08-.08.12-.18.12-.28v-4.24c0-.11-.04-.21-.12-.28-.08-.08-.18-.12-.28-.12Z"/>
  <path class="cls-11" d="M85.51,27.59h-2.23v5.05h2.23c.11,0,.21-.04.28-.12.07-.08.12-.18.12-.28v-4.24c0-.11-.04-.21-.12-.28-.08-.08-.18-.12-.28-.12Z"/>
  <path class="cls-10" d="M81.48,27.59h4.03c.11,0,.21.04.28.12.08.08.12.18.12.28v4.02c0,.11-.04.21-.12.28-.07.08-.18.12-.28.12h-4.03c-.05,0-.11-.01-.15-.03-.05-.02-.09-.05-.13-.09-.04-.04-.07-.08-.09-.13s-.03-.1-.03-.15v-4.02c0-.05.01-.11.03-.15.02-.05.05-.09.09-.13.04-.04.08-.07.13-.09.05-.02.1-.03.15-.03Z"/>
  <path class="cls-13" d="M82.32,31.31l.85-1.31-.78-1.3h.62l.42.83c.04.08.07.14.08.18h0c.03-.06.06-.12.09-.18l.45-.83h.57l-.8,1.3.82,1.32h-.61l-.49-.91s-.04-.08-.06-.12h0s-.03.08-.06.12l-.5.92h-.61Z"/>
  <path class="cls-9" d="M90.12,25.61h-3.11v2.19h3.52v-1.79c0-.05-.01-.11-.03-.15-.02-.05-.05-.09-.09-.13-.04-.04-.08-.07-.13-.09-.05-.02-.1-.03-.15-.03Z"/>
  <path class="cls-4" d="M87.01,30h3.52v2.19h-3.52v-2.19Z"/>
  <path class="cls-14" d="M112,26.4c-.25-.28-.6-.45-1-.45h-7.2c-.74,0-1.35.61-1.35,1.35v5.4c0,.74.61,1.35,1.35,1.35h7.2c.4,0,.75-.18,1-.45v-7.19ZM103.8,26.85h7.2c.17,0,.32.1.4.25l-4,2.8-4-2.8c.08-.15.23-.25.4-.25ZM111.45,32.7c0,.25-.2.45-.45.45h-7.2c-.25,0-.45-.2-.45-.45v-4.54l3.79,2.65c.15.11.36.11.52,0l3.79-2.65v4.54Z"/>
  <g class="cls-17">
    <g>
      <path class="cls-14" d="M63.75,29.1c-.25,0-.45.2-.45.45v4.05c0,.25.2.45.45.45h4.05c.25,0,.45-.2.45-.45v-4.05c0-.25-.2-.45-.45-.45h-4.05ZM62.4,29.55c0-.75.6-1.35,1.35-1.35h4.05c.75,0,1.35.6,1.35,1.35v4.05c0,.75-.6,1.35-1.35,1.35h-4.05c-.75,0-1.35-.6-1.35-1.35v-4.05Z"/>
      <path class="cls-14" d="M60.6,25.95c-.12,0-.23.05-.32.13s-.13.2-.13.32v4.05c0,.12.05.23.13.32.08.08.2.13.32.13h.45c.25,0,.45.2.45.45s-.2.45-.45.45h-.45c-.36,0-.7-.14-.95-.4s-.4-.6-.4-.95v-4.05c0-.36.14-.7.4-.95s.6-.4.95-.4h4.05c.36,0,.7.14.95.4s.4.6.4.95v.45c0,.25-.2.45-.45.45s-.45-.2-.45-.45v-.45c0-.12-.05-.23-.13-.32s-.2-.13-.32-.13h-4.05Z"/>
    </g>
  </g>
  <g>
    <path class="cls-7" d="M73.2,46.4h-6.78c-.11-.15-.21-.29-.34-.46l-.52-.7c-.51-.69-.76-1.03-1.09-1.12-.18-.05-.37-.05-.55,0-.33.09-.58.44-1.09,1.12l-.52.7c-.13.17-.23.32-.34.46h-6.78c-1.66,0-3,1.34-3,3v6c0,1.66,1.34,3,3,3h18c1.66,0,3-1.34,3-3v-6c0-1.66-1.34-3-3-3Z"/>
    <rect class="cls-12" x="55.7" y="51.4" width="17" height="2" rx="1" ry="1"/>
  </g>
</svg>