<?xml version="1.0" encoding="UTF-8"?>
<svg id="Capa_1" data-name="Capa 1" xmlns="http://www.w3.org/2000/svg" xmlns:xlink="http://www.w3.org/1999/xlink" viewBox="0 0 112 72">
  <defs>
    <style>
      .cls-1 {
        fill: #efeff1;
      }

      .cls-1, .cls-2, .cls-3 {
        stroke-width: 0px;
      }

      .cls-2 {
        fill: #fcfcfd;
        filter: url(#drop-shadow-3);
      }

      .cls-3 {
        fill: #d3d7e9;
      }
    </style>
    <filter id="drop-shadow-3" filterUnits="userSpaceOnUse">
      <feOffset dx="4" dy="4"/>
      <feGaussianBlur result="blur" stdDeviation="4"/>
      <feFlood flood-color="#000" flood-opacity=".1"/>
      <feComposite in2="blur" operator="in"/>
      <feComposite in="SourceGraphic"/>
    </filter>
  </defs>
  <rect class="cls-1" width="112" height="72"/>
  <path class="cls-2" d="M112,18H21c-6.63,0-12,5.37-12,12s5.37,12,12,12h91v-24Z"/>
  <path class="cls-3" d="M19.5,27h27c1.66,0,3,1.34,3,3h0c0,1.66-1.34,3-3,3h-27c-1.66,0-3-1.34-3-3h0c0-1.66,1.34-3,3-3Z"/>
  <path class="cls-3" d="M56.5,27h37c1.66,0,3,1.34,3,3h0c0,1.66-1.34,3-3,3h-37c-1.66,0-3-1.34-3-3h0c0-1.66,1.34-3,3-3Z"/>
  <path class="cls-3" d="M112,27h-8.5c-1.66,0-3,1.34-3,3s1.34,3,3,3h8.5v-6Z"/>
</svg>