<?xml version="1.0" encoding="UTF-8"?>
<svg id="Capa_1" data-name="Capa 1" xmlns="http://www.w3.org/2000/svg" xmlns:xlink="http://www.w3.org/1999/xlink" viewBox="0 0 112 72">
  <defs>
    <style>
      .cls-1 {
        fill: #efeff1;
      }

      .cls-1, .cls-2, .cls-3, .cls-4, .cls-5 {
        stroke-width: 0px;
      }

      .cls-6 {
        clip-path: url(#clippath);
      }

      .cls-2 {
        fill: none;
      }

      .cls-3 {
        fill: #fcfcfd;
        filter: url(#drop-shadow-4);
      }

      .cls-4 {
        fill: #d3d7e9;
      }

      .cls-5 {
        fill: #2e365c;
        fill-rule: evenodd;
      }
    </style>
    <filter id="drop-shadow-4" filterUnits="userSpaceOnUse">
      <feOffset dx="4" dy="4"/>
      <feGaussianBlur result="blur" stdDeviation="4"/>
      <feFlood flood-color="#000" flood-opacity=".1"/>
      <feComposite in2="blur" operator="in"/>
      <feComposite in="SourceGraphic"/>
    </filter>
    <clipPath id="clippath">
      <rect class="cls-2" x="71.8" y="24.6" width="10.8" height="10.8"/>
    </clipPath>
  </defs>
  <rect class="cls-1" width="112" height="72"/>
  <path class="cls-3" d="M112,18H21c-6.63,0-12,5.37-12,12s5.37,12,12,12h91v-24Z"/>
  <path class="cls-5" d="M25.05,26.85h-1.8v-.45c0-.36-.14-.7-.4-.95s-.6-.4-.95-.4h-1.8c-.36,0-.7.14-.95.4s-.4.6-.4.95v.45h-1.8c-.25,0-.45.2-.45.45s.2.45.45.45h.45v5.85c0,.36.14.7.4.95.25.25.6.4.95.4h4.5c.36,0,.7-.14.95-.4.25-.25.4-.6.4-.95v-5.85h.45c.25,0,.45-.2.45-.45s-.2-.45-.45-.45ZM19.65,26.4c0-.12.05-.23.13-.32.09-.09.2-.13.32-.13h1.8c.12,0,.23.05.32.13.09.09.13.2.13.32v.45h-2.7v-.45ZM23.7,33.6c0,.12-.05.23-.13.32-.08.09-.2.13-.32.13h-4.5c-.12,0-.23-.05-.32-.13s-.13-.2-.13-.32v-5.85h5.4v5.85Z"/>
  <path class="cls-5" d="M20.1,29.1c-.25,0-.45.2-.45.45v2.7c0,.25.2.45.45.45s.45-.2.45-.45v-2.7c0-.25-.2-.45-.45-.45Z"/>
  <path class="cls-5" d="M21.9,29.1c-.25,0-.45.2-.45.45v2.7c0,.25.2.45.45.45s.45-.2.45-.45v-2.7c0-.25-.2-.45-.45-.45Z"/>
  <path class="cls-4" d="M33.6,27h27c1.66,0,3,1.34,3,3h0c0,1.66-1.34,3-3,3h-27c-1.66,0-3-1.34-3-3h0c0-1.66,1.34-3,3-3Z"/>
  <path class="cls-4" d="M112,27h-22.2c-1.66,0-3,1.34-3,3s1.34,3,3,3h22.2v-6Z"/>
  <g class="cls-6">
    <path class="cls-5" d="M81.75,28.6c-.25-.25-.6-.4-.95-.4h-.45v-2.7c0-.25-.2-.45-.45-.45h-5.4c-.25,0-.45.2-.45.45v2.7h-.45c-.36,0-.7.14-.95.4-.25.25-.4.6-.4.95v2.25c0,.36.14.7.4.95.25.25.6.4.95.4h.45v1.35c0,.25.2.45.45.45h5.4c.25,0,.45-.2.45-.45v-1.35h.45c.36,0,.7-.14.95-.4s.4-.6.4-.95v-2.25c0-.36-.14-.7-.4-.95ZM74.95,25.95h4.5v2.25h-4.5v-2.25ZM79.45,34.05h-4.5v-2.7h4.5v2.7ZM81.25,31.8c0,.12-.05.23-.13.32-.08.09-.2.13-.32.13h-.45v-1.35c0-.25-.2-.45-.45-.45h-5.4c-.25,0-.45.2-.45.45v1.35h-.45c-.12,0-.23-.05-.32-.13-.09-.08-.13-.2-.13-.32v-2.25c0-.12.05-.23.13-.32.09-.09.2-.13.32-.13h7.2c.12,0,.23.05.32.13.09.09.13.2.13.32v2.25Z"/>
  </g>
</svg>