<?xml version="1.0" encoding="UTF-8"?>
<svg id="Capa_1" data-name="Capa 1" xmlns="http://www.w3.org/2000/svg" viewBox="0 0 112 72">
  <defs>
    <style>
      .cls-1 {
        fill: #8f99c7;
      }

      .cls-1, .cls-2, .cls-3, .cls-4, .cls-5 {
        stroke-width: 0px;
      }

      .cls-2 {
        fill: #717ba2;
      }

      .cls-3 {
        fill: #fcfcfd;
      }

      .cls-4 {
        fill: #d3d7e9;
      }

      .cls-5 {
        fill: #e3e3e5;
      }
    </style>
  </defs>
  <rect class="cls-4" width="112" height="72"/>
  <path class="cls-1" d="M8,12c0-2.21,1.79-4,4-4h88c2.21,0,4,1.79,4,4v7H8v-7Z"/>
  <path class="cls-3" d="M8,19h96v11H8v-11Z"/>
  <path class="cls-2" d="M12.4,12h85.19c.78,0,1.4.63,1.4,1.4h0c0,.78-.63,1.4-1.4,1.4H12.4c-.78,0-1.4-.63-1.4-1.4h0c0-.78.63-1.4,1.4-1.4Z"/>
  <rect class="cls-5" x="12" y="22" width="4.68" height="4.68" rx="1" ry="1"/>
  <rect class="cls-5" x="19.69" y="23" width="80" height="2.81" rx="1.4" ry="1.4"/>
  <path class="cls-3" d="M8,30h96v11H8v-11Z"/>
  <rect class="cls-5" x="12" y="33" width="4.68" height="4.68" rx="1" ry="1"/>
  <rect class="cls-5" x="19.69" y="34" width="80" height="2.81" rx="1.4" ry="1.4"/>
  <path class="cls-3" d="M8,41h96v11H8v-11Z"/>
  <rect class="cls-5" x="12" y="44" width="4.68" height="4.68" rx="1" ry="1"/>
  <rect class="cls-5" x="19.69" y="45" width="80" height="2.81" rx="1.4" ry="1.4"/>
  <path class="cls-3" d="M8,52h96v11H8v-11Z"/>
  <rect class="cls-5" x="12" y="55" width="4.68" height="4.68" rx="1" ry="1"/>
  <rect class="cls-5" x="19.69" y="56" width="80" height="2.81" rx="1.4" ry="1.4"/>
  <path class="cls-3" d="M8,63h96v8.94H8v-8.94Z"/>
  <rect class="cls-5" x="12" y="66" width="4.68" height="4.68" rx="1" ry="1"/>
  <rect class="cls-5" x="19.69" y="67" width="80" height="2.81" rx="1.4" ry="1.4"/>
  <rect class="cls-5" x="8" y="29.87" width="96" height=".25"/>
  <rect class="cls-5" x="8" y="40.87" width="96" height=".25"/>
  <rect class="cls-5" x="8" y="51.87" width="96" height=".25"/>
  <rect class="cls-5" x="8" y="62.87" width="96" height=".25"/>
</svg>