<?xml version="1.0" encoding="UTF-8"?>
<svg id="Capa_1" data-name="Capa 1" xmlns="http://www.w3.org/2000/svg" xmlns:xlink="http://www.w3.org/1999/xlink" viewBox="0 0 112 72">
  <defs>
    <style>
      .cls-1 {
        fill: #efeff1;
      }

      .cls-1, .cls-2, .cls-3, .cls-4, .cls-5, .cls-6, .cls-7, .cls-8 {
        stroke-width: 0px;
      }

      .cls-2 {
        filter: url(#drop-shadow-1);
      }

      .cls-2, .cls-5, .cls-6 {
        fill: #fcfcfd;
      }

      .cls-3 {
        fill: #d3d7e9;
        opacity: .5;
      }

      .cls-4 {
        fill: #00030d;
      }

      .cls-6 {
        opacity: .25;
      }

      .cls-7 {
        fill: #e3e3e5;
      }

      .cls-8 {
        fill: #2e365c;
        fill-rule: evenodd;
      }
    </style>
    <filter id="drop-shadow-1" filterUnits="userSpaceOnUse">
      <feOffset dx="4" dy="4"/>
      <feGaussianBlur result="blur" stdDeviation="4"/>
      <feFlood flood-color="#000" flood-opacity=".1"/>
      <feComposite in2="blur" operator="in"/>
      <feComposite in="SourceGraphic"/>
    </filter>
  </defs>
  <rect class="cls-1" width="112" height="72"/>
  <path class="cls-2" d="M91,18H0v24h91c6.63,0,12-5.37,12-12s-5.37-12-12-12Z"/>
  <g>
    <path class="cls-4" d="M74,46.4h-6.78c-.11-.15-.21-.29-.34-.46l-.52-.7c-.51-.69-.76-1.03-1.09-1.12-.18-.05-.37-.05-.55,0-.33.09-.58.44-1.09,1.12l-.52.7c-.13.17-.23.32-.34.46h-6.78c-1.66,0-3,1.34-3,3v6c0,1.66,1.34,3,3,3h18c1.66,0,3-1.34,3-3v-6c0-1.66-1.34-3-3-3Z"/>
    <rect class="cls-6" x="56.5" y="51.4" width="17" height="2" rx="1" ry="1"/>
  </g>
  <path class="cls-3" d="M0,24.01v11.98c3.22-.11,5.8-2.74,5.8-5.99s-2.58-5.88-5.8-5.99Z"/>
  <circle class="cls-3" cx="17.8" cy="30" r="6"/>
  <circle class="cls-3" cx="35.8" cy="30" r="6"/>
  <rect class="cls-7" x="49.95" y="24" width=".5" height="12"/>
  <g>
    <path class="cls-8" d="M60.95,29.5h6.07c.25,0,.45-.2.45-.45s-.2-.45-.45-.45h-6.07c-.25,0-.45.2-.45.45s.2.45.45.45Z"/>
    <path class="cls-8" d="M60.95,27.7h6.07c.25,0,.45-.2.45-.45s-.2-.45-.45-.45h-6.07c-.25,0-.45.2-.45.45s.2.45.45.45Z"/>
    <path class="cls-8" d="M63.42,30.4h-2.47c-.25,0-.45.2-.45.45s.2.45.45.45h2.47c.25,0,.45-.2.45-.45s-.2-.45-.45-.45Z"/>
    <path class="cls-8" d="M62.75,32.2h-1.8c-.25,0-.45.2-.45.45s.2.45.45.45h1.8c.25,0,.45-.2.45-.45s-.2-.45-.45-.45Z"/>
    <path class="cls-8" d="M69.36,30.08c-.18-.18-.46-.17-.63,0l-2.77,2.82-1.08-1.11c-.18-.18-.46-.18-.63,0-.18.18-.18.46,0,.63l1.41,1.43c.09.09.2.14.32.14s.24-.05.32-.14l3.1-3.15c.18-.18.17-.46,0-.63h0Z"/>
  </g>
  <rect class="cls-5" x="77.8" y="20.4" width="20.4" height="19.2"/>
  <path class="cls-8" d="M84.65,27.7c-.12,0-.23.05-.32.13-.08.08-.13.2-.13.32v.38c.14-.04.28-.11.41-.2.18-.13.35-.32.43-.62h-.39ZM85.96,27.7c-.1.62-.42,1.07-.83,1.36-.3.22-.64.34-.94.4v.99c.3.06.64.18.94.4.4.29.72.73.83,1.36h1.39c.25,0,.45.2.45.45s-.2.45-.45.45h-2.7c-.36,0-.7-.14-.95-.4-.25-.25-.4-.6-.4-.95v-3.6c0-.36.14-.7.4-.95.25-.25.6-.4.95-.4h6.3c.36,0,.7.14.96.4.25.25.39.6.39.95v1.8c0,.25-.2.45-.45.45s-.45-.2-.45-.45v-.5c-.3-.06-.64-.18-.94-.4-.4-.29-.72-.73-.83-1.36h-3.67ZM90.56,27.7c.08.3.25.49.43.62.13.09.27.16.41.2v-.38c0-.12-.05-.23-.13-.32-.08-.08-.2-.13-.32-.13h-.39ZM85.04,32.2c-.08-.3-.25-.49-.43-.62-.13-.09-.27-.16-.41-.2v.38c0,.12.05.23.13.32.08.08.2.13.32.13h.39Z"/>
  <path class="cls-8" d="M87.8,29.5c-.25,0-.45.2-.45.45s.2.45.45.45.45-.2.45-.45-.2-.45-.45-.45ZM86.45,29.95c0-.75.61-1.35,1.35-1.35s1.35.6,1.35,1.35-.6,1.35-1.35,1.35-1.35-.6-1.35-1.35Z"/>
  <path class="cls-8" d="M91.77,31.38c.18.18.18.46,0,.64l-.64.64.64.64c.18.18.18.46,0,.64-.18.18-.46.18-.64,0l-.64-.64-.64.64c-.18.18-.46.18-.64,0-.17-.18-.17-.46,0-.64l.64-.64-.64-.64c-.17-.18-.17-.46,0-.64.18-.18.46-.18.64,0l.64.64.64-.64c.17-.18.46-.18.64,0Z"/>
</svg>