<svg width="24" height="24" viewBox="0 0 24 24" fill="none" xmlns="http://www.w3.org/2000/svg">
    <path fill-rule="evenodd" clip-rule="evenodd"
        d="M12 1C5.92 1 1 5.92 1 12C1 18.08 5.92 23 12 23C18.08 23 23 18.08 23 12C23 5.92 18.08 1 12 1ZM12 21C7.03 21 3 16.97 3 12C3 7.03 7.03 3 12 3C16.97 3 21 7.03 21 12C21 16.97 16.97 21 12 21Z"
        fill="current" />
    <path fill-rule="evenodd" clip-rule="evenodd"
        d="M16 11H10.41L12.7 8.71C13.09 8.32 13.09 7.69 12.7 7.3C12.31 6.91 11.68 6.91 11.29 7.3L7.29 11.3C7.2 11.39 7.12 11.5 7.07 11.63C6.97 11.87 6.97 12.15 7.07 12.39C7.12 12.51 7.19 12.62 7.29 12.72L11.29 16.72C11.68 17.11 12.31 17.11 12.7 16.72C13.09 16.33 13.09 15.7 12.7 15.31L10.41 13.02H16C16.55 13.02 17 12.57 17 12.02C17 11.47 16.55 11.02 16 11.02V11Z"
        fill="current" />
</svg>