<svg width="24" height="24" viewBox="0 0 24 24" fill="none" xmlns="http://www.w3.org/2000/svg">
    <path fill-rule="evenodd" clip-rule="evenodd"
        d="M19.71 11.29C19.32 10.9 18.69 10.9 18.3 11.29L13.01 16.58V5C13.01 4.45 12.56 4 12.01 4C11.46 4 11.01 4.45 11.01 5V16.59L5.71001 11.29C5.32001 10.9 4.69001 10.9 4.30001 11.29C3.91001 11.68 3.91001 12.31 4.30001 12.7L11.3 19.7C11.39 19.79 11.5 19.86 11.62 19.91C11.86 20.01 12.14 20.01 12.38 19.91C12.5 19.86 12.61 19.79 12.7 19.7L19.7 12.7C20.09 12.31 20.09 11.68 19.7 11.29H19.71Z"
        fill="current" />
</svg>