<svg width="24" height="24" viewBox="0 0 24 24" fill="none" xmlns="http://www.w3.org/2000/svg">
<path d="M20.23 14.9401L14.84 11.7001L20.23 8.47007C20.4 8.37007 20.54 8.24007 20.66 8.08007C20.78 7.92007 20.86 7.75007 20.91 7.56007C20.96 7.37007 20.97 7.18007 20.94 6.99007C20.91 6.80007 20.85 6.62007 20.75 6.45007C20.65 6.28007 20.52 6.14007 20.36 6.02007C20.2 5.90007 20.03 5.82007 19.84 5.77007C19.65 5.72007 19.46 5.71007 19.27 5.74007C19.08 5.77007 18.9 5.83007 18.73 5.93007L13.46 9.09007V3.46007C13.46 3.07007 13.31 2.70007 13.03 2.42007C12.48 1.87007 11.5 1.87007 10.94 2.42007C10.66 2.70007 10.51 3.07007 10.51 3.46007V9.11007L5.22999 5.94007C5.05999 5.84007 4.87999 5.77007 4.68999 5.75007C4.49999 5.72007 4.29999 5.73007 4.11999 5.78007C3.92999 5.83007 3.75999 5.91007 3.59999 6.03007C3.43999 6.15007 3.30999 6.29007 3.20999 6.46007C3.10999 6.63007 3.03999 6.81007 3.01999 7.00007C2.98999 7.19007 2.99999 7.39007 3.04999 7.58007C3.09999 7.77007 3.17999 7.94007 3.29999 8.10007C3.41999 8.26007 3.55999 8.39007 3.72999 8.49007L9.11999 11.7201L3.71999 14.9401C3.37999 15.1401 3.13999 15.4701 3.04999 15.8501C2.94999 16.2301 3.00999 16.6301 3.21999 16.9701C3.31999 17.1401 3.44999 17.2801 3.60999 17.4001C3.76999 17.5201 3.93999 17.6001 4.12999 17.6501C4.31999 17.7001 4.50999 17.7101 4.69999 17.6801C4.88999 17.6501 5.07999 17.5901 5.23999 17.4901L10.51 14.3301V19.9801C10.51 20.3701 10.66 20.7401 10.94 21.0201C11.21 21.3001 11.6 21.4501 11.98 21.4501C12.36 21.4501 12.75 21.2901 13.02 21.0201C13.3 20.7401 13.45 20.3701 13.45 19.9801V14.3301L18.72 17.4901C18.89 17.5901 19.07 17.6601 19.26 17.6801C19.45 17.7101 19.65 17.7001 19.84 17.6501C20.03 17.6001 20.2 17.5201 20.36 17.4001C20.52 17.2901 20.65 17.1401 20.75 16.9701C20.95 16.6401 21.01 16.2301 20.92 15.8501C20.82 15.4701 20.59 15.1401 20.25 14.9401H20.23Z" fill="current"/>
</svg>
