<svg width="24" height="24" viewBox="0 0 24 24" fill="none" xmlns="http://www.w3.org/2000/svg">
    <path
        d="M12 14C13.1046 14 14 13.1046 14 12C14 10.8954 13.1046 10 12 10C10.8954 10 10 10.8954 10 12C10 13.1046 10.8954 14 12 14Z"
        fill="current" />
    <path fill-rule="evenodd" clip-rule="evenodd"
        d="M19.92 12C20.52 11.03 21 10.08 21.35 9.16001C21.79 8.00001 22.03 6.87001 22 5.84001C21.97 4.81001 21.65 3.82001 20.91 3.09001C20.17 2.35001 19.18 2.04001 18.15 2.00001C17.12 1.97001 15.99 2.21001 14.83 2.65001C13.92 3.00001 12.96 3.48001 11.99 4.08001C11.02 3.48001 10.07 3.00001 9.15001 2.65001C8.00001 2.21001 6.87001 1.97001 5.84001 2.00001C4.81001 2.04001 3.82001 2.35001 3.09001 3.09001C2.35001 3.82001 2.04001 4.81001 2.00001 5.84001C1.97001 6.87001 2.21001 8.00001 2.65001 9.16001C3.00001 10.07 3.48001 11.03 4.08001 12C3.48001 12.97 3.00001 13.92 2.65001 14.84C2.21001 15.99 1.97001 17.12 2.00001 18.15C2.03001 19.18 2.35001 20.17 3.09001 20.9C3.82001 21.64 4.81001 21.95 5.84001 21.99C6.87001 22.02 8.00001 21.78 9.16001 21.34C10.07 20.99 11.03 20.51 12 19.91C12.97 20.51 13.92 20.99 14.84 21.34C16 21.78 17.13 22.02 18.16 21.99C19.19 21.96 20.18 21.64 20.91 20.9C21.65 20.17 21.96 19.18 22 18.15C22.03 17.12 21.79 15.99 21.35 14.83C21 13.92 20.52 12.96 19.92 11.99V12ZM15.54 4.52001C16.54 4.14001 17.4 3.98001 18.09 4.00001C18.77 4.02001 19.21 4.22001 19.49 4.50001C19.77 4.78001 19.97 5.23001 19.99 5.90001C20.01 6.58001 19.85 7.45001 19.47 8.45001C19.26 9.00001 18.99 9.58001 18.66 10.18C17.99 9.30001 17.24 8.43001 16.4 7.59001C15.56 6.75001 14.69 6.00001 13.81 5.33001C14.4 5.00001 14.98 4.73001 15.54 4.52001ZM17.51 12C16.8 13 15.96 14.01 14.98 14.99C14 15.97 12.99 16.81 11.99 17.52C10.99 16.81 9.98001 15.97 9.00001 14.99C8.02001 14.01 7.18001 13 6.47001 12C7.18001 11 8.02001 9.99001 9.00001 9.01001C9.98001 8.03001 10.99 7.19001 11.99 6.48001C12.99 7.19001 14 8.03001 14.98 9.01001C15.96 9.99001 16.8 11 17.51 12ZM4.52001 8.45001C4.14001 7.45001 3.98001 6.59001 4.00001 5.90001C4.02001 5.22001 4.22001 4.78001 4.50001 4.50001C4.78001 4.22001 5.22001 4.02001 5.90001 4.00001C6.58001 3.98001 7.45001 4.14001 8.45001 4.52001C9.00001 4.73001 9.58001 5.00001 10.18 5.33001C9.30001 6.00001 8.43001 6.75001 7.59001 7.59001C6.75001 8.43001 6.00001 9.30001 5.33001 10.18C5.00001 9.59001 4.73001 9.01001 4.52001 8.45001ZM8.45001 19.47C7.45001 19.85 6.59001 20.01 5.90001 19.99C5.22001 19.97 4.78001 19.77 4.50001 19.49C4.22001 19.21 4.02001 18.76 4.00001 18.09C3.98001 17.41 4.14001 16.54 4.52001 15.54C4.73001 14.99 5.00001 14.41 5.33001 13.81C6.00001 14.69 6.75001 15.56 7.59001 16.4C8.43001 17.24 9.30001 17.99 10.18 18.66C9.59001 18.99 9.01001 19.26 8.45001 19.47ZM19.49 19.49C19.21 19.77 18.77 19.97 18.09 19.99C17.41 20.01 16.54 19.85 15.54 19.47C14.99 19.26 14.41 18.99 13.81 18.66C14.69 17.99 15.56 17.24 16.4 16.4C17.24 15.56 17.99 14.69 18.66 13.81C18.99 14.4 19.26 14.98 19.47 15.54C19.85 16.54 20.01 17.4 19.99 18.09C19.97 18.77 19.77 19.21 19.49 19.49Z"
        fill="current" />
</svg>