<svg width="24" height="24" viewBox="0 0 24 24" fill="none" xmlns="http://www.w3.org/2000/svg">
    <path fill-rule="evenodd" clip-rule="evenodd"
        d="M12 2C8.68629 2 6 4.68629 6 8C6 11.3137 8.68629 14 12 14C13.1638 14 14.2503 13.6686 15.1701 13.0951C15.2198 13.0558 15.2735 13.021 15.3306 12.9915C16.9401 11.9154 18 10.0815 18 8C18 4.68629 15.3137 2 12 2ZM16.8616 14.3538C18.7696 12.8917 20 10.5895 20 8C20 3.58172 16.4183 0 12 0C7.58172 0 4 3.58172 4 8C4 10.59 5.23083 12.8926 7.1395 14.3547L6.00871 22.8683C5.95815 23.249 6.13002 23.625 6.45096 23.8358C6.7719 24.0466 7.18522 24.0551 7.5145 23.8575L12 21.1662L16.4855 23.8575C16.8148 24.055 17.228 24.0466 17.549 23.8358C17.8699 23.625 18.0418 23.2491 17.9913 22.8685L16.8616 14.3538ZM14.9861 15.4241C14.0634 15.7956 13.0556 16 12 16C10.9448 16 9.93733 15.7957 9.01497 15.4245L8.26444 21.0751L11.4855 19.1425C11.8022 18.9525 12.1978 18.9525 12.5145 19.1425L15.7359 21.0753L14.9861 15.4241Z"
        fill="current" />
</svg>