<svg width="24" height="24" viewBox="0 0 24 24" fill="none" xmlns="http://www.w3.org/2000/svg">
    <g clip-path="url(#clip0_7_9445)">
        <path
            d="M23 24C22.74 24 22.49 23.9 22.29 23.71L16.58 18H3C2.56 18 2.17 17.71 2.04 17.29C1.91 16.87 2.08 16.41 2.44 16.17C2.45 16.17 4.99 14.27 4.99 8C4.99 7.52 5.04 7.04 5.14 6.56L0.289998 1.71C-0.100002 1.32 -0.100002 0.679998 0.289998 0.289998C0.679998 -0.100002 1.32 -0.100002 1.71 0.289998L6.96 5.54C6.96 5.54 6.98 5.56 6.99 5.57L23.72 22.3C24.11 22.69 24.11 23.32 23.72 23.71C23.52 23.91 23.27 24 23.01 24H23ZM5.14 16H14.59L7 8.41C6.94 12.18 6.02 14.57 5.14 16ZM12 23C11.47 23 10.96 22.86 10.5 22.6C10.05 22.34 9.67 21.96 9.4 21.51C9.12 21.03 9.28 20.42 9.76 20.14C10.24 19.86 10.85 20.03 11.13 20.5C11.22 20.65 11.34 20.78 11.5 20.87C11.8 21.04 12.2 21.04 12.5 20.87C12.65 20.78 12.78 20.66 12.87 20.5C13.15 20.02 13.76 19.86 14.24 20.14C14.72 20.42 14.88 21.03 14.6 21.51C14.34 21.96 13.96 22.34 13.5 22.6C13.05 22.86 12.53 23 12 23ZM18.63 14C18.19 14 17.79 13.71 17.67 13.26C17.2 11.54 16.98 9.76 17 7.98C17 7.09 16.76 6.2 16.29 5.42C15.83 4.64 15.16 4.01 14.36 3.58C13.56 3.15 12.66 2.94 11.76 2.99C10.86 3.03 9.98 3.32 9.23 3.82C8.77 4.13 8.15 4 7.84 3.54C7.53 3.08 7.66 2.46 8.12 2.15C9.17 1.45 10.4 1.04 11.67 0.979998C12.94 0.919998 14.2 1.2 15.31 1.8C16.43 2.4 17.36 3.29 18.01 4.38C18.66 5.47 19 6.71 19 7.98C18.97 9.59 19.17 11.18 19.59 12.72C19.74 13.25 19.42 13.8 18.89 13.95C18.8 13.97 18.71 13.99 18.63 13.99V14Z"
            fill="current" />
    </g>
    <defs>
        <clipPath id="clip0_7_9445">
            <rect width="24" height="24" fill="white" />
        </clipPath>
    </defs>
</svg>