<svg width="24" height="24" viewBox="0 0 24 24" fill="none" xmlns="http://www.w3.org/2000/svg">
    <path fill-rule="evenodd" clip-rule="evenodd"
        d="M10.5021 1.40273C10.9577 1.14023 11.4742 1.00204 12 1.00204C12.5258 1.00204 13.0424 1.14024 13.4979 1.40276C13.4986 1.40317 13.4993 1.40357 13.5 1.40397L20.5 5.40396C20.87 5.61757 21.1891 5.90714 21.4369 6.25235C21.4973 6.31272 21.5508 6.38187 21.5956 6.45927C21.6342 6.52594 21.6642 6.59521 21.686 6.6658C21.8917 7.07927 21.9995 7.53547 22 7.99897V16.001C21.9995 16.5271 21.8606 17.0438 21.5973 17.4993C21.334 17.9547 20.9556 18.333 20.5 18.596L20.4961 18.5982L13.5 22.596C13.4994 22.5964 13.4988 22.5967 13.4982 22.5971C13.181 22.7799 12.8342 22.9025 12.4753 22.9601C12.3339 23.0366 12.172 23.08 12 23.08C11.828 23.08 11.6661 23.0366 11.5247 22.9601C11.1658 22.9025 10.8191 22.7799 10.5019 22.5971C10.5012 22.5967 10.5006 22.5964 10.5 22.596L3.50386 18.5982L3.5 18.596C3.04439 18.333 2.66597 17.9547 2.40269 17.4993C2.13941 17.0438 2.00054 16.5271 2 16.001V7.99897C2.00048 7.53548 2.10832 7.07928 2.31402 6.66581C2.33581 6.59521 2.36583 6.52594 2.40439 6.45927C2.44917 6.38187 2.50272 6.31272 2.56308 6.25235C2.81094 5.90714 3.13002 5.61758 3.5 5.40397L3.50386 5.40174L10.5021 1.40273ZM4 8.53753V15.9994C4.00025 16.1746 4.04654 16.3467 4.13423 16.4984C4.22169 16.6497 4.34726 16.7754 4.49842 16.8631C4.49895 16.8634 4.49947 16.8637 4.5 16.864L11 20.5782V12.5868L4 8.53753ZM13 12.5868V20.5782L19.5 16.864C19.5005 16.8637 19.5011 16.8634 19.5016 16.8631C19.6527 16.7754 19.7783 16.6497 19.8658 16.4984C19.9535 16.3466 19.9998 16.1743 20 15.999V8.53753L13 12.5868ZM18.961 6.82804L12.5 3.13603C12.348 3.04826 12.1755 3.00204 12 3.00204C11.8245 3.00204 11.652 3.04825 11.5 3.13602L11.4961 3.13825L5.03899 6.82804L12 10.8547L18.961 6.82804Z"
        fill="current" />
</svg>