<svg width="24" height="24" viewBox="0 0 24 24" fill="none" xmlns="http://www.w3.org/2000/svg">
    <path fill-rule="evenodd" clip-rule="evenodd"
        d="M13.5257 2.14935C13.8205 2.33156 14 2.65342 14 3V6.46482L19.5547 10.168C19.8329 10.3534 20 10.6656 20 11V20H21C21.5523 20 22 20.4477 22 21C22 21.5523 21.5523 22 21 22H3C2.44772 22 2 21.5523 2 21C2 20.4477 2.44772 20 3 20H4V7C4 6.62123 4.214 6.27497 4.55279 6.10557L12.5528 2.10557C12.8628 1.95058 13.2309 1.96714 13.5257 2.14935ZM6 20H12V7.01368C11.9999 7.00395 11.9999 6.99422 12 6.98449V4.61803L6 7.61803V20ZM14 8.86852V20H18V11.5352L14 8.86852ZM9 8C9.55228 8 10 8.44772 10 9V9.01C10 9.56229 9.55228 10.01 9 10.01C8.44772 10.01 8 9.56229 8 9.01V9C8 8.44772 8.44772 8 9 8ZM9 11C9.55228 11 10 11.4477 10 12V12.01C10 12.5623 9.55228 13.01 9 13.01C8.44772 13.01 8 12.5623 8 12.01V12C8 11.4477 8.44772 11 9 11ZM9 14C9.55228 14 10 14.4477 10 15V15.01C10 15.5623 9.55228 16.01 9 16.01C8.44772 16.01 8 15.5623 8 15.01V15C8 14.4477 8.44772 14 9 14ZM9 17C9.55228 17 10 17.4477 10 18V18.01C10 18.5623 9.55228 19.01 9 19.01C8.44772 19.01 8 18.5623 8 18.01V18C8 17.4477 8.44772 17 9 17Z"
        fill="current" />
</svg>