<svg width="24" height="24" viewBox="0 0 24 24" fill="none" xmlns="http://www.w3.org/2000/svg">
    <g clip-path="url(#clip0_7_9512)">
        <path
            d="M1.71 0.289998C1.32 -0.100002 0.68 -0.100002 0.29 0.289998C-0.1 0.679998 -0.1 1.32 0.29 1.71L3.58 5H2.99C2.19 5 1.43 5.32 0.87 5.88C0.31 6.44 -0.00999999 7.21 -0.00999999 8V19C-0.00999999 19.8 0.31 20.56 0.87 21.12C1.43 21.68 2.2 22 2.99 22H20.58L22.29 23.71C22.68 24.1 23.31 24.1 23.7 23.71C24.09 23.32 24.09 22.69 23.7 22.3L1.71 0.289998ZM9.39 11.5C9.47 11.36 9.58 11.23 9.69 11.1L13.9 15.31C13.77 15.42 13.65 15.52 13.5 15.61C13.12 15.83 12.7 15.97 12.26 16.01C11.82 16.05 11.38 15.99 10.96 15.84C10.55 15.69 10.17 15.45 9.86 15.14C9.55 14.83 9.31 14.45 9.16 14.04C9.01 13.63 8.95 13.18 8.99 12.74C9.03 12.3 9.17 11.88 9.39 11.5ZM3 20C2.73 20 2.48 19.89 2.29 19.71C2.1 19.53 2 19.27 2 19V8C2 7.73 2.11 7.48 2.29 7.29C2.47 7.1 2.73 7 3 7H5.59L8.27 9.68C8.05 9.93 7.84 10.19 7.67 10.48C7.3 11.11 7.07 11.82 7 12.55C6.93 13.28 7.03 14.02 7.28 14.71C7.53 15.4 7.93 16.03 8.45 16.55C8.97 17.07 9.6 17.47 10.29 17.72C10.98 17.97 11.72 18.06 12.45 18C13.18 17.94 13.89 17.7 14.52 17.33C14.81 17.16 15.07 16.95 15.32 16.73L18.59 20H3Z"
            fill="current" />
        <path
            d="M23.12 5.88C22.56 5.32 21.79 5 21 5H17.54L15.84 2.45C15.65 2.17 15.34 2 15.01 2H9.01C8.46 2 8.01 2.45 8.01 3C8.01 3.55 8.46 4 9.01 4H14.47L16.17 6.55C16.36 6.83 16.67 7 17 7H21C21.27 7 21.52 7.11 21.71 7.29C21.9 7.47 22 7.73 22 8V17.34C22 17.89 22.45 18.34 23 18.34C23.55 18.34 24 17.89 24 17.34V8C24 7.2 23.68 6.44 23.12 5.88Z"
            fill="current" />
    </g>
    <defs>
        <clipPath id="clip0_7_9512">
            <rect width="24" height="24" fill="white" />
        </clipPath>
    </defs>
</svg>