<svg width="24" height="24" viewBox="0 0 24 24" fill="none" xmlns="http://www.w3.org/2000/svg">
    <path
        d="M8.9963 21.0005C7.3163 21.0005 5.6663 20.5305 4.2363 19.6405C2.8063 18.7505 1.6563 17.4805 0.916296 15.9705C0.176296 14.4505 -0.123704 12.7705 0.046296 11.0905C0.216296 9.41053 0.846296 7.82053 1.8863 6.49053C2.9163 5.16053 4.2963 4.14053 5.8763 3.56053C7.4563 2.97053 9.1563 2.85053 10.8063 3.18053C12.4563 3.52053 13.9763 4.31053 15.1963 5.47053C16.2263 6.45053 17.0063 7.66053 17.4763 8.99053H17.9963C19.5963 8.99053 21.1063 9.61053 22.2363 10.7505C23.3663 11.8905 23.9963 13.3905 23.9963 14.9905C23.9963 16.5905 23.3763 18.1005 22.2363 19.2305C21.1063 20.3605 19.5963 20.9905 17.9963 20.9905H8.9863L8.9963 21.0005ZM8.9963 5.00053C8.1663 5.00053 7.3463 5.15053 6.5663 5.43053C5.3363 5.89053 4.2663 6.67053 3.4663 7.71053C2.6663 8.75053 2.1663 9.98053 2.0363 11.2905C1.9063 12.5905 2.1363 13.9105 2.7163 15.0805C3.2963 16.2605 4.1863 17.2505 5.2963 17.9405C6.4063 18.6305 7.6863 19.0005 8.9963 19.0005H18.0063C19.0763 19.0005 20.0763 18.5805 20.8363 17.8305C21.5963 17.0805 22.0063 16.0705 22.0063 15.0005C22.0063 13.9305 21.5863 12.9305 20.8363 12.1705C20.0863 11.4105 19.0763 11.0005 18.0063 11.0005H16.7463C16.2863 11.0005 15.8963 10.6905 15.7763 10.2505C15.4463 8.98053 14.7763 7.83053 13.8263 6.93053C12.8763 6.03053 11.6963 5.41053 10.4163 5.14053C9.9463 5.04053 9.4763 5.00053 9.0063 5.00053H8.9963Z"
        fill="current" />
</svg>