<svg width="24" height="24" viewBox="0 0 24 24" fill="none" xmlns="http://www.w3.org/2000/svg">
    <g clip-path="url(#clip0_7_9480)">
        <path
            d="M23.13 24C22.87 24 22.62 23.9 22.42 23.71L19.54 20.83C19.08 20.94 18.6 21 18.13 21H9.13C7.14 21.04 5.17 20.39 3.58 19.18C1.99 17.97 0.820003 16.25 0.310003 14.32C-0.199997 12.39 -0.0599969 10.31 0.730003 8.47C1.34 7.03 2.33 5.78 3.56 4.83L0.420003 1.71C0.0300031 1.32 0.0300031 0.679998 0.420003 0.289998C0.810003 -0.100002 1.44 -0.100002 1.83 0.289998L5.81 4.27C5.81 4.27 5.83 4.29 5.84 4.3L20.51 18.97C20.51 18.97 20.53 18.99 20.54 19L23.82 22.28C24.21 22.67 24.21 23.3 23.82 23.69C23.62 23.89 23.37 23.98 23.11 23.98L23.13 24ZM4.98 6.27C3.92 7.02 3.07 8.06 2.56 9.26C1.95 10.69 1.84 12.31 2.24 13.81C2.64 15.31 3.54 16.65 4.78 17.59C6.02 18.53 7.55 19.05 9.11 19H17.71L4.98 6.27ZM22.74 17.95C22.61 17.95 22.48 17.92 22.35 17.87C21.84 17.65 21.6 17.07 21.82 16.56C22.08 15.95 22.18 15.29 22.12 14.63C22.06 13.98 21.83 13.34 21.47 12.79C21.11 12.24 20.61 11.79 20.03 11.48C19.45 11.17 18.8 11.01 18.14 11.01H16.87C16.41 11.01 16.01 10.7 15.9 10.26C15.54 8.84 14.76 7.6 13.65 6.65C12.54 5.7 11.18 5.14 9.73 5.01C9.18 4.96 8.77 4.48 8.82 3.93C8.87 3.38 9.35 2.98 9.9 3.02C11.77 3.18 13.51 3.91 14.94 5.13C16.17 6.17 17.08 7.51 17.6 9.02H18.12C19.11 9.02 20.09 9.27 20.95 9.73C21.82 10.2 22.57 10.88 23.12 11.7C23.67 12.53 24 13.48 24.09 14.46C24.18 15.44 24.03 16.45 23.64 17.35C23.48 17.73 23.11 17.96 22.72 17.96L22.74 17.95Z"
            fill="current" />
    </g>
    <defs>
        <clipPath id="clip0_7_9480">
            <rect width="24" height="24" fill="white" />
        </clipPath>
    </defs>
</svg>