<svg width="24" height="24" viewBox="0 0 24 24" fill="none" xmlns="http://www.w3.org/2000/svg">
    <g clip-path="url(#clip0_7_9476)">
        <path fill-rule="evenodd" clip-rule="evenodd"
            d="M8.08238 1.04659C9.50126 0.902111 10.9342 1.0969 12.263 1.61492C13.5918 2.13293 14.7785 2.95933 15.7252 4.02599C16.498 4.89667 17.0928 5.90707 17.4793 7H18.0012C19.3783 7.00162 20.713 7.47695 21.7812 8.34621C22.8494 9.21546 23.586 10.4257 23.8675 11.7738C24.1489 13.1219 23.958 14.5258 23.3269 15.7499C22.6957 16.9739 21.6627 17.9435 20.4012 18.496C19.8953 18.7176 19.3056 18.4871 19.084 17.9812C18.8624 17.4753 19.0929 16.8856 19.5988 16.664C20.4398 16.2957 21.1285 15.6492 21.5493 14.8332C21.9701 14.0172 22.0973 13.0813 21.9097 12.1825C21.7221 11.2838 21.231 10.477 20.5189 9.89747C19.8068 9.31805 18.9172 9.00117 17.9992 9C17.9991 9 17.9993 9 17.9992 9H16.74C16.284 9 15.8858 8.69154 15.7718 8.25004C15.4944 7.17599 14.9658 6.18324 14.2294 5.35361C13.4931 4.52398 12.5701 3.88123 11.5366 3.47833C10.503 3.07544 9.38856 2.92393 8.28498 3.0363C7.18141 3.14868 6.12035 3.52171 5.18925 4.12466C4.25814 4.72761 3.48367 5.54321 2.92965 6.50424C2.37564 7.46526 2.05795 8.54419 2.00277 9.6521C1.94759 10.76 2.15651 11.8652 2.61229 12.8765C3.06807 13.8878 3.75768 14.7763 4.62426 15.4688C5.05572 15.8136 5.12598 16.4428 4.78121 16.8743C4.43644 17.3057 3.80719 17.376 3.37574 17.0312C2.26156 16.1409 1.37492 14.9985 0.788915 13.6982C0.202908 12.398 -0.0656946 10.9771 0.00524859 9.55261C0.0761918 8.12816 0.484649 6.74097 1.19695 5.50536C1.90926 4.26976 2.90501 3.22113 4.10214 2.44591C5.29927 1.67069 6.6635 1.19107 8.08238 1.04659ZM7 16C7 15.4477 7.44772 15 8 15H8.01C8.56228 15 9.01 15.4477 9.01 16C9.01 16.5523 8.56228 17 8.01 17H8C7.44772 17 7 16.5523 7 16ZM15 16C15 15.4477 15.4477 15 16 15H16.01C16.5623 15 17.01 15.4477 17.01 16C17.01 16.5523 16.5623 17 16.01 17H16C15.4477 17 15 16.5523 15 16ZM11 18C11 17.4477 11.4477 17 12 17H12.01C12.5623 17 13.01 17.4477 13.01 18C13.01 18.5523 12.5623 19 12.01 19H12C11.4477 19 11 18.5523 11 18ZM7 20C7 19.4477 7.44772 19 8 19H8.01C8.56228 19 9.01 19.4477 9.01 20C9.01 20.5523 8.56228 21 8.01 21H8C7.44772 21 7 20.5523 7 20ZM15 20C15 19.4477 15.4477 19 16 19H16.01C16.5623 19 17.01 19.4477 17.01 20C17.01 20.5523 16.5623 21 16.01 21H16C15.4477 21 15 20.5523 15 20ZM11 22C11 21.4477 11.4477 21 12 21H12.01C12.5623 21 13.01 21.4477 13.01 22C13.01 22.5523 12.5623 23 12.01 23H12C11.4477 23 11 22.5523 11 22Z"
            fill="current" />
    </g>
    <defs>
        <clipPath id="clip0_7_9476">
            <rect width="24" height="24" fill="white" />
        </clipPath>
    </defs>
</svg>