<svg width="24" height="24" viewBox="0 0 24 24" fill="none" xmlns="http://www.w3.org/2000/svg">
    <g clip-path="url(#clip0_7_9568)">
        <path
            d="M10.9952 24C10.8052 24 10.6152 23.95 10.4452 23.83C9.98521 23.52 9.86521 22.9 10.1652 22.44L13.1252 17.99H8.99521C8.62521 17.99 8.28521 17.79 8.11521 17.46C7.94521 17.13 7.96521 16.74 8.16521 16.43L12.1652 10.43C12.4752 9.97 13.0952 9.85 13.5552 10.15C14.0152 10.46 14.1352 11.08 13.8352 11.54L10.8752 15.99H15.0052C15.3752 15.99 15.7152 16.19 15.8852 16.52C16.0552 16.85 16.0352 17.24 15.8352 17.55L11.8352 23.55C11.6452 23.84 11.3252 24 11.0052 24H10.9952ZM18.9952 17.9C18.5252 17.9 18.1152 17.57 18.0152 17.1C17.9052 16.56 18.2552 16.03 18.7952 15.92C19.7652 15.72 20.6352 15.17 21.2252 14.37C21.8152 13.57 22.0852 12.58 21.9852 11.59C21.8852 10.6 21.4252 9.69 20.6852 9.02C19.9452 8.35 18.9952 7.99 18.0052 7.99H16.7452C16.2852 7.99 15.8952 7.68 15.7752 7.24C15.4852 6.12 14.9152 5.08 14.1352 4.24C13.3552 3.39 12.3552 2.75 11.2652 2.37C10.1752 2 8.99521 1.9 7.85521 2.09C6.71521 2.28 5.62521 2.75 4.71521 3.46C3.80521 4.17 3.07521 5.1 2.60521 6.16C2.13521 7.22 1.93521 8.38 2.02521 9.53C2.11521 10.68 2.49521 11.8 3.11521 12.78C3.73521 13.75 4.60521 14.56 5.61521 15.12C6.09521 15.39 6.27521 16 6.00521 16.48C5.73521 16.96 5.13521 17.14 4.64521 16.87C3.34521 16.15 2.23521 15.11 1.43521 13.86C0.615208 12.61 0.135208 11.17 0.0252083 9.69C-0.0847917 8.21 0.165208 6.71 0.775208 5.35C1.37521 3.99 2.31521 2.79 3.49521 1.88C4.65521 0.97 6.05521 0.36 7.51521 0.12C8.98521 -0.12 10.4952 0 11.9052 0.48C13.3152 0.96 14.5852 1.79 15.5952 2.88C16.4252 3.78 17.0652 4.84 17.4752 5.99H18.0052C19.4952 5.99 20.9252 6.54 22.0252 7.54C23.1352 8.54 23.8252 9.91 23.9752 11.39C24.1252 12.87 23.7152 14.35 22.8352 15.55C21.9552 16.75 20.6652 17.57 19.1952 17.87C19.1252 17.88 19.0652 17.89 18.9952 17.89V17.9Z"
            fill="current" />
    </g>
    <defs>
        <clipPath id="clip0_7_9568">
            <rect width="24" height="24" fill="white" />
        </clipPath>
    </defs>
</svg>