<svg width="24" height="24" viewBox="0 0 24 24" fill="none" xmlns="http://www.w3.org/2000/svg">
    <path fill-rule="evenodd" clip-rule="evenodd"
        d="M11.455 1.16156C11.7864 0.946148 12.2136 0.946148 12.545 1.16156L22.545 7.66156C22.8288 7.84602 23 8.16152 23 8.5V15.5C23 15.8385 22.8288 16.154 22.545 16.3384L12.545 22.8384C12.2136 23.0539 11.7864 23.0539 11.455 22.8384L1.45501 16.3384C1.17122 16.154 1 15.8385 1 15.5V8.5C1 8.16152 1.17122 7.84602 1.45501 7.66156L11.455 1.16156ZM3 10.4207L5.25621 12L3 13.5793V10.4207ZM3.78766 15.4693L11 20.1573V16.0207L7 13.2207L3.78766 15.4693ZM8.74379 12L12 14.2793L15.2562 12L12 9.72066L8.74379 12ZM13 7.97934L17 10.7793L20.2123 8.53071L13 3.84269V7.97934ZM11 3.84269V7.97934L7 10.7793L3.78766 8.53071L11 3.84269ZM21 10.4207L18.7438 12L21 13.5793V10.4207ZM20.2123 15.4693L17 13.2207L13 16.0207V20.1573L20.2123 15.4693Z"
        fill="current" />
</svg>