<svg width="24" height="24" viewBox="0 0 24 24" fill="none" xmlns="http://www.w3.org/2000/svg">
    <path
        d="M21.0639 15.2259C20.9533 15.3029 18.6586 17.731 18.6586 19.4351C18.6586 21.2319 19.7999 22.3792 21.0639 22.4418C22.1535 22.4947 23.4692 21.3702 23.4692 19.4351C23.4692 17.6312 21.1745 15.3029 21.0639 15.2259ZM8.53955 22.4418C8.99415 22.8964 9.59788 23.1465 10.2401 23.1465C10.8823 23.1465 11.486 22.8964 11.9406 22.4418L20.3592 14.0232L19.5089 13.173L10.2401 3.90418L7.48243 1.14651L5.78188 2.84706L8.53955 5.60472L1.82157 12.3227C1.36697 12.7773 1.11682 13.381 1.11682 14.0232C1.11682 14.6655 1.36697 15.2692 1.82157 15.7238L8.53955 22.4418ZM10.2401 7.30526L16.9581 14.0232H3.52211L10.2401 7.30526Z"
        fill="current" />
</svg>