<svg width="24" height="24" viewBox="0 0 24 24" fill="none" xmlns="http://www.w3.org/2000/svg">
    <path fill-rule="evenodd" clip-rule="evenodd"
        d="M20.91 3.05C20.33 2.59 19.55 2.22 18.68 1.93C16.92 1.34 14.56 1 12 1C9.44 1 7.08 1.34 5.32 1.93C4.45 2.22 3.67 2.59 3.09 3.05C2.52 3.5 2 4.15 2 5V19C2 19.85 2.51 20.5 3.08 20.95C3.66 21.41 4.44 21.78 5.31 22.07C7.06 22.66 9.42 23 12 23C14.58 23 16.94 22.66 18.69 22.07C19.56 21.78 20.34 21.41 20.92 20.95C21.49 20.5 22 19.85 22 19V5C22 4.15 21.48 3.5 20.91 3.05ZM4 7.52C4.4 7.73 4.84 7.91 5.32 8.07C7.08 8.66 9.44 9 12 9C14.56 9 16.92 8.66 18.68 8.07C19.15 7.91 19.6 7.73 20 7.52V12C20 12 20 12 20 12.02C20 12.03 19.99 12.05 19.97 12.09C19.93 12.16 19.84 12.26 19.68 12.39C19.35 12.65 18.82 12.93 18.06 13.18C16.56 13.68 14.42 14.01 12 14.01C9.58 14.01 7.44 13.68 5.94 13.18C5.19 12.93 4.65 12.65 4.32 12.39C4.16 12.26 4.07 12.16 4.03 12.09C4.01 12.06 4 12.03 4 12.02C4 12.01 4 12 4 12V7.52ZM4 4.98C4 4.98 4.01 4.95 4.03 4.91C4.07 4.84 4.16 4.74 4.32 4.61C4.65 4.35 5.19 4.07 5.95 3.82C7.45 3.32 9.59 2.99 12 2.99C14.41 2.99 16.55 3.32 18.05 3.82C18.81 4.07 19.35 4.35 19.68 4.61C19.84 4.74 19.93 4.84 19.97 4.91C19.99 4.94 20 4.96 20 4.98C20 4.99 20 4.99 20 5C20 5 20 5 20 5.02C20 5.03 19.99 5.05 19.97 5.09C19.93 5.16 19.84 5.26 19.68 5.39C19.35 5.65 18.81 5.93 18.05 6.18C16.55 6.68 14.41 7.01 12 7.01C9.59 7.01 7.45 6.68 5.95 6.18C5.19 5.93 4.65 5.65 4.32 5.39C4.16 5.26 4.07 5.16 4.03 5.09C4.01 5.06 4 5.04 4 5.02C4 5.01 4 5.01 4 5C4 4.99 4 5 4 4.98ZM20 19.02C20 19.02 19.99 19.05 19.97 19.09C19.93 19.16 19.84 19.26 19.68 19.39C19.35 19.65 18.82 19.93 18.06 20.18C16.56 20.68 14.42 21.01 12 21.01C9.58 21.01 7.44 20.68 5.94 20.18C5.19 19.93 4.65 19.65 4.32 19.39C4.16 19.26 4.07 19.16 4.03 19.09C4.01 19.06 4 19.03 4 19.02C4 19.01 4 19 4 19V14.53C4.4 14.73 4.84 14.92 5.31 15.07C7.06 15.66 9.42 16 12 16C14.58 16 16.94 15.66 18.69 15.07C19.16 14.91 19.6 14.73 20 14.53V19C20 19 20 19 20 19.02Z"
        fill="current" />
</svg>