<svg width="24" height="24" viewBox="0 0 24 24" fill="none" xmlns="http://www.w3.org/2000/svg">
    <path fill-rule="evenodd" clip-rule="evenodd"
        d="M13.7212 2.52892C14.1427 2.10987 14.713 1.87466 15.3074 1.87466C15.9018 1.87466 16.472 2.10987 16.8935 2.52892L16.8959 2.53127L22.523 8.15837C22.942 8.57991 23.1772 9.15015 23.1772 9.74454C23.1772 10.3383 22.9426 10.9079 22.5244 11.3293L22.523 11.3307L14.0709 19.8747H19.8128C20.4341 19.8747 20.9377 20.3783 20.9377 20.9996C20.9377 21.6209 20.4341 22.1246 19.8128 22.1246H8.00086C7.69838 22.1246 7.40865 22.0027 7.19704 21.7866L2.46347 16.9518C2.04665 16.5307 1.81277 15.962 1.81277 15.3693C1.81277 14.7749 2.04798 14.2046 2.46703 13.7831L2.46939 13.7807L13.7188 2.53128L13.7212 2.52892ZM10.9062 19.8747L17.1736 13.5391L11.5332 7.89875L4.06266 15.3693L4.06869 15.3753L8.47381 19.8747H10.9062ZM13.1241 6.30784L18.7559 11.9396L20.9254 9.74648L20.9274 9.74454L15.3074 4.12455L13.1241 6.30784Z"
        fill="current" />
</svg>