<svg width="24" height="24" viewBox="0 0 24 24" fill="none" xmlns="http://www.w3.org/2000/svg">
    <g clip-path="url(#clip0_7_9484)">
        <path
            d="M23 24C22.74 24 22.49 23.9 22.29 23.71L17.82 19.24C16.09 20.36 14.09 20.97 12.01 21C4.47 21 0.279998 12.8 0.109998 12.45C-0.0400025 12.16 -0.0300025 11.82 0.119998 11.53C1.26 9.41 2.75 7.54 4.57 5.99L0.289998 1.71C-0.100002 1.32 -0.100002 0.68 0.289998 0.29C0.679998 -0.1 1.32 -0.1 1.71 0.29L6.75 5.33C6.75 5.33 6.78 5.36 6.79 5.37L10.59 9.17L14.83 13.41L18.62 17.2C18.62 17.2 18.65 17.23 18.66 17.24L23.7 22.28C24.09 22.67 24.09 23.3 23.7 23.69C23.5 23.89 23.25 23.98 22.99 23.98L23 24ZM2.14 12C3.08 13.61 6.62 19 12 19C13.55 18.97 15.04 18.56 16.37 17.79L14.05 15.47C13.89 15.57 13.72 15.66 13.55 15.73C13.06 15.95 12.53 16.07 11.99 16.08C11.44 16.08 10.92 15.99 10.42 15.79C9.92 15.59 9.47 15.29 9.09 14.91C8.71 14.53 8.41 14.08 8.21 13.58C8.01 13.08 7.91 12.55 7.92 12.01C7.92 11.47 8.05 10.95 8.27 10.45C8.35 10.28 8.44 10.11 8.53 9.95L5.98 7.4C4.44 8.7 3.15 10.25 2.14 12ZM10.03 11.44C9.97 11.63 9.93 11.83 9.93 12.04C9.93 12.31 9.97 12.58 10.08 12.83C10.18 13.08 10.33 13.3 10.52 13.5C10.71 13.69 10.94 13.84 11.19 13.94C11.44 14.04 11.72 14.08 11.97 14.08C12.17 14.08 12.37 14.04 12.57 13.98L10.04 11.45L10.03 11.44ZM20.84 16.19C20.61 16.19 20.38 16.11 20.2 15.96C19.78 15.6 19.72 14.97 20.08 14.55C20.75 13.76 21.35 12.9 21.86 12C20.92 10.39 17.38 5 12 5C11.36 5.03 10.74 5.07 10.13 5.21C9.59 5.33 9.05 5 8.93 4.46C8.8 3.92 9.14 3.38 9.68 3.26C10.44 3.08 11.25 3 12.01 2.99C19.54 2.99 23.73 11.19 23.9 11.54C24.04 11.83 24.04 12.17 23.89 12.46C23.25 13.65 22.49 14.79 21.61 15.82C21.41 16.06 21.13 16.18 20.84 16.18V16.19Z"
            fill="current" />
    </g>
    <defs>
        <clipPath id="clip0_7_9484">
            <rect width="24" height="24" fill="white" />
        </clipPath>
    </defs>
</svg>