<svg width="24" height="24" viewBox="0 0 24 24" fill="none" xmlns="http://www.w3.org/2000/svg">
    <path
        d="M13.1295 2.25299C10.605 0.359992 6.98849 2.02049 6.77849 5.16749L6.67349 6.74999H5.62499C5.32663 6.74999 5.04048 6.86852 4.8295 7.0795C4.61852 7.29047 4.49999 7.57662 4.49999 7.87499C4.49999 8.17336 4.61852 8.45951 4.8295 8.67049C5.04048 8.88147 5.32663 8.99999 5.62499 8.99999H6.52199L5.89199 18.4395C5.87271 18.7297 5.78619 19.0114 5.63929 19.2623C5.49238 19.5133 5.28911 19.7267 5.04555 19.8856C4.80198 20.0444 4.5248 20.1445 4.2359 20.1778C3.94701 20.2111 3.65433 20.1768 3.38099 20.0775L3.01049 19.9425C2.87162 19.892 2.72416 19.8693 2.57652 19.8757C2.42888 19.8822 2.28396 19.9177 2.15004 19.9802C2.01611 20.0426 1.8958 20.1309 1.79598 20.2398C1.69615 20.3488 1.61877 20.4764 1.56824 20.6152C1.51772 20.7541 1.49504 20.9016 1.5015 21.0492C1.50797 21.1969 1.54345 21.3418 1.60592 21.4757C1.66839 21.6096 1.75663 21.7299 1.86559 21.8298C1.97456 21.9296 2.10212 22.007 2.24099 22.0575L2.61299 22.1925C3.2143 22.411 3.85818 22.4866 4.49374 22.4133C5.1293 22.3401 5.73912 22.1201 6.27499 21.7706C6.81086 21.4211 7.2581 20.9517 7.58134 20.3997C7.90459 19.8476 8.09499 19.2278 8.1375 18.5895L8.778 8.99999H10.875C11.1734 8.99999 11.4595 8.88147 11.6705 8.67049C11.8815 8.45951 12 8.17336 12 7.87499C12 7.57662 11.8815 7.29047 11.6705 7.0795C11.4595 6.86852 11.1734 6.74999 10.875 6.74999H8.92799L9.02249 5.31749C9.04318 5.0075 9.14721 4.70885 9.32358 4.45309C9.49996 4.19732 9.74213 3.99394 10.0245 3.86442C10.3069 3.7349 10.6191 3.68405 10.928 3.71724C11.2369 3.75043 11.5311 3.86643 11.7795 4.05299L12.075 4.27499C12.1932 4.36363 12.3277 4.42813 12.4708 4.46479C12.6139 4.50146 12.7628 4.50958 12.9091 4.48869C13.0553 4.46779 13.1961 4.4183 13.3232 4.34303C13.4503 4.26775 13.5614 4.16818 13.65 4.04999C13.7386 3.9318 13.8031 3.79731 13.8398 3.6542C13.8765 3.51108 13.8846 3.36215 13.8637 3.21589C13.8428 3.06964 13.7933 2.92894 13.718 2.80181C13.6428 2.67469 13.5432 2.56363 13.425 2.47499L13.1295 2.25299Z"
        fill="current" />
    <path
        d="M14.454 11.4975C14.2758 11.2082 14.0345 10.963 13.748 10.7803C13.4616 10.5976 13.1375 10.4822 12.8 10.4426C12.4626 10.4031 12.1206 10.4405 11.7996 10.552C11.4787 10.6635 11.1872 10.8462 10.947 11.0865L10.455 11.5785C10.2563 11.7918 10.1481 12.0738 10.1532 12.3653C10.1584 12.6567 10.2764 12.9348 10.4826 13.1409C10.6887 13.347 10.9668 13.4651 11.2582 13.4703C11.5497 13.4754 11.8317 13.3672 12.045 13.1685L12.5385 12.6765L14.3265 15.582L10.83 19.08C10.6313 19.2933 10.5231 19.5753 10.5282 19.8668C10.5334 20.1582 10.6514 20.4363 10.8576 20.6424C11.0637 20.8485 11.3418 20.9666 11.6332 20.9718C11.9247 20.9769 12.2067 20.8687 12.42 20.67L15.5385 17.553L17.046 20.0025C17.2242 20.2918 17.4655 20.537 17.752 20.7197C18.0384 20.9024 18.3625 21.0178 18.7 21.0574C19.0374 21.0969 19.3794 21.0595 19.7003 20.948C20.0213 20.8365 20.3128 20.6538 20.553 20.4135L21.045 19.9215C21.2437 19.7082 21.3519 19.4262 21.3468 19.1347C21.3416 18.8433 21.2235 18.5652 21.0174 18.3591C20.8113 18.1529 20.5332 18.0349 20.2418 18.0297C19.9503 18.0246 19.6683 18.1328 19.455 18.3315L18.9615 18.8235L17.1735 15.918L20.67 12.42C20.8687 12.2067 20.9769 11.9247 20.9718 11.6332C20.9666 11.3418 20.8485 11.0637 20.6424 10.8576C20.4363 10.6514 20.1582 10.5334 19.8668 10.5282C19.5753 10.5231 19.2933 10.6313 19.08 10.83L15.96 13.9455L14.454 11.4975Z"
        fill="current" />
</svg>