<svg width="24" height="24" viewBox="0 0 24 24" fill="none" xmlns="http://www.w3.org/2000/svg">
    <g clip-path="url(#clip0_7_9416)">
        <path fill-rule="evenodd" clip-rule="evenodd"
            d="M4.07612 1.61732C4.2309 1.24364 4.59554 1 5 1H19C19.5523 1 20 1.44772 20 2V9C20 9.55228 19.5523 10 19 10H14.4142L19.7071 15.2929C19.9931 15.5789 20.0787 16.009 19.9239 16.3827C19.7691 16.7564 19.4045 17 19 17H13V23C13 23.4045 12.7564 23.7691 12.3827 23.9239C12.009 24.0787 11.5789 23.9931 11.2929 23.7071L4.29289 16.7071C4.10536 16.5196 4 16.2652 4 16V9C4 8.44772 4.44771 8 5 8H9.58579L4.29289 2.70711C4.00689 2.42111 3.92134 1.99099 4.07612 1.61732ZM12.4142 8H18V3H7.41421L12.4142 8ZM11.5858 10H6V15H16.5858L11.5858 10ZM7.41421 17L11 20.5858V17H7.41421Z"
            fill="current" />
    </g>
    <defs>
        <clipPath id="clip0_7_9416">
            <rect width="24" height="24" fill="white" />
        </clipPath>
    </defs>
</svg>