<svg width="24" height="24" viewBox="0 0 24 24" fill="none" xmlns="http://www.w3.org/2000/svg">
    <path fill-rule="evenodd" clip-rule="evenodd"
        d="M7.5 3C7.10218 3 6.72064 3.15804 6.43934 3.43934C6.15804 3.72064 6 4.10218 6 4.5C6 4.89782 6.15804 5.27936 6.43934 5.56066C6.72064 5.84196 7.10218 6 7.5 6H10.654C10.5319 5.68061 10.3774 5.32942 10.1863 4.98192C9.55732 3.83834 8.6939 3 7.5 3ZM11 8V11H3V8H11ZM4.33772 6C4.11743 5.53557 4 5.02384 4 4.5C4 3.57174 4.36875 2.6815 5.02513 2.02513C5.6815 1.36875 6.57174 1 7.5 1C9.8061 1 11.1927 2.66166 11.9387 4.01808C11.9595 4.0559 11.9799 4.09368 12 4.13141C12.0201 4.09368 12.0405 4.0559 12.0613 4.01808C12.8073 2.66166 14.1939 1 16.5 1C17.4283 1 18.3185 1.36875 18.9749 2.02513C19.6313 2.6815 20 3.57174 20 4.5C20 5.02384 19.8826 5.53557 19.6623 6H22C22.5523 6 23 6.44772 23 7V12C23 12.5523 22.5523 13 22 13H21V22C21 22.5523 20.5523 23 20 23H4C3.44772 23 3 22.5523 3 22V13H2C1.44772 13 1 12.5523 1 12V7C1 6.44772 1.44772 6 2 6H4.33772ZM5 13V21H11V13H5ZM13 13V21H19V13H13ZM21 11H13V8H21V11ZM16.5 6C16.8978 6 17.2794 5.84196 17.5607 5.56066C17.842 5.27936 18 4.89782 18 4.5C18 4.10218 17.842 3.72064 17.5607 3.43934C17.2794 3.15804 16.8978 3 16.5 3C15.3061 3 14.4427 3.83834 13.8137 4.98192C13.6226 5.32942 13.4681 5.68061 13.346 6H16.5Z"
        fill="current" />
</svg>