<svg width="24" height="24" viewBox="0 0 24 24" fill="none" xmlns="http://www.w3.org/2000/svg">
    <path fill-rule="evenodd" clip-rule="evenodd"
        d="M6 4C4.89543 4 4 4.89543 4 6C4 7.10457 4.89543 8 6 8C7.10457 8 8 7.10457 8 6C8 4.89543 7.10457 4 6 4ZM2 6C2 3.79086 3.79086 2 6 2C8.20914 2 10 3.79086 10 6C10 7.86384 8.72523 9.42994 7 9.87398V21C7 21.5523 6.55228 22 6 22C5.44772 22 5 21.5523 5 21V9.87398C3.27477 9.42994 2 7.86384 2 6ZM12 6C12 5.44772 12.4477 5 13 5H16C16.7956 5 17.5587 5.31607 18.1213 5.87868C18.6839 6.44129 19 7.20435 19 8V14.126C20.7252 14.5701 22 16.1362 22 18C22 20.2091 20.2091 22 18 22C15.7909 22 14 20.2091 14 18C14 16.1362 15.2748 14.5701 17 14.126V8C17 7.73478 16.8946 7.48043 16.7071 7.29289C16.5196 7.10536 16.2652 7 16 7H13C12.4477 7 12 6.55228 12 6ZM18 16C16.8954 16 16 16.8954 16 18C16 19.1046 16.8954 20 18 20C19.1046 20 20 19.1046 20 18C20 16.8954 19.1046 16 18 16Z"
        fill="current" />
</svg>