<svg width="24" height="24" viewBox="0 0 24 24" fill="none" xmlns="http://www.w3.org/2000/svg">
    <g clip-path="url(#clip0_7_9413)">
        <path
            d="M11.99 23.23C11.78 23.23 11.58 23.17 11.4 23.04L0.76 15.3C0.44 15.07 0.21 14.75 0.09 14.37C-0.03 14 -0.03 13.6 0.09 13.23L3.75 1.95C3.85 1.7 3.97 1.51 4.14 1.36C4.66 0.88 5.54 0.88 6.07 1.36C6.26 1.54 6.39 1.76 6.46 1.99L8.67 8.77H15.32L17.54 1.95C17.64 1.69 17.77 1.5 17.93 1.36C18.44 0.89 19.32 0.88 19.85 1.36C20.04 1.54 20.17 1.75 20.24 1.98L23.94 13.22C24.06 13.64 24.05 14.05 23.91 14.42C23.78 14.77 23.53 15.09 23.21 15.3L12.58 23.03C12.4 23.16 12.2 23.22 11.99 23.22V23.23ZM2.03 13.75L11.99 20.99L21.99 13.72L20.77 10.11L18.87 4.27L16.99 10.08C16.86 10.49 16.47 10.77 16.04 10.77H7.94C7.51 10.77 7.12 10.49 6.99 10.08L5.1 4.27L2.03 13.75ZM4.55 2.59C4.55 2.59 4.55 2.6 4.55 2.61V2.59Z"
            fill="current" />
    </g>
    <defs>
        <clipPath id="clip0_7_9413">
            <rect width="24" height="24" fill="white" />
        </clipPath>
    </defs>
</svg>