<svg width="24" height="24" viewBox="0 0 24 24" fill="none" xmlns="http://www.w3.org/2000/svg">
    <path fill-rule="evenodd" clip-rule="evenodd"
        d="M14.4619 2.49325C15.2507 2.16641 16.0961 1.99818 16.95 1.99818C17.8038 1.99818 18.6493 2.16641 19.4381 2.49325C20.2268 2.82004 20.9434 3.29898 21.5469 3.90273C22.1507 4.50628 22.63 5.22319 22.9567 6.01186C23.2836 6.80067 23.4518 7.64615 23.4518 8.5C23.4518 9.35385 23.2836 10.1993 22.9567 10.9881C22.6299 11.7769 22.1509 12.4935 21.5471 13.0971C21.547 13.0972 21.5472 13.0971 21.5471 13.0971L12.7071 21.9371C12.3166 22.3276 11.6834 22.3276 11.2929 21.9371L2.45289 13.0971C1.23366 11.8779 0.548706 10.2243 0.548706 8.5C0.548706 6.77575 1.23366 5.12212 2.45289 3.9029C3.67212 2.68367 5.32575 1.99871 7.05 1.99871C8.77425 1.99871 10.4279 2.68367 11.6471 3.9029L12 4.25579L12.3527 3.90306C12.3527 3.90312 12.3528 3.90301 12.3527 3.90306C12.9563 3.29924 13.6731 2.82007 14.4619 2.49325ZM16.95 3.99818C16.3589 3.99818 15.7735 4.11464 15.2274 4.34092C14.6813 4.5672 14.1852 4.89886 13.7673 5.31694L12.7071 6.37711C12.3166 6.76763 11.6834 6.76763 11.2929 6.37711L10.2329 5.31711C9.38873 4.47295 8.24381 3.99871 7.05 3.99871C5.85618 3.99871 4.71126 4.47295 3.8671 5.31711C3.02295 6.16126 2.54871 7.30619 2.54871 8.5C2.54871 9.69382 3.02295 10.8387 3.8671 11.6829L12 19.8158L20.1329 11.6829C20.551 11.265 20.8828 10.7687 21.1091 10.2226C21.3354 9.67646 21.4518 9.09113 21.4518 8.5C21.4518 7.90888 21.3354 7.32354 21.1091 6.77744C20.8828 6.23134 20.5511 5.73517 20.1331 5.31728C19.7152 4.89919 19.2187 4.5672 18.6726 4.34092C18.1265 4.11464 17.5411 3.99818 16.95 3.99818Z"
        fill="current" />
</svg>