<svg width="24" height="24" viewBox="0 0 24 24" fill="none" xmlns="http://www.w3.org/2000/svg">
    <path fill-rule="evenodd" clip-rule="evenodd"
        d="M12 1C5.92 1 1 5.92 1 12C1 18.08 5.92 23 12 23C18.08 23 23 18.08 23 12C23 5.92 18.08 1 12 1ZM12 21C7.03 21 3 16.97 3 12C3 7.03 7.03 3 12 3C16.97 3 21 7.03 21 12C21 16.97 16.97 21 12 21Z"
        fill="current" />
    <path fill-rule="evenodd" clip-rule="evenodd"
        d="M12.6 6.05C11.67 5.89 10.71 6.07 9.9 6.54C9.09 7.01 8.47 7.77 8.15 8.66C7.97 9.18 8.24 9.75 8.76 9.94C9.28 10.12 9.85 9.85 10.04 9.33C10.2 8.88 10.51 8.51 10.91 8.27C11.31 8.03 11.8 7.94 12.26 8.02C12.73 8.1 13.15 8.34 13.45 8.7C13.75 9.06 13.92 9.52 13.92 9.99C13.92 10.46 13.55 10.95 12.87 11.41C12.56 11.62 12.23 11.78 11.99 11.89C11.87 11.94 11.77 11.98 11.7 12.01C11.67 12.02 11.64 12.03 11.63 12.04H11.61C11.09 12.22 10.8 12.79 10.98 13.31C11.15 13.83 11.72 14.12 12.24 13.94H12.28C12.28 13.94 12.35 13.9 12.4 13.88C12.5 13.84 12.63 13.79 12.79 13.72C13.11 13.58 13.53 13.37 13.97 13.08C14.78 12.54 15.91 11.53 15.92 10C15.92 9.06 15.59 8.14 14.98 7.42C14.37 6.7 13.53 6.21 12.6 6.05Z"
        fill="current" />
    <path fill-rule="evenodd" clip-rule="evenodd"
        d="M12.01 16H12C11.45 16 11 16.45 11 17C11 17.55 11.45 18 12 18H12.01C12.56 18 13.01 17.55 13.01 17C13.01 16.45 12.56 16 12.01 16Z"
        fill="current" />
</svg>