<svg width="32" height="32" viewBox="0 0 32 32" fill="none" xmlns="http://www.w3.org/2000/svg">
<circle cx="16" cy="16" r="16" fill="#FCFCFD"/>
<path fill-rule="evenodd" clip-rule="evenodd" d="M23.2075 13.1575L16.4575 7.9075C16.1875 7.6975 15.805 7.6975 15.535 7.9075L8.7925 13.1575C8.6125 13.3 8.5 13.5175 8.5 13.75V22C8.5 22.6 8.74 23.17 9.16 23.59C9.58 24.01 10.1575 24.25 10.75 24.25H21.25C21.85 24.25 22.42 24.01 22.84 23.59C23.26 23.17 23.5 22.5925 23.5 22V13.75C23.5 13.5175 23.395 13.3 23.2075 13.1575ZM17.5 22.75H14.5V16.75H17.5V22.75ZM22 22C22 22.2025 21.9175 22.39 21.7825 22.5325C21.6475 22.675 21.4525 22.75 21.25 22.75H19V16C19 15.5875 18.6625 15.25 18.25 15.25H13.75C13.3375 15.25 13 15.5875 13 16V22.75H10.75C10.5475 22.75 10.36 22.6675 10.2175 22.5325C10.075 22.39 10 22.2025 10 22V14.1175L16 9.4525L22 14.1175V22Z" fill="#2E365C"/>
</svg>
