<svg width="24" height="24" viewBox="0 0 24 24" fill="none" xmlns="http://www.w3.org/2000/svg">
    <path fill-rule="evenodd" clip-rule="evenodd"
        d="M4 3C4 2.44772 4.44772 2 5 2H19C19.5523 2 20 2.44772 20 3V21C20 21.3905 19.7727 21.7452 19.418 21.9084C19.0633 22.0717 18.646 22.0135 18.3495 21.7595L17.3175 20.8755C17.1362 20.7201 16.9052 20.6346 16.6665 20.6346C16.4278 20.6346 16.197 20.72 16.0157 20.8753L14.9835 21.7595C14.609 22.0803 14.0565 22.0802 13.6821 21.7592L12.6511 20.8752C12.4698 20.7197 12.2388 20.6342 12 20.6342C11.7612 20.6342 11.5303 20.7196 11.349 20.8751L10.3179 21.7592C9.94352 22.0802 9.391 22.0803 9.01645 21.7595L7.98445 20.8755C7.80321 20.7201 7.57219 20.6346 7.3335 20.6346C7.09481 20.6346 6.86399 20.72 6.68275 20.8753L5.65055 21.7595C5.354 22.0135 4.93672 22.0717 4.582 21.9084C4.22728 21.7452 4 21.3905 4 21V3ZM6 4V18.9472C6.41151 18.7431 6.8675 18.6346 7.3335 18.6346C8.04958 18.6346 8.74204 18.8907 9.28575 19.3567L9.66669 19.683L10.047 19.3569C10.5908 18.8905 11.2836 18.6342 12 18.6342C12.7164 18.6342 13.4091 18.8905 13.9529 19.3568L14.3333 19.683L14.7142 19.3567C15.258 18.8907 15.9504 18.6346 16.6665 18.6346C17.1325 18.6346 17.5885 18.7431 18 18.9472V4H6ZM8 7C8 6.44772 8.44772 6 9 6H15C15.5523 6 16 6.44772 16 7C16 7.55228 15.5523 8 15 8H9C8.44772 8 8 7.55228 8 7ZM8 11C8 10.4477 8.44772 10 9 10H15C15.5523 10 16 10.4477 16 11C16 11.5523 15.5523 12 15 12H9C8.44772 12 8 11.5523 8 11ZM10 15C10 14.4477 10.4477 14 11 14H15C15.5523 14 16 14.4477 16 15C16 15.5523 15.5523 16 15 16H11C10.4477 16 10 15.5523 10 15Z"
        fill="current" />
</svg>