<svg width="24" height="24" viewBox="0 0 24 24" fill="none" xmlns="http://www.w3.org/2000/svg">
    <path
        d="M19.07 2.93C17.18 1.04 14.67 0 12 0C9.33 0 6.82 1.04 4.93 2.93C3.04 4.82 2 7.33 2 10C2 17.45 11.06 23.58 11.45 23.83C11.62 23.94 11.81 24 12 24C12.19 24 12.39 23.94 12.55 23.83C12.94 23.57 22 17.45 22 10C22 7.33 20.96 4.82 19.07 2.93ZM12 21.77C10.1 20.36 4 15.41 4 10C4 7.89 4.85 5.83 6.34 4.34C7.85 2.83 9.86 2 12 2C14.14 2 16.15 2.83 17.66 4.34C19.15 5.83 20 7.89 20 10C20 15.41 13.9 20.36 12 21.77Z"
        fill="current" />
    <path
        d="M12 6C9.79 6 8 7.79 8 10C8 12.21 9.79 14 12 14C14.21 14 16 12.21 16 10C16 7.79 14.21 6 12 6ZM12 12C10.9 12 10 11.1 10 10C10 8.9 10.9 8 12 8C13.1 8 14 8.9 14 10C14 11.1 13.1 12 12 12Z"
        fill="current" />
</svg>