<svg width="24" height="24" viewBox="0 0 24 24" fill="none" xmlns="http://www.w3.org/2000/svg">
    <path d="M4 8H12C12.55 8 13 7.55 13 7C13 6.45 12.55 6 12 6H4C3.45 6 3 6.45 3 7C3 7.55 3.45 8 4 8Z" fill="current" />
    <path d="M4 18H12C12.55 18 13 17.55 13 17C13 16.45 12.55 16 12 16H4C3.45 16 3 16.45 3 17C3 17.55 3.45 18 4 18Z"
        fill="current" />
    <path
        d="M3 12C3 12.55 3.41 13 3.92 13H14.01C14.51 13 14.93 12.55 14.93 12C14.93 11.45 14.52 11 14.01 11H3.92C3.42 11 3 11.45 3 12Z"
        fill="current" />
    <path
        d="M15.3 9.12998L18.18 12.01L15.3 14.89C15.21 14.98 15.13 15.09 15.08 15.21C15.03 15.33 15 15.46 15 15.59C15 15.72 15.03 15.85 15.08 15.97C15.13 16.09 15.2 16.2 15.3 16.29C15.39 16.38 15.5 16.46 15.62 16.51C15.74 16.56 15.87 16.59 16 16.59C16.13 16.59 16.26 16.56 16.38 16.51C16.5 16.46 16.61 16.39 16.7 16.29L20.29 12.7C20.38 12.61 20.46 12.5 20.51 12.38C20.56 12.26 20.59 12.13 20.59 12C20.59 11.87 20.56 11.74 20.51 11.62C20.46 11.5 20.39 11.39 20.29 11.3L16.7 7.70998C16.31 7.31998 15.68 7.31998 15.29 7.70998C14.91 8.09998 14.9 8.73998 15.29 9.12998H15.3Z"
        fill="current" />
</svg>