<svg width="24" height="24" viewBox="0 0 24 24" fill="none" xmlns="http://www.w3.org/2000/svg">
    <g clip-path="url(#clip0_7_9379)">
        <path
            d="M16.0025 24.0004H8.0025C7.4525 24.0004 7.0025 23.5504 7.0025 23.0004C7.0025 22.4504 7.4525 22.0004 8.0025 22.0004H11.0025V19.9904C10.3025 19.9004 9.6125 19.7204 8.9525 19.4504C7.4725 18.8404 6.2225 17.8104 5.3425 16.4804C4.4525 15.1504 3.9925 13.6004 4.0125 11.9904V10.0004C4.0125 9.4504 4.4625 9.0004 5.0125 9.0004C5.5625 9.0004 6.0125 9.4504 6.0125 10.0004V12.0004C6.0125 13.2104 6.3525 14.3704 7.0125 15.3704C7.6725 16.3704 8.6125 17.1404 9.7225 17.6004C10.3625 17.8604 11.0325 18.0104 11.7125 18.0504C11.9025 17.9904 12.1225 17.9904 12.3125 18.0504C12.6125 18.0304 12.9225 18.0004 13.2225 17.9304C14.0625 17.7604 14.8425 17.4104 15.5225 16.9204L14.0425 15.4404C13.6625 15.6704 13.2325 15.8304 12.7925 15.9204C12.0125 16.0804 11.2125 16.0004 10.4825 15.6904C9.7525 15.3904 9.1325 14.8804 8.6925 14.2204C8.2525 13.5604 8.0225 12.7904 8.0125 12.0004V9.4104L0.2925 1.7104C-0.0975 1.3204 -0.0975 0.690395 0.2925 0.300395C0.6825 -0.0896046 1.3225 -0.0896046 1.7125 0.300395L9.7025 8.2804L9.7325 8.3104L14.8225 13.4004C14.8225 13.4004 14.8225 13.4004 14.8325 13.4104H14.8425L17.5025 16.0804C17.5725 16.1204 17.6425 16.1704 17.7025 16.2404C17.7725 16.3104 17.8225 16.3804 17.8725 16.4604L23.7125 22.3004C24.1025 22.6904 24.1025 23.3204 23.7125 23.7104C23.3225 24.1004 22.6925 24.1004 22.3025 23.7104L16.9425 18.3504C15.9725 19.1104 14.8425 19.6404 13.6125 19.8904C13.4125 19.9304 13.2125 19.9704 13.0025 19.9904V22.0004H16.0025C16.5525 22.0004 17.0025 22.4504 17.0025 23.0004C17.0025 23.5504 16.5525 24.0004 16.0025 24.0004ZM10.0025 11.4204V12.0104C10.0025 12.4104 10.1225 12.7904 10.3425 13.1204C10.5625 13.4504 10.8725 13.7004 11.2425 13.8604C11.6125 14.0104 12.0125 14.0504 12.4025 13.9704C12.4425 13.9704 12.4825 13.9504 12.5325 13.9404L10.0125 11.4204H10.0025ZM18.8925 14.2304C18.8325 14.2304 18.7725 14.2304 18.7125 14.2104C18.1725 14.1104 17.8025 13.5904 17.9025 13.0504C17.9625 12.7004 17.9925 12.3504 17.9925 12.0004V10.0004C17.9925 9.4504 18.4425 9.0004 18.9925 9.0004C19.5425 9.0004 19.9925 9.4504 19.9925 10.0004V12.0004C19.9925 12.4704 19.9525 12.9404 19.8625 13.4104C19.7725 13.8904 19.3525 14.2304 18.8825 14.2304H18.8925ZM15.0025 10.3404C14.4525 10.3404 14.0025 9.8904 14.0025 9.3404V4.0004C14.0025 3.5004 13.8225 3.0204 13.4825 2.6604C13.1525 2.2904 12.6925 2.0604 12.2025 2.0104C11.7125 1.9604 11.2125 2.0904 10.8125 2.3904C10.4125 2.6904 10.1425 3.1104 10.0425 3.6004C9.9325 4.1404 9.4025 4.4804 8.8625 4.3804C8.3225 4.2704 7.9725 3.7404 8.0825 3.2004C8.2825 2.2304 8.8325 1.3604 9.6325 0.780395C10.4325 0.190395 11.4225 -0.0796046 12.4025 0.0203954C13.3925 0.120395 14.3025 0.580395 14.9725 1.3204C15.6425 2.0604 16.0025 3.0104 16.0025 4.0104V9.3504C16.0025 9.9004 15.5525 10.3504 15.0025 10.3504V10.3404Z"
            fill="current" />
    </g>
    <defs>
        <clipPath id="clip0_7_9379">
            <rect width="24" height="24" fill="white" />
        </clipPath>
    </defs>
</svg>