<svg width="24" height="24" viewBox="0 0 24 24" fill="none" xmlns="http://www.w3.org/2000/svg">
    <path fill-rule="evenodd" clip-rule="evenodd"
        d="M21.66 6.66C21.64 6.59 21.63 6.52 21.59 6.46C21.53 6.36 21.45 6.27 21.36 6.2C21.12 5.89 20.84 5.6 20.49 5.41L13.5 1.4C13.04 1.14 12.53 1 12 1C11.47 1 10.96 1.14 10.5 1.4L7.28001 3.24C7.10001 3.28 6.94001 3.38 6.80001 3.51L3.50001 5.4C3.16001 5.6 2.87001 5.88 2.63001 6.2C2.54001 6.27 2.46001 6.36 2.40001 6.46C2.36001 6.52 2.35001 6.59 2.33001 6.66C2.12001 7.08 1.99001 7.53 1.99001 8V16C1.99001 16.53 2.13001 17.04 2.39001 17.5C2.65001 17.96 3.03001 18.33 3.49001 18.6L10.49 22.6C10.8 22.78 11.15 22.88 11.5 22.94C11.65 23.02 11.81 23.09 11.99 23.09C12.17 23.09 12.33 23.03 12.48 22.94C12.83 22.88 13.18 22.78 13.49 22.6L20.49 18.6C20.95 18.33 21.32 17.96 21.59 17.5C21.85 17.04 21.99 16.53 21.99 16V8C21.99 7.53 21.86 7.08 21.65 6.66H21.66ZM11.5 3.14C11.65 3.05 11.82 3 12 3C12.18 3 12.35 3.05 12.5 3.13L18.96 6.82L16.5 8.24L9.56001 4.24L11.5 3.13V3.14ZM12 10.85L5.04001 6.83L7.55001 5.4L14.51 9.41L12 10.86V10.85ZM4.50001 16.86C4.35001 16.77 4.22001 16.65 4.14001 16.49C4.05001 16.34 4.01001 16.17 4.01001 15.99V8.53L11.01 12.58V20.57L4.51001 16.86H4.50001ZM19.87 16.5C19.78 16.65 19.66 16.78 19.51 16.86L13.01 20.58V12.59L20.01 8.54V16C20.01 16.18 19.96 16.35 19.88 16.5H19.87Z"
        fill="current" />
</svg>