<svg width="24" height="24" viewBox="0 0 24 24" fill="none" xmlns="http://www.w3.org/2000/svg">
    <path fill-rule="evenodd" clip-rule="evenodd"
        d="M1.29289 1.2929C1.53923 1.04657 1.896 0.946182 2.23464 1.02792L16.7346 4.52792C17.1132 4.61929 17.4042 4.92206 17.4806 5.30389L18.6337 11.0693C18.9927 10.9281 19.4169 11.0027 19.7071 11.2929L22.7071 14.2929C23.0976 14.6834 23.0976 15.3166 22.7071 15.7071L15.7071 22.7071C15.3166 23.0976 14.6834 23.0976 14.2929 22.7071L11.2929 19.7071C11.0027 19.4169 10.9281 18.9927 11.0692 18.6337L5.30388 17.4806C4.92206 17.4042 4.61929 17.1132 4.52792 16.7346L1.02792 2.23465C0.946178 1.896 1.04656 1.53923 1.29289 1.2929ZM12.6713 16.9145L16.9145 12.6713L15.6446 6.32226L5.22023 3.80602L9.70659 8.29238C10.0982 8.10496 10.5369 8.00001 11 8.00001C12.6569 8.00001 14 9.34315 14 11C14 12.6569 12.6569 14 11 14C9.34315 14 8 12.6569 8 11C8 10.5369 8.10495 10.0982 8.29237 9.70659L3.80602 5.22023L6.32226 15.6447L12.6713 16.9145ZM10.2806 10.3054C10.1069 10.4853 10 10.7302 10 11C10 11.5523 10.4477 12 11 12C11.5523 12 12 11.5523 12 11C12 10.4477 11.5523 10 11 10C10.7302 10 10.4853 10.1069 10.3054 10.2806C10.3013 10.2848 10.2972 10.289 10.2931 10.2931C10.289 10.2972 10.2848 10.3013 10.2806 10.3054ZM13.4142 19L15 20.5858L20.5858 15L19 13.4142L13.4142 19Z"
        fill="current" />
</svg>