<svg width="24" height="24" viewBox="0 0 24 24" fill="none" xmlns="http://www.w3.org/2000/svg">
    <path
        d="M19.89 23.93C19.8 23.93 19.71 23.93 19.62 23.92C16.38 23.57 13.25 22.45 10.53 20.69C8.01 19.09 5.83 16.91 4.23 14.39C2.47 11.67 1.36 8.51999 1.01 5.28999C0.970002 4.85999 1.01 4.43999 1.15 4.04999C1.28 3.64999 1.49 3.29999 1.78 2.98999C2.06 2.67999 2.4 2.43999 2.78 2.26999C3.16 2.09999 3.57 2.01999 3.99 2.00999H6.99C7.69 2.02999 8.41 2.25999 8.97 2.73999C9.52 3.21999 9.88 3.87999 9.98 4.59999C10.1 5.48999 10.31 6.35999 10.63 7.19999C10.83 7.73999 10.87 8.31999 10.75 8.87999C10.63 9.43999 10.35 9.95999 9.95 10.36L9.23 11.08C10.41 12.92 11.97 14.49 13.82 15.67L14.54 14.95C14.95 14.54 15.47 14.27 16.03 14.15C16.59 14.03 17.17 14.07 17.71 14.28C18.54 14.59 19.41 14.81 20.3 14.92C21.04 15.02 21.7 15.39 22.18 15.95C22.65 16.51 22.91 17.22 22.89 17.95V20.94C22.89 21.36 22.81 21.76 22.64 22.15C22.47 22.53 22.23 22.87 21.92 23.16C21.61 23.45 21.25 23.66 20.85 23.79C20.54 23.9 20.22 23.95 19.89 23.95V23.93ZM7.02 3.99999H4C3.86 3.99999 3.73 4.02999 3.6 4.08999C3.47 4.14999 3.36 4.22999 3.27 4.32999C3.18 4.42999 3.11 4.54999 3.06 4.67999C3.02 4.80999 3 4.94999 3.01 5.08999C3.32 7.99999 4.33 10.84 5.92 13.31C7.37 15.6 9.34 17.56 11.62 19.01C14.08 20.61 16.91 21.61 19.82 21.93C19.94 21.94 20.08 21.93 20.21 21.88C20.34 21.84 20.46 21.76 20.56 21.67C20.66 21.57 20.74 21.46 20.8 21.33C20.86 21.2 20.89 21.06 20.88 20.92V17.89C20.88 17.64 20.8 17.4 20.64 17.22C20.48 17.03 20.26 16.91 20.02 16.88C18.99 16.74 17.97 16.49 17 16.13C16.82 16.06 16.62 16.05 16.44 16.09C16.25 16.13 16.08 16.22 15.94 16.36L14.67 17.62C14.35 17.94 13.86 18 13.47 17.78C10.81 16.27 8.61 14.07 7.09 11.4C6.87 11.01 6.93 10.52 7.25 10.2L8.52 8.92999C8.65 8.79999 8.74 8.62999 8.78 8.43999C8.82 8.24999 8.81 8.05999 8.74 7.87999C8.37 6.89999 8.12 5.87999 7.99 4.84999C7.96 4.61999 7.84 4.39999 7.65 4.23999C7.47 4.07999 7.24 3.99999 7 3.99999H7.02ZM15.89 9.99999C15.63 9.99999 15.38 9.89999 15.18 9.70999C14.79 9.31999 14.79 8.68999 15.18 8.29999L20.47 3.00999H16.88C16.33 3.00999 15.88 2.55999 15.88 2.00999C15.88 1.45999 16.33 1.00999 16.88 1.00999H22.88C23.02 1.00999 23.15 1.03999 23.27 1.08999C23.38 1.12999 23.48 1.19999 23.56 1.27999C23.56 1.27999 23.59 1.30999 23.6 1.32999C23.68 1.41999 23.75 1.51999 23.79 1.61999C23.84 1.73999 23.87 1.86999 23.87 2.00999V8.00999C23.87 8.55999 23.42 9.00999 22.87 9.00999C22.32 9.00999 21.87 8.55999 21.87 8.00999V4.41999L16.58 9.70999C16.38 9.90999 16.13 9.99999 15.87 9.99999H15.89Z"
        fill="current" />
</svg>