<svg width="24" height="24" viewBox="0 0 24 24" fill="none" xmlns="http://www.w3.org/2000/svg">
    <path
        d="M19.89 23.93C19.8 23.93 19.71 23.93 19.62 23.92C16.38 23.57 13.25 22.45 10.53 20.69C8.01 19.09 5.83 16.91 4.23 14.39C2.47 11.67 1.36 8.52 1.01 5.29C0.970002 4.86 1.01 4.44 1.15 4.05C1.28 3.65 1.49 3.3 1.78 2.99C2.06 2.68 2.4 2.44 2.78 2.27C3.16 2.1 3.57 2.02 3.99 2.01H6.99C7.69 2.03 8.41 2.26 8.97 2.74C9.52 3.22 9.88 3.88 9.98 4.6C10.1 5.49 10.31 6.36 10.63 7.2C10.83 7.74 10.87 8.32 10.75 8.88C10.63 9.44 10.35 9.96 9.95 10.36L9.23 11.08C10.41 12.92 11.97 14.49 13.82 15.67L14.54 14.95C14.95 14.54 15.47 14.27 16.03 14.15C16.59 14.03 17.17 14.07 17.71 14.28C18.54 14.59 19.41 14.81 20.3 14.92C21.04 15.02 21.7 15.39 22.18 15.95C22.65 16.51 22.91 17.22 22.89 17.95V20.94C22.89 21.36 22.81 21.76 22.64 22.15C22.47 22.53 22.23 22.87 21.92 23.16C21.61 23.45 21.25 23.66 20.85 23.79C20.54 23.9 20.22 23.95 19.89 23.95V23.93ZM7.02 4H4C3.86 4 3.73 4.03 3.6 4.09C3.47 4.15 3.36 4.23 3.27 4.33C3.18 4.43 3.11 4.55 3.06 4.68C3.02 4.81 3 4.95 3.01 5.09C3.32 8 4.33 10.84 5.92 13.31C7.37 15.6 9.34 17.56 11.62 19.01C14.08 20.61 16.91 21.61 19.82 21.93C19.94 21.94 20.08 21.93 20.21 21.88C20.34 21.84 20.46 21.76 20.56 21.67C20.66 21.57 20.74 21.46 20.8 21.33C20.86 21.2 20.89 21.06 20.88 20.92V17.89C20.88 17.64 20.8 17.4 20.64 17.22C20.48 17.03 20.26 16.91 20.02 16.88C18.99 16.74 17.97 16.49 17 16.13C16.82 16.06 16.62 16.05 16.44 16.09C16.25 16.13 16.08 16.22 15.94 16.36L14.67 17.62C14.35 17.94 13.86 18 13.47 17.78C10.81 16.27 8.61 14.06 7.09 11.4C6.87 11.01 6.93 10.52 7.25 10.2L8.52 8.93C8.65 8.8 8.74 8.63 8.78 8.44C8.82 8.25 8.81 8.06 8.74 7.88C8.37 6.9 8.12 5.88 7.99 4.85C7.96 4.62 7.84 4.4 7.65 4.24C7.47 4.08 7.24 4 7 4H7.02ZM18.89 10.95C18.42 10.95 18 10.62 17.91 10.14C17.76 9.36 17.38 8.64 16.81 8.08C16.24 7.52 15.53 7.14 14.75 6.98C14.21 6.87 13.85 6.35 13.96 5.81C14.07 5.27 14.59 4.91 15.13 5.02C16.31 5.25 17.38 5.82 18.22 6.67C19.06 7.52 19.64 8.59 19.87 9.76C19.98 10.3 19.62 10.83 19.08 10.93C19.02 10.94 18.95 10.95 18.89 10.95ZM22.89 10.94C22.39 10.94 21.95 10.56 21.9 10.05C21.7 8.25 20.88 6.56 19.6 5.28C18.32 4 16.63 3.19 14.83 2.99C14.28 2.93 13.89 2.43 13.95 1.89C14.01 1.34 14.5 0.940001 15.05 1.01C17.3 1.26 19.41 2.28 21.01 3.87C22.61 5.47 23.63 7.58 23.88 9.83C23.94 10.38 23.55 10.87 23 10.94C22.96 10.94 22.92 10.94 22.89 10.94Z"
        fill="current" />
</svg>