<svg width="24" height="24" viewBox="0 0 24 24" fill="none" xmlns="http://www.w3.org/2000/svg">
    <g clip-path="url(#clip0_7_9355)">
        <path
            d="M5.19 13.81C5.38 13.81 5.57 13.76 5.73 13.65C6.19 13.35 6.33 12.73 6.02 12.27C4.43 9.82 3.42 6.98 3.11 4.09C3.1 3.95 3.11 3.81 3.16 3.68C3.2 3.55 3.28 3.43 3.37 3.32C3.46 3.22 3.58 3.14 3.7 3.08C3.83 3.02 3.96 3 4.1 3H7.11C7.35 3 7.59 3.08 7.77 3.24C7.95 3.4 8.07 3.62 8.11 3.85C8.25 4.88 8.5 5.9 8.86 6.88C8.93 7.06 8.94 7.26 8.9 7.44C8.86 7.63 8.77 7.8 8.64 7.93L7.37 9.2C6.98 9.59 6.98 10.22 7.37 10.61C7.76 11 8.39 11 8.78 10.61L10.05 9.34C10.45 8.93 10.73 8.42 10.85 7.85C10.97 7.29 10.93 6.71 10.73 6.17C10.42 5.34 10.2 4.46 10.08 3.57C9.98 2.85 9.62 2.19 9.07 1.72C8.52 1.24 7.78 0.989998 7.09 0.989998H4.09C3.67 0.989998 3.26 1.08 2.88 1.25C2.5 1.42 2.16 1.66 1.88 1.97C1.6 2.28 1.39 2.64 1.25 3.04C1.12 3.44 1.07 3.85 1.11 4.28C1.46 7.5 2.57 10.63 4.34 13.35C4.53 13.65 4.85 13.81 5.18 13.81H5.19Z"
            fill="current" />
        <path
            d="M23.71 0.289998C23.32 -0.100002 22.69 -0.100002 22.3 0.289998L10.01 12.58C10.01 12.58 9.99 12.59 9.98 12.6C9.98 12.6 9.97 12.62 9.96 12.63L0.289998 22.29C-0.100002 22.68 -0.100002 23.31 0.289998 23.7C0.489998 23.9 0.739998 23.99 0.999998 23.99C1.26 23.99 1.51 23.89 1.71 23.7L7.9 17.51C8.76 18.29 9.67 19.03 10.65 19.65C13.36 21.41 16.5 22.53 19.73 22.88C19.82 22.88 19.91 22.89 20.01 22.89C20.34 22.89 20.66 22.84 20.97 22.73C21.37 22.6 21.72 22.39 22.04 22.1C22.35 21.82 22.59 21.48 22.76 21.09C22.93 20.71 23.01 20.3 23.01 19.88V16.89C23.01 16.16 22.76 15.46 22.29 14.91C21.82 14.36 21.16 14 20.43 13.89C19.54 13.77 18.67 13.56 17.84 13.24C17.3 13.04 16.72 13 16.16 13.12C15.6 13.24 15.09 13.52 14.67 13.92L13.95 14.64C13.31 14.23 12.72 13.76 12.15 13.27L23.71 1.71C24.1 1.32 24.1 0.689998 23.71 0.299998V0.289998ZM13.6 16.78C13.99 17 14.48 16.94 14.8 16.62L16.07 15.35C16.21 15.21 16.38 15.12 16.56 15.08C16.75 15.04 16.94 15.05 17.12 15.12C18.09 15.48 19.11 15.74 20.14 15.87C20.38 15.9 20.6 16.02 20.76 16.21C20.92 16.39 21 16.63 21 16.88V19.88C21 20.02 20.97 20.16 20.92 20.29C20.86 20.42 20.78 20.53 20.68 20.62C20.57 20.72 20.45 20.79 20.32 20.83C20.19 20.87 20.05 20.89 19.93 20.88C17.02 20.56 14.19 19.56 11.73 17.96C10.87 17.41 10.07 16.77 9.31 16.09L10.71 14.69C11.6 15.48 12.56 16.18 13.6 16.76V16.78Z"
            fill="current" />
    </g>
    <defs>
        <clipPath id="clip0_7_9355">
            <rect width="24" height="24" fill="white" />
        </clipPath>
    </defs>
</svg>