<svg width="24" height="24" viewBox="0 0 24 24" fill="none" xmlns="http://www.w3.org/2000/svg">
    <path
        d="M2.29 22.46C1.9 22.07 1.9 21.44 2.29 21.05L7.96 15.38L3.79 11.21C3.54 10.96 3.44 10.6 3.53 10.25C3.62 9.90997 3.88 9.63997 4.22 9.53997C6.15 8.98997 9.58 7.74997 10.54 6.78997C11.91 5.41997 13.34 2.57997 13.35 2.54997C13.49 2.25997 13.77 2.05997 14.08 2.00997C14.4 1.95997 14.72 2.05997 14.95 2.28997L22.45 9.78997C22.68 10.02 22.78 10.34 22.73 10.66C22.68 10.98 22.48 11.25 22.19 11.39C22.16 11.4 19.32 12.84 17.95 14.2C16.99 15.16 15.76 18.58 15.2 20.52C15.1 20.86 14.83 21.12 14.49 21.21C14.15 21.3 13.78 21.21 13.53 20.95L9.36 16.78L3.69 22.45C3.49 22.65 3.24 22.74 2.98 22.74C2.72 22.74 2.47 22.64 2.27 22.45L2.29 22.46ZM14.49 4.64997C13.88 5.70997 12.93 7.21997 11.96 8.19997C10.84 9.31997 8.14 10.36 6.38 10.95L13.8 18.37C14.39 16.6 15.43 13.91 16.55 12.79C17.53 11.81 19.04 10.86 20.1 10.26L14.5 4.65997L14.49 4.64997Z"
        fill="current" />
</svg>