<svg width="24" height="24" viewBox="0 0 24 24" fill="none" xmlns="http://www.w3.org/2000/svg">
    <path
        d="M22.4625 9.79259L14.9625 2.29259C14.7325 2.06259 14.4125 1.96259 14.0925 2.01259C13.7725 2.06259 13.5025 2.26259 13.3625 2.55259C13.3525 2.58259 11.9125 5.42259 10.5525 6.79259C9.5925 7.75259 6.1725 8.98259 4.2325 9.54259C3.8925 9.64259 3.6325 9.91259 3.5425 10.2526C3.4525 10.5926 3.5425 10.9626 3.8025 11.2126L7.9725 15.3826L2.2925 21.0426C1.9025 21.4326 1.9025 22.0626 2.2925 22.4526C2.4925 22.6526 2.7425 22.7426 3.0025 22.7426C3.2625 22.7426 3.5125 22.6426 3.7125 22.4526L9.3825 16.7826L13.5525 20.9526C13.8025 21.2026 14.1725 21.3026 14.5125 21.2126C14.8525 21.1226 15.1225 20.8626 15.2225 20.5226C15.7725 18.5926 17.0125 15.1626 17.9725 14.2026C19.3425 12.8326 22.1825 11.4026 22.2125 11.3926C22.5025 11.2526 22.7025 10.9726 22.7525 10.6626C22.8025 10.3426 22.7025 10.0226 22.4725 9.79259H22.4625Z"
        fill="current" />
</svg>