<svg width="24" height="24" viewBox="0 0 24 24" fill="none" xmlns="http://www.w3.org/2000/svg">
    <path
        d="M20.97 10.7421C20.97 10.7421 21 10.6521 21 10.5921V5.8021C21 5.2521 20.55 4.8021 20 4.8021C19.45 4.8021 19 5.2521 19 5.8021V8.2821L17 6.4021C16.14 5.5421 15.08 4.8721 13.93 4.4621C9.67001 2.9721 4.98001 5.2021 3.47001 9.4721C1.96001 13.7321 4.21001 18.4321 8.47001 19.9321C9.37001 20.2521 10.29 20.4021 11.19 20.4021C14.57 20.4021 17.74 18.2921 18.93 14.9321C19.11 14.4121 18.84 13.8421 18.32 13.6521C17.8 13.4621 17.23 13.7421 17.04 14.2621C15.9 17.4821 12.35 19.1821 9.13001 18.0421C5.91001 16.9021 4.21001 13.3521 5.35001 10.1321C6.49001 6.9121 10.04 5.2121 13.26 6.3521C14.13 6.6621 14.93 7.1621 15.6 7.8321L17.47 9.5921H15.19C14.64 9.5921 14.19 10.0421 14.19 10.5921C14.19 11.1421 14.64 11.5921 15.19 11.5921H19.99C19.99 11.5921 19.99 11.5921 20 11.5921C20.09 11.5921 20.17 11.5621 20.26 11.5421C20.3 11.5321 20.35 11.5321 20.39 11.5121C20.43 11.4921 20.46 11.4621 20.49 11.4421C20.57 11.3921 20.64 11.3521 20.71 11.2921C20.71 11.2921 20.71 11.2921 20.72 11.2921C20.75 11.2621 20.76 11.2221 20.79 11.1821C20.84 11.1121 20.89 11.0521 20.92 10.9721C20.95 10.9021 20.95 10.8221 20.96 10.7521L20.97 10.7421Z"
        fill="current" />
</svg>