<svg width="24" height="24" viewBox="0 0 24 24" fill="none" xmlns="http://www.w3.org/2000/svg">
    <path fill-rule="evenodd" clip-rule="evenodd"
        d="M11.6054 2.09754C13.7523 1.79548 15.9392 2.19934 17.8366 3.24826C19.7341 4.29718 21.2392 5.93435 22.1253 7.91308C23.0114 9.89181 23.2304 12.1049 22.7493 14.2189C22.2682 16.3329 21.1131 18.2334 19.4581 19.6338C17.803 21.0343 15.7377 21.8589 13.5732 21.9835C11.4087 22.1081 9.26235 21.5258 7.45755 20.3245C5.65275 19.1232 4.28726 17.3678 3.56682 15.323C3.3833 14.8021 3.6568 14.231 4.1777 14.0475C4.69861 13.864 5.26965 14.1375 5.45318 14.6584C6.02953 16.2943 7.12192 17.6985 8.56576 18.6596C10.0096 19.6207 11.7267 20.0865 13.4583 19.9868C15.1898 19.8871 16.8421 19.2274 18.1662 18.107C19.4902 16.9867 20.4143 15.4664 20.7992 13.7751C21.184 12.0839 21.0088 10.3134 20.3 8.73047C19.5911 7.14748 18.387 5.83775 16.869 4.99861C15.3511 4.15947 13.6015 3.83639 11.884 4.07804C10.1665 4.31968 8.57399 5.11297 7.34651 6.33838C7.33937 6.3455 7.33213 6.35252 7.32478 6.35943L4.52455 8.99067H8C8.55228 8.99067 9 9.43839 9 9.99067C9 10.543 8.55228 10.9907 8 10.9907H2C1.44772 10.9907 1 10.543 1 9.99067V3.99067C1 3.43839 1.44772 2.99067 2 2.99067C2.55228 2.99067 3 3.43839 3 3.99067V7.67881L5.94449 4.91201C7.47734 3.38648 9.46356 2.39888 11.6054 2.09754Z"
        fill="current" />
</svg>