<svg width="24" height="24" viewBox="0 0 24 24" fill="none" xmlns="http://www.w3.org/2000/svg">
    <path fill-rule="evenodd" clip-rule="evenodd"
        d="M6 4C4.89543 4 4 4.89543 4 6C4 7.10457 4.89543 8 6 8C6.53421 8 7.01951 7.79055 7.37825 7.44929C7.38943 7.43694 7.40098 7.42481 7.41289 7.41289C7.42481 7.40098 7.43694 7.38943 7.44929 7.37825C7.79055 7.01951 8 6.53421 8 6C8 4.89543 7.10457 4 6 4ZM9.44618 8.03197C9.79807 7.43645 10 6.74181 10 6C10 3.79086 8.20914 2 6 2C3.79086 2 2 3.79086 2 6C2 8.20914 3.79086 10 6 10C6.74181 10 7.43645 9.79807 8.03197 9.44618L10.5858 12L8.03197 14.5538C7.43645 14.2019 6.74181 14 6 14C3.79086 14 2 15.7909 2 18C2 20.2091 3.79086 22 6 22C8.20914 22 10 20.2091 10 18C10 17.2582 9.79807 16.5635 9.44618 15.968L20.7071 4.70711C21.0976 4.31658 21.0976 3.68342 20.7071 3.29289C20.3166 2.90237 19.6834 2.90237 19.2929 3.29289L12 10.5858L9.44618 8.03197ZM7.37825 16.5507C7.38943 16.5631 7.40098 16.5752 7.41289 16.5871C7.42481 16.599 7.43694 16.6106 7.44929 16.6218C7.79055 16.9805 8 17.4658 8 18C8 19.1046 7.10457 20 6 20C4.89543 20 4 19.1046 4 18C4 16.8954 4.89543 16 6 16C6.53421 16 7.01951 16.2094 7.37825 16.5507ZM13.7623 13.7735C14.1524 13.3827 14.7856 13.3821 15.1765 13.7723L20.7065 19.2923C21.0973 19.6824 21.0979 20.3156 20.7077 20.7065C20.3176 21.0973 19.6844 21.0979 19.2935 20.7077L13.7635 15.1877C13.3727 14.7976 13.3721 14.1644 13.7623 13.7735Z"
        fill="current" />
</svg>