<svg width="24" height="24" viewBox="0 0 24 24" fill="none" xmlns="http://www.w3.org/2000/svg">
    <path
        d="M6.81345 11.7573C7.30862 12.2541 7.68088 12.8597 7.90055 13.5258L8.61195 15.7115C8.67111 15.8802 8.78123 16.0264 8.9271 16.1299C9.07298 16.2333 9.24738 16.2889 9.42621 16.2889C9.60504 16.2889 9.77944 16.2333 9.92532 16.1299C10.0712 16.0264 10.1813 15.8802 10.2405 15.7115L10.9519 13.5258C11.1729 12.8612 11.546 12.2574 12.0415 11.7624C12.537 11.2674 13.1412 10.8949 13.806 10.6745L15.9917 9.96453C16.1598 9.90472 16.3053 9.79434 16.4081 9.64855C16.511 9.50276 16.5662 9.3287 16.5662 9.15027C16.5662 8.97184 16.511 8.79778 16.4081 8.65199C16.3053 8.5062 16.1598 8.39583 15.9917 8.33602L15.9488 8.32459L13.7618 7.61462C13.0971 7.39386 12.4931 7.02122 11.9977 6.52627C11.5022 6.03132 11.129 5.42769 10.9076 4.7633L10.1976 2.57767C10.1385 2.40891 10.0283 2.26269 9.88246 2.15925C9.73659 2.05581 9.56218 2.00024 9.38335 2.00024C9.20453 2.00024 9.03012 2.05581 8.88425 2.15925C8.73838 2.26269 8.62825 2.40891 8.5691 2.57767L7.8577 4.7633L7.83913 4.81758C7.61721 5.46561 7.25028 6.05443 6.7663 6.53915C6.28232 7.02387 5.69407 7.3917 5.04638 7.61462L2.86075 8.32459C2.69264 8.3844 2.54716 8.49477 2.44429 8.64056C2.34141 8.78635 2.28619 8.96041 2.28619 9.13884C2.28619 9.31727 2.34141 9.49133 2.44429 9.63712C2.54716 9.78291 2.69264 9.89329 2.86075 9.9531L5.04638 10.6631C5.71349 10.8859 6.31776 11.2602 6.81345 11.7573ZM19.1701 16.7986L20.4815 17.2243L20.5086 17.23C20.6102 17.2652 20.6982 17.3312 20.7605 17.4187C20.8228 17.5063 20.8563 17.6111 20.8563 17.7185C20.8563 17.826 20.8228 17.9308 20.7605 18.0183C20.6982 18.1059 20.6102 18.1718 20.5086 18.2071L19.1958 18.6342C18.7973 18.7667 18.4352 18.9902 18.1382 19.287C17.8411 19.5838 17.6173 19.9458 17.4845 20.3441L17.0573 21.6555C17.0215 21.7564 16.9552 21.8437 16.8678 21.9054C16.7803 21.9671 16.6759 22.0002 16.5688 22.0002C16.4617 22.0002 16.3573 21.9671 16.2698 21.9054C16.1824 21.8437 16.1161 21.7564 16.0802 21.6555L15.6531 20.3441C15.5214 19.9444 15.298 19.581 15.0009 19.2828C14.7037 18.9847 14.3411 18.7601 13.9418 18.6271L12.6289 18.2014C12.5281 18.1655 12.4408 18.0992 12.3791 18.0118C12.3173 17.9243 12.2842 17.8199 12.2842 17.7128C12.2842 17.6057 12.3173 17.5013 12.3791 17.4138C12.4408 17.3264 12.5281 17.2601 12.6289 17.2243L13.9418 16.7971C14.3355 16.6613 14.6925 16.4362 14.9849 16.1396C15.2773 15.843 15.4972 15.4828 15.6274 15.0872L16.0545 13.7758C16.0904 13.6749 16.1566 13.5877 16.2441 13.5259C16.3316 13.4642 16.436 13.4311 16.5431 13.4311C16.6501 13.4311 16.7546 13.4642 16.842 13.5259C16.9295 13.5877 16.9957 13.6749 17.0316 13.7758L17.4573 15.0872C17.5901 15.4858 17.814 15.848 18.1114 16.1448C18.4087 16.4417 18.7713 16.6665 19.1701 16.7986Z"
        fill="current" />
</svg>