<svg width="24" height="24" viewBox="0 0 24 24" fill="none" xmlns="http://www.w3.org/2000/svg">
    <path
        d="M22.95 8.96C22.83 8.6 22.52 8.33 22.14 8.28L15.75 7.35L12.9 1.56C12.73 1.22 12.38 1 12 1C11.62 1 11.27 1.22 11.1 1.56L8.24 7.35L1.85 8.28C1.47 8.34 1.16 8.6 1.04 8.96C0.920001 9.32 1.02 9.72 1.29 9.98L5.91 14.48L4.82 20.84C4.76 21.22 4.91 21.59 5.22 21.82C5.53 22.04 5.94 22.07 6.27 21.9L11.98 18.89L17.69 21.9C18.03 22.08 18.44 22.05 18.74 21.82C19.05 21.6 19.2 21.22 19.14 20.84L18.05 14.48L22.67 9.98C22.94 9.71 23.04 9.32 22.92 8.96H22.95Z"
        fill="current" />
</svg>