<svg width="24" height="24" viewBox="0 0 24 24" fill="none" xmlns="http://www.w3.org/2000/svg">
    <path fill-rule="evenodd" clip-rule="evenodd"
        d="M22 4.0025C21.45 4.0025 21 4.4525 21 5.0025V19.0025C21 19.5525 21.45 20.0025 22 20.0025C22.55 20.0025 23 19.5525 23 19.0025V5.0025C23 4.4525 22.55 4.0025 22 4.0025Z"
        fill="current" />
    <path fill-rule="evenodd" clip-rule="evenodd"
        d="M16.92 11.6225C16.87 11.5025 16.8 11.3925 16.71 11.3025L9.71 4.2925C9.32 3.9025 8.69 3.9025 8.3 4.2925C7.91 4.6825 7.91 5.3125 8.3 5.7025L13.59 10.9925H3C2.45 10.9925 2 11.4425 2 11.9925C2 12.5425 2.45 12.9925 3 12.9925H13.59L8.3 18.2825C7.91 18.6725 7.91 19.3025 8.3 19.6925C8.69 20.0825 9.32 20.0825 9.71 19.6925L16.71 12.6925C16.8 12.6025 16.88 12.4925 16.93 12.3725C16.98 12.2525 17.01 12.1225 17.01 11.9925C17.01 11.8625 16.98 11.7325 16.93 11.6125L16.92 11.6225Z"
        fill="current" />
</svg>