<svg width="24" height="24" viewBox="0 0 24 24" fill="none" xmlns="http://www.w3.org/2000/svg">
    <path fill-rule="evenodd" clip-rule="evenodd"
        d="M16.5578 3.02799C16.0748 2.97342 15.5837 2.98923 15.1001 3.07736C14.1002 3.25955 13.1795 3.74214 12.4608 4.46084C11.7421 5.17953 11.2595 6.10019 11.0773 7.10012C10.8951 8.10004 11.022 9.13175 11.4411 10.0577C11.6127 10.4369 11.5314 10.8828 11.2371 11.1771L4.3271 18.0871C4.11681 18.2974 3.99867 18.5826 3.99867 18.88C3.99867 19.1774 4.11681 19.4626 4.3271 19.6729C4.53739 19.8832 4.8226 20.0013 5.11999 20.0013C5.41738 20.0013 5.7026 19.8832 5.91289 19.6729L12.8229 12.7629C13.1172 12.4686 13.5631 12.3874 13.9423 12.559C14.8683 12.978 15.9 13.1049 16.8999 12.9227C17.8998 12.7405 18.8205 12.2579 19.5392 11.5392C20.2579 10.8205 20.7405 9.89983 20.9226 8.89991C21.0108 8.41625 21.0266 7.92517 20.972 7.44221L18.4 10.0142C18.0262 10.3806 17.5235 10.5859 17 10.5859C16.4765 10.5859 15.9739 10.3806 15.6 10.0142L15.5928 10.0072L13.9858 8.40005C13.6194 8.02619 13.4141 7.52352 13.4141 7.00001C13.4141 6.4765 13.6194 5.97387 13.9859 5.60001L13.9929 5.59287L16.5578 3.02799ZM14.7416 1.10975C16.1415 0.854686 17.5859 1.03231 18.8823 1.61895C19.1813 1.75429 19.395 2.0278 19.4538 2.35076C19.5126 2.67372 19.4092 3.00499 19.1771 3.23712L15.4142 7.00001L17 8.5858L20.7629 4.8229C20.995 4.59078 21.3263 4.48736 21.6492 4.54621C21.9722 4.60505 22.2457 4.81866 22.3811 5.11774C22.9677 6.41413 23.1453 7.85851 22.8903 9.25841C22.6352 10.6583 21.9596 11.9472 20.9534 12.9534C19.9472 13.9596 18.6583 14.6352 17.2584 14.8903C16.0909 15.103 14.8925 15.0148 13.7749 14.6394L7.3271 21.0871C6.74174 21.6725 5.94782 22.0013 5.11999 22.0013C4.29217 22.0013 3.49825 21.6725 2.91289 21.0871C2.32752 20.5018 1.99867 19.7078 1.99867 18.88C1.99867 18.0522 2.32753 17.2583 2.91289 16.6729L9.36064 10.2251C8.98523 9.10746 8.89702 7.90906 9.10973 6.74161C9.3648 5.34172 10.0404 4.0528 11.0466 3.04663C12.0528 2.04045 13.3417 1.36481 14.7416 1.10975Z"
        fill="current" />
</svg>