<svg width="24" height="24" viewBox="0 0 24 24" fill="none" xmlns="http://www.w3.org/2000/svg">
    <path fill-rule="evenodd" clip-rule="evenodd"
        d="M23.9225 5.62C23.8225 5.38 23.6225 5.18 23.3825 5.08C23.2625 5.03 23.1325 5 23.0025 5H17.0025C16.4525 5 16.0025 5.45 16.0025 6C16.0025 6.55 16.4525 7 17.0025 7H20.5925L13.5025 14.09L9.2125 9.8C8.8225 9.41 8.1925 9.41 7.8025 9.8L0.2925 17.29C-0.0975 17.68 -0.0975 18.31 0.2925 18.7C0.6825 19.09 1.3125 19.09 1.7025 18.7L8.4925 11.91L12.7825 16.2C13.1725 16.59 13.8025 16.59 14.1925 16.2L21.9825 8.41V12C21.9825 12.55 22.4325 13 22.9825 13C23.5325 13 23.9825 12.55 23.9825 12V6C23.9825 5.87 23.9525 5.74 23.9025 5.62H23.9225Z"
        fill="current" />
</svg>