<svg width="24" height="24" viewBox="0 0 24 24" fill="none" xmlns="http://www.w3.org/2000/svg">
    <path fill-rule="evenodd" clip-rule="evenodd"
        d="M5.40001 1C6.00752 1 6.50001 1.49249 6.50001 2.1V9.8C6.50001 11.2587 7.07947 12.6576 8.11092 13.6891C9.14237 14.7205 10.5413 15.3 12 15.3C13.4587 15.3 14.8576 14.7205 15.8891 13.6891C16.9205 12.6576 17.5 11.2587 17.5 9.8V2.1C17.5 1.49249 17.9925 1 18.6 1C19.2075 1 19.7 1.49249 19.7 2.1V9.8C19.7 11.8422 18.8888 13.8007 17.4447 15.2447C16.0007 16.6888 14.0422 17.5 12 17.5C9.95784 17.5 7.99931 16.6888 6.55528 15.2447C5.11125 13.8007 4.30001 11.8422 4.30001 9.8V2.1C4.30001 1.49249 4.79249 1 5.40001 1Z"
        fill="current" />
    <path fill-rule="evenodd" clip-rule="evenodd"
        d="M2.10001 21.9C2.10001 21.2925 2.59249 20.8 3.20001 20.8H20.8C21.4075 20.8 21.9 21.2925 21.9 21.9C21.9 22.5075 21.4075 23 20.8 23H3.20001C2.59249 23 2.10001 22.5075 2.10001 21.9Z"
        fill="current" />
</svg>