<svg width="24" height="24" viewBox="0 0 24 24" fill="none" xmlns="http://www.w3.org/2000/svg">
    <path
        d="M19 23H5C3.35 23 2 21.65 2 20V13C2 11.35 3.35 9.99999 5 9.99999H6V6.99999C6 5.50999 6.55 4.07999 7.55 2.96999C8.55 1.86999 9.91 1.17999 11.4 1.02999C12.89 0.879987 14.36 1.28999 15.56 2.16999C16.76 3.04999 17.58 4.34999 17.88 5.80999C17.99 6.34999 17.64 6.87999 17.1 6.98999C16.56 7.09999 16.03 6.74999 15.92 6.20999C15.72 5.23999 15.17 4.37999 14.37 3.78999C13.57 3.19999 12.58 2.92999 11.59 3.02999C10.6 3.12999 9.69 3.58999 9.02 4.32999C8.35 5.06999 7.99 6.01999 7.99 7.00999V10.01H18.99C20.64 10.01 21.99 11.36 21.99 13.01V20.01C21.99 21.66 20.64 23.01 18.99 23.01L19 23ZM5 12C4.45 12 4 12.45 4 13V20C4 20.55 4.45 21 5 21H19C19.55 21 20 20.55 20 20V13C20 12.45 19.55 12 19 12H5Z"
        fill="current" />
</svg>