<svg width="24" height="24" viewBox="0 0 24 24" fill="none" xmlns="http://www.w3.org/2000/svg">
    <path fill-rule="evenodd" clip-rule="evenodd"
        d="M5.5 8C3.567 8 2 9.567 2 11.5C2 13.433 3.567 15 5.5 15C7.433 15 9 13.433 9 11.5C9 9.567 7.433 8 5.5 8ZM9.74284 15C10.5282 14.0491 11 12.8296 11 11.5C11 8.46243 8.53757 6 5.5 6C2.46243 6 0 8.46243 0 11.5C0 14.5376 2.46243 17 5.5 17H18.5C21.5376 17 24 14.5376 24 11.5C24 8.46243 21.5376 6 18.5 6C15.4624 6 13 8.46243 13 11.5C13 12.8296 13.4718 14.0491 14.2572 15H9.74284ZM18.5 15C20.433 15 22 13.433 22 11.5C22 9.567 20.433 8 18.5 8C16.567 8 15 9.567 15 11.5C15 13.433 16.567 15 18.5 15Z"
        fill="current" />
</svg>