<svg width="24" height="24" viewBox="0 0 24 24" fill="none" xmlns="http://www.w3.org/2000/svg">
    <g clip-path="url(#clip0_7_9431)">
        <path
            d="M9.82 24.001C9.08 24.001 8.36 23.721 7.8 23.221C7.24 22.711 6.9 22.021 6.83 21.271L6.52 17.821C4.97 16.361 4 14.291 4 12.001C4 9.71097 4.97 7.63097 6.53 6.17097L6.84 2.73097C6.91 1.98097 7.25 1.29097 7.8 0.790971C8.36 0.280971 9.08 0.000970784 9.83 0.000970784H14.18C14.9 -0.0190292 15.65 0.270971 16.21 0.780971C16.77 1.29097 17.11 1.98097 17.18 2.73097L17.5 6.19097C19.04 7.65097 20.01 9.71097 20.01 12.001C20.01 14.291 19.04 16.371 17.48 17.831L17.17 21.271C17.1 22.021 16.76 22.711 16.2 23.221C15.64 23.731 14.92 23.991 14.17 24.001H9.83H9.82ZM8.66 19.271L8.83 21.091C8.85 21.341 8.97 21.571 9.15 21.741C9.33 21.911 9.57 22.001 9.82 22.001H14.16C14.41 22.001 14.65 21.911 14.84 21.741C15.03 21.571 15.14 21.341 15.16 21.091L15.33 19.271C13.3 20.201 10.69 20.201 8.66 19.271ZM12 6.00097C8.69 6.00097 6 8.69097 6 12.001C6 15.311 8.69 18.001 12 18.001C13.46 18.001 14.8 17.481 15.84 16.601C15.85 16.591 15.87 16.571 15.88 16.561C17.17 15.461 17.99 13.821 17.99 11.991C17.99 8.68097 15.3 5.99097 11.99 5.99097L12 6.00097ZM12 4.00097C13.2 4.00097 14.33 4.26097 15.35 4.74097L15.18 2.91097C15.16 2.66097 15.04 2.43097 14.86 2.26097C14.67 2.09097 14.43 1.96097 14.18 2.00097H9.83C9.58 2.00097 9.34 2.09097 9.16 2.26097C8.97 2.43097 8.86 2.66097 8.84 2.91097L8.67 4.73097C9.68 4.26097 10.81 4.00097 12 4.00097ZM13.5 14.501C13.24 14.501 12.99 14.401 12.79 14.211L11.29 12.711C11.1 12.521 11 12.271 11 12.001V9.00097C11 8.45097 11.45 8.00097 12 8.00097C12.55 8.00097 13 8.45097 13 9.00097V11.591L14.21 12.801C14.6 13.191 14.6 13.821 14.21 14.211C14.01 14.411 13.76 14.501 13.5 14.501Z"
            fill="current" />
    </g>
    <defs>
        <clipPath id="clip0_7_9431">
            <rect width="24" height="24" fill="white" />
        </clipPath>
    </defs>
</svg>