<svg width="24" height="24" viewBox="0 0 24 24" fill="none" xmlns="http://www.w3.org/2000/svg">
    <g clip-path="url(#clip0_7_9490)">
        <path fill-rule="evenodd" clip-rule="evenodd"
            d="M0.292893 0.292893C0.683417 -0.0976311 1.31658 -0.0976311 1.70711 0.292893L6.81158 5.39736C6.82238 5.40769 6.83298 5.41828 6.84334 5.42913L10.7881 9.37391C10.8507 9.42312 10.9076 9.47983 10.9572 9.54297L23.7071 22.2929C24.0976 22.6834 24.0976 23.3166 23.7071 23.7071C23.3166 24.0976 22.6834 24.0976 22.2929 23.7071L15.6763 17.0905C15.4156 17.1427 15.1347 17.0914 14.9008 16.9252C14.0548 16.3242 13.0428 16.0013 12.005 16.0013C10.9672 16.0013 9.95517 16.3242 9.10917 16.9252C8.65894 17.2451 8.03466 17.1394 7.71479 16.6892C7.39493 16.2389 7.50061 15.6147 7.95083 15.2948C9.13524 14.4533 10.5521 14.0013 12.005 14.0013C12.2087 14.0013 12.4118 14.0101 12.6135 14.0278L9.83191 11.2461C8.29275 11.593 6.85565 12.302 5.64144 13.3172C5.21774 13.6714 4.58708 13.6151 4.23282 13.1914C3.87857 12.7677 3.93486 12.1371 4.35856 11.7828C5.5017 10.827 6.80929 10.0972 8.21148 9.62569L5.88761 7.30183C4.50322 7.91879 3.21979 8.74378 2.08228 9.74925C1.66848 10.115 1.03652 10.0761 0.670747 9.66228C0.304978 9.24848 0.343915 8.61652 0.757716 8.25075C1.8574 7.27871 3.07734 6.4554 4.38595 5.80016L0.292893 1.70711C-0.0976311 1.31658 -0.0976311 0.683417 0.292893 0.292893ZM16.7313 6.76566C14.8194 6.12942 12.7988 5.88493 10.7903 6.04677C10.2398 6.09113 9.75759 5.68082 9.71323 5.13032C9.66887 4.57982 10.0792 4.09759 10.6297 4.05323C12.906 3.86981 15.1959 4.14691 17.3628 4.86798C19.5297 5.58905 21.529 6.73931 23.2416 8.25011C23.6557 8.61547 23.6953 9.2474 23.3299 9.66156C22.9645 10.0757 22.3326 10.1153 21.9184 9.74989C20.4074 8.41684 18.6432 7.4019 16.7313 6.76566ZM15.8213 10.6214C16.0635 10.1251 16.6623 9.91909 17.1586 10.1613C18.0526 10.5976 18.8885 11.1439 19.647 11.7875C20.0681 12.1448 20.1198 12.7759 19.7625 13.197C19.4052 13.6181 18.7741 13.6698 18.353 13.3125C17.7216 12.7767 17.0256 12.3219 16.2814 11.9587C15.7851 11.7165 15.5791 11.1177 15.8213 10.6214ZM11 20C11 19.4477 11.4477 19 12 19H12.01C12.5623 19 13.01 19.4477 13.01 20C13.01 20.5523 12.5623 21 12.01 21H12C11.4477 21 11 20.5523 11 20Z"
            fill="current" />
    </g>
    <defs>
        <clipPath id="clip0_7_9490">
            <rect width="24" height="24" fill="white" />
        </clipPath>
    </defs>
</svg>