<svg width="24" height="24" viewBox="0 0 24 24" fill="none" xmlns="http://www.w3.org/2000/svg">
    <path
        d="M14.01 21.0189C13.71 21.0189 13.42 20.9789 13.13 20.8889C12.66 20.7489 12.23 20.4889 11.88 20.1389C11.49 19.7489 11.49 19.1089 11.88 18.7189C12.27 18.3289 12.9 18.3289 13.29 18.7189C13.41 18.8389 13.55 18.9189 13.71 18.9689C13.87 19.0189 14.04 19.0289 14.2 18.9989C14.36 18.9689 14.51 18.8989 14.64 18.7889C14.77 18.6889 14.87 18.5489 14.93 18.3989C14.99 18.2489 15.02 18.0789 15 17.9089C14.98 17.7489 14.93 17.5889 14.83 17.4489C14.74 17.3089 14.61 17.1989 14.47 17.1189C14.33 17.0389 14.16 17.0189 14 17.0089H2C1.45 17.0089 1 16.5589 1 16.0089C1 15.4589 1.45 15.0089 2 15.0089H14C14.46 15.0189 14.98 15.1289 15.41 15.3589C15.85 15.5889 16.22 15.9289 16.49 16.3389C16.76 16.7489 16.94 17.2189 16.99 17.7089C17.04 18.1989 16.96 18.6989 16.78 19.1589C16.59 19.6089 16.29 20.0189 15.91 20.3289C15.53 20.6389 15.07 20.8589 14.59 20.9489C14.4 20.9889 14.2 21.0089 14.01 21.0089V21.0189ZM19.5 13.0189H2C1.45 13.0189 1 12.5689 1 12.0189C1 11.4689 1.45 11.0189 2 11.0189H19.5C19.74 11.0189 19.99 10.9589 20.21 10.8389C20.43 10.7189 20.61 10.5489 20.75 10.3489C20.88 10.1489 20.97 9.90888 20.99 9.66888C21.01 9.41888 20.98 9.16888 20.88 8.94888C20.79 8.71888 20.64 8.51888 20.45 8.35888C20.26 8.19888 20.03 8.09888 19.79 8.04888C19.55 7.99888 19.3 8.00888 19.06 8.08888C18.83 8.15888 18.61 8.28888 18.44 8.45888C18.05 8.84888 17.41 8.84888 17.03 8.45888C16.64 8.06888 16.64 7.43888 17.03 7.04888C17.44 6.64888 17.94 6.33888 18.49 6.17888C19.04 6.00888 19.63 5.98888 20.19 6.09888C20.75 6.20888 21.29 6.45888 21.73 6.82888C22.17 7.18888 22.52 7.66888 22.74 8.19888C22.96 8.72888 23.04 9.30888 22.99 9.87888C22.94 10.4489 22.74 10.9989 22.42 11.4789C22.1 11.9589 21.67 12.3489 21.16 12.6189C20.66 12.8889 20.08 13.0389 19.51 13.0389L19.5 13.0189ZM11.01 9.01888H2C1.45 9.01888 1 8.56888 1 8.01888C1 7.46888 1.45 7.01888 2 7.01888H11C11.18 7.01888 11.33 6.97888 11.48 6.89888C11.62 6.81888 11.75 6.70888 11.84 6.56888C11.93 6.42888 11.99 6.27888 12 6.10888C12.02 5.94888 12 5.77888 11.93 5.62888C11.87 5.47888 11.77 5.33888 11.64 5.23888C11.51 5.13888 11.36 5.05888 11.2 5.02888C11.04 4.99888 10.87 5.00888 10.71 5.04888C10.56 5.09888 10.41 5.17888 10.29 5.29888C9.9 5.68888 9.27 5.68888 8.88 5.29888C8.49 4.90888 8.49 4.27888 8.88 3.87888C9.23 3.52888 9.66 3.26888 10.13 3.12888C10.6 2.98888 11.11 2.95888 11.59 3.05888C12.07 3.14888 12.53 3.36888 12.91 3.67888C13.29 3.98888 13.59 4.39888 13.78 4.84888C13.97 5.30888 14.04 5.80888 13.99 6.29888C13.94 6.78888 13.77 7.25888 13.5 7.66888C13.23 8.07888 12.85 8.41888 12.42 8.64888C11.99 8.87888 11.5 8.99888 11.01 8.99888V9.01888Z"
        fill="current" />
</svg>