<svg width="24" height="24" viewBox="0 0 24 24" fill="none" xmlns="http://www.w3.org/2000/svg">
  <path fill-rule="evenodd" clip-rule="evenodd"
      d="M13.41 12L18.71 6.71C19.1 6.32 19.1 5.69 18.71 5.3C18.32 4.91 17.69 4.91 17.3 5.3L12.01 10.59L6.71 5.29C6.32 4.9 5.68 4.9 5.29 5.29C4.9 5.68 4.9 6.32 5.29 6.71L10.58 12L5.29 17.29C4.9 17.68 4.9 18.31 5.29 18.7C5.68 19.09 6.31 19.09 6.7 18.7L11.99 13.41L17.28 18.7C17.67 19.09 18.3 19.09 18.69 18.7C19.08 18.31 19.08 17.68 18.69 17.29L13.4 12H13.41Z"
      fill="currentColor" />
  </svg>
