<svg width="24" height="24" viewBox="0 0 24 24" fill="none" xmlns="http://www.w3.org/2000/svg">
    <g clip-path="url(#clip0_7_9301)">
        <path
            d="M23.53 6.23999C23.53 6.23999 23.53 6.19999 23.52 6.16999C23.36 5.51999 23.03 4.92999 22.57 4.45999C22.11 3.97999 21.53 3.63999 20.85 3.43999C19.06 2.99999 12.73 2.98999 12.01 2.98999C11.29 2.98999 4.94001 3.00999 3.13001 3.49999C2.49001 3.67999 1.91001 4.02999 1.45001 4.50999C0.990013 4.98999 0.660013 5.57999 0.480013 6.28999C0.150013 8.07999 1.34228e-05 9.91999 1.34228e-05 11.74C-0.00998658 13.58 0.150013 15.44 0.500013 17.35C0.680013 17.97 1.01001 18.54 1.48001 19C1.94001 19.46 2.52001 19.79 3.15001 19.96C4.95001 20.44 11.29 20.45 12.01 20.45C12.73 20.45 19.07 20.44 20.88 19.95C21.52 19.77 22.1 19.42 22.56 18.95C23.02 18.48 23.35 17.88 23.53 17.17C23.85 15.39 24.01 13.56 24.01 11.75C24.02 9.89999 23.86 8.04999 23.53 6.23999ZM21.57 16.76C21.49 17.06 21.34 17.34 21.12 17.57C20.9 17.79 20.63 17.96 20.34 18.04C19.17 18.35 14.71 18.47 12 18.47C9.29001 18.47 4.83001 18.36 3.66001 18.05C3.37001 17.97 3.10001 17.81 2.88001 17.6C2.66001 17.38 2.50001 17.11 2.44001 16.92C2.13001 15.23 1.99001 13.5 2.00001 11.76C2.00001 10.05 2.14001 8.32999 2.43001 6.71999C2.51001 6.41999 2.66001 6.13999 2.88001 5.90999C3.10001 5.67999 3.37001 5.51999 3.66001 5.43999C4.83001 5.12999 9.29001 5.00999 12 5.00999C13.88 5.00999 19.05 5.07999 20.33 5.38999C20.63 5.47999 20.91 5.63999 21.13 5.86999C21.34 6.08999 21.49 6.34999 21.57 6.64999C21.87 8.32999 22.02 10.05 22.01 11.77C22.01 13.47 21.87 15.17 21.58 16.77L21.57 16.76Z"
            fill="current" />
        <path
            d="M15.99 10.88L10.24 7.60999C9.93001 7.42999 9.55001 7.43999 9.24001 7.60999C8.93001 7.78999 8.74001 8.11999 8.74001 8.46999V15.01C8.74001 15.37 8.93001 15.7 9.24001 15.87C9.40001 15.96 9.57001 16.01 9.74001 16.01C9.91001 16.01 10.08 15.97 10.23 15.88L15.98 12.61C16.29 12.43 16.49 12.1 16.49 11.74C16.49 11.38 16.3 11.05 15.98 10.87L15.99 10.88ZM10.75 13.3V10.2L13.48 11.75L10.75 13.3Z"
            fill="current" />
    </g>
    <defs>
        <clipPath id="clip0_7_9301">
            <rect width="24" height="24" fill="white" />
        </clipPath>
    </defs>
</svg>