<svg width="24" height="24" viewBox="0 0 24 24" fill="none" xmlns="http://www.w3.org/2000/svg">
    <g clip-path="url(#clip0_7_9461)">
        <path fill-rule="evenodd" clip-rule="evenodd"
            d="M0.292893 0.292893C0.683417 -0.0976311 1.31658 -0.0976311 1.70711 0.292893L8.69991 7.2857C8.70533 7.29099 8.71067 7.29633 8.71594 7.30173L16.7 15.2857C16.7053 15.291 16.7107 15.2963 16.7159 15.3017L23.7071 22.2929C24.0976 22.6834 24.0976 23.3166 23.7071 23.7071C23.3166 24.0976 22.6834 24.0976 22.2929 23.7071L16.0672 17.4814L11.7682 22.6402C11.484 22.9812 11.009 23.0941 10.6018 22.9173C10.1946 22.7405 9.95266 22.3165 10.0077 21.876L10.8672 15H3C2.61198 15 2.25899 14.7755 2.09441 14.4242C1.92983 14.0728 1.98338 13.6579 2.23178 13.3598L6.64715 8.06137L0.292893 1.70711C-0.0976311 1.31658 -0.0976311 0.683417 0.292893 0.292893ZM8.0672 9.48141L5.13504 13H11.5858L8.0672 9.48141ZM12.9609 14.3751L12.4153 18.7395L14.6472 16.0614L12.9609 14.3751ZM13.3975 1.08241C13.8049 1.25888 14.0471 1.68274 13.9924 2.12326L13.4024 6.87326C13.3343 7.42134 12.8348 7.81045 12.2867 7.74237C11.7387 7.6743 11.3495 7.17481 11.4176 6.62674L11.5873 5.26091L11.3387 5.55967C10.9854 5.98418 10.3548 6.04193 9.93033 5.68865C9.50582 5.33537 9.44807 4.70485 9.80135 4.28033L12.2313 1.36033C12.5153 1.01912 12.9902 0.905944 13.3975 1.08241ZM14.66 10C14.66 9.44771 15.1077 9 15.66 9H21C21.3882 9 21.7413 9.22467 21.9058 9.5763C22.0703 9.92794 22.0164 10.343 21.7676 10.641L19.3376 13.551C18.9836 13.9749 18.353 14.0316 17.929 13.6776C17.5051 13.3236 17.4484 12.693 17.8024 12.269L18.8621 11H15.66C15.1077 11 14.66 10.5523 14.66 10Z"
            fill="current" />
    </g>
    <defs>
        <clipPath id="clip0_7_9461">
            <rect width="24" height="24" fill="white" />
        </clipPath>
    </defs>
</svg>