<svg width="24" height="24" viewBox="0 0 24 24" fill="none" xmlns="http://www.w3.org/2000/svg">
<path d="M0 9.375H24V14.625H0V9.375Z" fill="#E6E7E8"/>
<path d="M20.25 3.75H3.75C1.26488 3.75 0 5.59688 0 7.875V9.375H24V7.875C24 5.59688 22.7351 3.75 20.25 3.75ZM0 16.125C0 18.4031 1.26488 20.25 3.75 20.25H20.25C22.7351 20.25 24 18.4031 24 16.125V14.625H0V16.125Z" fill="#74ACDF"/>
<path fill-rule="evenodd" clip-rule="evenodd" d="M12.2543 10.4617C12.3705 10.317 12.3825 10.1726 12.3855 10.02C12.3889 9.8906 12.408 9.76048 12.4313 9.63073C12.4399 9.58235 12.474 9.53435 12.5078 9.4976C12.5212 9.48617 12.5369 9.47777 12.5538 9.47298C12.5708 9.46819 12.5886 9.46712 12.606 9.46985C12.6244 9.47473 12.6416 9.52498 12.6401 9.5546C12.6375 9.60598 12.6135 9.65698 12.6101 9.70835C12.6026 9.81673 12.6026 9.92323 12.6023 10.0305C12.6008 10.1389 12.6015 10.2461 12.6015 10.3669C12.6788 10.2064 12.7523 10.0519 12.828 9.89848C12.867 9.81315 12.9114 9.73036 12.9608 9.6506C12.9799 9.62398 13.029 9.61648 13.0635 9.60073C13.0766 9.63635 13.11 9.67573 13.1025 9.70573C13.0579 9.86435 13.0039 10.0207 12.951 10.1771C12.9038 10.3204 12.8531 10.461 12.7939 10.6275C12.9454 10.5427 13.0118 10.4284 13.071 10.3027C13.1359 10.1647 13.2116 10.0301 13.2975 9.90448C13.3384 9.8456 13.4145 9.77248 13.494 9.83998C13.5146 9.85723 13.4768 9.97123 13.4404 10.0204C13.3556 10.1351 13.3043 10.2566 13.2671 10.395C13.2356 10.5131 13.1535 10.6185 13.0991 10.7186C13.119 10.7029 13.1539 10.6736 13.1858 10.6436C13.3399 10.5056 13.4929 10.3657 13.6478 10.2281C13.6901 10.1902 13.7359 10.155 13.7858 10.131C13.8094 10.1194 13.8555 10.1287 13.8765 10.1452C13.8934 10.1569 13.8956 10.206 13.8844 10.2266C13.8531 10.2822 13.816 10.3344 13.7738 10.3822C13.5956 10.5821 13.416 10.7797 13.2199 10.9954C13.4078 10.9695 13.5263 10.8776 13.6399 10.7655C13.7291 10.6774 13.833 10.6012 13.9339 10.5244C13.9638 10.5014 14.0001 10.4884 14.0378 10.4872C14.0884 10.4887 14.1383 10.5101 14.187 10.5244C14.16 10.5645 14.1435 10.6215 14.1056 10.6436C13.958 10.7268 13.8314 10.843 13.7359 10.983C13.6793 11.067 13.5731 11.115 13.473 11.1926C13.6901 11.115 13.8908 11.0434 14.0921 10.9744C14.1701 10.9477 14.2508 10.9256 14.3314 10.9121C14.3558 10.908 14.4023 10.932 14.4105 10.9537C14.4184 10.977 14.4034 11.0246 14.3831 11.0407C14.3299 11.0816 14.2706 11.1157 14.2091 11.1439C13.9763 11.2571 13.7426 11.3666 13.4914 11.4859C13.6943 11.5466 13.8533 11.4742 14.0186 11.4127C14.1461 11.3659 14.286 11.3486 14.4221 11.3359C14.4623 11.3321 14.5099 11.3872 14.5526 11.4157C14.514 11.4465 14.4769 11.5012 14.4338 11.505C14.2568 11.5241 14.106 11.595 13.9519 11.6801C13.8503 11.7364 13.7183 11.7386 13.599 11.7664C13.8803 11.7821 14.1615 11.7979 14.4431 11.8151C14.4465 11.8151 14.4506 11.8144 14.4544 11.8162L14.6074 11.9036C14.5586 11.9336 14.5103 11.9876 14.4585 11.991C14.2039 12.0146 13.9466 12.0251 13.6916 12.0409C13.6526 12.0424 13.614 12.0457 13.5503 12.051C13.7325 12.1852 13.9125 12.1744 14.0981 12.18C14.2313 12.1822 14.3666 12.2287 14.4964 12.2707C14.5298 12.2809 14.547 12.3431 14.5706 12.3814C14.529 12.3964 14.4866 12.4222 14.4458 12.4222C14.3906 12.4222 14.3351 12.399 14.2793 12.3896C14.2316 12.3814 14.181 12.366 14.1356 12.3746C13.941 12.4102 13.7494 12.438 13.563 12.3281C13.5623 12.3375 13.5596 12.3472 13.5574 12.3566C13.7685 12.456 13.9781 12.5554 14.1878 12.6559C14.2485 12.6851 14.3115 12.7151 14.3648 12.7556C14.3914 12.7762 14.3996 12.8227 14.4154 12.858C14.3805 12.8722 14.3445 12.903 14.3126 12.8989C14.2395 12.8887 14.1668 12.8632 14.0959 12.8389C13.8698 12.7616 13.644 12.681 13.4085 12.597C13.4685 12.7444 13.5825 12.8175 13.809 12.906C13.9155 12.9469 14.0141 13.0159 14.1041 13.086C14.1619 13.1314 14.2474 13.2082 14.1833 13.2832C14.1154 13.3639 14.0393 13.2739 13.9819 13.2292C13.8754 13.1471 13.758 13.1021 13.6283 13.0665C13.5041 13.0316 13.3943 12.9457 13.2836 12.8831C13.4291 13.0444 13.5825 13.2135 13.734 13.383C13.7813 13.437 13.8319 13.4899 13.8668 13.5514C13.8859 13.5829 13.8743 13.6327 13.8754 13.6736C13.8338 13.6706 13.7798 13.6822 13.7513 13.6605C13.6384 13.5735 13.5326 13.4764 13.425 13.3815C13.2938 13.266 13.1648 13.1486 13.0193 13.0181C13.0485 13.2304 13.1648 13.3594 13.302 13.4756C13.4168 13.5735 13.5056 13.6901 13.5334 13.8405C13.542 13.8847 13.515 13.9346 13.5034 13.9819C13.4625 13.9575 13.4029 13.944 13.3826 13.9076C13.2961 13.7572 13.1757 13.629 13.0309 13.5334C12.9495 13.4782 12.9015 13.3729 12.8303 13.2799C12.8636 13.3796 12.8936 13.4711 12.9255 13.5626C12.9769 13.7081 13.0294 13.8525 13.08 13.9984C13.0955 14.0367 13.1034 14.0777 13.1033 14.1191C13.1006 14.151 13.0808 14.199 13.0583 14.2061C13.0313 14.214 12.9848 14.1934 12.9649 14.1679C12.927 14.1221 12.9008 14.0662 12.8753 14.0134C12.762 13.7801 12.6506 13.545 12.5299 13.2904C12.4751 13.4625 12.5164 13.6001 12.5715 13.7389C12.6165 13.8536 12.6581 13.971 12.6821 14.0917C12.6956 14.1574 12.6739 14.2331 12.6585 14.3014C12.6529 14.322 12.6139 14.3471 12.5906 14.3464C12.5681 14.3464 12.5273 14.3171 12.5258 14.2987C12.5085 14.0625 12.3953 13.8645 12.297 13.6575C12.2614 13.584 12.2734 13.4895 12.2471 13.404C12.2363 13.6312 12.2246 13.8574 12.213 14.0846C12.21 14.1525 12.2115 14.2219 12.1924 14.2867C12.18 14.3291 12.1373 14.3659 12.1076 14.4037C12.0795 14.3647 12.0289 14.3272 12.0255 14.2856C12.0034 14.0344 11.9914 13.7824 11.9775 13.5319C11.9749 13.4767 11.9775 13.4212 11.9621 13.3635C11.8796 13.4595 11.8349 13.5823 11.8361 13.7089C11.8361 13.8319 11.847 13.9582 11.8301 14.0797C11.8193 14.1622 11.7758 14.2429 11.7338 14.3171C11.7188 14.3437 11.6659 14.3486 11.6295 14.3625C11.6171 14.3302 11.6006 14.2987 11.5924 14.2646C11.5883 14.244 11.5973 14.2204 11.6025 14.1982C11.6408 14.0512 11.6591 13.9084 11.6183 13.7535C11.5943 13.6612 11.6145 13.557 11.6145 13.4501C11.5298 13.6264 11.4454 13.8015 11.3606 13.9751C11.3291 14.04 11.2984 14.1064 11.2575 14.163C11.2369 14.1896 11.1893 14.1964 11.1548 14.2114C11.1401 14.1765 11.1116 14.1386 11.1154 14.1056C11.1266 14.0321 11.1514 13.9601 11.1765 13.8892C11.2553 13.6627 11.3359 13.4374 11.4244 13.1854C11.2515 13.2787 11.1908 13.4194 11.1259 13.5604C11.0697 13.6827 11.0008 13.7989 10.9204 13.9069C10.878 13.9654 10.8019 14.0374 10.7231 13.971C10.7025 13.9552 10.7411 13.8397 10.7783 13.7887C10.8619 13.674 10.9129 13.5532 10.9496 13.4145C10.9811 13.296 11.0648 13.1917 11.124 13.0841C10.9526 13.2375 10.7775 13.398 10.599 13.5559C10.5489 13.6012 10.4944 13.6414 10.4363 13.6759C10.4134 13.689 10.3646 13.6849 10.3455 13.6684C10.329 13.6519 10.3234 13.602 10.3354 13.5795C10.3628 13.5255 10.4003 13.4775 10.4393 13.4321C10.6174 13.2334 10.7974 13.0365 10.9924 12.8201C10.7846 12.846 10.6695 12.9649 10.5499 13.0864C10.4615 13.1721 10.3632 13.2469 10.257 13.3091C10.194 13.3492 10.0924 13.3965 10.0448 13.3121C9.99038 13.2142 10.1063 13.1809 10.1681 13.146C10.287 13.074 10.3751 12.9791 10.4573 12.8677C10.5278 12.7725 10.638 12.7057 10.7336 12.6247L10.1224 12.8377C10.0654 12.8584 10.0091 12.8861 9.95101 12.8917C9.90413 12.8981 9.85426 12.876 9.80626 12.8666C9.83063 12.8216 9.84526 12.756 9.88276 12.7354C10.074 12.6337 10.2739 12.5419 10.4704 12.4462L10.7074 12.3307C10.5574 12.2741 10.4419 12.2932 10.2334 12.3844C10.1336 12.4269 10.0295 12.4585 9.92288 12.4785C9.8634 12.488 9.8025 12.4834 9.74513 12.465C9.71251 12.456 9.69038 12.4136 9.66376 12.387C9.69038 12.3619 9.71588 12.3172 9.74588 12.3146C9.94388 12.2914 10.1186 12.2171 10.2915 12.1162C10.3793 12.0649 10.5011 12.0697 10.6343 12.0439C10.3774 12.0311 10.1468 12.0206 9.91726 12.009C9.84172 12.0071 9.76652 11.9982 9.69263 11.9824C9.65963 11.9745 9.63713 11.9306 9.60901 11.904C9.63676 11.8781 9.66113 11.8354 9.69376 11.8267C9.76688 11.8091 9.84263 11.8054 9.91801 11.8016C10.1576 11.7889 10.3958 11.778 10.6661 11.7652C10.4906 11.637 10.3241 11.622 10.1501 11.6452C10.003 11.6656 9.8534 11.6343 9.72676 11.5567C9.68888 11.5331 9.67201 11.4769 9.64613 11.4352C9.69188 11.4221 9.74326 11.3887 9.78263 11.3981C9.94294 11.4379 10.1096 11.4451 10.2728 11.4195C10.4055 11.3989 10.5495 11.4502 10.6901 11.4709C10.4858 11.3737 10.2761 11.2751 10.0688 11.1731C9.99039 11.1369 9.91481 11.0949 9.84263 11.0475C9.81863 11.031 9.79876 10.9789 9.80701 10.9537C9.81451 10.9312 9.86626 10.9069 9.89551 10.9117C9.97276 10.9237 10.0485 10.9466 10.1228 10.9725C10.35 11.0501 10.5754 11.1315 10.8105 11.2147C10.7524 11.0704 10.6369 10.9987 10.4111 10.9054C10.2896 10.854 10.1846 10.7632 10.0763 10.6867C10.0507 10.664 10.0326 10.6341 10.0245 10.6009C10.0174 10.5757 10.02 10.5352 10.0358 10.5191C10.0515 10.5034 10.0894 10.5082 10.1171 10.5052C10.1213 10.5052 10.1254 10.5067 10.128 10.509C10.3421 10.7437 10.7108 10.6924 10.9283 10.9309C10.9148 10.911 10.9013 10.89 10.8848 10.8724C10.7306 10.7021 10.5761 10.5315 10.4231 10.3601C10.3892 10.3251 10.361 10.2848 10.3399 10.2409C10.3283 10.2109 10.3271 10.1572 10.3448 10.1404C10.3646 10.1224 10.419 10.1231 10.4464 10.1381C10.4955 10.1632 10.5394 10.2011 10.5814 10.2394C10.7771 10.4141 10.9721 10.5911 11.1863 10.7835C11.1671 10.5979 11.0655 10.4895 10.9616 10.3759C10.8653 10.2701 10.7873 10.1471 10.7029 10.0282C10.6903 10.0093 10.6843 9.98678 10.6856 9.9641C10.692 9.91948 10.7078 9.87598 10.7194 9.83135C10.7588 9.85273 10.815 9.86548 10.8349 9.89848C10.9283 10.0575 11.0404 10.1884 11.1983 10.2919C11.2755 10.3444 11.3183 10.4501 11.3846 10.5416C11.376 10.5075 11.373 10.4809 11.3633 10.4561C11.2969 10.2671 11.229 10.0811 11.1626 9.89135C11.1469 9.84973 11.1233 9.80585 11.1233 9.76348C11.1225 9.70873 11.1416 9.65435 11.1518 9.59923C11.1975 9.62923 11.2631 9.64985 11.2849 9.69335C11.4056 9.92285 11.514 10.1599 11.6269 10.3939C11.6453 10.4302 11.6636 10.4655 11.6884 10.5154C11.7469 10.3282 11.6869 10.179 11.6254 10.0245C11.5833 9.91274 11.5522 9.7972 11.5324 9.67948C11.5223 9.62735 11.5376 9.5666 11.556 9.51373C11.5646 9.49085 11.6036 9.46648 11.6303 9.46385C11.6501 9.4631 11.6903 9.49573 11.6918 9.51448C11.7143 9.74098 11.811 9.9371 11.9156 10.1351C11.9558 10.2109 11.9445 10.3151 11.9678 10.4062C11.9835 10.1284 12.0008 9.85123 12.0169 9.57298C12.0176 9.55723 12.0143 9.5396 12.0206 9.52873C12.0476 9.4871 12.0758 9.4466 12.1046 9.40723C12.1346 9.44885 12.1894 9.4886 12.192 9.5321C12.2153 9.81298 12.2269 10.0957 12.2426 10.3789C12.2453 10.3987 12.2486 10.4167 12.2543 10.4617ZM10.2026 11.6047C10.3088 11.6141 10.4186 11.6141 10.5229 11.6404C10.6193 11.664 10.7085 11.7187 10.8041 11.7502C10.8506 11.7671 10.9046 11.7611 10.9549 11.766C10.8023 11.6921 10.6545 11.6224 10.4996 11.5867C10.4078 11.5657 10.302 11.5972 10.2026 11.6047C10.0545 11.5699 9.90638 11.5342 9.75863 11.499C9.88988 11.6122 10.0444 11.6182 10.2026 11.6047ZM13.7801 12.9521C13.8825 13.0264 13.9871 13.0987 14.0865 13.1775C14.1086 13.194 14.1139 13.2341 14.1266 13.2634C14.1424 13.2442 14.1495 13.2184 14.139 13.2041C14.0543 13.0695 13.9418 12.9739 13.7756 12.9547C13.632 12.8707 13.4715 12.8107 13.3706 12.6641C13.3318 12.613 13.2851 12.5684 13.2323 12.5321C13.1959 12.5055 13.1486 12.4935 13.1059 12.4747C13.1906 12.5827 13.2949 12.6562 13.3793 12.7485C13.4812 12.8661 13.6251 12.9391 13.7801 12.9521ZM10.4685 10.8562C10.3105 10.8006 10.1748 10.6952 10.0819 10.5559C10.0485 10.6706 10.3061 10.8765 10.4719 10.8536C10.4869 10.872 10.5019 10.8919 10.5199 10.9069C10.6283 10.9897 10.7396 11.0696 10.8469 11.154C10.902 11.1982 10.9489 11.2537 11.0066 11.2954C11.0359 11.3167 11.079 11.319 11.1161 11.3284C11.04 11.2387 10.9451 11.1787 10.8746 11.0989C10.7707 10.9742 10.6275 10.8887 10.4685 10.8562ZM10.2105 12.3394C10.392 12.2659 10.5814 12.2554 10.7745 12.2659C10.8334 12.2685 10.8941 12.2535 10.9515 12.2377C10.9714 12.2321 10.9845 12.2021 11.0074 12.1744C10.8116 12.1852 10.6339 12.1822 10.4618 12.2111C10.3733 12.2257 10.296 12.297 10.212 12.3424L9.79988 12.414L9.80551 12.4421C9.94951 12.4485 10.0901 12.4391 10.2105 12.3394ZM12.672 12.9675C12.6476 12.9562 12.6233 12.9465 12.5985 12.9364C12.5903 12.942 12.582 12.9484 12.5738 12.9547C12.7215 13.3091 12.8681 13.665 13.0151 14.0201C13.023 14.0179 13.0301 14.0145 13.0388 14.0122C12.9154 13.662 12.7931 13.3125 12.6701 12.9641C12.7489 13.0721 12.8505 13.1704 12.9011 13.2911C12.9818 13.4824 13.1516 13.5589 13.3009 13.6661C13.1951 13.5424 13.062 13.4366 12.9739 13.3027C12.8831 13.167 12.8591 12.9877 12.7061 12.8602C12.6911 12.9075 12.6821 12.9375 12.672 12.9667M11.7409 10.698C11.655 10.5292 11.568 10.3594 11.4836 10.1887C11.4116 10.0436 11.343 9.8966 11.2725 9.75148C11.2637 9.75472 11.2552 9.75861 11.247 9.7631C11.3963 10.1209 11.5451 10.4801 11.694 10.8386L11.739 10.8292V10.6961L11.8106 10.7861C11.8106 10.6447 11.8133 10.5026 11.8099 10.3609C11.8084 10.302 11.8099 10.2322 11.7806 10.1865C11.6678 10.0095 11.6235 9.81523 11.6055 9.61235C11.6055 9.60823 11.5946 9.60598 11.5508 9.58085C11.5808 9.71735 11.5808 9.83885 11.6314 9.93298C11.7679 10.1786 11.7638 10.4351 11.7409 10.698ZM10.4494 13.6511C10.4629 13.6339 10.4738 13.6147 10.4903 13.6005C10.7576 13.3582 11.0269 13.1164 11.2924 12.8722C11.319 12.8475 11.3261 12.7999 11.343 12.762C11.3063 12.7777 11.2605 12.7826 11.2354 12.8077C10.9894 13.0562 10.7449 13.3062 10.5019 13.5577C10.4779 13.5825 10.467 13.6192 10.4494 13.65C10.3729 13.5941 10.4295 13.5544 10.4678 13.515C10.6991 13.2787 10.932 13.0425 11.1641 12.8059C11.2016 12.7676 11.2339 12.7252 11.2781 12.6731C11.1548 12.6825 10.3954 13.5109 10.3755 13.6406C10.4006 13.6432 10.4254 13.647 10.4494 13.65M12.4785 13.1186C12.5681 13.2956 12.6581 13.4715 12.747 13.65C12.822 13.8022 12.894 13.9564 12.9683 14.1097C12.9761 14.1067 12.984 14.1019 12.9926 14.0989C12.8363 13.7239 12.6814 13.3492 12.5258 12.975C12.5108 12.9765 12.4958 12.9784 12.4808 12.9814C12.4808 13.029 12.4808 13.0755 12.48 13.122L12.3885 13.0012C12.3986 13.2082 12.3836 13.3916 12.4234 13.563C12.4748 13.7831 12.5704 13.992 12.6428 14.1949C12.6622 14.084 12.6416 13.9698 12.5846 13.8727C12.4448 13.6342 12.4556 13.3774 12.4785 13.1186ZM13.1798 11.337L13.1464 11.4326C13.167 11.4334 13.1906 11.4405 13.2071 11.4345C13.5664 11.283 13.9253 11.1296 14.2838 10.977C14.2819 10.9699 14.2781 10.9635 14.2763 10.9564L13.176 11.3407C13.2833 11.2635 13.3924 11.1859 13.4989 11.1071C13.5788 11.0479 13.6766 10.9987 13.7321 10.9207C13.8135 10.8075 13.9016 10.7137 14.0243 10.6474C14.0689 10.6237 14.1064 10.5866 14.1473 10.5547C14.0572 10.5888 13.972 10.6344 13.8938 10.6905C13.8296 10.7355 13.7618 10.782 13.7164 10.8435C13.6358 10.957 13.5235 11.0441 13.3935 11.094C13.2791 11.1397 13.1756 11.214 13.0684 11.2755L13.0808 11.3197C13.1153 11.3261 13.1468 11.3317 13.1798 11.337ZM11.0546 12.4657C10.9433 12.5464 10.8424 12.6472 10.7205 12.7046C10.5506 12.7834 10.4629 12.9191 10.3826 13.0695C10.5 12.9697 10.599 12.8452 10.7273 12.7654C10.8604 12.6814 11.0246 12.6461 11.1473 12.507L11.0524 12.4684C11.058 12.4357 11.0648 12.4042 11.0775 12.3476L9.93301 12.8366C9.93713 12.8445 9.93938 12.8516 9.94238 12.8595C10.3129 12.7279 10.6841 12.5962 11.0546 12.4657ZM11.8624 12.8734C12.1305 12.9574 12.1305 12.9574 12.3533 12.8767C12.3364 12.909 12.324 12.9349 12.3075 12.9649C12.8198 12.9154 13.2349 12.372 13.1925 11.8215C13.1468 11.2267 12.6379 10.7899 12.0263 10.8191C11.4589 10.8476 11.0066 11.3475 11.0171 11.9344C11.0273 12.4691 11.4814 12.9716 11.9569 12.9724C11.9299 12.9442 11.9025 12.9161 11.8624 12.8734ZM13.1539 12.3626L13.137 12.4027C13.1921 12.4819 14.0944 12.8284 14.3006 12.8377C13.9181 12.6791 13.5353 12.5212 13.1539 12.3626ZM12.1429 14.2901L12.1598 14.2916C12.1804 13.9024 12.2006 13.5124 12.2153 13.1231C12.2171 13.098 12.1856 13.0706 12.1688 13.044C12.1598 13.0489 12.1515 13.0519 12.1429 13.0556V14.2901ZM12.1406 10.7704C12.222 10.7145 12.222 10.7145 12.1935 10.1512C12.1834 9.94273 12.1691 9.73348 12.1564 9.52423L12.1406 9.52573V10.7704ZM12.969 9.7601C12.9618 9.75572 12.9541 9.75208 12.9461 9.74923C12.912 9.8186 12.8771 9.88798 12.8441 9.95848C12.7305 10.197 12.6154 10.4332 12.5055 10.6732C12.4804 10.7246 12.4391 10.7861 12.5291 10.8502C12.6791 10.4805 12.8235 10.1194 12.969 9.7601ZM12.0758 13.0275C11.9918 13.1111 12.0086 14.0231 12.0758 14.2901V13.0275ZM13.2401 11.841C13.245 11.853 13.2495 11.8646 13.2551 11.877H14.481C14.1044 11.8391 13.7267 11.8125 13.3485 11.7971C13.3133 11.7952 13.2769 11.8264 13.2416 11.841M14.4945 11.9486H13.2521L13.2529 12.0079C13.6669 12.0165 14.0801 11.9715 14.4945 11.9486ZM9.73013 11.9216C9.73013 11.9329 9.73013 11.9434 9.72901 11.9542C9.91051 11.9644 10.0924 11.9764 10.275 11.9857C10.47 11.9966 10.665 12.0094 10.8604 12.0142C10.8934 12.015 10.9275 11.9824 10.9609 11.9651C10.9309 11.9509 10.9001 11.925 10.8709 11.9242C10.4906 11.9209 10.1108 11.9216 9.73013 11.9216ZM12.0765 9.5231L12.0615 9.52648C12.0409 9.90523 12.0199 10.284 12.0015 10.6627C12.0008 10.6961 12.0289 10.7325 12.0431 10.7677C12.0541 10.7635 12.0652 10.7599 12.0765 10.7569V9.52235M9.77063 11.8609H10.9849C10.8926 11.7889 9.96601 11.8121 9.77063 11.8609ZM13.755 10.2165L13.7389 10.2C13.4629 10.4527 13.1861 10.7059 12.9098 10.9575C12.8949 10.9694 12.8837 10.9852 12.8775 11.0032C12.8734 11.022 12.879 11.0434 12.8805 11.0629C12.9004 11.0584 12.924 11.0591 12.9375 11.0482C12.972 11.0197 13.0013 10.9849 13.0328 10.9534C13.2731 10.7081 13.5139 10.4614 13.755 10.2157M12.3443 10.7775C12.3641 10.7846 12.3836 10.7925 12.4028 10.8004C12.4193 10.7689 12.4406 10.7389 12.45 10.7059C12.4823 10.5761 12.5115 10.4452 12.5423 10.3147C12.5543 10.2641 12.5843 10.2082 12.573 10.1625C12.5235 9.95473 12.5441 9.7526 12.6023 9.55198C12.6056 9.53773 12.5873 9.51785 12.5764 9.49535C12.5573 9.58685 12.5374 9.66073 12.5273 9.7361C12.513 9.8351 12.4901 9.93748 12.5006 10.0346C12.5164 10.1745 12.498 10.3001 12.4448 10.4291C12.399 10.5397 12.3765 10.6597 12.3443 10.7775ZM11.736 12.9776C11.7192 12.9752 11.7023 12.9736 11.6854 12.9727L11.2714 14.0044C11.2793 14.0074 11.2879 14.0122 11.2973 14.0152C11.4435 13.7074 11.5909 13.3991 11.7341 13.0886C11.7488 13.059 11.736 13.0151 11.736 12.9776ZM10.7543 13.9114V13.9496C10.7869 13.9376 10.8341 13.9369 10.8518 13.9132C10.9298 13.8105 11.0183 13.7077 11.0689 13.5911C11.1398 13.4299 11.2118 13.2784 11.355 13.1659C11.4158 13.1179 11.4645 13.0522 11.511 12.9896C11.5286 12.9649 11.5238 12.9232 11.5286 12.8902C11.4203 12.9859 11.3295 13.0815 11.2534 13.1865C11.1859 13.2787 11.1075 13.3751 11.0828 13.4809C11.0426 13.6545 10.9178 13.7651 10.8248 13.9001C10.8154 13.9129 10.779 13.9091 10.7543 13.9114ZM10.4663 10.1936C10.4603 10.2011 10.4528 10.2086 10.4464 10.2169C10.5371 10.3027 10.6286 10.389 10.7171 10.4764C10.8998 10.6571 11.0798 10.8397 11.2639 11.019C11.2826 11.037 11.3175 11.0389 11.3453 11.0482C11.3359 11.0197 11.3333 10.9864 11.3175 10.962C11.2984 10.9339 11.2684 10.9147 11.2444 10.8915C11.0377 10.704 10.8304 10.5171 10.6226 10.3309C10.572 10.2855 10.5191 10.2397 10.4663 10.1936ZM13.7539 13.6174C13.761 13.6103 13.7674 13.6025 13.773 13.5941C13.5053 13.3264 13.2349 13.0579 12.9645 12.7909C12.9439 12.7695 12.9045 12.7672 12.8753 12.7567C12.8861 12.7894 12.8895 12.8302 12.9124 12.8524C13.0114 12.9499 13.1156 13.0429 13.218 13.1362C13.3969 13.2986 13.5761 13.4572 13.7539 13.6174ZM10.425 10.2855L10.4201 10.2881C10.4828 10.3575 10.5443 10.4269 10.6076 10.4966C10.7869 10.6939 10.965 10.8934 11.1469 11.088C11.1731 11.1157 11.2174 11.1262 11.253 11.145L11.2631 11.1165C10.9841 10.839 10.7036 10.5619 10.425 10.2855ZM9.93676 10.9781C10.3114 11.1311 10.6856 11.2849 11.0839 11.4487C11.0396 11.3329 10.2356 11.0119 9.93676 10.9781ZM12.948 11.121C12.9623 11.136 12.9773 11.151 12.993 11.166C13.2893 10.8825 13.5454 10.5611 13.8255 10.2626C13.8334 10.2697 13.8405 10.2769 13.8473 10.2847C13.5465 10.5634 13.248 10.8412 12.948 11.121ZM13.2146 11.6059C13.2203 11.616 13.2248 11.6265 13.2296 11.6366C13.371 11.6272 13.5135 11.6272 13.653 11.6059C13.7573 11.5909 13.8585 11.55 13.9609 11.5185C14.0573 11.4892 14.1506 11.4551 14.247 11.4277C14.3036 11.412 14.3633 11.406 14.4225 11.397C14.4176 11.3801 14.4139 11.3636 14.4098 11.3471C14.2928 11.3771 14.169 11.3921 14.0599 11.4386C13.8949 11.5102 13.7321 11.5691 13.548 11.5466C13.4842 11.5385 13.4195 11.5397 13.356 11.55C13.3073 11.5579 13.2615 11.586 13.2146 11.6059ZM12.6765 10.9095L12.7204 10.9309C12.7639 10.8727 12.8003 10.8064 12.8524 10.7557C13.0163 10.599 13.1321 10.4239 13.1936 10.1981C13.23 10.0691 13.3309 9.94685 13.4648 9.86885C13.4265 9.87448 13.377 9.88048 13.3564 9.90898C13.2825 10.0061 13.2034 10.1044 13.155 10.2157C13.0864 10.3725 13.0219 10.5262 12.879 10.6335C12.8281 10.6729 12.7829 10.7192 12.7448 10.7711C12.7148 10.8116 12.6983 10.863 12.6765 10.9095ZM11.1821 9.73085C11.1746 9.73474 11.1667 9.73788 11.1585 9.74023C11.2883 10.1006 11.4169 10.4606 11.5504 10.8191C11.559 10.8427 11.598 10.8547 11.6213 10.8739C11.6299 10.866 11.6389 10.8581 11.6464 10.8506L11.1821 9.73085ZM11.0295 11.535C11.031 11.5185 11.0336 11.5027 11.0359 11.4859C10.68 11.3396 10.3245 11.193 9.96863 11.046C10.2825 11.2256 10.6069 11.3812 10.9324 11.5327C10.9601 11.5459 10.9969 11.535 11.0295 11.535ZM11.178 14.1521C11.1881 14.1097 11.1971 14.055 11.2174 14.0044C11.343 13.686 11.4716 13.3695 11.5991 13.0511C11.6123 13.0162 11.6205 12.9802 11.6381 12.924C11.5129 13.0024 11.1458 14.0441 11.178 14.1521ZM14.3141 11.0486L14.2984 11.0242L13.1824 11.502C13.1918 11.5226 13.2015 11.5421 13.2098 11.5635C13.5848 11.4086 13.9455 11.2181 14.3141 11.0486ZM14.2534 12.7582L14.2613 12.7372C13.9391 12.5835 13.6174 12.4297 13.2953 12.2786C13.2645 12.2644 13.2229 12.276 13.1861 12.276L13.1783 12.3142C13.5371 12.4627 13.8949 12.6116 14.2534 12.7582ZM12.5839 10.8596C12.6851 10.8266 13.0436 9.89135 13.0538 9.68848L12.5839 10.8596ZM9.95513 12.7384C9.96001 12.7462 9.96526 12.7556 9.97088 12.7635C10.3245 12.6127 10.6789 12.4601 11.0325 12.3086C11.0239 12.2902 11.0149 12.2711 11.0081 12.2516C10.647 12.3915 10.3088 12.5827 9.95513 12.7384ZM13.2641 12.0502C13.2656 12.057 13.2664 12.063 13.2683 12.0694C13.419 12.1245 13.5675 12.1879 13.7216 12.2344C13.794 12.2557 13.878 12.2565 13.9538 12.246C14.16 12.2194 14.3438 12.2726 14.5279 12.363C14.5061 12.3315 14.4829 12.2921 14.4514 12.2831C14.3336 12.2516 14.211 12.2059 14.0925 12.2115C13.9031 12.219 13.7261 12.2107 13.5578 12.1159C13.5008 12.0871 13.4404 12.0657 13.3781 12.0521C13.3418 12.0424 13.3024 12.0502 13.2641 12.0502ZM13.6973 13.3841C13.6952 13.3881 13.6925 13.3917 13.6894 13.395C13.4779 13.1629 13.2679 12.9292 13.0545 12.6979C13.0339 12.6754 12.9971 12.6694 12.9679 12.6551C12.9656 12.6619 12.963 12.666 12.9615 12.672C13.2056 12.9097 13.4524 13.1471 13.6973 13.3841ZM14.2538 12.291C14.0666 12.291 13.8945 12.3109 13.7288 12.2846C13.5615 12.2587 13.4145 12.1312 13.2154 12.162C13.2315 12.1931 13.239 12.2261 13.2514 12.2269C13.5776 12.2595 13.8889 12.45 14.2538 12.291ZM10.9849 11.6689C10.9924 11.6512 10.9999 11.6332 11.0081 11.6156C10.9688 11.5965 10.9316 11.5714 10.8896 11.5609C10.7955 11.5387 10.6916 11.5429 10.6046 11.505C10.4123 11.4195 10.2296 11.4544 10.0365 11.5275C10.3793 11.4 10.6661 11.6389 10.9849 11.6689ZM10.914 10.101C10.9046 10.1074 10.8964 10.1141 10.8881 10.1209C10.9496 10.1839 11.0036 10.2547 11.073 10.3072C11.1761 10.383 11.2459 10.4767 11.295 10.5967C11.3336 10.6931 11.3865 10.7846 11.4401 10.8739C11.4544 10.8971 11.4971 10.9024 11.5264 10.9147C11.5189 10.8817 11.5204 10.8416 11.5031 10.8169C11.3209 10.5664 11.1919 10.2731 10.914 10.101ZM11.8553 13.0147C11.7218 13.0912 11.6396 13.7182 11.724 13.9744C11.7311 13.8172 11.7098 13.6541 11.7364 13.5011C11.766 13.3421 11.8759 13.2019 11.8553 13.0147ZM13.0571 12.5512C13.0429 12.5677 13.0298 12.5842 13.0155 12.6019C13.1441 12.7005 13.2656 12.8126 13.4048 12.8955C13.5495 12.9821 13.7111 13.041 13.866 13.1119L13.8866 13.0669C13.8326 13.0432 13.7824 13.0069 13.7269 12.9964C13.5634 12.9671 13.4385 12.8816 13.3256 12.7627C13.2491 12.681 13.1483 12.6202 13.0571 12.5512ZM12.5471 14.0336C12.5336 13.9811 12.5329 13.9009 12.4943 13.8472C12.3724 13.6774 12.3536 13.4895 12.3593 13.2889C12.3608 13.2041 12.3308 13.1197 12.3109 13.011C12.2738 13.0474 12.2535 13.0582 12.255 13.0657C12.3259 13.4006 12.3 13.7632 12.5471 14.0336ZM11.7188 14.256C11.7296 14.2582 11.7409 14.2597 11.751 14.2631C11.7724 14.145 11.8193 14.0254 11.8095 13.9102C11.7904 13.6965 11.8125 13.4996 11.916 13.3106C11.9404 13.2656 11.9546 13.212 11.9648 13.1617C11.9715 13.1276 11.9603 13.0897 11.9576 13.0534C11.8811 13.2334 11.7855 13.4089 11.7761 13.59C11.7645 13.8086 11.7818 14.028 11.709 14.2414C11.7079 14.244 11.7161 14.2515 11.7188 14.256ZM11.6768 9.7631C11.6895 9.81373 11.6895 9.9011 11.7315 9.96035C11.8508 10.1325 11.8699 10.3204 11.8646 10.5202C11.8631 10.605 11.8931 10.689 11.9093 10.773C11.9246 10.7779 11.94 10.7809 11.9539 10.7846C11.9606 10.7707 11.9715 10.7557 11.9689 10.743C11.9033 10.3995 11.9081 10.0357 11.6768 9.7631ZM10.3403 10.7486C10.4059 10.7722 10.4745 10.7902 10.5368 10.8214C10.6444 10.8765 10.7509 10.9342 10.8521 11.0017C10.938 11.0602 11.0119 11.1375 11.0951 11.2009C11.118 11.2174 11.1593 11.2125 11.1915 11.2174C11.1701 11.1866 11.1551 11.1487 11.1266 11.1285C11.0723 11.0895 10.9988 11.0715 10.9553 11.025C10.7891 10.8487 10.587 10.7501 10.3403 10.7486ZM13.2439 11.7079L13.2555 11.7634C13.5975 11.6966 13.9601 11.7135 14.2478 11.4671C14.1863 11.4844 14.1049 11.4907 14.0471 11.5301C13.8934 11.6392 13.7273 11.6644 13.545 11.6614C13.4445 11.6595 13.3433 11.691 13.2439 11.7079ZM12.7691 10.965C12.7875 10.9785 12.8074 10.9909 12.8243 11.0044C12.9656 10.7081 13.2941 10.5195 13.2791 10.1242C13.2533 10.185 13.2169 10.236 13.2083 10.2919C13.1809 10.4614 13.0901 10.587 12.969 10.7032C12.8906 10.7786 12.8348 10.8776 12.7691 10.965ZM9.98738 12.336C10.0335 12.3225 10.1074 12.3195 10.1588 12.2839C10.3185 12.1725 10.4906 12.1406 10.6811 12.1462C10.7783 12.1496 10.8776 12.114 10.9763 12.0956C10.9706 12.0776 10.968 12.0607 10.9631 12.0427C10.6249 12.1189 10.2593 12.0889 9.98738 12.336ZM11.4491 12.8422L11.3933 12.8059C11.2583 13.1021 10.929 13.2892 10.944 13.6834C10.9691 13.6267 11.0025 13.5817 11.0104 13.5334C11.037 13.3489 11.1383 13.2124 11.2691 13.0867C11.3419 13.017 11.3899 12.9247 11.4491 12.8422ZM11.4004 10.9965C11.4116 10.9882 11.4229 10.9785 11.4345 10.9691C11.2541 10.7827 11.2759 10.4659 11.0201 10.3372C11.0809 10.4404 11.1506 10.5487 11.2106 10.6616C11.2493 10.734 11.2695 10.8157 11.3078 10.8881C11.3284 10.9294 11.3681 10.9609 11.4004 10.9965ZM12.2359 10.7494C12.255 10.7554 12.2753 10.7595 12.2959 10.7662C12.3 10.5109 12.5231 10.3042 12.453 10.065C12.4099 10.1906 12.3566 10.341 12.3083 10.4921C12.2809 10.5765 12.2603 10.6631 12.2359 10.7494ZM10.5671 12.9671C10.689 12.9056 10.8176 12.8415 10.9459 12.7759C11.01 12.7436 11.0749 12.7144 11.1349 12.6754C11.1578 12.6615 11.169 12.6281 11.1848 12.6037L11.1626 12.5824C10.9928 12.765 10.6909 12.7429 10.5668 12.9671M13.0215 11.1836C13.0324 11.199 13.0436 11.2136 13.0545 11.2279C13.2229 11.0441 13.5221 11.0644 13.6455 10.8577C13.5056 10.9226 13.3444 10.995 13.1873 11.0741C13.128 11.103 13.0759 11.1465 13.0215 11.1836ZM13.1846 13.4561C13.1246 13.3534 13.065 13.2562 13.0125 13.1542C12.9724 13.0777 12.948 12.993 12.9086 12.9172C12.8888 12.8801 12.8486 12.8531 12.8186 12.8216L12.7901 12.8452C12.9694 13.02 12.948 13.3192 13.1846 13.4561ZM10.5154 13.0612C10.3676 13.1456 10.2518 13.2607 10.0838 13.275C10.182 13.3357 10.3718 13.2435 10.5154 13.0612ZM13.3478 13.5649L13.3185 13.5817C13.3684 13.6684 13.4171 13.7546 13.4663 13.8424C13.4779 13.8345 13.4899 13.8281 13.5019 13.8199C13.4501 13.7355 13.3991 13.6492 13.3478 13.5649ZM10.7573 9.96035C10.7456 9.96748 10.734 9.97535 10.7224 9.98173C10.773 10.0702 10.824 10.1572 10.8739 10.2446C10.884 10.2397 10.8945 10.2337 10.9039 10.2289L10.7573 9.96035Z" fill="#7B4022"/>
<path fill-rule="evenodd" clip-rule="evenodd" d="M11.8624 12.8737C11.9025 12.9165 11.9299 12.9446 11.9565 12.9727C11.481 12.972 11.0269 12.4695 11.0168 11.9347C11.0066 11.3482 11.4589 10.8484 12.0259 10.8195C12.6379 10.7902 13.1464 11.2271 13.1921 11.8219C13.2341 12.3724 12.8194 12.9157 12.3071 12.9652C12.3236 12.9352 12.336 12.9094 12.3529 12.8771C12.1305 12.9577 12.1305 12.9577 11.8624 12.8737ZM12.3199 12.0225C12.3158 12.0334 12.3116 12.0457 12.3064 12.0566C12.3158 12.0615 12.3274 12.0652 12.3334 12.0724C12.357 12.1001 12.3791 12.1275 12.4016 12.1564C12.3683 12.1627 12.3334 12.1714 12.2989 12.1762C12.2798 12.1792 12.2516 12.1684 12.2408 12.1777C12.1403 12.27 12.0503 12.24 11.9588 12.1849C11.9138 12.1785 11.8688 12.1717 11.8238 12.1642L11.9093 12.0255C11.865 12.0379 11.8125 12.039 11.7859 12.0649C11.7623 12.087 11.7495 12.1485 11.7645 12.1736C11.7851 12.2092 11.8324 12.2351 11.8736 12.2512C11.9044 12.2629 11.9415 12.2535 11.976 12.2535L11.9831 12.285C11.9408 12.2977 11.8973 12.3225 11.8553 12.3206C11.7919 12.3184 11.7311 12.3206 11.7311 12.3956C11.7319 12.459 11.778 12.5014 11.8519 12.5014C12.0266 12.4999 12.2014 12.5006 12.3754 12.4999C12.3896 12.4999 12.411 12.5021 12.4189 12.4935C12.4463 12.4594 12.4796 12.4237 12.4905 12.3844C12.4931 12.3701 12.4384 12.3304 12.405 12.3202C12.3458 12.3037 12.2835 12.2996 12.2228 12.2914C12.2228 12.2812 12.2228 12.2707 12.2235 12.2595C12.2603 12.2565 12.2985 12.2606 12.3334 12.2505C12.3758 12.237 12.4313 12.2212 12.4534 12.1886C12.4706 12.1605 12.4635 12.0949 12.4406 12.0671C12.4159 12.0382 12.3619 12.036 12.3199 12.0225ZM11.4559 11.4754C11.8058 11.3779 11.9483 11.4004 11.9614 11.5552C11.7806 11.4802 11.6078 11.4536 11.4506 11.619C11.61 11.7821 11.7866 11.7525 11.9689 11.6932C11.8455 11.8054 11.6985 11.8005 11.5455 11.7922C11.6126 11.8237 11.6835 11.8519 11.7533 11.8496C11.8241 11.8474 11.8939 11.8125 11.9745 11.7896V12.0225C12.0431 11.9081 12.0604 11.5552 12.0068 11.4626C11.9959 11.4427 11.9808 11.4254 11.9625 11.412C11.8436 11.3164 11.5523 11.3126 11.4559 11.4754ZM12.7691 11.6186C12.6113 11.4514 12.4358 11.4829 12.2419 11.5586C12.2741 11.4116 12.3855 11.4172 12.4725 11.4165C12.5648 11.4165 12.657 11.4472 12.7751 11.4697C12.6491 11.3471 12.5246 11.325 12.384 11.3572C12.2393 11.3906 12.1883 11.4442 12.1849 11.5886C12.1819 11.7049 12.1916 11.8226 12.1984 11.9389C12.2003 11.9632 12.2168 11.988 12.2269 12.012L12.252 12.0071V11.7806C12.4013 11.8496 12.5378 11.8961 12.7013 11.7682C12.5213 11.8031 12.375 11.8031 12.252 11.6932C12.4343 11.7566 12.6079 11.7799 12.7691 11.6186ZM11.9318 12.6982H12.2951C12.2445 12.6742 12.207 12.6551 12.1699 12.6367C12.1699 12.6274 12.1688 12.6176 12.168 12.6094C12.2321 12.6094 12.2951 12.6037 12.3578 12.6101C12.4384 12.6202 12.4658 12.6082 12.489 12.5437H11.7315C11.7716 12.5745 11.8215 12.5989 11.8729 12.606C11.9389 12.6139 12.0056 12.6075 12.072 12.6075C12.072 12.6169 12.072 12.6274 12.0705 12.6367C12.0281 12.6551 11.9858 12.675 11.9325 12.6982M11.0546 12.465L9.94275 12.8591C9.93938 12.8512 9.93713 12.8441 9.93338 12.8362C10.3061 12.6772 10.6774 12.5179 11.0779 12.3472C11.0651 12.4039 11.058 12.4354 11.0528 12.468L11.0546 12.465ZM13.155 12.3637C13.5364 12.5224 13.9193 12.6806 14.3018 12.8392C14.0955 12.8299 13.1936 12.4834 13.1381 12.4042L13.155 12.3637ZM13.1813 11.3362L13.083 11.3197L13.0706 11.2755C13.1779 11.214 13.2818 11.1397 13.3958 11.094C13.5308 11.0392 13.6346 10.9609 13.7186 10.8435C13.764 10.782 13.8319 10.7355 13.896 10.6905C13.9714 10.6357 14.0561 10.59 14.1495 10.5547C14.1086 10.5866 14.0711 10.6237 14.0265 10.6474C13.9039 10.7137 13.8154 10.8075 13.7344 10.9207C13.6789 10.9987 13.581 11.0479 13.5011 11.1071C13.3946 11.1859 13.2855 11.2635 13.1783 11.3407L13.1813 11.3362Z" fill="#FDD12E"/>
<path fill-rule="evenodd" clip-rule="evenodd" d="M13.1775 11.34C13.5443 11.2114 13.9103 11.0831 14.2778 10.9556C14.2796 10.9628 14.2834 10.9691 14.2853 10.9763C13.9268 11.1285 13.5679 11.2819 13.2086 11.4338C13.1921 11.4401 13.1685 11.4326 13.1479 11.4319L13.1813 11.3363L13.1775 11.34ZM12.1429 14.2913V13.0568C12.1515 13.053 12.1598 13.0496 12.1688 13.0451C12.1856 13.0718 12.2171 13.0991 12.2153 13.1243C12.2006 13.5135 12.18 13.9035 12.1598 14.2928L12.1429 14.2913ZM12.1406 10.7715V9.52688L12.1564 9.52538C12.1688 9.73463 12.183 9.94388 12.1935 10.1524C12.222 10.7153 12.222 10.7153 12.1406 10.7715ZM12.969 9.76125C12.8235 10.1205 12.6791 10.4816 12.5291 10.851C12.4391 10.7869 12.48 10.7254 12.5055 10.674C12.6154 10.4336 12.7309 10.1974 12.8441 9.95925C12.8775 9.88875 12.9124 9.81938 12.9461 9.75C12.954 9.75338 12.9611 9.75675 12.969 9.76125ZM12.075 13.0286V14.2913C12.0079 14.0243 11.9914 13.1123 12.075 13.0286ZM13.2413 11.8421C13.2769 11.8275 13.3129 11.7964 13.3478 11.7983C13.7265 11.8155 14.1053 11.8376 14.4803 11.8781H13.2544C13.2492 11.8663 13.2443 11.8543 13.2398 11.8421M14.493 11.9498C14.0786 11.9726 13.6654 12.0176 13.2514 12.009L13.2506 11.9498H14.493ZM9.72864 11.9228C10.1093 11.9228 10.4888 11.922 10.869 11.9254C10.8983 11.9261 10.929 11.952 10.959 11.9663C10.9256 11.9835 10.8915 12.0161 10.8585 12.0154C10.6631 12.0105 10.4681 11.9978 10.2731 11.9869C10.0905 11.9775 9.90864 11.9655 9.72714 11.9554C9.72864 11.9445 9.72864 11.934 9.72864 11.9228ZM12.075 9.52425V10.7588C12.0638 10.7618 12.0525 10.7659 12.0416 10.7696C12.0274 10.734 11.9993 10.698 12 10.6646C12.0184 10.2848 12.0394 9.90563 12.06 9.52838L12.075 9.525M9.76877 11.8628C9.96414 11.814 10.8908 11.7911 10.983 11.8628H9.76877ZM13.7535 10.2188C13.5124 10.4644 13.2716 10.7111 13.0313 10.9568C12.9998 10.9883 12.9705 11.0231 12.936 11.0516C12.9225 11.0625 12.8985 11.0618 12.879 11.0663C12.8775 11.0468 12.8719 11.0254 12.876 11.0066C12.8822 10.9886 12.8934 10.9728 12.9083 10.9609C13.1846 10.7081 13.4614 10.455 13.7374 10.2034C13.743 10.2086 13.7483 10.2139 13.7535 10.2195M12.48 13.1224V12.981C12.495 12.978 12.51 12.9761 12.525 12.9746C12.6806 13.3489 12.8355 13.7235 12.9919 14.0985C12.9833 14.1015 12.9754 14.1064 12.9675 14.1094C12.8933 13.9564 12.8213 13.8023 12.7463 13.6496C12.6578 13.4711 12.5674 13.2953 12.4778 13.1183L12.48 13.1224ZM10.4494 13.6508C10.467 13.6193 10.4779 13.5821 10.5019 13.5578C10.7449 13.3058 10.9894 13.0545 11.2354 12.8078C11.2605 12.7826 11.3063 12.7778 11.343 12.762C11.3261 12.7999 11.3194 12.8475 11.2924 12.8723C11.0269 13.1164 10.7576 13.3583 10.4903 13.6005C10.4738 13.6148 10.4629 13.6335 10.4494 13.6508V13.6519V13.6508ZM12.3428 10.7801C12.375 10.6624 12.3975 10.5424 12.4433 10.431C12.4969 10.302 12.5149 10.1764 12.4991 10.0365C12.489 9.93938 12.5115 9.837 12.5258 9.738C12.5359 9.663 12.5558 9.58913 12.5749 9.49725C12.5858 9.52013 12.6041 9.53963 12.6008 9.55388C12.5426 9.7545 12.522 9.95663 12.5715 10.1644C12.5828 10.2101 12.5528 10.266 12.5408 10.3166C12.51 10.4471 12.4808 10.578 12.4485 10.7078C12.4391 10.7408 12.4178 10.7708 12.4013 10.8023L12.3428 10.7801ZM11.7375 10.6943V10.8281L11.6925 10.8375C11.5436 10.479 11.3948 10.1198 11.2455 9.762C11.2536 9.75736 11.2622 9.75347 11.271 9.75038C11.3415 9.8955 11.4098 10.0425 11.4821 10.1876C11.5665 10.3583 11.6535 10.5281 11.7394 10.6969L11.7375 10.6943Z" fill="#FDD12E"/>
<path fill-rule="evenodd" clip-rule="evenodd" d="M10.4494 13.65C10.4254 13.6466 10.4006 13.6428 10.3755 13.6406C10.3954 13.5108 11.1548 12.6825 11.2781 12.6731C11.2339 12.7256 11.2016 12.768 11.1641 12.8058C10.932 13.0425 10.6991 13.2787 10.4678 13.515C10.4295 13.5543 10.3729 13.5941 10.4494 13.6507V13.65ZM11.7338 12.9802C11.7338 13.0177 11.7465 13.0616 11.7323 13.0916C11.589 13.4021 11.4416 13.71 11.2954 14.0182C11.286 14.0148 11.2774 14.0103 11.2695 14.0073C11.4068 13.6638 11.5451 13.3192 11.6835 12.9757C11.6996 12.9765 11.7173 12.978 11.7338 12.9802ZM10.7528 13.9125C10.7775 13.9102 10.8139 13.9143 10.8233 13.9016C10.9159 13.7666 11.0408 13.656 11.0813 13.4823C11.106 13.3766 11.1844 13.2802 11.2519 13.188C11.328 13.083 11.4188 12.9873 11.5271 12.8917C11.5223 12.9247 11.5271 12.966 11.5095 12.9911C11.463 13.0537 11.4143 13.1193 11.3535 13.1673C11.2103 13.2798 11.1386 13.4313 11.0674 13.5926C11.0168 13.7096 10.9283 13.812 10.8503 13.9147C10.8326 13.9383 10.7854 13.9387 10.7528 13.9511V13.9125ZM10.4648 10.1962C10.5176 10.242 10.5701 10.2877 10.6208 10.3335C10.8289 10.5198 11.0355 10.7062 11.2425 10.8941C11.2665 10.9173 11.2969 10.9361 11.3156 10.9646C11.3314 10.989 11.334 11.0223 11.3434 11.0508C11.3156 11.0415 11.2808 11.0396 11.262 11.0216C11.0779 10.842 10.8979 10.6597 10.7153 10.479C10.6261 10.3913 10.5359 10.3048 10.4445 10.2195C10.4513 10.2112 10.4591 10.2037 10.4648 10.1962ZM13.7524 13.62C13.5746 13.4595 13.3954 13.3008 13.2161 13.1392C13.1138 13.0458 13.0091 12.9528 12.9105 12.8553C12.8876 12.8332 12.8846 12.7923 12.8734 12.7597C12.9026 12.7698 12.9424 12.7725 12.9626 12.7938C13.2334 13.0608 13.5034 13.3293 13.7711 13.5971C13.7657 13.6053 13.7594 13.613 13.7524 13.62ZM10.4235 10.2881L11.2616 11.1191C11.2583 11.1285 11.2541 11.1382 11.2515 11.1476C11.2155 11.1285 11.1716 11.1183 11.1454 11.0906C10.9639 10.8956 10.7854 10.6965 10.6061 10.4992C10.5428 10.4295 10.4813 10.3601 10.4186 10.2907C10.4202 10.2898 10.4219 10.2889 10.4235 10.2881ZM9.93527 10.98C10.2341 11.0137 11.0378 11.3343 11.0824 11.4506C10.6841 11.2871 10.3099 11.133 9.93527 10.98ZM12.9454 11.1236L13.8443 10.2873C13.8376 10.2794 13.8303 10.272 13.8225 10.2652C13.5424 10.5637 13.2863 10.8851 12.99 11.1686C12.9749 11.1539 12.96 11.1389 12.9454 11.1236ZM13.2113 11.6085C13.2581 11.5886 13.3035 11.5605 13.3526 11.5526C13.4162 11.5427 13.4808 11.5415 13.5446 11.5492C13.7288 11.5717 13.8915 11.5128 14.0565 11.4412C14.1656 11.3947 14.2894 11.3797 14.4064 11.3497C14.4105 11.3662 14.4143 11.3827 14.4191 11.3996C14.3599 11.4086 14.3006 11.4146 14.2436 11.4303C14.1473 11.4577 14.0539 11.4918 13.9575 11.5211C13.8551 11.5526 13.7539 11.5935 13.6496 11.6085C13.5101 11.6298 13.3676 11.6298 13.2263 11.6392C13.2217 11.6287 13.2167 11.6185 13.2113 11.6085ZM12.6739 10.9125C12.696 10.866 12.7125 10.8146 12.7418 10.7745C12.7804 10.7227 12.8265 10.6747 12.876 10.6368C13.0189 10.5296 13.0838 10.3758 13.152 10.2191C13.2004 10.1077 13.2795 10.0091 13.3534 9.91234C13.374 9.88384 13.4239 9.87746 13.4618 9.87221C13.3283 9.95021 13.227 10.0725 13.1906 10.2015C13.1291 10.4276 13.0129 10.6023 12.8494 10.7591C12.7973 10.8097 12.7613 10.8761 12.7174 10.9342C12.7032 10.9264 12.6887 10.9192 12.6739 10.9125ZM11.1795 9.73346L11.6438 10.8532L11.6186 10.8765C11.595 10.8573 11.5564 10.8457 11.5478 10.8217C11.4146 10.4632 11.2856 10.1032 11.1559 9.74284C11.164 9.74043 11.1719 9.73729 11.1795 9.73346ZM11.0269 11.5376C10.9943 11.5376 10.9571 11.5485 10.9298 11.5353C10.6043 11.3838 10.2799 11.2282 9.96602 11.0486C10.3215 11.1956 10.677 11.3422 11.0333 11.4885C11.031 11.5053 11.0284 11.5211 11.0269 11.5376ZM11.1754 14.1547C11.1431 14.0467 11.5106 13.005 11.6355 12.927C11.6179 12.9828 11.61 13.0192 11.5965 13.0541C11.469 13.3725 11.3404 13.689 11.2148 14.0073C11.1945 14.0576 11.1855 14.1123 11.1754 14.1547ZM14.31 11.0512C13.9414 11.2207 13.5814 11.4112 13.206 11.5661C13.1978 11.5447 13.188 11.5252 13.1786 11.5046C13.5514 11.3448 13.9223 11.1858 14.2946 11.0268L14.31 11.0512ZM11.7413 10.6968C11.7645 10.434 11.7683 10.1771 11.6325 9.93184C11.5819 9.83771 11.5819 9.71621 11.5519 9.57971C11.5954 9.60484 11.6066 9.60709 11.6066 9.61121C11.6246 9.81409 11.6689 10.0087 11.7818 10.1853C11.811 10.2311 11.8095 10.3008 11.811 10.3597C11.8144 10.5015 11.8118 10.6436 11.8118 10.785C11.7882 10.7556 11.7647 10.7263 11.7413 10.6968ZM12.48 13.1186C12.4568 13.3773 12.4459 13.6342 12.5858 13.8723C12.6465 13.9747 12.6623 14.0943 12.6439 14.1945C12.5715 13.9916 12.4759 13.7827 12.4245 13.5626C12.3851 13.3912 12.4001 13.2078 12.3896 13.0008L12.4811 13.1216C12.4823 13.1227 12.48 13.1186 12.48 13.1186ZM12.6698 12.963L13.0384 14.0118C13.0298 14.0141 13.0226 14.0175 13.0148 14.0197C12.8678 13.6646 12.7211 13.3087 12.5734 12.9543C12.5816 12.948 12.5899 12.9416 12.5981 12.936C12.6229 12.9461 12.6473 12.9558 12.6716 12.9671L12.6698 12.963ZM14.25 12.7612C13.8915 12.6142 13.5338 12.4657 13.1753 12.3172C13.1779 12.3052 13.1809 12.2921 13.1831 12.279C13.2199 12.279 13.2615 12.2673 13.2923 12.2816C13.6144 12.4323 13.9361 12.5865 14.2583 12.7402L14.25 12.7612ZM12.5813 10.8622L13.0511 9.69109C13.0406 9.89396 12.6821 10.8292 12.5813 10.8622Z" fill="#FDD12E"/>
<path fill-rule="evenodd" clip-rule="evenodd" d="M12.672 12.9671C12.6821 12.9379 12.6911 12.9079 12.7061 12.861C12.8591 12.9885 12.8831 13.1674 12.9739 13.3035C13.062 13.437 13.1951 13.5431 13.3009 13.6669C13.1516 13.5589 12.9814 13.4824 12.9011 13.2919C12.8505 13.1711 12.7489 13.0729 12.6701 12.9649L12.672 12.9679M9.95288 12.7414C10.3065 12.5858 10.6448 12.3945 11.0059 12.2546C11.013 12.2745 11.0216 12.2936 11.0303 12.3116C10.6766 12.4631 10.3223 12.6158 9.96863 12.7665C9.96301 12.7583 9.95776 12.7489 9.95288 12.7414ZM13.2638 12.0525C13.302 12.0525 13.3414 12.0446 13.3778 12.0544C13.4393 12.0694 13.5015 12.0881 13.5574 12.1181C13.7258 12.213 13.9028 12.2209 14.0921 12.2138C14.2106 12.2081 14.3333 12.2539 14.451 12.2854C14.4825 12.294 14.5058 12.3338 14.5275 12.3653C14.3434 12.2753 14.1596 12.2216 13.9534 12.2483C13.876 12.26 13.7971 12.2561 13.7213 12.2366C13.5671 12.1901 13.4186 12.1268 13.2679 12.0716C13.266 12.0653 13.2653 12.0589 13.2638 12.0525ZM13.695 13.3871C13.4505 13.1501 13.2034 12.9124 12.9589 12.675C12.9604 12.669 12.963 12.6649 12.9653 12.6581C12.9945 12.6724 13.0316 12.6788 13.0519 12.7009C13.2653 12.9323 13.4753 13.1659 13.6868 13.398C13.6901 13.3949 13.6929 13.3912 13.695 13.3871Z" fill="#FDD12E"/>
<path fill-rule="evenodd" clip-rule="evenodd" d="M14.25 12.294C13.8851 12.453 13.5739 12.2625 13.2472 12.2299C13.2352 12.2291 13.2274 12.1961 13.2112 12.165C13.4104 12.1343 13.5574 12.2618 13.7246 12.2876C13.8907 12.3139 14.0629 12.294 14.25 12.294ZM10.9837 11.6738C10.6646 11.6438 10.3781 11.4049 10.0354 11.5324C10.2266 11.4596 10.4104 11.4248 10.6035 11.5099C10.6901 11.5481 10.7944 11.544 10.8885 11.5658C10.9305 11.5759 10.9676 11.6014 11.007 11.6205C10.9987 11.6381 10.9912 11.6561 10.9837 11.6738ZM11.0524 12.4688C11.0801 12.4796 11.1082 12.4916 11.1472 12.5074C11.0246 12.6465 10.8604 12.6821 10.7272 12.7658C10.599 12.8456 10.5004 12.9701 10.3826 13.0699C10.4632 12.9199 10.5506 12.7838 10.7205 12.705C10.842 12.648 10.9432 12.5468 11.0546 12.4654L11.0524 12.4688ZM10.9125 10.104C11.1904 10.2761 11.3194 10.569 11.5016 10.8203C11.5189 10.8446 11.5174 10.8851 11.5249 10.9181C11.4956 10.9058 11.4529 10.9001 11.4386 10.8773C11.383 10.7889 11.3344 10.6962 11.2935 10.6001C11.2488 10.4843 11.1718 10.3838 11.0715 10.3106C11.0017 10.2581 10.9481 10.1873 10.8866 10.1243C10.8948 10.1169 10.9034 10.1101 10.9125 10.104ZM11.853 13.0178C11.8736 13.2049 11.7637 13.3451 11.7345 13.5041C11.7079 13.6571 11.7289 13.8203 11.7221 13.9774C11.6374 13.7213 11.7195 13.0943 11.853 13.0178ZM13.0549 12.5543C13.1456 12.6236 13.2469 12.6844 13.3234 12.7658C13.4366 12.8846 13.5615 12.9701 13.7246 12.9994C13.7797 13.0095 13.8304 13.0459 13.8844 13.0699L13.8637 13.1149C13.7089 13.044 13.5469 12.9851 13.4025 12.8985C13.2634 12.8153 13.1419 12.7031 13.0132 12.6049C13.0275 12.5869 13.0406 12.5704 13.0549 12.5543ZM12.5449 14.0366C12.2977 13.7663 12.3236 13.4036 12.2527 13.0684C12.2512 13.0609 12.2719 13.05 12.3086 13.0136C12.3285 13.1224 12.3585 13.2071 12.357 13.2915C12.3514 13.4921 12.3701 13.68 12.492 13.8499C12.5306 13.9035 12.5314 13.9841 12.5449 14.0366Z" fill="#FDD12E"/>
<path fill-rule="evenodd" clip-rule="evenodd" d="M11.715 14.2575C11.7124 14.2526 11.7041 14.2455 11.7056 14.2425C11.778 14.0291 11.7607 13.8097 11.7727 13.5911C11.7821 13.4103 11.8777 13.2348 11.9542 13.0545C11.9569 13.0908 11.9677 13.1287 11.9614 13.1628C11.9526 13.2146 11.9362 13.2648 11.9126 13.3117C11.8091 13.5007 11.787 13.6972 11.8061 13.9113C11.8155 14.0268 11.7686 14.1461 11.7476 14.2642C11.7371 14.2612 11.7259 14.2597 11.715 14.2575ZM11.6737 9.76495C11.9051 10.0376 11.9002 10.4013 11.9659 10.7448C11.9685 10.7576 11.9576 10.7726 11.9509 10.7865C11.937 10.7827 11.9216 10.7793 11.9062 10.7748C11.8901 10.6908 11.8601 10.6068 11.8616 10.5221C11.8669 10.3222 11.8477 10.1343 11.7285 9.9622C11.6865 9.90295 11.6865 9.81558 11.6737 9.76495ZM10.338 10.7516C10.5844 10.7531 10.7865 10.8521 10.9534 11.028C10.9969 11.0745 11.0707 11.0928 11.1247 11.1315C11.1532 11.1521 11.1682 11.1896 11.1896 11.2203C11.1574 11.2155 11.1161 11.2203 11.0932 11.2038C11.0096 11.1405 10.9361 11.0632 10.8502 11.0047C10.7487 10.9385 10.6434 10.8782 10.5349 10.8243C10.4726 10.7932 10.4036 10.7752 10.338 10.7516ZM10.2112 12.3416C10.2952 12.2962 10.3725 12.225 10.461 12.2103C10.6331 12.1818 10.8109 12.1848 11.0066 12.1736C10.9834 12.2013 10.9702 12.2313 10.9507 12.237C10.8936 12.2554 10.8338 12.2649 10.7737 12.2651C10.5806 12.255 10.3912 12.2651 10.2097 12.3386L10.2112 12.3416ZM13.2412 11.7112C13.341 11.694 13.4419 11.6625 13.5424 11.6647C13.7246 11.6681 13.8907 11.6426 14.0445 11.5335C14.1022 11.4941 14.1836 11.4877 14.2451 11.4705C13.9575 11.7168 13.5952 11.7 13.2529 11.7667C13.2484 11.7487 13.245 11.7296 13.2412 11.7112ZM12.7687 10.9687C12.8344 10.8813 12.8902 10.7823 12.9686 10.7073C13.0894 10.5911 13.1801 10.4655 13.2079 10.296C13.2165 10.2401 13.2529 10.1891 13.2787 10.1283C13.2937 10.5236 12.9652 10.7122 12.8239 11.0085C12.8066 10.9946 12.7871 10.9822 12.7687 10.9687Z" fill="#FDD12E"/>
<path fill-rule="evenodd" clip-rule="evenodd" d="M9.98514 12.339C10.257 12.0919 10.6226 12.1219 10.9609 12.0461C10.9658 12.0641 10.9688 12.081 10.974 12.099C10.8754 12.1174 10.776 12.153 10.6789 12.1496C10.4884 12.144 10.3163 12.1759 10.1565 12.2873C10.1051 12.3225 10.0313 12.3255 9.98514 12.339ZM11.4469 12.8438C11.3876 12.9263 11.3396 13.0185 11.2669 13.0879C11.1356 13.2135 11.0348 13.35 11.0081 13.5345C11.0003 13.5829 10.9673 13.6279 10.9418 13.6845C10.9268 13.2904 11.256 13.1033 11.391 12.807C11.4101 12.819 11.4293 12.8321 11.4469 12.8438ZM10.47 10.8544C10.6331 10.8893 10.764 10.9718 10.8746 11.0981C10.9451 11.178 11.0396 11.238 11.1161 11.3276C11.079 11.3186 11.0359 11.316 11.0066 11.2946C10.9493 11.253 10.9024 11.1975 10.8469 11.1533C10.7396 11.0685 10.6283 10.989 10.5199 10.9061C10.5019 10.8911 10.4869 10.8713 10.4719 10.8529L10.47 10.8544ZM13.7794 12.9518C13.6247 12.9388 13.4813 12.8657 13.38 12.7481C13.2953 12.6559 13.191 12.5824 13.1066 12.4744C13.1494 12.4935 13.1966 12.5051 13.233 12.5318C13.2836 12.57 13.3358 12.6116 13.3714 12.6638C13.4726 12.8108 13.6328 12.8708 13.7764 12.9544L13.7794 12.9518ZM11.3981 10.9995C11.3659 10.9639 11.3265 10.9324 11.3051 10.8915C11.2669 10.8191 11.2466 10.7374 11.208 10.665C11.148 10.5521 11.0783 10.4438 11.0175 10.3406C11.2736 10.4693 11.2515 10.7861 11.4319 10.9725C11.4203 10.9815 11.4094 10.9913 11.3981 10.9995ZM12.2336 10.7524C12.258 10.6665 12.2786 10.5795 12.306 10.4948C12.3544 10.344 12.4076 10.1933 12.4508 10.0676C12.5213 10.3069 12.2978 10.5135 12.2936 10.7689C12.2734 10.7625 12.2528 10.758 12.2336 10.7524ZM10.5638 12.9701C10.6879 12.7459 10.9898 12.768 11.1596 12.5858L11.1818 12.6071C11.166 12.6315 11.1548 12.6649 11.1319 12.6788C11.0719 12.7178 11.007 12.747 10.9429 12.7793C10.8143 12.8445 10.6853 12.9086 10.5638 12.9701ZM10.2038 11.6044C10.3024 11.5965 10.4081 11.5654 10.5004 11.5864C10.6553 11.622 10.803 11.6914 10.9556 11.7656C10.905 11.7608 10.8514 11.7668 10.8049 11.7499C10.7093 11.7184 10.62 11.664 10.5236 11.64C10.4194 11.6141 10.3099 11.6141 10.2038 11.6044ZM13.0196 11.1866C13.0744 11.1495 13.1261 11.106 13.1854 11.0771C13.3425 10.998 13.5038 10.9256 13.6436 10.8608C13.5203 11.0678 13.221 11.0471 13.0526 11.2309C13.0412 11.2164 13.0302 11.2017 13.0196 11.1866ZM13.1813 13.4584C12.9446 13.3219 12.966 13.0223 12.7864 12.8479L12.8149 12.8243C12.8449 12.8558 12.8854 12.8828 12.9049 12.9199C12.9443 12.9956 12.9686 13.0804 13.0088 13.1569C13.0616 13.2581 13.1213 13.3553 13.1813 13.4584Z" fill="#FDD12E"/>
<path fill-rule="evenodd" clip-rule="evenodd" d="M10.4719 10.8532C10.3061 10.8765 10.0485 10.6702 10.0819 10.5555C10.1756 10.6938 10.3039 10.7966 10.4693 10.8551L10.4719 10.8532ZM10.515 13.0635C10.3714 13.2457 10.1816 13.338 10.0834 13.2787C10.2514 13.263 10.3676 13.1478 10.515 13.0635ZM13.776 12.9543C13.9418 12.9735 14.0546 13.0691 14.1394 13.2037C14.1495 13.218 14.1428 13.2438 14.127 13.263C14.1143 13.2337 14.1086 13.1932 14.0869 13.1771C13.9871 13.0983 13.8829 13.0263 13.7805 12.9517L13.776 12.9543ZM10.2113 12.339C10.0913 12.4387 9.95064 12.4481 9.80627 12.4413L9.80064 12.4132C9.93789 12.3896 10.0751 12.3648 10.2128 12.3416L10.2113 12.339ZM10.2038 11.6043C10.0455 11.6178 9.89102 11.6118 9.75977 11.4986C9.90752 11.5342 10.056 11.5698 10.2038 11.6043ZM13.3459 13.5675L13.4996 13.8228C13.488 13.8307 13.476 13.8371 13.464 13.8453C13.4153 13.7582 13.366 13.6713 13.3163 13.5847C13.3268 13.5787 13.3361 13.5723 13.3459 13.5675ZM10.7554 9.96259L10.9024 10.2311C10.893 10.236 10.8825 10.242 10.8724 10.2468C10.8225 10.1595 10.7711 10.0725 10.7209 9.98396C10.7321 9.97759 10.7434 9.96971 10.7554 9.96259Z" fill="#FDD12E"/>
<path fill-rule="evenodd" clip-rule="evenodd" d="M12.3199 12.0225C12.3619 12.036 12.4163 12.0386 12.4406 12.0668C12.4639 12.0945 12.4706 12.1601 12.4534 12.1882C12.4309 12.2209 12.3758 12.2366 12.3334 12.2501C12.2985 12.2602 12.2603 12.2565 12.2235 12.2591C12.2228 12.2704 12.2228 12.2809 12.2228 12.291C12.2835 12.2992 12.3458 12.3034 12.405 12.3199C12.4384 12.33 12.4928 12.3697 12.4905 12.384C12.4796 12.4234 12.4463 12.459 12.4189 12.4931C12.411 12.5014 12.3896 12.4995 12.3754 12.4995C12.201 12.5002 12.0263 12.4995 11.8519 12.501C11.778 12.501 11.7319 12.4586 11.7311 12.3952C11.7311 12.3202 11.7919 12.318 11.8553 12.3202C11.8969 12.3221 11.9408 12.2974 11.9831 12.2846L11.976 12.2531C11.9411 12.2531 11.9044 12.2625 11.8736 12.2509C11.8324 12.2347 11.7851 12.2089 11.7645 12.1733C11.7495 12.1481 11.7619 12.0866 11.7859 12.0645C11.8125 12.0386 11.865 12.0375 11.9093 12.0251L11.8238 12.1639C11.8688 12.1714 11.9138 12.1781 11.9588 12.1845C12.0503 12.2396 12.1403 12.27 12.2408 12.1774C12.2516 12.168 12.2798 12.1789 12.2989 12.1759C12.3338 12.171 12.3686 12.1624 12.4016 12.156C12.3794 12.1276 12.3567 12.0996 12.3334 12.072C12.327 12.0649 12.3158 12.0611 12.3064 12.0563C12.3113 12.0454 12.3158 12.0334 12.3199 12.0225ZM11.9558 12.3637V12.3971H12.2663V12.3637H11.9558ZM11.4559 11.4761C11.5523 11.3134 11.8436 11.3171 11.9621 11.4127C11.9804 11.4262 11.9955 11.4435 12.0064 11.4634C12.0604 11.556 12.0428 11.9089 11.9741 12.0232V11.7904C11.8935 11.8136 11.8241 11.8481 11.7529 11.8504C11.6831 11.8526 11.6123 11.8245 11.5451 11.793C11.6981 11.8012 11.8451 11.8061 11.9685 11.694C11.7863 11.7532 11.6096 11.7825 11.4503 11.6197C11.6074 11.4544 11.7803 11.481 11.961 11.556C11.9479 11.4007 11.8054 11.3786 11.4559 11.4761ZM11.8204 11.6171C11.778 11.5864 11.7488 11.5496 11.7304 11.5556C11.703 11.5635 11.6824 11.5987 11.6595 11.6227C11.6831 11.6426 11.7064 11.6741 11.7304 11.676C11.7536 11.6775 11.7788 11.6467 11.8204 11.6171ZM12.7688 11.6194C12.6075 11.7806 12.4339 11.757 12.2516 11.6936C12.3746 11.8035 12.5209 11.8035 12.7009 11.7686C12.537 11.8965 12.4009 11.85 12.2516 11.781V12.0075L12.2265 12.0124C12.2164 11.9884 12.1999 11.9636 12.198 11.9392C12.1909 11.823 12.1815 11.7052 12.1845 11.589C12.1879 11.4446 12.2393 11.391 12.3836 11.3576C12.5243 11.3254 12.6488 11.3475 12.7748 11.4701C12.657 11.4476 12.5644 11.4169 12.4721 11.4169C12.3851 11.4176 12.2738 11.412 12.2415 11.559C12.4354 11.4836 12.6109 11.4521 12.7688 11.6194ZM12.4605 11.7157L12.5104 11.6891C12.5254 11.664 12.5569 11.6355 12.5531 11.6141C12.5471 11.5905 12.5123 11.5725 12.4898 11.5519C12.4676 11.5762 12.4324 11.5984 12.4275 11.6261C12.423 11.6535 12.4481 11.6861 12.4605 11.7157ZM11.9318 12.699L12.0694 12.6375C12.0709 12.6281 12.0709 12.6176 12.0709 12.6083C12.0045 12.6083 11.9378 12.615 11.8718 12.6067C11.8201 12.5983 11.7715 12.5769 11.7304 12.5445H12.4879C12.4646 12.609 12.4373 12.621 12.3566 12.6109C12.294 12.6045 12.231 12.6101 12.1669 12.6101C12.1676 12.6184 12.1688 12.6281 12.1688 12.6375C12.2059 12.6559 12.2434 12.675 12.294 12.699H11.931" fill="#7B4022"/>
<path fill-rule="evenodd" clip-rule="evenodd" d="M11.9558 12.3645H12.2663V12.3978H11.9558V12.3645ZM11.8204 11.6171C11.7788 11.6463 11.7533 11.6771 11.7304 11.6756C11.7064 11.6737 11.6831 11.6422 11.6595 11.6223C11.6828 11.5987 11.703 11.5631 11.7304 11.5552C11.7488 11.55 11.778 11.5863 11.8204 11.6171ZM12.4613 11.715C12.4489 11.6853 12.4234 11.6527 12.4283 11.6253C12.4331 11.5976 12.4684 11.5755 12.4905 11.5511C12.513 11.5717 12.5479 11.5897 12.5539 11.6133C12.5576 11.6351 12.5261 11.6632 12.5111 11.6883C12.4944 11.6971 12.4778 11.7059 12.4613 11.715Z" fill="#FDD12E"/>
</svg>
