<svg width="24" height="24" viewBox="0 0 24 24" fill="none" xmlns="http://www.w3.org/2000/svg">
<path d="M24 16.125C24 18.4031 22.7351 20.25 20.25 20.25H3.75C1.26488 20.25 0 18.4031 0 16.125V7.875C0 5.59688 1.26488 3.75 3.75 3.75H20.25C22.7351 3.75 24 5.59688 24 7.875V16.125Z" fill="#128807"/>
<path d="M21.4275 12.2962L12.0563 18.8812L2.68463 12.2962L12.0563 5.71124L21.4275 12.2962Z" fill="#F9CB38"/>
<path fill-rule="evenodd" clip-rule="evenodd" d="M15.7537 13.443C15.327 14.8932 13.9916 15.9972 12.4796 16.1472C10.4595 16.3493 8.69212 15.0653 8.26237 13.0804C8.13522 12.4971 8.15144 11.8917 8.30962 11.316C8.3685 11.2523 8.44987 11.2369 8.53087 11.2257C9.12172 11.1436 9.719 11.1176 10.3147 11.148C10.9504 11.184 11.5807 11.2722 12.1935 11.4454C12.8224 11.6235 13.4314 11.856 14.0062 12.165C14.4389 12.3949 14.8521 12.6595 15.2419 12.9563C15.3739 13.0587 15.5085 13.1592 15.6352 13.2683C15.6919 13.317 15.7365 13.3695 15.7537 13.443Z" fill="#002776"/>
<path fill-rule="evenodd" clip-rule="evenodd" d="M8.52148 10.7291C9.00561 9.64727 9.82198 8.92689 10.9504 8.58864C13.2229 7.90727 15.5542 9.40914 15.8921 11.7514C15.9446 12.1133 15.9469 12.4763 15.8914 12.8389C15.834 12.8603 15.7912 12.8299 15.7519 12.7973C15.34 12.4607 14.9006 12.1594 14.4382 11.8965C14.0822 11.6945 13.7123 11.518 13.3312 11.3685C13.2637 11.3419 13.179 11.328 13.1557 11.2376C13.1801 11.1941 13.2109 11.1563 13.2476 11.121C13.2607 11.1075 13.2799 11.0944 13.2622 11.0719C13.2562 11.0648 13.2439 11.0648 13.2334 11.0659C13.2052 11.0689 13.209 11.0884 13.2101 11.109C13.2124 11.1761 13.1734 11.2193 13.122 11.2538C13.0309 11.2744 12.9435 11.247 12.8696 11.2076C12.6581 11.0966 12.4241 11.0588 12.2002 10.9969C11.8511 10.902 11.4926 10.8484 11.1349 10.7925C10.8493 10.7469 10.5619 10.7141 10.2735 10.6943C10.011 10.6759 9.74361 10.6785 9.47923 10.6965C9.19086 10.7168 8.90173 10.737 8.61486 10.7715C8.59687 10.7741 8.57851 10.7715 8.56195 10.764C8.5454 10.7565 8.53135 10.7444 8.52148 10.7291Z" fill="#002776"/>
<path fill-rule="evenodd" clip-rule="evenodd" d="M13.1587 11.2144C13.1572 11.2602 13.1981 11.2542 13.2229 11.2639C14.1912 11.6406 15.0918 12.1726 15.8891 12.8389C15.8661 13.0446 15.8206 13.2472 15.7534 13.443C15.2842 13.0538 14.8039 12.6829 14.2725 12.3799C12.5929 11.4233 10.7944 11.0442 8.87173 11.2474C8.68423 11.2665 8.49673 11.292 8.30923 11.3149C8.35761 11.112 8.41911 10.9129 8.51998 10.7284C9.92361 10.539 11.3029 10.6467 12.6562 11.0655C12.8242 11.1177 12.9844 11.2017 13.1636 11.2174L13.1587 11.2133" fill="#FEFEFE"/>
<path fill-rule="evenodd" clip-rule="evenodd" d="M14.9062 13.6313C14.7934 13.6193 14.916 13.7577 14.802 13.7547C14.7026 13.7532 14.6974 13.6737 14.6486 13.6294C14.6861 13.5904 14.7525 13.5825 14.7735 13.5218C14.7877 13.5859 14.8481 13.5994 14.9062 13.6313Z" fill="#D9DFEA"/>
<path fill-rule="evenodd" clip-rule="evenodd" d="M10.6478 14.325C10.5416 14.3374 10.6305 14.4529 10.5416 14.4548C10.452 14.4566 10.4059 14.3903 10.3879 14.3216C10.3815 14.3021 10.4678 14.2586 10.5101 14.2264C10.5154 14.2943 10.5859 14.2913 10.6478 14.325Z" fill="#E9ECF3"/>
<path fill-rule="evenodd" clip-rule="evenodd" d="M12.0525 14.1161C11.9051 14.2114 12.024 13.9961 11.9374 14.0171C11.9655 13.9721 12.045 13.9826 12.0503 13.9136C12.0878 13.9526 12.1196 13.9976 12.1793 14.0059C12.0941 13.9943 12.1868 14.1833 12.0525 14.1161Z" fill="#EDEFF5"/>
<path fill-rule="evenodd" clip-rule="evenodd" d="M9.00751 11.5894C8.97226 11.6565 8.94564 11.7315 8.83876 11.6865C8.78401 11.6637 8.84251 11.5887 8.77689 11.5815L8.89839 11.4747C8.90664 11.4923 8.91639 11.5092 8.92464 11.5268C8.93439 11.5714 9.02326 11.5122 9.00751 11.5894Z" fill="#F0F2F6"/>
<path fill-rule="evenodd" clip-rule="evenodd" d="M9.34762 13.2188C9.29174 13.2364 9.33187 13.3834 9.21187 13.3193C9.19987 13.3133 9.14737 13.3422 9.15712 13.3253C9.18862 13.2638 9.11812 13.2338 9.12899 13.1847C9.19462 13.2132 9.19087 13.0932 9.25799 13.1254C9.26287 13.1292 9.26286 13.1442 9.26624 13.1539C9.27336 13.2004 9.36412 13.1423 9.34762 13.2188Z" fill="#ECEFF4"/>
<path fill-rule="evenodd" clip-rule="evenodd" d="M8.75776 13.653C8.64263 13.6932 8.72851 13.554 8.66251 13.5552C8.69326 13.5293 8.72776 13.4809 8.75851 13.4828C8.79526 13.4847 8.82901 13.53 8.86276 13.5559C8.81251 13.5728 8.86538 13.7089 8.75776 13.653Z" fill="#D9DFEA"/>
<path fill-rule="evenodd" clip-rule="evenodd" d="M13.2075 14.9801C13.0856 15.0356 13.2041 14.8717 13.1228 14.8931C13.1145 14.8305 13.2161 14.8684 13.2034 14.8024L13.3133 14.8905C13.2686 14.9107 13.3133 15.0382 13.2075 14.9801Z" fill="#D8DEEA"/>
<path fill-rule="evenodd" clip-rule="evenodd" d="M13.9875 14.8898C13.8866 14.9318 13.9485 14.796 13.8941 14.7825C13.9309 14.7589 13.9695 14.7338 14.0055 14.7094C14.0085 14.7649 14.0846 14.7446 14.0929 14.7938C14.0363 14.7971 14.0951 14.9194 13.9875 14.8898ZM14.6888 14.385C14.574 14.4431 14.6588 14.2905 14.5931 14.2969C14.6063 14.2481 14.6816 14.2665 14.6861 14.2103L14.7938 14.2909C14.7281 14.289 14.8088 14.4499 14.6888 14.385Z" fill="#DCE1EC"/>
<path fill-rule="evenodd" clip-rule="evenodd" d="M10.0436 13.6849C9.92363 13.7528 10.002 13.6009 9.9465 13.5979C9.95213 13.542 10.0369 13.566 10.0406 13.5068C10.0519 13.5615 10.1246 13.5458 10.1404 13.5949C10.0688 13.5844 10.1708 13.7565 10.0436 13.6849Z" fill="#D4DAE7"/>
<path fill-rule="evenodd" clip-rule="evenodd" d="M10.53 12.5456C10.4621 12.5411 10.5491 12.4342 10.4659 12.441C10.4801 12.381 10.5443 12.3934 10.5795 12.3622C10.5975 12.4001 10.6485 12.4087 10.6511 12.4631C10.6571 12.5625 10.569 12.5111 10.53 12.5456Z" fill="#F2F4F7"/>
<path fill-rule="evenodd" clip-rule="evenodd" d="M12.5062 13.3377C12.4024 13.3973 12.4571 13.2642 12.4091 13.2495C12.4417 13.2225 12.4732 13.1952 12.5062 13.1674C12.5085 13.2229 12.6146 13.2105 12.5846 13.2533C12.5666 13.2788 12.6247 13.3954 12.5062 13.3377Z" fill="#E6E9F1"/>
<path fill-rule="evenodd" clip-rule="evenodd" d="M12.0412 13.0035C11.9227 13.0155 12.045 12.9079 11.9681 12.9105C11.9981 12.8824 12.027 12.8344 12.0607 12.8314C12.09 12.8284 12.1237 12.876 12.1556 12.9022C12.114 12.9424 12.1204 13.0459 12.0412 13.0035Z" fill="#EAEDF3"/>
<path fill-rule="evenodd" clip-rule="evenodd" d="M14.9183 13.8788C14.9426 13.9433 14.9906 13.9519 15.0281 13.9748C14.9899 14.0179 14.9749 14.0839 14.8954 14.0839C14.814 14.0847 14.8691 14.0228 14.8508 13.9939C14.8054 13.9219 14.973 13.9827 14.9183 13.8788Z" fill="#E4E8F0"/>
<path fill-rule="evenodd" clip-rule="evenodd" d="M14.0692 15.1853C14.0407 15.2276 14.0602 15.2681 13.9845 15.2696C13.8979 15.2711 13.9256 15.2078 13.9219 15.1883C13.9147 15.156 13.9642 15.1253 13.9927 15.1316C14.0175 15.1361 14.0655 15.15 14.0692 15.1853Z" fill="#CED5E4"/>
<path fill-rule="evenodd" clip-rule="evenodd" d="M10.0178 13.9838C9.95588 13.9909 10.0073 14.0719 9.92888 14.0693C9.85725 14.067 9.86775 14.0186 9.85988 13.9894C9.8475 13.9485 9.90788 13.9496 9.92138 13.9189C9.94988 13.9388 9.97875 13.9586 10.0178 13.9838Z" fill="#DAE0EB"/>
<path fill-rule="evenodd" clip-rule="evenodd" d="M13.9012 14.412C13.9279 14.3922 13.9545 14.3738 13.9826 14.355C13.9849 14.3967 14.0745 14.3727 14.0445 14.4259C14.0321 14.4473 14.0625 14.5058 13.9849 14.5005C13.9151 14.4957 13.9316 14.4469 13.9012 14.412Z" fill="#D8DEE9"/>
<path fill-rule="evenodd" clip-rule="evenodd" d="M13.6162 14.5406C13.6027 14.6145 13.5607 14.6265 13.5146 14.6351C13.4362 14.6482 13.4951 14.5894 13.4824 14.5669C13.4494 14.5106 13.5326 14.5215 13.5424 14.4847C13.5641 14.5132 13.614 14.5125 13.6162 14.5406Z" fill="#CBD2E3"/>
<path fill-rule="evenodd" clip-rule="evenodd" d="M13.1775 12.1087C13.1512 12.1211 13.1861 12.1837 13.1299 12.1657C13.0871 12.1511 13.0346 12.1309 13.0384 12.0784C13.0399 12.0581 13.0909 12.0412 13.1194 12.0236C13.1242 12.0615 13.2052 12.0491 13.1775 12.1087Z" fill="#D1D8E6"/>
<path fill-rule="evenodd" clip-rule="evenodd" d="M15.2996 13.7535C15.2291 13.7813 15.261 13.7232 15.2486 13.7063C15.2014 13.6422 15.2948 13.6515 15.2996 13.6133C15.3285 13.6324 15.3848 13.6542 15.3825 13.6707C15.3809 13.6921 15.3716 13.7122 15.3564 13.7274C15.3412 13.7426 15.3211 13.7519 15.2996 13.7535Z" fill="#DADFEA"/>
<path fill-rule="evenodd" clip-rule="evenodd" d="M11.6737 13.1813C11.6737 13.2248 11.7615 13.2075 11.7319 13.2619C11.7199 13.284 11.7454 13.3433 11.6846 13.3309C11.6385 13.3215 11.592 13.2945 11.5905 13.2488C11.5905 13.2274 11.6437 13.2045 11.6737 13.1813Z" fill="#CAD2E2"/>
<path fill-rule="evenodd" clip-rule="evenodd" d="M12.8738 14.538C12.8393 14.5219 12.8378 14.4765 12.84 14.4548C12.8438 14.4259 12.8824 14.3869 12.9154 14.4027C12.9356 14.4124 12.993 14.4068 12.9791 14.4593C12.9664 14.5095 12.9161 14.5167 12.8738 14.538Z" fill="#D0D7E5"/>
<path fill-rule="evenodd" clip-rule="evenodd" d="M14.325 14.472C14.3265 14.4716 14.3528 14.4353 14.3824 14.4345C14.4038 14.4338 14.4255 14.478 14.4484 14.5028C14.4176 14.5114 14.4439 14.568 14.3831 14.5673C14.3284 14.5661 14.3284 14.5414 14.325 14.472Z" fill="#EFF2F6"/>
<path fill-rule="evenodd" clip-rule="evenodd" d="M11.9123 13.5225C11.9021 13.563 11.9021 13.5881 11.8661 13.5874C11.8294 13.5866 11.8114 13.5731 11.8121 13.5356C11.8121 13.506 11.8316 13.4854 11.8538 13.4872C11.8793 13.4891 11.9156 13.4962 11.9123 13.5225Z" fill="#CCD4E3"/>
<path fill-rule="evenodd" clip-rule="evenodd" d="M9.61276 12.939C9.63076 12.9585 9.65139 12.9739 9.65926 12.9938C9.66601 13.0103 9.65551 13.0354 9.63226 13.038C9.60639 13.0403 9.57864 13.0395 9.57039 13.0073C9.56289 12.9758 9.59026 12.9645 9.61276 12.939Z" fill="#E0E5EE"/>
<path fill-rule="evenodd" clip-rule="evenodd" d="M9.34761 13.2188C9.33749 13.1756 9.27074 13.203 9.26624 13.1535C9.28049 13.191 9.39186 13.1074 9.34761 13.2188Z" fill="#7085B1"/>
<path fill-rule="evenodd" clip-rule="evenodd" d="M9.0075 11.5894C8.99925 11.5433 8.92837 11.5797 8.92462 11.5268C8.9445 11.5583 9.045 11.4837 9.0075 11.5894Z" fill="#5C75A7"/>
<path fill-rule="evenodd" clip-rule="evenodd" d="M13.1662 11.2185C13.1734 11.19 13.1962 11.1435 13.1872 11.1349C13.065 11.0261 13.2281 11.0078 13.2525 10.9856C13.2971 10.9425 13.29 11.1244 13.4077 11.0093C13.3444 11.1499 13.2596 11.1904 13.1621 11.2144L13.1662 11.2185Z" fill="#E7EAF2"/>
<path fill-rule="evenodd" clip-rule="evenodd" d="M9.55164 11.1019C9.43239 11.0902 9.53851 10.935 9.51264 10.845C9.48039 10.7287 9.56514 10.7302 9.64764 10.7299C9.77551 10.7291 9.84789 10.7831 9.84789 10.9181C9.84751 11.0509 9.78601 11.1034 9.55164 11.1019Z" fill="#15A24A"/>
<path fill-rule="evenodd" clip-rule="evenodd" d="M14.1079 11.8511C14.0816 11.9314 13.9845 11.9816 13.968 12.0806C13.9665 12.0938 13.929 12.0911 13.9219 12.0529C13.8919 11.8736 13.8904 11.874 13.758 11.97C13.7475 11.9779 13.7291 11.985 13.719 11.9816C13.6995 11.973 13.6916 11.9535 13.7032 11.9314C13.7471 11.8459 13.7884 11.7581 13.8375 11.6753C13.8705 11.6205 13.9106 11.6663 13.9429 11.682C14.0137 11.7169 14.1011 11.7368 14.1079 11.8511Z" fill="#13A248"/>
<path fill-rule="evenodd" clip-rule="evenodd" d="M14.4435 12.1429C14.3745 12.1706 14.3411 12.1185 14.2969 12.0997C14.2669 12.087 14.2388 12.075 14.2185 12.1084C14.1964 12.1436 14.2185 12.1639 14.2489 12.1796C14.2721 12.1913 14.2969 12.2003 14.3141 12.2186C14.3445 12.2505 14.4398 12.2419 14.4011 12.3098C14.3708 12.3638 14.3198 12.3008 14.286 12.2809C14.2279 12.2453 14.1128 12.2258 14.1251 12.1639C14.1443 12.0645 14.2009 11.9565 14.2763 11.8882C14.3366 11.8335 14.4034 11.937 14.4713 11.9629C14.5005 11.9737 14.5504 11.9835 14.5418 12.0296C14.5335 12.0772 14.4983 12.0495 14.4713 12.0431C14.4079 12.0285 14.3464 11.9213 14.2965 11.9955C14.2665 12.0398 14.3899 12.0581 14.4289 12.1069C14.4349 12.114 14.4364 12.1238 14.4435 12.1429ZM15.2516 12.6731C15.2629 12.7609 15.2273 12.8205 15.1354 12.8055C15.0401 12.7897 14.9678 12.7316 14.9513 12.6274C14.9498 12.6169 14.9625 12.5955 14.973 12.5925C14.979 12.5905 14.9855 12.5899 14.9918 12.5906C14.9981 12.5914 15.0041 12.5935 15.0095 12.5969C15.0149 12.6003 15.0195 12.6048 15.023 12.6101C15.0265 12.6154 15.0287 12.6215 15.0296 12.6277C15.0416 12.6994 15.0791 12.7312 15.1545 12.7327C15.1691 12.6154 14.9573 12.5618 15.0791 12.4399C15.1403 12.3788 15.2149 12.4294 15.2681 12.4785C15.3173 12.5231 15.3773 12.5722 15.2876 12.636C15.2749 12.6292 15.2576 12.6184 15.2483 12.6259C15.2291 12.6386 15.2479 12.657 15.2516 12.6731Z" fill="#11A147"/>
<path fill-rule="evenodd" clip-rule="evenodd" d="M12.6615 11.5564C12.6169 11.5312 12.6191 11.5072 12.6262 11.481C12.6405 11.4251 12.6116 11.3959 12.5606 11.3801C12.5096 11.3636 12.4702 11.3659 12.4564 11.4296C12.4515 11.4581 12.4365 11.478 12.4054 11.4675C12.3694 11.4544 12.3874 11.4251 12.3941 11.4037C12.4084 11.3546 12.4211 11.3051 12.4436 11.2582C12.4639 11.2114 12.4496 11.1255 12.5235 11.1311C12.6019 11.1367 12.6866 11.1555 12.7462 11.2204C12.7729 11.2489 12.7837 11.298 12.762 11.3194C12.6986 11.3846 12.7039 11.4769 12.6615 11.5564Z" fill="#0FA046"/>
<path fill-rule="evenodd" clip-rule="evenodd" d="M10.3474 11.079C10.2262 11.1248 10.1306 11.0981 10.0372 11.1C9.99487 11.1011 9.99112 11.0693 9.99112 11.037C9.99412 11.0014 9.99412 10.9654 9.99412 10.9298C9.99862 10.7321 10.0687 10.6815 10.263 10.7366C10.2847 10.7426 10.3054 10.7464 10.3069 10.7708C10.3069 10.8045 10.2825 10.8105 10.2525 10.8098C10.2484 10.809 10.2435 10.8079 10.2382 10.8086C10.1801 10.8229 10.0759 10.7573 10.074 10.8443C10.0717 10.911 10.1854 10.8638 10.2435 10.8863C10.2517 10.8896 10.2607 10.8971 10.2735 10.9065C10.2367 10.9729 10.1756 10.9358 10.1284 10.9436C10.1002 10.9481 10.0635 10.9358 10.0594 10.9815C10.0541 11.0355 10.0916 11.0329 10.1284 11.0366C10.191 11.0441 10.2589 11.0205 10.3474 11.079Z" fill="#0B9F43"/>
<path fill-rule="evenodd" clip-rule="evenodd" d="M9.35174 11.1075C9.28649 11.0932 9.29549 11.0557 9.28424 11.0295C9.26474 10.9811 9.22612 10.9811 9.18374 10.9845C9.13537 10.989 9.10912 11.0077 9.11324 11.0614C9.11624 11.0876 9.12674 11.13 9.07799 11.124C9.03599 11.1187 9.04799 11.0779 9.04574 11.0501C9.04199 11.0047 9.03749 10.9582 9.04199 10.9132C9.04799 10.863 8.99999 10.7861 9.07237 10.7681C9.14699 10.7486 9.23324 10.7347 9.31087 10.7719C9.34462 10.788 9.37124 10.8274 9.35887 10.8592C9.33037 10.9395 9.35287 11.0209 9.35174 11.1075Z" fill="#079D3F"/>
<path fill-rule="evenodd" clip-rule="evenodd" d="M8.56012 10.98C8.57212 10.8784 8.61674 10.7959 8.72812 10.7996C8.83499 10.803 8.89199 10.8772 8.89199 10.9841C8.89199 11.0902 8.84249 11.1634 8.72962 11.1626C8.61487 11.1619 8.57587 11.0786 8.56012 10.98Z" fill="#15A24A"/>
<path fill-rule="evenodd" clip-rule="evenodd" d="M15.699 12.885C15.6885 12.9859 15.6386 13.062 15.5235 13.0721C15.4174 13.0808 15.3611 13.02 15.3529 12.9203C15.3435 12.8194 15.4425 12.723 15.5434 12.7238C15.6319 12.7245 15.6968 12.7886 15.699 12.885Z" fill="#11A147"/>
<path fill-rule="evenodd" clip-rule="evenodd" d="M13.5938 11.7113C13.6785 11.7795 13.5758 11.8245 13.572 11.8819C13.5015 11.8493 13.4134 11.8624 13.3564 11.8005C13.2956 11.7345 13.3069 11.6599 13.3466 11.5872C13.3905 11.5103 13.458 11.4773 13.5409 11.5065C13.6166 11.5335 13.6733 11.5845 13.6365 11.6805C13.5784 11.691 13.5308 11.6145 13.449 11.6659C13.5034 11.691 13.5686 11.6562 13.5938 11.7113Z" fill="#0C9F43"/>
<path fill-rule="evenodd" clip-rule="evenodd" d="M11.5537 10.9388C11.5042 10.9969 11.4679 10.9744 11.4337 10.9751C11.4007 10.9751 11.3655 10.9478 11.3246 10.9819C11.3614 11.0419 11.4502 11.0033 11.4847 11.0629C11.4799 11.0715 11.4776 11.0831 11.4712 11.0891C11.4217 11.1281 11.3426 11.0336 11.3119 11.1116C11.2837 11.1788 11.3576 11.1555 11.3895 11.1668C11.4255 11.181 11.4701 11.1758 11.5136 11.2245C11.4127 11.2688 11.2924 11.2481 11.2507 11.1994C11.1851 11.1225 11.2312 10.986 11.2811 10.9178C11.34 10.8371 11.4476 10.9159 11.5537 10.9388Z" fill="#19A44D"/>
<path fill-rule="evenodd" clip-rule="evenodd" d="M12.1931 11.265C12.108 11.256 12.0112 11.196 11.9869 11.3363C11.9861 11.3408 11.9565 11.3471 11.9475 11.3411C11.9374 11.3355 11.9317 11.3145 11.9336 11.3025C11.9557 11.2136 11.967 11.1184 12.0064 11.0385C12.0521 10.9485 12.1297 11.0246 12.1939 11.0333C12.2704 11.0434 12.3127 11.0899 12.3045 11.1705C12.297 11.2399 12.2445 11.2586 12.1931 11.265Z" fill="#0D9F44"/>
<path fill-rule="evenodd" clip-rule="evenodd" d="M13.2075 11.4799C13.1992 11.5928 13.1437 11.6708 13.0309 11.6741C12.93 11.6779 12.8734 11.607 12.8756 11.5065C12.8786 11.3978 12.9315 11.319 13.0489 11.3156C13.1565 11.3119 13.1981 11.3843 13.2075 11.4799Z" fill="#0FA046"/>
<path fill-rule="evenodd" clip-rule="evenodd" d="M10.6796 11.0726C10.6672 11.0992 10.6571 11.1371 10.6215 11.1285C10.5596 11.1139 10.5874 11.0542 10.5724 11.0152C10.5266 10.9706 10.5386 11.0321 10.5244 11.0434C10.5191 11.0711 10.5319 11.1135 10.4944 11.1191C10.4482 11.1247 10.4591 11.0805 10.4602 11.0542C10.464 10.9995 10.4647 10.9421 10.4797 10.8896C10.4929 10.8446 10.4452 10.7617 10.5349 10.761C10.614 10.7606 10.5967 10.8412 10.6069 10.8896C10.6174 10.9451 10.623 10.9687 10.6684 10.9136C10.7152 10.9012 10.725 10.9354 10.7359 10.9684C10.7419 11.0164 10.7205 11.0497 10.6796 11.0726Z" fill="#0EA044"/>
<path fill-rule="evenodd" clip-rule="evenodd" d="M14.6737 12.45C14.7015 12.45 14.7296 12.4868 14.7566 12.4553C14.7772 12.4316 14.7589 12.4084 14.7405 12.3893C14.727 12.3746 14.7127 12.3608 14.7 12.345C14.6617 12.2989 14.6081 12.2546 14.661 12.1879C14.709 12.1268 14.7649 12.1418 14.8204 12.1804C14.8305 12.1999 14.8271 12.2186 14.8166 12.2363C14.7757 12.3004 14.8519 12.3394 14.8504 12.3941C14.862 12.4455 14.8695 12.4973 14.8129 12.5269C14.7424 12.5644 14.688 12.5299 14.6362 12.4849C14.6306 12.4553 14.6415 12.4406 14.6737 12.45Z" fill="#10A146"/>
<path fill-rule="evenodd" clip-rule="evenodd" d="M13.5938 11.7112C13.5649 11.7315 13.5068 11.6659 13.5086 11.7154C13.5124 11.8031 13.4685 11.7952 13.4276 11.7694C13.3725 11.7352 13.3695 11.6767 13.4044 11.6227C13.4381 11.5699 13.4858 11.5391 13.5435 11.5822C13.5788 11.6081 13.6054 11.6471 13.6358 11.6805L13.5938 11.7112Z" fill="#ECF7F0"/>
<path fill-rule="evenodd" clip-rule="evenodd" d="M10.7044 10.9838C10.6934 10.9606 10.6814 10.938 10.6684 10.9159C10.6815 10.8825 10.6935 10.8488 10.7092 10.8165C10.7235 10.7862 10.7482 10.7693 10.7831 10.7805C10.8221 10.7937 10.8191 10.8237 10.8169 10.8552C10.8086 10.947 10.8011 11.0385 10.794 11.1304C10.7392 11.1653 10.7254 11.1334 10.7164 11.0862C10.7096 11.052 10.7272 11.0153 10.7044 10.9838Z" fill="#17A34C"/>
<path fill-rule="evenodd" clip-rule="evenodd" d="M14.8515 12.3938C14.8177 12.3593 14.7817 12.3266 14.7502 12.2899C14.7135 12.2464 14.7277 12.2198 14.7825 12.2126C14.8616 12.2303 14.91 12.2685 14.8867 12.3593C14.8759 12.3705 14.8639 12.3825 14.8515 12.3938Z" fill="#D7EFE0"/>
<path fill-rule="evenodd" clip-rule="evenodd" d="M14.8868 12.3592C14.8504 12.312 14.8406 12.2445 14.7825 12.2126L14.8215 12.18C14.8845 12.2246 14.9996 12.2501 14.8868 12.3592Z" fill="#2BAB5B"/>
<path fill-rule="evenodd" clip-rule="evenodd" d="M15.2516 12.6731C15.2467 12.6701 15.2404 12.6686 15.2381 12.6645C15.2081 12.609 15.1087 12.5591 15.1425 12.51C15.1849 12.4507 15.2291 12.5209 15.2524 12.5715C15.2629 12.5929 15.2756 12.6139 15.2876 12.636C15.2752 12.6484 15.2629 12.6607 15.2516 12.6731Z" fill="#E6F5EC"/>
<path fill-rule="evenodd" clip-rule="evenodd" d="M14.6738 12.45C14.6618 12.4617 14.6501 12.4737 14.6363 12.4853C14.6205 12.474 14.5988 12.4662 14.5886 12.45C14.5695 12.4137 14.5148 12.3653 14.5781 12.3368C14.6314 12.3113 14.6314 12.3792 14.6486 12.4122C14.6558 12.426 14.6648 12.4377 14.6738 12.45Z" fill="#29AA59"/>
<path fill-rule="evenodd" clip-rule="evenodd" d="M10.7044 10.9838C10.7591 11.0051 10.7303 11.0509 10.731 11.085C10.734 11.1319 10.7505 11.1476 10.7944 11.1311C10.7029 11.2196 10.7145 11.1015 10.6793 11.0753C10.6886 11.0441 10.6958 11.0138 10.7044 10.9838Z" fill="#DDF1E4"/>
<path fill-rule="evenodd" clip-rule="evenodd" d="M10.5225 11.0438V10.923C10.5742 10.9395 10.5757 10.9759 10.5705 11.0157C10.5547 11.025 10.5382 11.034 10.5225 11.0438Z" fill="#6FC690"/>
<path fill-rule="evenodd" clip-rule="evenodd" d="M9.58801 10.92C9.59326 10.8653 9.56701 10.794 9.66039 10.8C9.72864 10.8042 9.77814 10.8315 9.78189 10.9095C9.78564 10.9935 9.73651 11.0277 9.65889 11.0333C9.56026 11.0412 9.60039 10.9635 9.58801 10.92Z" fill="#F5FBF7"/>
<path fill-rule="evenodd" clip-rule="evenodd" d="M13.9125 11.745C13.9515 11.7664 14.0111 11.7705 14.0239 11.8283C14.0303 11.8583 14.0044 11.8781 13.9778 11.8695C13.9283 11.8545 13.8626 11.8538 13.8559 11.784C13.854 11.7638 13.8758 11.7383 13.9125 11.745Z" fill="#EFF8F3"/>
<path fill-rule="evenodd" clip-rule="evenodd" d="M12.6964 11.2838C12.6862 11.3228 12.6589 11.3363 12.6274 11.3247C12.585 11.3093 12.5167 11.3262 12.516 11.2519C12.5145 11.2133 12.5407 11.2017 12.576 11.2133C12.6225 11.2283 12.6787 11.2264 12.6964 11.2838Z" fill="#DEF2E5"/>
<path fill-rule="evenodd" clip-rule="evenodd" d="M9.19312 10.8221C9.22987 10.8266 9.288 10.8071 9.28425 10.8698C9.2805 10.9245 9.225 10.9159 9.18525 10.9166C9.15337 10.9178 9.10762 10.9343 9.10462 10.8769C9.10237 10.8086 9.15562 10.83 9.19312 10.8221Z" fill="#F3FAF5"/>
<path fill-rule="evenodd" clip-rule="evenodd" d="M8.71874 10.8743C8.78661 10.8788 8.82036 10.9193 8.82299 10.983C8.82674 11.04 8.79861 11.0888 8.74011 11.094C8.67261 11.1004 8.64224 11.049 8.63849 10.9864C8.63474 10.9286 8.65724 10.8866 8.71874 10.8743Z" fill="#F3FAF6"/>
<path fill-rule="evenodd" clip-rule="evenodd" d="M15.6244 12.8982C15.6146 12.9604 15.5771 13.0043 15.5047 13.0043C15.4466 13.0035 15.4249 12.9612 15.4309 12.9098C15.4365 12.84 15.4781 12.795 15.549 12.7962C15.6049 12.7977 15.6266 12.8378 15.6244 12.8982Z" fill="#F9FCFA"/>
<path fill-rule="evenodd" clip-rule="evenodd" d="M12.105 11.0805C12.1429 11.1038 12.219 11.0798 12.2299 11.1548C12.2332 11.1833 12.2017 11.1979 12.1766 11.1923C12.1275 11.1814 12.0589 11.199 12.0529 11.1199C12.0517 11.0955 12.0626 11.0693 12.105 11.0805Z" fill="#E7F5EC"/>
<path fill-rule="evenodd" clip-rule="evenodd" d="M13.1325 11.4889C13.1254 11.5538 13.0935 11.5992 13.0279 11.5992C12.9634 11.5999 12.9405 11.5549 12.9435 11.4957C12.9487 11.4304 12.9859 11.3869 13.0492 11.3843C13.1122 11.382 13.1325 11.4323 13.1325 11.4889Z" fill="#F5FBF7"/>
</svg>
