<svg width="24" height="24" viewBox="0 0 24 24" fill="none" xmlns="http://www.w3.org/2000/svg">
<path d="M9.75 6.65997V7.92747H23.9869C23.967 7.51872 23.9242 7.00197 23.7712 6.65997" fill="#EC1C24"/>
<path d="M23.1 5.39252H9.75V6.66002H23.7712C23.619 6.18714 23.3925 5.75589 23.1 5.39252Z" fill="#E6E7E8"/>
<path d="M20.25 4.125H9.75V5.3925H23.1C22.4741 4.60875 21.444 4.125 20.25 4.125Z" fill="#EC1C24"/>
<path d="M23.9869 7.92749H9.75V9.19499H24V8.35012C24 8.27474 23.9951 8.20124 23.9929 8.12737C23.9914 8.10712 23.9891 8.05499 23.9869 7.92749Z" fill="#E6E7E8"/>
<path d="M9.75 10.4625H24V9.19501H9.75V10.4625Z" fill="#EC1C24"/>
<path d="M9.75 11.73H24V10.4625H9.75V11.73Z" fill="#E6E7E8"/>
<path d="M9.75 11.73H24V12.9975H9.75V11.73Z" fill="#EC1C24"/>
<path d="M0 12.9975V14.265H24V12.9975H9.75H0Z" fill="#E6E7E8"/>
<path d="M0 14.265H24V15.5325H0V14.265Z" fill="#EC1C24"/>
<path d="M0.001875 16.3121C0.001875 16.3121 -0.0015 16.6192 0.0075 16.8H23.9925C24.003 16.6147 23.9981 16.3121 23.9981 16.3121L24 15.5325H0L0.001875 16.3121Z" fill="#E6E7E8"/>
<path d="M3.75 20.625H20.25C21.4474 20.625 22.4426 20.19 23.1225 19.335H0.873749C1.57575 20.2088 2.58975 20.625 3.74812 20.625" fill="#EC1C24"/>
<path d="M0.875618 19.335H23.1244C23.421 18.9581 23.6425 18.5279 23.7769 18.0675H0.226868C0.363779 18.5265 0.58436 18.9562 0.877493 19.335" fill="#E6E7E8"/>
<path d="M0.225007 18.0675H23.775C23.8978 17.6552 23.9708 17.2297 23.9925 16.8H0.00750732C0.0446323 17.2335 0.0791323 17.5609 0.225007 18.0675Z" fill="#EC1C24"/>
<path d="M9.75 4.125H3.75C1.26488 4.125 0 5.97187 0 8.25V12.9975H9.75V4.125Z" fill="#176496"/>
<path d="M1.04924 6.36598L1.25324 6.20923L1.45687 6.36598L1.37774 6.11398L1.58062 5.95985H1.33012L1.25249 5.70673L1.17524 5.95985H0.925118L1.12874 6.11398L1.04924 6.36598ZM2.39699 6.36598L2.60099 6.20923L2.80462 6.36598L2.72587 6.11398L2.92837 5.95985H2.67824L2.60062 5.70673L2.52337 5.95985H2.27249L2.47612 6.11398L2.39699 6.36598ZM3.88387 6.36598L4.08749 6.20923L4.29149 6.36598L4.21237 6.11398L4.41487 5.95985H4.16624L4.08749 5.70673L4.00987 5.95985H3.76124L3.96262 6.11398L3.88387 6.36598ZM5.35987 6.36598L5.56349 6.20923L5.76749 6.36598L5.68874 6.11398L5.89124 5.95985H5.63999L5.56349 5.70673L5.48624 5.95985H5.23574L5.43899 6.11398L5.35987 6.36598ZM6.84112 6.36598L7.04512 6.20923L7.24874 6.36598L7.16999 6.11398L7.37287 5.95985H7.12199L7.04474 5.70673L6.96749 5.95985H6.71737L6.91987 6.11398L6.84112 6.36598ZM1.76662 7.0241L1.97024 6.86773L2.17387 7.0241L2.09549 6.77248L2.29799 6.61835H2.04749L1.96987 6.3656L1.89374 6.61835H1.64249L1.84537 6.77248L1.76662 7.0241ZM3.11474 7.0241L3.31837 6.86773L3.52199 7.0241L3.44324 6.77248L3.64574 6.61835H3.39374L3.31837 6.3656L3.24074 6.61835H2.99062L3.19349 6.77248L3.11474 7.0241ZM4.60162 7.0241L4.80487 6.86773L5.00849 7.0241L4.92974 6.77248L5.13262 6.61835H4.88249L4.80487 6.3656L4.72724 6.61835H4.47674L4.67962 6.77248L4.60162 7.0241ZM6.07687 7.0241L6.28087 6.86773L6.48487 7.0241L6.40499 6.77248L6.60824 6.61835H6.35812L6.28049 6.3656L6.20362 6.61835H5.95312L6.15599 6.77248L6.07687 7.0241ZM7.55999 7.0241L7.76212 6.86773L7.96574 7.0241L7.88624 6.77248L8.08949 6.61835H7.83974L7.76174 6.3656L7.68487 6.61835H7.43437L7.63724 6.77248L7.55999 7.0241ZM8.39512 6.36598L8.59874 6.20923L8.80274 6.36598L8.72362 6.11398L8.92612 5.95985H8.67749L8.59837 5.70673L8.52112 5.95985H8.26874L8.47387 6.11398L8.39512 6.36598ZM1.02937 11.6325L1.23337 11.4776L1.43699 11.6325L1.35824 11.3827L1.56074 11.2282L1.31062 11.229L1.23262 10.9762L1.15612 11.229L0.905243 11.2282L1.10812 11.3827L1.02937 11.6325ZM2.37749 11.6325L2.58112 11.4776L2.78512 11.6325L2.70599 11.3827L2.90849 11.2282L2.65874 11.229L2.58074 10.9762L2.50387 11.229L2.25374 11.2282L2.45624 11.3827L2.37749 11.6325ZM3.86437 11.6325L4.06799 11.4776L4.27199 11.6325L4.19287 11.3827L4.39537 11.2282L4.14374 11.229L4.06762 10.9762L3.99037 11.229L3.74024 11.2282L3.94312 11.3827L3.86437 11.6325ZM5.34037 11.6325L5.54399 11.4776L5.74762 11.6325L5.66999 11.3827L5.87137 11.2282L5.62087 11.229L5.54362 10.9762L5.46637 11.229L5.21624 11.2282L5.41874 11.3827L5.34037 11.6325ZM6.82124 11.6325L7.02524 11.4776L7.22924 11.6325L7.15124 11.3827L7.35262 11.2282L7.10249 11.229L7.02487 10.9762L6.94799 11.229L6.69749 11.2282L6.89999 11.3827L6.82124 11.6325ZM8.37524 11.6325L8.57887 11.4776L8.78287 11.6325L8.70374 11.3827L8.90662 11.2282L8.65499 11.229L8.57849 10.9762L8.50124 11.229L8.24999 11.2282L8.45399 11.3827L8.37524 11.6325ZM1.04924 7.68298L1.25324 7.52623L1.45687 7.68298L1.37774 7.43098L1.58062 7.27685L1.33012 7.2776L1.25249 7.0241L1.17524 7.2776L0.925118 7.27685L1.12874 7.43098L1.04924 7.68298ZM2.39699 7.68298L2.60099 7.52623L2.80462 7.68298L2.72587 7.43098L2.92837 7.27685L2.67824 7.2776L2.60062 7.0241L2.52337 7.2776L2.27249 7.27685L2.47612 7.43098L2.39699 7.68298ZM3.88387 7.68298L4.08749 7.52623L4.29149 7.68298L4.21237 7.43098L4.41487 7.27685L4.16624 7.2776L4.08749 7.0241L4.00987 7.2776L3.76124 7.27685L3.96262 7.43098L3.88387 7.68298ZM5.35987 7.68298L5.56349 7.52623L5.76749 7.68298L5.68874 7.43098L5.89124 7.27685L5.63999 7.2776L5.56349 7.0241L5.48624 7.2776L5.23574 7.27685L5.43899 7.43098L5.35987 7.68298ZM6.84112 7.68298L7.04512 7.52623L7.24874 7.68298L7.16999 7.43098L7.37287 7.27685L7.12199 7.2776L7.04474 7.0241L6.96749 7.2776L6.71737 7.27685L6.91987 7.43098L6.84112 7.68298ZM1.76662 8.34148L1.97024 8.1851L2.17387 8.34148L2.09549 8.08985L2.29799 7.93498H2.04749L1.96987 7.68298L1.89374 7.93498H1.64249L1.84537 8.08985L1.76662 8.34148ZM3.11474 8.34148L3.31837 8.1851L3.52199 8.34148L3.44324 8.08985L3.64574 7.93498H3.39374L3.31837 7.68298L3.24074 7.93498H2.99062L3.19349 8.08985L3.11474 8.34148ZM4.60162 8.34148L4.80487 8.1851L5.00849 8.34148L4.92974 8.08985L5.13262 7.93498H4.88249L4.80487 7.68298L4.72724 7.93498H4.47674L4.67962 8.08985L4.60162 8.34148ZM6.07687 8.34148L6.28087 8.1851L6.48487 8.34148L6.40499 8.08985L6.60824 7.93498H6.35812L6.28049 7.68298L6.20362 7.93498H5.95312L6.15599 8.08985L6.07687 8.34148ZM7.55999 8.34148L7.76212 8.1851L7.96574 8.34148L7.88624 8.08985L8.08949 7.93498H7.83974L7.76174 7.68298L7.68487 7.93498H7.43437L7.63724 8.08985L7.55999 8.34148ZM8.39512 7.68298L8.59874 7.52623L8.80274 7.68298L8.72362 7.43098L8.92612 7.27685L8.67749 7.2776L8.59837 7.0241L8.52112 7.2776L8.26874 7.27685L8.47387 7.43098L8.39512 7.68298ZM1.02937 8.99998L1.23337 8.8436L1.43699 8.99998L1.35787 8.74873L1.56074 8.59423L1.31024 8.59498L1.23262 8.34148L1.15612 8.59498L0.905243 8.59423L1.10812 8.74873L1.02937 8.99998ZM2.37749 8.99998L2.58112 8.8436L2.78512 8.99998L2.70599 8.74873L2.90849 8.59423L2.65874 8.59498L2.58074 8.34148L2.50387 8.59498L2.25374 8.59423L2.45587 8.74873L2.37749 8.99998ZM3.86437 8.99998L4.06799 8.8436L4.27162 8.99998L4.19287 8.74873L4.39537 8.59423L4.14374 8.59498L4.06762 8.34148L3.99037 8.59498L3.74024 8.59423L3.94312 8.74873L3.86437 8.99998ZM5.34037 8.99998L5.54362 8.8436L5.74762 8.99998L5.66999 8.74873L5.87137 8.59423L5.62087 8.59498L5.54362 8.34148L5.46637 8.59498L5.21624 8.59423L5.41874 8.74873L5.34037 8.99998ZM6.82124 8.99998L7.02524 8.8436L7.22887 8.99998L7.15124 8.74873L7.35262 8.59423L7.10212 8.59498L7.02487 8.34148L6.94799 8.59498L6.69749 8.59423L6.89999 8.74873L6.82124 8.99998ZM1.74674 9.65848L1.95037 9.50248L2.15399 9.65848L2.07562 9.40873L2.27774 9.25348H2.02724L1.94999 8.99998L1.87312 9.25348H1.62262L1.82549 9.40873L1.74674 9.65848ZM3.09487 9.65848L3.29849 9.50248L3.50212 9.65848L3.42337 9.40873L3.62587 9.25348H3.37499L3.29812 8.99998L3.22087 9.25348H2.97037L3.17362 9.40873L3.09487 9.65848ZM4.58212 9.65848L4.78499 9.50248L4.98899 9.65848L4.90874 9.40873L5.11274 9.25348H4.86262L4.78499 8.99998L4.70774 9.25348H4.45724L4.66012 9.40873L4.58212 9.65848ZM6.05624 9.65848L6.26099 9.50248L6.46499 9.65848L6.38624 9.40873L6.58837 9.25348H6.33824L6.26062 8.99998L6.18374 9.25348H5.93324L6.13612 9.40873L6.05624 9.65848ZM7.53749 9.65848L7.74224 9.50248L7.94624 9.65848L7.86712 9.40873L8.07037 9.25348H7.82024L7.74224 8.99998L7.66499 9.25348H7.41449L7.61737 9.40873L7.53749 9.65848ZM8.37524 8.99998L8.57887 8.8436L8.78249 8.99998L8.70374 8.74873L8.90662 8.59423L8.65499 8.59498L8.57849 8.34148L8.50124 8.59498L8.24999 8.59423L8.45399 8.74873L8.37524 8.99998ZM1.02937 10.3174L1.23337 10.1625L1.43699 10.3174L1.35787 10.0657L1.56074 9.91123L1.31024 9.91198L1.23262 9.65848L1.15612 9.91198L0.905243 9.91123L1.10812 10.0657L1.02937 10.3174ZM2.37749 10.3174L2.58112 10.1625L2.78512 10.3174L2.70599 10.0657L2.90849 9.91123L2.65874 9.91198L2.58074 9.65848L2.50387 9.91198L2.25374 9.91123L2.45587 10.0657L2.37749 10.3174ZM3.86437 10.3174L4.06799 10.1625L4.27162 10.3174L4.19287 10.0657L4.39537 9.91123L4.14374 9.91198L4.06762 9.65848L3.99037 9.91198L3.74024 9.91123L3.94312 10.0657L3.86437 10.3174ZM5.34037 10.3174L5.54362 10.1625L5.74762 10.3174L5.66999 10.0657L5.87137 9.91123L5.62087 9.91198L5.54362 9.65848L5.46637 9.91198L5.21624 9.91123L5.41874 10.0657L5.34037 10.3174ZM6.82124 10.3174L7.02524 10.1625L7.22887 10.3174L7.15124 10.0657L7.35262 9.91123L7.10212 9.91198L7.02487 9.65848L6.94799 9.91198L6.69749 9.91123L6.89999 10.0657L6.82124 10.3174ZM1.74674 10.9762L1.95037 10.8195L2.15399 10.9762L2.07562 10.7242L2.27774 10.5712H2.02724L1.94999 10.3174L1.87312 10.5712H1.62262L1.82549 10.7242L1.74674 10.9762ZM3.09487 10.9762L3.29849 10.8195L3.50212 10.9762L3.42337 10.7242L3.62587 10.5712H3.37499L3.29812 10.3174L3.22087 10.5712H2.97037L3.17362 10.7242L3.09487 10.9762ZM4.58212 10.9762L4.78499 10.8195L4.98899 10.9762L4.90874 10.7242L5.11274 10.5712H4.86262L4.78499 10.3174L4.70774 10.5712H4.45724L4.66012 10.7242L4.58212 10.9762ZM6.05624 10.9762L6.26099 10.8195L6.46499 10.9762L6.38624 10.7242L6.58837 10.5712H6.33824L6.26062 10.3174L6.18374 10.5712H5.93324L6.13612 10.7242L6.05624 10.9762ZM7.53749 10.9762L7.74224 10.8195L7.94624 10.9762L7.86712 10.7242L8.07037 10.5712H7.82024L7.74224 10.3174L7.66499 10.5712H7.41449L7.61737 10.7242L7.53749 10.9762ZM8.37524 10.3174L8.57887 10.1625L8.78249 10.3174L8.70374 10.0657L8.90662 9.91123L8.65499 9.91198L8.57849 9.65848L8.50124 9.91198L8.24999 9.91123L8.45399 10.0657L8.37524 10.3174Z" fill="white"/>
</svg>
